<?xml version="1.0" encoding="UTF-8"?>
<svg id="_图层_1" data-name="图层 1" xmlns="http://www.w3.org/2000/svg" viewBox="0 0 256 256">
  <defs>
    <style>
      .cls-1 {
        fill: #f4f4f4;
      }

      .cls-2 {
        fill: none;
        stroke: #a2ecfb;
        stroke-linecap: round;
        stroke-width: 5.43px;
      }

      .cls-3 {
        fill-rule: evenodd;
      }

      .cls-3, .cls-4 {
        fill: #a2ecfb;
      }

      .cls-5 {
        fill: #2f3242;
      }
    </style>
  </defs>
  <rect class="cls-1" x="0" y="0" width="256" height="256" rx="50" ry="50"/>
  <g>
    <circle class="cls-5" cx="128" cy="128" r="96.45"/>
    <path class="cls-4" d="M109,91.08c1.47,.27,2.89-.71,3.16-2.18,.27-1.47-.71-2.89-2.18-3.16l-.97,5.34Zm-34.33,6.14l2.35,1.35h0l-2.35-1.35Zm.49,26.16c.74,1.3,2.4,1.75,3.7,1.01,1.3-.74,1.75-2.4,1.01-3.7l-4.71,2.7Zm13.19,8.76c-1.01-1.11-2.72-1.19-3.83-.18-1.11,1.01-1.19,2.72-.18,3.83l4.02-3.65Zm24.2,22.54l-1.36,2.35,1.36-2.35Zm65.06,11.78c1.24-.84,1.56-2.53,.71-3.77-.84-1.24-2.53-1.56-3.77-.71l3.06,4.48ZM109.98,85.75c-8.39-1.53-16.21-1.6-22.71-.04-6.51,1.57-11.89,4.85-14.95,10.16l4.7,2.71c2.1-3.65,5.98-6.25,11.52-7.59,5.55-1.34,12.56-1.34,20.46,.1l.97-5.34Zm-37.65,10.12c-4.54,7.88-2.68,17.88,2.84,27.52l4.71-2.7c-5.13-8.97-5.96-16.71-2.85-22.11l-4.7-2.71Zm12.02,39.92c6.95,7.65,16.1,15.02,26.85,21.24l2.72-4.7c-10.31-5.96-19.02-13-25.55-20.19l-4.02,3.65Zm26.85,21.24c12.8,7.4,25.92,12.03,37.5,13.72,11.49,1.67,21.91,.49,28.91-4.29l-3.06-4.48c-5.37,3.67-14.17,4.98-25.07,3.4-10.81-1.57-23.27-5.93-35.57-13.04l-2.72,4.7Zm79.13,2.48c0-5.24-4.24-9.49-9.48-9.49v5.43c2.23,0,4.05,1.81,4.05,4.06h5.43Zm-9.48-9.49c-5.24,0-9.48,4.25-9.48,9.49h5.43c0-2.25,1.82-4.06,4.05-4.06v-5.43Zm-9.48,9.49c0,5.24,4.24,9.49,9.48,9.49v-5.43c-2.23,0-4.05-1.81-4.05-4.06h-5.43Zm9.48,9.49c5.24,0,9.48-4.25,9.48-9.49h-5.43c0,2.25-1.82,4.06-4.05,4.06v5.43Z"/>
    <path class="cls-4" d="M169.42,130.08c-.97,1.14-.82,2.86,.32,3.82,1.14,.97,2.86,.82,3.82-.32l-4.14-3.5Zm11.8-32.77l-2.35,1.35,2.35-1.35Zm-22.32-12.65c-1.5-.02-2.73,1.18-2.75,2.68-.02,1.5,1.18,2.73,2.68,2.75l.07-5.42Zm-14.42,6.99c1.46-.31,2.4-1.76,2.08-3.22-.31-1.46-1.76-2.4-3.22-2.08l1.14,5.3Zm-31.88,9.78l1.36,2.35-1.36-2.35Zm-42.55,52.04c.22,1.48,1.59,2.51,3.08,2.29,1.48-.22,2.51-1.59,2.29-3.08l-5.37,.79Zm103.51-19.89c5.5-6.5,9.45-13.23,11.33-19.63,1.88-6.41,1.73-12.71-1.32-18l-4.7,2.71c2.1,3.64,2.42,8.3,.81,13.76-1.61,5.47-5.09,11.54-10.26,17.66l4.14,3.5Zm10.01-37.63c-4.47-7.75-13.82-11.15-24.67-11.3l-.07,5.42c10.06,.13,16.98,3.27,20.04,8.58l4.7-2.71Zm-40.22-9.61c-10.17,2.18-21.24,6.46-32.1,12.74l2.72,4.7c10.42-6.02,20.96-10.08,30.53-12.13l-1.14-5.3Zm-32.1,12.74c-13.18,7.62-23.98,17-31.25,26.49-7.19,9.4-11.2,19.32-9.95,27.9l5.37-.79c-.95-6.45,2.05-14.88,8.89-23.81,6.76-8.84,16.99-17.77,29.65-25.09l-2.72-4.7Z"/>
    <path class="cls-4" d="M105.52,163.01c-.5-1.41-2.06-2.15-3.47-1.64-1.41,.5-2.15,2.06-1.64,3.47l5.11-1.83Zm44.43,13.86c.77-1.28,.35-2.95-.93-3.72-1.28-.77-2.95-.35-3.72,.93l4.65,2.79Zm1.52-16.95c-.45,1.43,.35,2.95,1.78,3.4,1.43,.45,2.95-.35,3.4-1.78l-5.18-1.62Zm7.25-31.82h0Zm-22.95-62.6c-1.37-.61-2.97,0-3.58,1.38-.61,1.37,0,2.97,1.38,3.58l2.2-4.96Zm-35.36,99.33c2.87,8.04,6.72,14.84,11.32,19.69,4.61,4.85,10.13,7.88,16.25,7.88v-5.43c-4.2,0-8.39-2.06-12.31-6.19-3.93-4.14-7.44-10.21-10.14-17.78l-5.11,1.83Zm27.56,27.56c8.87,0,16.44-6.31,21.97-15.53l-4.65-2.79c-5.12,8.53-11.25,12.9-17.32,12.9v5.43Zm28.67-30.86c3.04-9.75,4.79-21.2,4.79-33.43h-5.43c0,11.73-1.67,22.64-4.54,31.82l5.18,1.62Zm4.79-33.43c0-15-2.62-28.85-7.06-39.81-4.4-10.86-10.78-19.31-18.6-22.79l-2.2,4.96c5.94,2.64,11.59,9.55,15.77,19.87,4.14,10.22,6.67,23.36,6.67,37.77h5.43Z"/>
    <path class="cls-2" d="M187.62,159.51c0-3.74-3.03-6.77-6.76-6.77s-6.76,3.03-6.76,6.77,3.03,6.77,6.76,6.77,6.76-3.03,6.76-6.77h0Z"/>
    <path class="cls-2" d="M74.98,166.28c3.74,0,6.76-3.03,6.76-6.77s-3.03-6.77-6.76-6.77-6.76,3.03-6.76,6.77,3.03,6.77,6.76,6.77h0Z"/>
    <ellipse class="cls-2" cx="127.98" cy="66.52" rx="6.76" ry="6.77"/>
    <path class="cls-3" d="M129.28,134.16c-3.34,.72-6.63-1.4-7.35-4.75-.72-3.34,1.4-6.64,4.74-7.36,3.34-.72,6.63,1.4,7.35,4.75,.72,3.34-1.4,6.64-4.74,7.36Z"/>
  </g>
</svg>