<?xml version="1.0" encoding="UTF-8"?>
<svg id="_图层_1" data-name="图层 1" xmlns="http://www.w3.org/2000/svg" xmlns:xlink="http://www.w3.org/1999/xlink" viewBox="0 0 256 256">
  <defs>
    <style>
      .cls-1 {
        fill: #32e6b9;
      }

      .cls-2 {
        fill: #f4f4f4;
      }

      .cls-3 {
        fill: #f86969;
      }

      .cls-4 {
        fill: url(#_未命名的渐变_13);
      }

      .cls-5 {
        fill: #f63939;
      }

      .cls-6 {
        clip-path: url(#clippath);
      }

      .cls-7 {
        fill: none;
      }

      .cls-8 {
        fill: #9d0606;
      }

      .cls-9 {
        fill: url(#_未命名的渐变_10);
      }
    </style>
    <clipPath id="clippath">
      <path class="cls-7" d="M-220.76-276H-75.24c30.51,0,55.24,24.73,55.24,55.24V-69.51c0,27.34-22.17,49.51-49.51,49.51H-225.94c-27.65,0-50.06-22.41-50.06-50.06V-220.76c0-30.51,24.73-55.24,55.24-55.24Z"/>
    </clipPath>
    <linearGradient id="_未命名的渐变_13" data-name="未命名的渐变 13" x1="-169.36" y1="1015.1" x2="-49.61" y2="807.67" gradientTransform="translate(0 810) scale(1 -1)" gradientUnits="userSpaceOnUse">
      <stop offset="0" stop-color="#fff" stop-opacity=".8"/>
      <stop offset=".44" stop-color="#fff"/>
    </linearGradient>
    <linearGradient id="_未命名的渐变_10" data-name="未命名的渐变 10" x1="129.56" y1="608.35" x2="149.93" y2="628.72" gradientTransform="translate(0 810) scale(1 -1)" gradientUnits="userSpaceOnUse">
      <stop offset="0" stop-color="#1a237e" stop-opacity=".4"/>
      <stop offset="1" stop-color="#1a237e" stop-opacity="0"/>
    </linearGradient>
  </defs>
  <rect class="cls-2" x="0" y="0" width="256" height="256" rx="50" ry="50"/>
  <g class="cls-6">
    <g>
      <circle class="cls-1" cx="-62.62" cy="3.16" r="82.37"/>
      <path class="cls-4" d="M-80.22-255.98c2.51-2.25,2.66-2.34,4.5-2.45,2.98-.22,5.71,1.21,10.36,5.45,10.86,9.87,25.99,30.17,35.39,47.5l3.63,6.73,5.13,2.55c4.95,2.5,13.08,7.64,16.48,10.39,1.53,1.27,1.75,1.3,3.35,.67,7.2-2.8,17.52,.91,26.62,9.64,8.19,7.85,16.04,21.27,19.05,32.47,.44,1.8,1.02,5.68,1.23,8.56,.69,10.13-2.57,18.22-8.82,21.89-1.28,.74-1.36,.94-1.33,4.13,.29,15.17-3.8,30.32-12.02,45.09C14.09-46.79-2.42-29.63-24.77-13.47c-12,8.73-40.4,25.28-53.24,31.09-30.76,13.85-55.41,19.16-76.83,16.53-12.77-1.55-27.23-6.53-35.79-12.32-2.25-1.56-2.61-1.65-4.33-1.16-9.16,2.63-21.15-2.78-31.34-14.09-4.06-4.52-10.63-15.62-12.75-21.57-4.92-13.9-3.94-26.45,2.61-33.94,1.69-1.93,1.75-2.01,1.38-5.26-.61-5.31-.89-13.17-.61-18.25l.22-4.74-7.12-12.59c-11.02-19.61-18.02-36.07-20.72-48.65-1.43-6.9-1.34-9.95,.41-12.22,1.07-1.37,4.56-2.79,8.77-3.56,10.61-1.86,33.74-.18,59.47,4.37l2.67,.46,5.87-5.19c9.75-8.64,16.23-13.48,28.17-20.93,12.45-7.79,26.5-14.2,42.32-19.27l5.07-1.63,2.79-7.33c9.99-26.37,20.22-45.81,27.52-52.28ZM-163.9-120.84c-11.29,6.52-16.94,9.78-21.09,13.43-16.8,14.79-23.08,38.22-15.92,59.43,1.77,5.24,5.03,10.88,11.55,22.17,6.52,11.29,9.78,16.94,13.43,21.09,14.79,16.8,38.22,23.08,59.43,15.93,5.24-1.77,12.32-2.89,23.61-9.4L-27.94-35.7c11.29-6.52,15.5-11.92,19.65-15.57,16.8-14.79,23.08-38.22,15.93-59.43-1.77-5.24-5.03-10.88-11.55-22.17-6.52-11.29-9.78-16.94-13.43-21.09-14.79-16.8-38.22-23.08-59.43-15.93-5.24,1.77-10.88,5.03-22.17,11.55l-64.95,37.5Z"/>
    </g>
  </g>
  <g>
    <path class="cls-3" d="M196.78,121.17h-54.69l-47.85,47.86,27.34,27.34,75.2-75.2Z"/>
    <path class="cls-3" d="M80.57,155.35l-27.35-27.35L142.09,39.12h54.69l-116.22,116.23Z"/>
    <path class="cls-8" d="M121.58,196.37l20.51,20.51h54.69l-47.86-47.85-27.34,27.34Z"/>
    <path class="cls-9" d="M121.58,196.37l40.56-14.04-13.22-13.3-27.34,27.34Z"/>
    <path class="cls-5" d="M121.58,141.67l-27.34,27.34,27.34,27.34,27.34-27.34-27.34-27.34Z"/>
  </g>
</svg>