<?xml version="1.0" encoding="UTF-8"?>
<svg id="_图层_1" data-name="图层 1" xmlns="http://www.w3.org/2000/svg" viewBox="0 0 256 256">
  <defs>
    <style>
      .cls-1 {
        fill: #f4f4f4;
      }

      .cls-2, .cls-3 {
        fill: #0b100f;
      }

      .cls-3, .cls-4 {
        fill-rule: evenodd;
      }

      .cls-4 {
        fill: #262626;
      }
    </style>
  </defs>
  <rect class="cls-1" x="0" y="0" width="256" height="256" rx="50" ry="50"/>
  <g>
    <path class="cls-4" d="M218.06,57.82h-1.75c-9.2-.01-16.67,7.44-16.67,16.64v37.22c0,7.43-6.14,13.45-13.45,13.45-4.34,0-8.68-2.19-11.25-5.85l-38.01-54.29c-3.15-4.51-8.28-7.2-13.84-7.2-8.66,0-16.46,7.37-16.46,16.46v37.43c0,7.43-6.09,13.45-13.45,13.45-4.36,0-8.69-2.19-11.26-5.85L39.38,58.54c-.96-1.37-3.12-.7-3.12,.98v32.46c0,1.64,.5,3.23,1.44,4.58l41.85,59.77c2.47,3.53,6.12,6.16,10.33,7.11,10.53,2.39,20.22-5.71,20.22-16.04v-37.41c0-7.43,6.02-13.45,13.45-13.45h.02c4.48,0,8.68,2.19,11.25,5.85l38.01,54.28c3.16,4.51,8.03,7.2,13.83,7.2,8.86,0,16.45-7.37,16.45-16.46v-37.42c0-7.43,6.02-13.45,13.45-13.45h1.48c.93,0,1.68-.75,1.68-1.68V59.5c0-.93-.75-1.68-1.68-1.68h0Z"/>
    <g>
      <rect class="cls-2" x="99.16" y="188.53" width="2.81" height="17.2" rx=".38" ry=".38"/>
      <rect class="cls-2" x="99.09" y="182.36" width="2.94" height="3.44" rx=".38" ry=".38"/>
      <path class="cls-3" d="M113.86,188.07c-2.3,0-3.97,.8-5.04,1.97-.34,.35-.94,.1-.94-.38v-.74c0-.21-.17-.38-.38-.38h-2.02c-.21,0-.38,.17-.38,.38v16.45c0,.21,.17,.38,.38,.38h2.02c.21,0,.38-.17,.38-.38v-10.41c0-3.61,.7-4.41,4.54-4.41s4.48,.64,4.48,4.24v10.58c0,.21,.17,.38,.38,.38h2.05c.21,0,.38-.17,.38-.38v-11.35c0-4.11-2.34-5.95-5.85-5.95h0s0,0,0,0Z"/>
      <path class="cls-3" d="M138.14,182.36h-2.02c-.21,0-.38,.17-.38,.38v7.15c0,.49-.59,.73-.94,.38-.94-1.2-2.74-2.21-5.24-2.21-4.18,0-7.38,2.97-7.38,9.15,0,5.85,2.87,8.98,7.28,8.98,2.51,0,4.38-1,5.34-2.2,.35-.36,.96-.12,.94,.38v.98c0,.21,.17,.38,.38,.38h2.02c.21,0,.38-.17,.38-.38v-22.62c0-.21-.17-.38-.38-.38Zm-7.64,21.27c-4.58,0-5.28-.84-5.28-6.48s.7-6.51,5.28-6.51,5.24,.87,5.24,6.51-.7,6.48-5.24,6.48Z"/>
      <path class="cls-3" d="M150.24,196.08l-3.3-.57c-2.44-.43-2.87-1.17-2.87-2.44,.03-1.74,.7-2.61,3.94-2.61,3.03,0,4.01,.9,4.21,2.83,.02,.19,.18,.34,.37,.34h2c.21,0,.39-.18,.38-.4-.19-3.33-3.24-5.18-6.87-5.18-4.08,0-6.78,2.17-6.78,5.28,0,2.84,2.21,4.08,4.84,4.58l3.64,.67c2,.37,2.67,1.04,2.67,2.3,0,2.04-.7,2.91-4.14,2.91s-4.39-.99-4.61-3c-.02-.19-.18-.34-.37-.34h-2.02c-.21,0-.38,.18-.38,.39,.1,3.58,3.34,5.36,7.21,5.36,4.21,0,7.11-2.17,7.11-5.45,0-2.87-2.21-4.18-5.04-4.68Z"/>
      <path class="cls-3" d="M164.84,203.73c3.74,0,4.44-.8,4.44-4.41v-10.41c0-.21,.17-.38,.38-.38h2.05c.21,0,.38,.17,.38,.38v16.45c0,.21-.17,.38-.38,.38h-2.05c-.21,0-.38-.17-.38-.38v-.72c0-.51-.54-.76-.9-.41-1.07,1.17-2.74,1.97-4.98,1.97-3.44,0-5.78-1.84-5.78-5.95v-11.35c0-.21,.17-.38,.38-.38h2.05c.21,0,.38,.17,.38,.38v10.58c0,3.61,.67,4.24,4.41,4.24Z"/>
      <path class="cls-3" d="M188.5,188.53v-2.21c0-.87,.7-1.57,1.57-1.57h1.53c.21,0,.38-.17,.38-.38v-1.65c0-.21-.17-.38-.38-.38h-1.06c-3.01,0-4.84,1.67-4.84,4.54v1.64h-2.22c-1.97,0-3.52,.27-4.55,1.5-.38,.36-.9,.09-.9-.43v-.69c0-.21-.17-.38-.38-.38h-2.05c-.21,0-.38,.17-.38,.38v16.45c0,.21,.17,.38,.38,.38h2.05c.21,0,.38-.17,.38-.38v-10.31c0-3.41,.87-4.21,4.61-4.21h3.06v14.52c0,.21,.17,.38,.38,.38h2.05c.21,0,.38-.17,.38-.38v-14.52h3.1c.21,0,.38-.17,.38-.38v-1.55c0-.21-.17-.38-.38-.38h-3.1Z"/>
      <path class="cls-3" d="M87.74,201.45c.07,.3,.34,.52,.65,.52h0c.31,0,.58-.21,.65-.51l4.7-18.81c.04-.17,.19-.29,.37-.29h2.35c.25,0,.43,.24,.37,.48l-5.92,22.63c-.04,.16-.19,.27-.35,.27h-4.19c-.17,0-.32-.12-.36-.28l-4.91-18.93c-.08-.3-.34-.5-.65-.5h-.04c-.3,0-.57,.21-.65,.5l-4.91,18.93c-.04,.16-.19,.28-.36,.28h-4.19c-.17,0-.31-.11-.35-.27l-5.92-22.63c-.06-.24,.12-.48,.37-.48h2.35c.17,0,.33,.12,.37,.29l4.7,18.81c.07,.3,.34,.51,.65,.51s.58-.21,.65-.52l4.52-18.8c.04-.17,.19-.29,.37-.29h4.84c.18,0,.33,.12,.37,.29l4.52,18.8Z"/>
    </g>
  </g>
</svg>