<?xml version="1.0" encoding="UTF-8"?>
<svg id="_图层_1" data-name="图层 1" xmlns="http://www.w3.org/2000/svg" xmlns:xlink="http://www.w3.org/1999/xlink" viewBox="0 0 256 256">
  <defs>
    <style>
      .cls-1 {
        fill: #fff;
      }

      .cls-2 {
        clip-path: url(#clippath);
      }

      .cls-3 {
        fill: none;
      }

      .cls-4 {
        fill: #2adb5c;
      }
    </style>
    <clipPath id="clippath">
      <rect class="cls-3" x="27.69" y="27.69" width="200.62" height="200.62"/>
    </clipPath>
  </defs>
  <rect x="0" y="0" width="256" height="256" rx="50" ry="50"/>
  <g class="cls-2">
    <g>
      <path class="cls-4" d="M208.25,143.9v-27.85c0-15.82-6.89-28.52-18.87-34.84l-61.9-32.64-.31,.59-.31,.59c11.53,6.08,18.15,18.35,18.15,33.66v27.85c0,.84-.02,1.72-.06,2.6,0,.17-.02,.34-.04,.51l-.03,.42c-.04,.56-.07,1.12-.13,1.68-.02,.23-.05,.46-.08,.68l-.06,.53c-.06,.47-.11,.92-.18,1.39-.04,.26-.08,.51-.12,.78l-.06,.4c-.08,.47-.16,.95-.25,1.42-.13,.71-.28,1.4-.43,2.1l-.05,.2c-.16,.68-.32,1.35-.51,2.02l-.16,.59c-.19,.68-.39,1.35-.6,2.03l-.19,.59c-.24,.74-.49,1.48-.76,2.21-.07,.2-.15,.39-.23,.59l-.12,.32c-.22,.56-.44,1.14-.67,1.7-.13,.33-.28,.66-.42,.99l-.05,.12c-.18,.43-.37,.86-.57,1.28-.17,.38-.35,.75-.53,1.13-.2,.42-.4,.84-.61,1.26-.2,.39-.4,.77-.6,1.15-.2,.37-.4,.75-.61,1.13-.21,.38-.43,.76-.65,1.14-.21,.37-.42,.74-.65,1.1-.23,.38-.46,.75-.7,1.13-.23,.36-.44,.71-.68,1.07-.24,.37-.49,.73-.77,1.16-.23,.33-.45,.66-.68,.99-.24,.34-.48,.67-.76,1.06-.26,.36-.52,.71-.79,1.07-.26,.35-.52,.68-.79,1.02-.28,.35-.55,.7-.83,1.04-.24,.3-.49,.59-.73,.87l-.05,.06c-.32,.39-.66,.77-.99,1.15-.27,.3-.54,.6-.8,.9-.34,.37-.68,.73-1.02,1.1-.26,.28-.53,.54-.8,.82-.46,.47-.92,.92-1.4,1.37l-.2,.2c-.17,.16-.33,.32-.5,.48-.59,.55-1.19,1.09-1.81,1.61l-.17,.15c-.06,.06-.13,.12-.2,.18l-.29,.24c-.5,.42-1.01,.83-1.52,1.24-.16,.13-.32,.25-.48,.37l-.12,.09c-.43,.33-.86,.66-1.33,1-.2,.14-.39,.29-.59,.43-.5,.36-1,.71-1.51,1.04l-.4,.28c-.66,.44-1.33,.86-2.01,1.27l-.43,.25c-.54,.32-1.07,.63-1.62,.93-.16,.09-.32,.18-.49,.26l-.25,.13c-.45,.24-.9,.47-1.35,.71-.25,.12-.49,.24-.74,.36l-.08,.04c-.44,.21-.87,.41-1.31,.61-.28,.13-.56,.25-.85,.37-.44,.19-.9,.37-1.34,.55l-.24,.09c-.2,.08-.4,.15-.59,.23-.49,.18-.98,.35-1.47,.52l-.27,.09c-.15,.05-.3,.11-.44,.15-.78,.25-1.51,.47-2.21,.67l-4.32,1.18c-.64,.18-1.28,.34-1.92,.49-.12,.03-.23,.05-.35,.07l-.48,.1c-.36,.08-.71,.15-1.07,.22-.15,.03-.3,.05-.45,.08l-.58,.1c-.28,.05-.56,.1-.85,.13-.16,.02-.32,.04-.49,.06l-.59,.07c-.26,.03-.52,.06-.78,.09-.11,0-.21,.01-.31,.03l-.24,.02c-.41,.04-.82,.07-1.23,.09-.16,0-.3,.01-.46,.01h-.23c-.36,.02-.71,.04-1.07,.04h-.73c-.33,0-.67,0-1-.02-.18,0-.37-.01-.55-.03h-.18c-.35-.03-.68-.05-1.03-.08l-.45-.04c-.43-.04-.85-.08-1.28-.14l-.28-.03c-.5-.07-1-.15-1.5-.24l-.37-.07c-.31-.06-.62-.13-.93-.2-.49-.11-.97-.23-1.45-.36l-.2-.06c-.09-.02-.18-.05-.27-.07-.63-.18-1.26-.38-1.84-.59l-.44-.16c-.43-.15-.87-.32-1.29-.5-.16-.07-.32-.14-.49-.21l-.11-.05c-.37-.16-.74-.33-1.11-.51l-.17-.08s-.08-.04-.1-.05l-4.61-2.41,3.34,3.34h.11l61.75,32.56c.21,.11,.42,.22,.64,.33,.07,.04,.14,.06,.21,.1l.13,.06c.38,.18,.76,.36,1.16,.53l.11,.05c.17,.07,.33,.15,.5,.22,.44,.18,.89,.35,1.34,.52l.15,.06c.08,.03,.15,.06,.21,.08l.09,.03c.62,.22,1.27,.42,1.92,.61,.1,.03,.2,.06,.3,.08l.19,.05c.49,.13,1,.26,1.51,.37l.12,.03c.06,.01,.12,.03,.18,.04,.15,.04,.3,.06,.46,.09l.6,.11c.51,.09,1.03,.18,1.55,.25l.29,.03c.44,.06,.88,.11,1.33,.15l.87,.08c.13,0,.27,.01,.41,.02h.34c.23,.03,.44,.04,.68,.05,.32,.01,.64,.01,.96,.02h.83c.35,0,.69-.01,1.11-.03h.23c.16-.01,.32-.01,.48-.03,.42-.02,.84-.06,1.26-.09l.23-.02c.11,0,.23-.01,.4-.04,.25-.03,.49-.06,.74-.08l.56-.07c.18-.02,.37-.04,.55-.07,.3-.04,.59-.09,.88-.14l.56-.09c.16-.03,.32-.05,.49-.08,.37-.07,.73-.15,1.1-.23l.45-.09c.13-.03,.27-.06,.4-.08,.66-.15,1.31-.32,1.98-.5l4.32-1.18c.71-.2,1.46-.42,2.27-.68,.16-.05,.3-.1,.45-.16l.28-.1c.51-.18,1.02-.35,1.52-.54,.22-.08,.43-.17,.64-.25l.2-.08c.46-.18,.92-.37,1.38-.56,.29-.13,.58-.25,.87-.38,.45-.21,.9-.41,1.34-.62l.15-.07c.23-.11,.47-.23,.7-.34,.47-.23,.92-.47,1.38-.72l.25-.13c.17-.09,.34-.18,.5-.27,.56-.3,1.1-.63,1.65-.95l.18-.11c.08-.05,.17-.1,.26-.15,.66-.39,1.31-.8,1.95-1.23l.44-.3,13.59,6.19c7.94,3.62,16.97-2.19,16.97-10.92v-50.31h0s.03,.01,.03,.01Z"/>
      <path class="cls-1" d="M127.51,48.58c-.21-.11-.42-.22-.63-.32-.11-.06-.23-.11-.35-.16-.38-.18-.76-.36-1.14-.53-.2-.09-.4-.18-.61-.27-.44-.18-.88-.35-1.33-.51-.12-.04-.24-.1-.37-.14-.03,0-.06-.02-.08-.03-.63-.22-1.26-.42-1.9-.61-.16-.05-.32-.08-.49-.13-.49-.13-.99-.26-1.5-.37-.11-.02-.2-.06-.3-.08-.22-.05-.44-.08-.66-.13-.13-.03-.26-.05-.39-.08-.51-.09-1.02-.18-1.54-.25-.1-.01-.2-.02-.3-.04-.44-.06-.87-.11-1.31-.15-.16-.01-.31-.03-.47-.04-.13-.01-.27-.03-.4-.04-.22-.01-.44-.02-.66-.04-.25-.01-.51-.03-.76-.04-.34-.01-.68-.01-1.03-.02-.25,0-.5,0-.75,0-.36,0-.73,.02-1.09,.03-.23,0-.47,.01-.71,.03-.42,.02-.84,.06-1.26,.09-.19,.01-.38,.03-.57,.04h-.06c-.34,.04-.68,.08-1.03,.13-.28,.04-.54,.06-.82,.1-.39,.06-.78,.13-1.16,.19-.25,.04-.51,.08-.76,.13-.44,.08-.88,.18-1.33,.28-.21,.04-.42,.08-.63,.13-.66,.15-1.31,.32-1.97,.5l-4.32,1.19c-.76,.21-1.52,.44-2.27,.68-.25,.08-.49,.17-.73,.25-.51,.18-1.02,.35-1.52,.54-.28,.11-.56,.22-.85,.33-.46,.18-.92,.37-1.38,.56-.29,.13-.59,.25-.87,.38-.45,.2-.9,.41-1.34,.62-.28,.13-.56,.27-.85,.41-.47,.23-.92,.47-1.38,.72-.25,.13-.51,.27-.75,.4-.56,.3-1.1,.63-1.65,.95-.15,.08-.3,.17-.44,.26-.66,.4-1.31,.81-1.95,1.23-.04,.02-.07,.05-.11,.07-.14,.09-.28,.19-.41,.28-.52,.35-1.04,.71-1.54,1.07-.21,.16-.42,.31-.63,.46-.44,.33-.89,.66-1.33,1-.2,.16-.41,.32-.61,.47-.52,.42-1.04,.84-1.56,1.27-.1,.08-.2,.16-.3,.24-.02,.01-.04,.04-.06,.05-.11,.09-.2,.19-.31,.28-.62,.54-1.24,1.09-1.84,1.65-.25,.23-.48,.46-.73,.69-.48,.46-.95,.92-1.42,1.4-.13,.13-.25,.25-.38,.37-.15,.15-.28,.31-.43,.46-.35,.37-.71,.75-1.05,1.13-.28,.3-.55,.61-.83,.91-.35,.39-.68,.78-1.02,1.17-.17,.2-.34,.39-.5,.59-.1,.12-.2,.25-.3,.37-.29,.35-.57,.71-.85,1.07-.27,.35-.54,.69-.81,1.04-.28,.36-.54,.73-.81,1.09-.17,.23-.35,.46-.51,.7-.09,.13-.17,.25-.26,.38-.25,.35-.49,.71-.73,1.07-.25,.37-.51,.75-.75,1.13-.23,.36-.47,.73-.69,1.09-.16,.24-.31,.48-.46,.73-.08,.14-.16,.29-.25,.43-.23,.37-.44,.75-.66,1.13-.23,.39-.44,.78-.66,1.17-.21,.38-.42,.77-.62,1.15-.13,.24-.27,.48-.39,.73-.08,.15-.14,.3-.22,.44-.22,.43-.42,.86-.63,1.29-.18,.38-.37,.76-.54,1.15-.2,.44-.39,.87-.58,1.31-.11,.26-.24,.52-.35,.79-.05,.11-.09,.23-.14,.35-.24,.57-.46,1.15-.68,1.74-.12,.31-.24,.61-.35,.92-.28,.75-.53,1.5-.78,2.26-.04,.13-.09,.25-.13,.39,0,.01,0,.04-.01,.05-.02,.06-.04,.12-.06,.18-.22,.69-.42,1.38-.61,2.07-.06,.2-.11,.4-.16,.61-.18,.68-.36,1.38-.51,2.07-.01,.07-.04,.14-.05,.21-.14,.61-.27,1.21-.39,1.83-.02,.11-.04,.22-.06,.33-.1,.51-.18,1.02-.26,1.53-.06,.37-.13,.75-.18,1.13-.08,.54-.13,1.07-.2,1.61-.04,.35-.09,.71-.12,1.06-.06,.59-.1,1.19-.13,1.79-.02,.3-.05,.59-.06,.88-.03,.87-.05,1.76-.05,2.65v27.85c0,10.15,2.88,18.82,7.82,25.35,.49,.66,1.01,1.28,1.54,1.9,.8,.92,1.64,1.78,2.53,2.6,2.07,1.9,4.37,3.52,6.86,4.83l61.9,32.63c-11.37-6-18.74-18.43-18.74-34.68v-27.85c0-.89,.02-1.78,.06-2.67,.01-.3,.04-.59,.06-.88,.04-.6,.08-1.19,.13-1.79,.04-.35,.08-.71,.12-1.06,.06-.54,.12-1.07,.2-1.61,.06-.37,.12-.75,.18-1.13,.08-.51,.17-1.02,.26-1.53,.13-.72,.28-1.44,.44-2.15,.01-.07,.04-.14,.05-.21,.16-.69,.33-1.38,.52-2.07,.06-.2,.11-.4,.16-.6,.19-.69,.4-1.39,.61-2.07,.02-.06,.04-.12,.06-.18,.04-.14,.1-.29,.15-.43,.25-.75,.5-1.52,.78-2.26,.11-.31,.23-.61,.35-.92,.22-.58,.44-1.16,.68-1.74,.16-.38,.32-.76,.49-1.14,.19-.44,.38-.87,.58-1.31,.18-.39,.36-.77,.54-1.15,.2-.43,.42-.86,.63-1.29,.2-.4,.4-.78,.61-1.18,.2-.39,.41-.77,.62-1.15,.22-.4,.44-.78,.66-1.17,.22-.37,.44-.75,.66-1.13,.23-.39,.47-.77,.71-1.15,.23-.37,.46-.73,.69-1.09,.25-.38,.5-.75,.75-1.13,.24-.36,.48-.71,.73-1.07,.25-.36,.51-.72,.78-1.07,.27-.37,.54-.73,.81-1.09,.27-.35,.54-.69,.81-1.04,.28-.35,.56-.71,.85-1.07,.26-.32,.53-.63,.8-.95,.34-.4,.67-.79,1.02-1.18,.27-.3,.54-.61,.82-.91,.35-.38,.7-.75,1.05-1.13,.27-.28,.54-.56,.81-.83,.47-.47,.95-.94,1.42-1.4,.24-.23,.48-.47,.73-.69,.61-.56,1.22-1.11,1.84-1.65,.13-.11,.25-.23,.37-.33,.1-.08,.2-.16,.3-.24,.51-.43,1.03-.85,1.56-1.27,.2-.16,.41-.32,.61-.47,.44-.34,.88-.68,1.33-1,.21-.16,.42-.31,.63-.47,.51-.37,1.03-.73,1.54-1.07,.13-.09,.27-.19,.41-.28,.68-.45,1.36-.88,2.05-1.31,.15-.08,.3-.17,.44-.25,.55-.32,1.1-.65,1.66-.95,.25-.14,.5-.27,.75-.4,.46-.25,.92-.49,1.39-.72,.28-.14,.56-.28,.84-.41,.44-.21,.9-.42,1.35-.63,.29-.13,.58-.25,.87-.38,.46-.2,.92-.38,1.38-.56,.28-.11,.56-.23,.85-.33,.5-.19,1.01-.37,1.52-.54,.25-.08,.49-.17,.73-.25,.75-.25,1.51-.47,2.27-.68l4.32-1.19c.66-.18,1.32-.35,1.97-.49,.23-.05,.44-.09,.66-.14,.43-.09,.86-.19,1.28-.27,.26-.05,.52-.08,.78-.13,.38-.06,.76-.13,1.14-.19,.28-.04,.55-.06,.83-.1,.36-.04,.72-.09,1.08-.13,.19-.02,.37-.03,.57-.04,.42-.04,.85-.07,1.26-.09,.23-.01,.47-.01,.7-.03,.37-.01,.73-.03,1.1-.04h.75c.35,0,.69,0,1.03,.02,.25,0,.51,.02,.76,.04,.35,.02,.71,.04,1.05,.07,.15,.01,.31,.03,.47,.04,.44,.04,.87,.09,1.31,.15,.1,.01,.2,.02,.3,.04,.52,.07,1.04,.16,1.54,.25,.13,.02,.26,.05,.39,.08,.32,.06,.64,.13,.97,.2,.5,.11,1,.24,1.5,.37,.16,.04,.32,.08,.49,.13,.64,.18,1.28,.38,1.9,.6,.16,.06,.3,.11,.46,.17,.44,.16,.89,.33,1.33,.51,.2,.08,.41,.18,.61,.27,.39,.17,.77,.35,1.14,.53,.33,.16,.66,.32,.98,.49l-61.9-32.63Z"/>
    </g>
  </g>
</svg>