<?xml version="1.0" encoding="UTF-8"?>
<svg id="_图层_1" data-name="图层 1" xmlns="http://www.w3.org/2000/svg" viewBox="0 0 256 256">
  <defs>
    <style>
      .cls-1, .cls-2 {
        fill: #fff;
      }

      .cls-2 {
        fill-rule: evenodd;
      }

      .cls-3 {
        fill: #060933;
      }
    </style>
  </defs>
  <rect class="cls-3" x="0" y="0" width="256" height="256" rx="50" ry="50"/>
  <g>
    <path class="cls-1" d="M123.01,158.76c-17.1,0-25.79-10-25.79-22.49,0-14.8,11.8-28.19,28.89-28.19s25.79,10,25.79,22.5c0,14.8-11.8,28.19-28.89,28.19Zm.7-15.9c6,0,9.8-5.4,9.8-11.4,0-4.8-3.1-7.5-8.1-7.5-6,0-9.8,5.4-9.8,11.4,0,4.8,3.1,7.5,8.1,7.5Z"/>
    <path class="cls-1" d="M170.11,157.56h-18l14.7-66.68h18l-14.7,66.68Z"/>
    <path class="cls-2" d="M69.95,158.76c-5.5,0-10.9-2-14-6.3l-1.09,5.07-20.18,10.72,2.18-10.72,14.7-66.66h18l-5.2,23.49c4.2-4.6,8.1-6.3,13.1-6.3,10.8,0,18,7.1,18,20.1s-8.3,30.59-25.49,30.59Zm6.9-26.79c0,6.2-4.4,10.9-10.1,10.9-3.2,0-6.1-1.2-8-3.3l2.8-12.3c2.1-2.1,4.5-3.3,7.3-3.3,4.3,0,8,3.2,8,8Z"/>
    <path class="cls-1" d="M203.53,158.76c-10.4,0-17.8-3.8-17.8-12.2,0-.7,.1-2.4,.4-3.8l3.9-17.9h-8l3.5-15.6h8l2.9-13.2,20.15-8.32-2.15,8.34-2.9,13.18h9.8l-3.5,15.6h-9.8l-2.6,11.8c-.2,.9-.3,1.9-.3,2.3,0,2.3,1.4,3.9,4.5,3.9,.9,0,2.2-.3,2.5-.5v14.4c-1.9,1.3-5.3,2-8.6,2Z"/>
  </g>
</svg>