<?xml version="1.0" encoding="UTF-8"?>
<svg id="_图层_1" data-name="图层 1" xmlns="http://www.w3.org/2000/svg" viewBox="0 0 256 256">
  <defs>
    <style>
      .cls-1 {
        fill: #f4f4f4;
      }
    </style>
  </defs>
  <rect class="cls-1" x="0" y="0" width="256" height="256" rx="50" ry="50"/>
  <g>
    <path d="M144.34,80.75h45.33c18.38,0,33.28,14.9,33.28,33.28v43.23h-18.62v-43.23c0-.44-.02-.88-.05-1.32l-45.33,44.54c.15,0,.31,0,.46,0h44.92v17.58h-44.92c-18.38,0-33.69-15.05-33.69-33.43v-43.12h18.62v43.12c0,.83,.06,1.65,.19,2.46l46.33-45.52c-.39-.03-.79-.05-1.19-.05h-45.33v-17.55h0Z"/>
    <path d="M98.56,171.61L33.04,98.29h26.36l38.46,43.04v-43.04h19.65v66.08c0,9.97-12.31,14.67-18.96,7.24Z"/>
  </g>
</svg>