<?xml version="1.0" encoding="UTF-8"?>
<svg id="_图层_1" data-name="图层 1" xmlns="http://www.w3.org/2000/svg" viewBox="0 0 256 256">
  <defs>
    <style>
      .cls-1 {
        fill: #f4f4f4;
      }

      .cls-2 {
        fill: #fff;
      }

      .cls-3 {
        fill: #00cc71;
      }

      .cls-4 {
        fill: #adf7b9;
      }
    </style>
  </defs>
  <rect class="cls-1" x="0" y="0" width="256" height="256" rx="50" ry="50"/>
  <g>
    <path class="cls-2" d="M213.09,88.44s-5.17-11.72-10.66-18.15c0,0-12.11-18.02-39.89-17.76,0,0-48.84,.09-45.86,50.14,0,0-3.65,12.09,13.7,44.91l-21.05,47.95-3.68,10.21,52.43-5.24,55-112.05Z"/>
    <path class="cls-4" d="M75.76,120.19s-.06,0-.09,0c.03,0,.06,0,.09,0Z"/>
    <path class="cls-3" d="M215.2,92.42h0c-3.99-9.41-13.31-16.01-24.17-16.01-14.49,0-26.24,11.75-26.24,26.24,0,2.74,.42,5.38,1.2,7.86h-.02c2.79,8.28,4.3,17.14,4.3,26.36,0,41-29.93,75-69.13,81.37,8.5,2.52,17.5,3.88,26.82,3.88,52.02,0,94.18-42.17,94.18-94.18,0-12.57-2.47-24.56-6.93-35.52h0Z"/>
    <path class="cls-3" d="M167.14,54.73c13.13,.02,24.99,5.42,33.51,14.11,.26,.26,.53,.51,.82,.73l.96,.72c-17.29-22.22-44.31-36.5-74.67-36.4-51.98,.16-93.89,42.21-93.89,94.18,0,19.68,6.04,37.94,16.36,53.05l.07-.05c8.5,11.7,22.25,19.33,37.79,19.42,25.73,.15,46.99-20.69,47.32-46.42,.12-9.39-2.52-18.16-7.15-25.56l.08-.05c-5.33-7.72-8.42-17.11-8.31-27.22,.28-25.68,21.43-46.55,47.11-46.51Z"/>
    <path class="cls-4" d="M169.56,147.58c-7.88,26.49-31.63,46.15-60.23,47.95-6.4,3.21-13.63,5.01-21.24,4.96-15.54-.09-29.3-7.73-37.79-19.42h0c12.06,17.62,29.95,30.93,50.89,37.15,35.7-5.82,63.7-34.58,68.38-70.65h0Z"/>
    <path class="cls-4" d="M76.74,120.21c-.13,0-.26,0-.39,0,.13,0,.26,0,.39,0Z"/>
  </g>
</svg>