<?xml version="1.0" encoding="UTF-8"?>
<svg id="_图层_1" data-name="图层 1" xmlns="http://www.w3.org/2000/svg" xmlns:xlink="http://www.w3.org/1999/xlink" viewBox="0 0 256 256">
  <defs>
    <style>
      .cls-1 {
        fill: #32e6b9;
      }

      .cls-2 {
        fill: #fff;
      }

      .cls-3 {
        fill: url(#_未命名的渐变_13);
      }

      .cls-4 {
        clip-path: url(#clippath);
      }

      .cls-5 {
        fill: none;
      }

      .cls-6 {
        fill: #4d53e8;
      }
    </style>
    <clipPath id="clippath">
      <path class="cls-5" d="M-220.76,0H-75.24C-44.73,0-20,24.73-20,55.24V206.49c0,27.34-22.17,49.51-49.51,49.51H-225.94c-27.65,0-50.06-22.41-50.06-50.06V55.24c0-30.51,24.73-55.24,55.24-55.24Z"/>
    </clipPath>
    <linearGradient id="_未命名的渐变_13" data-name="未命名的渐变 13" x1="-169.36" y1="1291.1" x2="-49.61" y2="1083.67" gradientTransform="translate(0 1362) scale(1 -1)" gradientUnits="userSpaceOnUse">
      <stop offset="0" stop-color="#fff" stop-opacity=".8"/>
      <stop offset=".44" stop-color="#fff"/>
    </linearGradient>
  </defs>
  <path class="cls-6" d="M210.06,0H45.94C20.57,0,0,20.57,0,45.94V210.06c0,25.37,20.57,45.94,45.94,45.94H210.06c25.37,0,45.94-20.57,45.94-45.94V45.94c0-25.37-20.57-45.94-45.94-45.94Z"/>
  <path class="cls-2" d="M219.48,127.63c-.32,0-.64,0-.96,.02-4.93,.3-19.74,1.22-19.74,1.22l.05-25.18c0-39.14-31.72-70.87-70.86-70.89-39.14,.01-70.86,31.75-70.86,70.89l.05,25.18s-14.8-.92-19.74-1.22c-.32-.02-.64-.02-.96-.02-9.26,0-16.77,7.51-16.77,16.77,0,7.28,4.65,13.46,11.12,15.8,6.57,2.37,26.22,9.54,26.22,9.54l-.34,14.88c0,13.05,10.58,23.64,23.64,23.64,5.88,0,11.25-2.15,15.39-5.7,5.63,12.18,17.96,20.61,32.25,20.61s26.61-8.45,32.25-20.61c4.14,3.55,9.51,5.7,15.39,5.7,13.05,0,23.64-10.58,23.64-23.64l-.34-14.88s19.65-7.17,26.22-9.54c6.47-2.33,11.12-8.52,11.12-15.8,0-9.26-7.51-16.77-16.77-16.77h-.02Zm-125.01,14.79v-14.1c0-3.81,3.09-6.9,6.9-6.9s6.9,3.09,6.9,6.9v14.1c0,3.81-3.09,6.9-6.9,6.9s-6.9-3.09-6.9-6.9Zm58.07,23.45c-6,7.54-14.96,11.86-24.58,11.86s-18.59-4.33-24.59-11.88c-2.13-2.67-1.68-6.57,.99-8.68,2.67-2.13,6.57-1.68,8.68,.99,3.63,4.58,9.06,7.21,14.91,7.21s11.26-2.63,14.9-7.19c2.13-2.67,6.01-3.11,8.68-.99,2.67,2.13,3.11,6.01,.99,8.68h0Zm1.98-16.54c-4.4,0-7.96-3.56-7.96-7.96s3.56-7.96,7.96-7.96,7.96,3.56,7.96,7.96-3.56,7.96-7.96,7.96Z"/>
  <g class="cls-4">
    <g>
      <circle class="cls-1" cx="-62.62" cy="279.16" r="82.37"/>
      <path class="cls-3" d="M-80.22,20.02c2.51-2.25,2.66-2.34,4.5-2.45,2.98-.22,5.71,1.21,10.36,5.45,10.86,9.87,25.99,30.17,35.39,47.5l3.63,6.73,5.13,2.55c4.95,2.5,13.08,7.64,16.48,10.39,1.53,1.27,1.75,1.3,3.35,.67,7.2-2.8,17.52,.91,26.62,9.64,8.19,7.85,16.04,21.27,19.05,32.47,.44,1.8,1.02,5.68,1.23,8.56,.69,10.13-2.57,18.22-8.82,21.89-1.28,.74-1.36,.94-1.33,4.13,.29,15.17-3.8,30.32-12.02,45.09-9.27,16.58-25.79,33.74-48.14,49.9-12,8.73-40.4,25.28-53.24,31.09-30.76,13.85-55.41,19.16-76.83,16.53-12.77-1.55-27.23-6.53-35.79-12.32-2.25-1.56-2.61-1.65-4.33-1.16-9.16,2.63-21.15-2.78-31.34-14.09-4.06-4.52-10.63-15.62-12.75-21.57-4.92-13.9-3.94-26.45,2.61-33.94,1.69-1.93,1.75-2.01,1.38-5.26-.61-5.31-.89-13.17-.61-18.25l.22-4.74-7.12-12.59c-11.02-19.61-18.02-36.07-20.72-48.65-1.43-6.9-1.34-9.95,.41-12.22,1.07-1.37,4.56-2.79,8.77-3.56,10.61-1.86,33.74-.18,59.47,4.37l2.67,.46,5.87-5.19c9.75-8.64,16.23-13.48,28.17-20.93,12.45-7.79,26.5-14.2,42.32-19.27l5.07-1.63,2.79-7.33c9.99-26.37,20.22-45.81,27.52-52.28Zm-83.68,135.14c-11.29,6.52-16.94,9.78-21.09,13.43-16.8,14.79-23.08,38.22-15.92,59.43,1.77,5.24,5.03,10.88,11.55,22.17,6.52,11.29,9.78,16.94,13.43,21.09,14.79,16.8,38.22,23.08,59.43,15.93,5.24-1.77,12.32-2.89,23.61-9.4L-27.94,240.3c11.29-6.52,15.5-11.92,19.65-15.57,16.8-14.79,23.08-38.22,15.93-59.43-1.77-5.24-5.03-10.88-11.55-22.17-6.52-11.29-9.78-16.94-13.43-21.09-14.79-16.8-38.22-23.08-59.43-15.93-5.24,1.77-10.88,5.03-22.17,11.55l-64.95,37.5Z"/>
    </g>
  </g>
</svg>