<?xml version="1.0" encoding="UTF-8"?>
<svg id="_图层_1" data-name="图层 1" xmlns="http://www.w3.org/2000/svg" viewBox="0 0 256 256">
  <defs>
    <style>
      .cls-1 {
        fill: #f4f4f4;
      }

      .cls-2 {
        fill: #1f1f1f;
        fill-rule: evenodd;
      }
    </style>
  </defs>
  <rect class="cls-1" x="0" y="0" width="256" height="256" rx="50" ry="50"/>
  <g>
    <path class="cls-2" d="M66.11,184.15h6.52v-5.84h-6.52v5.84Zm-9-13.46c0,2.59-.76,4.62-2.26,6.03-1.51,1.42-3.7,2.13-6.51,2.13h-3.53v-16.44h3.53c2.8,0,4.99,.74,6.5,2.19,1.5,1.45,2.27,3.5,2.27,6.09Zm-.63-11.93c-2.28-1.1-4.95-1.66-7.94-1.66h-10.21v27.09h10.21c2.99,0,5.66-.56,7.94-1.66,2.3-1.11,4.1-2.7,5.35-4.73,1.25-2.03,1.89-4.42,1.89-7.12s-.63-5.11-1.89-7.16c-1.25-2.05-3.05-3.66-5.35-4.77Zm39.75,11.93c0,2.59-.76,4.62-2.26,6.03-1.51,1.42-3.7,2.13-6.51,2.13h-3.52v-16.44h3.52c2.81,0,4.99,.74,6.5,2.19,1.51,1.45,2.27,3.5,2.27,6.09Zm-.63-11.93c-2.28-1.1-4.95-1.66-7.94-1.66h-10.21v27.09h10.21c2.99,0,5.66-.56,7.94-1.66,2.3-1.11,4.1-2.7,5.35-4.73,1.25-2.03,1.89-4.42,1.89-7.12s-.63-5.11-1.89-7.16c-1.25-2.05-3.05-3.66-5.35-4.77Zm10.22,25.44h18.72v-5.16h-12.24v-6.07h11.04v-5.05h-11.04v-5.7h12.24v-5.16h-18.72v27.13Zm38.3-14.62l-.04-.02h0c-1.16-.5-2.66-1.01-4.47-1.51-1.34-.38-2.34-.7-3.06-.98-.68-.27-1.25-.62-1.7-1.04-.41-.38-.6-.85-.6-1.43,0-.87,.27-1.51,.82-1.95,.57-.46,1.36-.69,2.35-.69,1.15,0,2.07,.27,2.75,.79,.66,.51,1.01,1.14,1.05,1.91l.02,.41h7.06l-.04-.47c-.2-2.48-1.26-4.44-3.16-5.82-1.87-1.36-4.32-2.06-7.29-2.06-1.97,0-3.75,.32-5.29,.95-1.57,.64-2.8,1.59-3.67,2.8-.88,1.22-1.32,2.67-1.32,4.31,0,1.75,.44,3.18,1.32,4.24,.86,1.04,1.89,1.83,3.09,2.34,1.15,.49,2.66,1,4.49,1.51,1.31,.34,2.35,.66,3.1,.94,.7,.27,1.29,.63,1.75,1.09,.42,.42,.63,.94,.63,1.6,0,.82-.31,1.46-.96,1.97-.66,.52-1.61,.79-2.81,.79s-2.09-.28-2.74-.83c-.65-.55-1-1.29-1.07-2.25l-.03-.41h-6.86v.44c.04,1.69,.54,3.18,1.5,4.43,.95,1.23,2.26,2.19,3.89,2.84,1.61,.64,3.43,.97,5.43,.97,2.11,0,3.97-.37,5.51-1.11,1.56-.75,2.77-1.77,3.58-3.03,.82-1.27,1.23-2.66,1.23-4.14,0-1.73-.45-3.15-1.34-4.22-.87-1.05-1.92-1.85-3.12-2.38Zm7.46,14.57h6.48v-27.09h-6.48v27.09Zm22.28-10.5h9.48c-.44,1.54-1.25,2.77-2.39,3.67-1.28,1-2.95,1.5-4.98,1.5-1.65,0-3.12-.34-4.36-1-1.23-.66-2.2-1.61-2.89-2.83-.69-1.23-1.04-2.7-1.04-4.37s.35-3.06,1.03-4.3c.68-1.22,1.63-2.17,2.83-2.83,1.21-.66,2.62-1,4.19-1,1.42,0,2.67,.27,3.72,.82,1.04,.53,1.87,1.32,2.46,2.35l.13,.22h7.31l-.19-.58c-.91-2.69-2.59-4.81-4.99-6.3-2.38-1.48-5.22-2.22-8.44-2.22-2.73,0-5.24,.59-7.47,1.76-2.24,1.17-4.02,2.83-5.3,4.93-1.28,2.1-1.92,4.51-1.92,7.16s.65,5.05,1.93,7.14c1.28,2.09,3.06,3.74,5.3,4.91,2.23,1.17,4.75,1.76,7.51,1.76,2.46,0,4.71-.49,6.7-1.45,1.99-.96,3.64-2.26,4.9-3.86,1.27-1.61,2.11-3.39,2.49-5.31v-5.06s-16.01,0-16.01,0v4.9Zm37.3-16.61v17.08l-11.89-16.9-.13-.19h-6.27v27.13h6.48v-17.05l11.9,16.86,.13,.19h6.27v-27.13h-6.48Z"/>
    <g>
      <path class="cls-2" d="M62.78,71.7v15.52h4.13v11.94h-4.13v21.04c1.32-.75,2.7-1.59,4.22-2.54l4.96,9.71c-5.84,4.01-15.31,8.7-24.69,10.12v-12c1.62-.25,3.06-.52,4.4-.82v-25.51h-4.42v-11.94h4.42v-15.52h11.11Z"/>
      <path class="cls-2" d="M110.72,130.36v-7.07h12.03v-9.88h-12.03v-6.43h12.03v-9.89h-12.03v-6.28h13.39v-9.89h-13.39v-9.21h-13.01v9.21h-10.66c1.05-3.04,1.76-6.2,2.07-9.38h-10.95c.05,6.3-5.92,15.11-10.84,18.39l4.72,11.1c.76-.46,1.51-.96,2.24-1.52v42.94h11.92v-2.2h39.36v-9.88h-14.85Zm-13.01,0h-11.5v-7.07h11.5v7.07Zm0-16.95h-11.5v-6.43h11.5v6.43Zm0-16.32h-11.5v-6.28h11.5v6.28Z"/>
      <path class="cls-2" d="M209.1,130.38v12.2c-13.33-2.19-23.06-5.91-30.59-10.22-9.32,5.39-20.57,8.8-32.59,11.01l-.07-12.25c7.34-.96,14.98-3.27,21.76-6.49-3.91-3.35-7.09-6.74-10.04-9.84l8.19-7.66c3.36,3.64,7.67,7.46,12.68,10.94,5.23-4.05,8.99-8.72,10.22-13.62l-32.36,.12c-4.17,15.31-10.98,27.87-17.63,35.36l-8.64-7.52c7.88-9.96,15.22-25.79,17.47-42.9h-13.96v-11.32h14.66c-.02-2.16-.13-4.33-.35-6.49l12.44,.02c.06,2.18,.05,4.34-.02,6.47h48.17v11.32h-49.1c-.19,1.4-.4,2.77-.63,4.14h43.76c.05,3.13-.17,7.8-1.19,11.12-2.45,7.95-6.61,14.39-12.04,19.62,6.11,2.93,12.81,5.13,19.86,6Z"/>
    </g>
  </g>
</svg>