<?xml version="1.0" encoding="UTF-8"?>
<svg id="_图层_1" data-name="图层 1" xmlns="http://www.w3.org/2000/svg" viewBox="0 0 256 256">
  <defs>
    <style>
      .cls-1 {
        fill: #f4f4f4;
      }

      .cls-2 {
        fill: none;
        stroke: #edb400;
        stroke-linejoin: round;
        stroke-width: 9.16px;
      }

      .cls-3 {
        fill: #edb400;
      }
    </style>
  </defs>
  <rect class="cls-1" x="0" y="0" width="256" height="256" rx="50" ry="50"/>
  <g>
    <path d="M98.74,117.42c1.94,2.76,5.4,3.11,8.22,1.44,6.24-3.13,12.5-6.18,19.02-8.76,3.88-1.35,11.29-4.75,15.11-2.12,1.55,1.02,2.09,3.35,1.73,4.87-1.14,5.5-4.98,9.82-7.35,14.6-5.7,11.91-2.67,23.3,8.69,29.8,5.42,3.27,10.19,9.84,7.96,16.62-1.89,5.5-6.64,9.07-11.58,11.42-4.63,1.99-9.42,2.36-14.28,2.59-8.54,.27-30.61-1.44-27.13-14.44,2.87-6.52,10.58-9.25,16.6-10.98,12.38-3.2,24.72-2.32,37.14-1.29,15.44,.99,30.55-4.88,36.83-19.84,5.67-12.38,4.52-26.76-.38-39.22-6.92-18.65-22.97-33.78-42.6-37.75-25.06-5.66-54.04,4.65-68.02,26.41-7.03,10.89-10.07,23.74-10.41,36.68-1.19,25.73,11.94,52.72,36.81,62.53,12.14,4.91,25.89,7.12,38.98,5.06,6.64-.99,13.22-2.75,19.45-5.41,6.24-2.65,12.14-6.2,17.44-10.61l.68,.72c-4.79,5.1-10.47,9.42-16.7,12.81-10.4,5.57-22.16,8.88-34.01,9.31-9.72-.03-19.37-1.25-28.65-4.59-25.41-8.61-41.46-32.94-44.13-59.04-2.78-25.9,5.76-53.53,27.47-69.27,20.75-15.34,49.75-19.42,73.33-8.4,23.18,10.79,37.34,36.07,37.87,61.16,.11,18.44-9.5,36.37-28.06,41.63-6.85,2.06-14.15,2.52-21.24,2.24-9.94-.19-20.46,.57-29.76,3.67-4.06,1.49-8.77,3.3-10.94,6.77-.04,.07-.03,.09-.03,.1-.01,.02,0,0,.02-.03,.02-.07,.04-.19,.04-.28,0-.06,0-.02,0-.04,.02-.06-.05-.19,.09-.02,1.35,1.23,4.8,2.15,7.02,2.48,3.08,.5,6.37,.79,9.58,.81,5.85-.15,12.31-.22,17.06-3.95,2.62-1.94,4.78-4.49,2.54-7.49-1.02-1.59-2.98-3.01-4.63-4.09-2.41-1.67-4.62-3.58-6.58-5.82-8.4-9.28-8.34-22.82-2.34-33.29,2.07-3.69,5.04-7.08,6.96-10.82,.34-.65,.62-1.33,.73-1.74,.06-.2,.03-.28,.1-.05,.05,.13,.2,.41,.34,.49,.03,.02,.08,.06,.13,.08,.24,.11,.13,.01-.08-.02-3.33-.21-7.02,1.07-10.35,1.94-6.58,1.94-13.06,4.37-19.54,6.72-1.68,.68-3.78,1.06-5.69,.49-1.93-.56-3.44-1.9-4.32-3.59l.87-.47h0Z"/>
    <path d="M94.3,112.59s3.14,1.27,6.59,1.7c1.26,.15,9.79,1.27,22.2-5.05,4.95-2.52,11.48-5.18,16.41-5.18,2.68,0,5.8,.93,5.78,5.71s-4.05,7.95-9.23,16.51l-5.23-3.91s2.46-3.57-.2-4.25c-2.96-.75-6.26-.42-18.67,5.17-3.03,1.36-9.08,4.39-13.29,.42-3.98-3.75-4.36-11.11-4.36-11.11Z"/>
    <path class="cls-3" d="M180.98,179.03s3.42-3.56,8.51-3.56h16.78v10.28s-2.92-6.24-14.48-6.76c-2.88-.13-8.41-.76-11.36,1.91l.55-1.87Z"/>
    <path class="cls-3" d="M123.22,71s-1.82,5.04,7.4,13.38c1.33,1.21,3.12,4.68-.76,8.1-2.57,2.26-4.71,3.24-10.07,5.7,0,0,4.96,.74,14.41-3.49,2.49-1.11,5.36-2.14,9.73-1.97,2.16,.08,4.24-1.09,4.94-3.14,1.04-3.01,1.59-9.16-7.77-13.44-2.76-1.26-8.65-2.12-13.18-2.99-2.67-.51-4.71-2.15-4.71-2.15Z"/>
    <polyline class="cls-2" points="210.78 175.47 210.78 210.98 45.22 210.98 45.22 45.02 210.78 45.02 210.78 161.39"/>
  </g>
</svg>