<?xml version="1.0" encoding="UTF-8"?>
<svg id="_图层_1" data-name="图层 1" xmlns="http://www.w3.org/2000/svg" xmlns:xlink="http://www.w3.org/1999/xlink" viewBox="0 0 256 256">
  <defs>
    <style>
      .cls-1 {
        fill: #f4f4f4;
      }

      .cls-2 {
        fill: url(#_未命名的渐变_2-3);
      }

      .cls-3 {
        fill: url(#_未命名的渐变_2-2);
      }

      .cls-4 {
        fill: url(#_未命名的渐变_2);
      }
    </style>
    <linearGradient id="_未命名的渐变_2" data-name="未命名的渐变 2" x1="147.62" y1="66.64" x2="168.72" y2="87.75" gradientUnits="userSpaceOnUse">
      <stop offset="0" stop-color="#afff9e"/>
      <stop offset="1" stop-color="#76feea"/>
    </linearGradient>
    <linearGradient id="_未命名的渐变_2-2" data-name="未命名的渐变 2" x1="63.5" y1="95.92" x2="144.09" y2="176.52" xlink:href="#_未命名的渐变_2"/>
    <linearGradient id="_未命名的渐变_2-3" data-name="未命名的渐变 2" x1="146.52" y1="86.95" x2="188.42" y2="128.86" xlink:href="#_未命名的渐变_2"/>
  </defs>
  <rect class="cls-1" x="0" y="0" width="256" height="256" rx="50" ry="50"/>
  <g>
    <path d="M217.67,128c0,25.86-10.49,49.28-27.45,66.24-16.96,16.96-40.38,27.45-66.24,27.45s-49.28-10.49-66.24-27.45c-16.96-16.96-27.45-40.38-27.45-66.24s10.49-49.28,27.45-66.24c16.96-16.96,40.38-27.45,66.24-27.45,16.16,0,31.39,4.12,44.65,11.34,3.14,1.69,6.14,3.51,8.99,5.57,9.88,6.89,18.32,15.65,24.88,25.72,5.2,7.92,9.23,16.72,11.76,26.09,2.25,7.96,3.42,16.3,3.42,24.97Z"/>
    <path d="M177.68,50.06c0-9.18-.69-18.19-2.02-27-6.93,29.04-20.94,55.32-40.1,76.94,12.57-7.11,25.72-13.3,39.37-18.49,1.81-10.21,2.76-20.72,2.76-31.45Z"/>
    <path d="M113.54,119.94c11.11,7.81,24.66,12.39,39.27,12.39,13.34,0,25.8-3.82,36.32-10.43,22.03-13.69,40.87-32.03,55.14-53.65-48.34,6.32-92.93,24.57-130.73,51.69Z"/>
    <path class="cls-4" d="M177.61,51.22c0,10.31-.94,20.47-2.67,30.31-13.68,5.15-26.8,11.38-39.4,18.46,14.05-15.83,25.34-34.2,33.08-54.34,3.14,1.69,6.14,3.51,8.99,5.57Z"/>
    <path class="cls-3" d="M152.82,136.85c-17.86,0-34.12-6.84-46.3-18.05,7.58-5.57,15.44-10.79,23.56-15.61-6.91-5.69-14.52-10.55-22.69-14.44-4.21-2.01-8.58-3.76-13.06-5.23-1.7-.62-3.53-.95-5.44-.95-8.28,0-15.09,6.32-15.86,14.41h0s0,0,0,0h0c-8.12,2.48-15.61,6.44-22.13,11.56,4.92-2.01,10.3-3.12,15.95-3.12,15.83,0,29.63,8.73,36.84,21.63,4.84,9.39,7.58,20.04,7.58,31.32,0,16.82-6.07,32.22-16.14,44.13-1.26,1.49-2.58,2.92-3.96,4.3-.2,.2-.4,.39-.59,.59,3.65-1.37,7.25-2.85,10.79-4.45,24.76-11.18,46.51-27.83,63.73-48.41,6.35-7.59,12.08-15.71,17.12-24.29-7.57,3.61-15.9,5.86-24.69,6.46-1.55,.11-3.12,.16-4.7,.16Zm-65.56-38.16c-2.25,0-4.07-1.82-4.07-4.07s1.82-4.06,4.07-4.06,4.06,1.82,4.06,4.06-1.82,4.07-4.06,4.07Z"/>
    <path class="cls-2" d="M214.25,103.03c-7.78,7.03-16.16,13.35-25.11,18.88-10.54,6.61-23,10.4-36.31,10.4-14.62,0-28.16-4.54-39.31-12.37,26.66-19.11,56.64-33.78,88.96-43.01,5.2,7.92,9.23,16.72,11.76,26.09Z"/>
  </g>
</svg>