<?xml version="1.0" encoding="UTF-8"?>
<svg id="_图层_1" data-name="图层 1" xmlns="http://www.w3.org/2000/svg" viewBox="0 0 256 256">
  <defs>
    <style>
      .cls-1 {
        fill: #f4f4f4;
      }

      .cls-2 {
        fill: #fff;
      }

      .cls-3 {
        fill: #b2dcf1;
      }

      .cls-4 {
        fill: #0bf;
      }

      .cls-5 {
        fill: #0055e8;
      }
    </style>
  </defs>
  <rect class="cls-1" x="0" y="0" width="256" height="256" rx="50" ry="50"/>
  <g>
    <path class="cls-2" d="M137.77,34.1l1.93,47.13-34.61,24.37v36.28c0,.37,24.93,7.63,29.21,7.07,4.28-.56,32-11.54,34.98-16.56s11.72-26.79,13.4-32c1.67-5.21-6.88-37.21-6.88-37.21,0,0-6.46-22.45-38.02-29.09Z"/>
    <path class="cls-3" d="M132.95,222.19l-19.44-92.32c.88-4.89,4.59-20.05,25.94-23.51,23.99-3.89,45.09-44.44-1.68-72.26-14.74-1.52-25.8,.4-36.79,3.7C2,67.49,18.78,204.34,115.62,221.53c6.52,1.16,17.33,.66,17.33,.66Z"/>
    <path class="cls-5" d="M129.71,222.22c-45.81,.08-97.67-69.97-47.2-122.93,6.4-5.64,8.59-19.32-3.91-28.53-16.5-12.15-29.86,4.42-31.05,6.39C3.89,149.6,69.67,226.94,129.71,222.22Z"/>
    <path class="cls-4" d="M108.67,133.26m0,0v7.27c0,.97-1.36,7.42-1.94,10.18l7.27,15.51s4.85,1.45,5.33,1.94c.48,.48,2.86,.82,3.88,.97l10.18,6.3,16.96-2.42,21.81-6.79,20.36-17.45,6.3-10.66,5.33-27.14-.97-12.6v-11.15l-11.15-20.36-5.82-7.27-10.18-9.21-8.72-5.33-2.42-1.45-1.22-2.61s-9.64-3.39-13.26-4.66c-3.03-1.06-12.64-2.23-12.64-2.23,36.84,12.12,39.54,50.04,33.14,69.9-5.29,16.41-17.63,25.1-39.05,26.09-9.06,.42-14.97-.46-18.35-.22l-4.84,3.39Z"/>
    <path class="cls-5" d="M118.36,221c37.08,7.98,102.06-22.77,104.21-90.15,.86-27.02-12.8-80.46-73.39-94.88,51.54,15.5,72.43,106.57,6.51,129.77-32.97,8.24-44.6-17.94-42.18-35.87-48.7,.83-52.39,75.42,4.84,91.13h0Z"/>
  </g>
</svg>