<?xml version="1.0" encoding="UTF-8"?>
<svg id="_图层_1" data-name="图层 1" xmlns="http://www.w3.org/2000/svg" viewBox="0 0 256 256">
  <defs>
    <style>
      .cls-1 {
        fill: #fff;
      }

      .cls-2 {
        opacity: .95;
      }

      .cls-3 {
        fill: #ff6a00;
      }
    </style>
  </defs>
  <rect class="cls-3" x="0" y="0" width="256" height="256" rx="50" ry="50"/>
  <g class="cls-2">
    <g>
      <g>
        <path class="cls-1" d="M52.76,73.21s-4.23,13.98-16.08,16.54l8.93,12.15s1.81-.82,4.39-2.58v48.5h13.26v-54.77h-5.94c4.3-4.59,8.49-11.09,10.04-19.84h-14.6Z"/>
        <polygon class="cls-1" points="122.47 94.95 122.47 73.21 108.96 73.21 108.96 83.86 95.29 83.86 97.25 73.21 82.24 73.21 80.31 83.86 68.25 83.86 68.25 94.95 78.29 94.95 68.68 147.83 83.54 147.83 93.25 94.95 122.47 94.95"/>
        <path class="cls-1" d="M116.47,137.26h-3.01v-35.36h-14.06v37.04c0,9.38,6.93,8.88,6.93,8.88h16.39v-13.13c-3.14,2.36-6.25,2.56-6.25,2.56Z"/>
      </g>
      <rect class="cls-1" x="133.6" y="73.21" width="22.41" height="9.67"/>
      <polygon class="cls-1" points="156 101.59 156 90.71 133.6 90.71 133.6 101.59 138.21 101.59 138.21 135.89 133.6 137.06 133.6 147.95 155.76 142.15 155.76 131.41 151.34 132.54 151.34 101.59 156 101.59"/>
      <path class="cls-1" d="M163.66,107.55h45.12s-.73,14.17-12.15,26.34c0,0,7.16,4.11,16.13,1.77l-3.85,11.77s-11.22,.52-23.08-5.19c0,0-9.56,5.32-22.84,5.21l-3.82-11.85s4.56,1.77,11.57-.12c6.81-1.84,16.37-5.68,21.65-18.08h-28.71v-9.85Z"/>
      <path class="cls-1" d="M206.34,93.3v-20.08h-40.56v11.1s-.41,8.38-7.4,9.85l9.41,9.99s9.38-7.27,10.71-16.33c.18-1.22,.29-4.94,.29-4.94h14.81v13.36c0,3.84,3.12,6.96,6.96,6.96h12.76v-12.09c-3.49,2.48-6.98,2.19-6.98,2.19Z"/>
    </g>
    <g>
      <path class="cls-1" d="M45.95,163.29h5.09v12.28c.07,1.81,1.53,2.99,3.59,2.46,.71-.14,1.35-.57,1.89-1.17,.6-.71,.82-1.39,.85-2.6v-10.96h5.09v19.21h-4.87v-2.63c-.11,.14-.18,.28-.28,.43-1.32,1.67-2.81,2.42-5.23,2.38-3.74-.07-5.84-2.28-6.08-6.65-.03-.43-.03-.82-.03-1.25v-11.49Z"/>
      <path class="cls-1" d="M67.36,163.29h5.09v19.21h-5.09v-19.21Z"/>
      <path class="cls-1" d="M78.13,177.3c.57,.32,1.14,.6,1.74,.78,1.17,.39,2.03,.46,2.78,.39,.43-.07,.78-.14,1.1-.25,.89-.32,1.32-.71,1.49-1.25,.36-1.14-.04-1.74-1.46-2.35-.11-.04-.25-.07-.36-.11l-1.35-.46c-4.34-1.35-5.73-3.31-4.8-6.76,.36-1.42,1.42-2.67,3.24-3.56,1.21-.57,2.85-.85,4.98-.71,1.17,.11,2.42,.39,4.09,1.03,.25,.11,.5,.18,.75,.28l-1.21,3.84c-.57-.28-1.1-.5-1.64-.64-1.21-.28-1.99-.36-2.6-.28-1.85,.14-2.67,1.03-2.53,2.03,.07,.64,.36,.96,1,1.25l.61,.25,.36,.14,1.28,.43c3.74,1.25,4.84,2.35,5.16,4.84,.5,4.27-3.84,7.79-10.78,6.19-.75-.18-1.46-.39-2.21-.68-.32-.11-.64-.25-.92-.39l1.28-4.02Z"/>
      <path class="cls-1" d="M108.41,155.92h5.09v26.58h-4.87v-2.88c-.11,.18-.25,.36-.39,.53-2.49,2.88-6.8,3.52-10.64,.96-1.99-1.35-3.38-3.63-3.84-6.55-.21-1.25-.18-2.49,.04-3.7,.75-4.02,3.42-6.8,7.12-7.65,2.92-.64,5.27,.04,7.15,1.96,.14,.11,.25,.25,.36,.36v-9.61Zm-4.84,22.1c2.74,0,4.98-2.21,4.98-5.2,0-3.38-2.85-5.69-6.01-5.09-2.24,.43-3.98,2.56-3.98,5.09,0,2.99,2.24,5.2,5.02,5.2Z"/>
      <path class="cls-1" d="M131.67,168.91c-1.17-1-2.78-1.42-4.48-1.1-.61,.11-1.17,.36-1.71,.68-1.6,1.03-2.42,2.49-2.42,4.38,0,1.67,.53,2.88,1.74,3.98,1.28,1.1,2.74,1.53,4.62,1.17,.93-.18,1.74-.61,2.46-1.28l3.06,3.77c-1.42,1.07-3.06,1.74-4.8,2.06-6.05,1.07-11.28-2.53-12.2-7.72-.78-4.45,.92-8.22,4.7-10.46,1.53-.89,3.27-1.35,5.48-1.35,2.31,.04,3.84,.5,6.19,1.89,.18,.14,.39,.25,.57,.39l-3.2,3.59Z"/>
      <path class="cls-1" d="M159.93,168.91c-1.17-1-2.78-1.42-4.48-1.1-.61,.11-1.17,.36-1.71,.68-1.6,1.03-2.42,2.49-2.42,4.38,0,1.67,.53,2.88,1.74,3.98,1.28,1.1,2.74,1.53,4.62,1.17,.93-.18,1.74-.61,2.46-1.28l3.06,3.77c-1.42,1.07-3.06,1.74-4.8,2.06-6.05,1.07-11.28-2.53-12.2-7.72-.78-4.45,.92-8.22,4.7-10.46,1.53-.89,3.27-1.35,5.48-1.35,2.31,.04,3.84,.5,6.19,1.89,.18,.14,.39,.25,.57,.39l-3.2,3.59Z"/>
      <path class="cls-1" d="M176.37,163.25c4.16,.75,7.15,3.74,7.83,7.61,1.07,5.84-2.28,10.71-7.83,11.71-6.62,1.21-11.99-3.31-11.99-9.64s5.44-10.89,11.99-9.68Zm-6.19,12.7c1.17,1.71,3.13,2.53,5.16,2.17,1.28-.25,2.45-1,3.24-2.17,.61-.85,.89-1.89,.89-3.02s-.28-2.21-.89-3.06c-.78-1.14-1.96-1.92-3.24-2.14-2.03-.39-3.98,.43-5.16,2.14-.57,.85-.89,1.89-.89,3.06s.32,2.17,.89,3.02Z"/>
      <path class="cls-1" d="M187.2,163.29h4.87v2.99c.11-.21,.21-.43,.36-.64,.96-1.49,2.13-2.28,3.81-2.56,.57-.07,1.17-.07,1.74,0,1.99,.25,3.17,1.03,3.98,2.63,.07,.18,.18,.39,.25,.61,.11-.21,.21-.39,.32-.57,1.42-1.96,2.7-2.67,5.12-2.7,3.88-.07,5.69,2.28,5.66,8.57v10.89h-4.91v-11.17l-.04-1.1c-.07-1.85-1.42-2.99-3.31-2.53-1.32,.36-2.31,1.74-2.38,4.2v10.6h-4.87v-12.28c-.04-1.89-1.46-3.1-3.38-2.56-1.21,.32-1.96,1.35-2.24,3.49-.04,.25-.07,.46-.07,.71v10.64h-4.91v-19.21Z"/>
      <circle class="cls-1" cx="69.9" cy="158.97" r="2.96"/>
      <circle class="cls-1" cx="141.12" cy="179.11" r="2.96"/>
    </g>
  </g>
</svg>