<?xml version="1.0" encoding="UTF-8"?>
<svg id="_图层_1" data-name="图层 1" xmlns="http://www.w3.org/2000/svg" xmlns:xlink="http://www.w3.org/1999/xlink" viewBox="0 0 256 256">
  <defs>
    <style>
      .cls-1 {
        fill: #fff;
      }

      .cls-2 {
        fill: url(#_未命名的渐变_42);
      }
    </style>
    <linearGradient id="_未命名的渐变_42" data-name="未命名的渐变 42" x1="14.64" y1="14.64" x2="241.36" y2="241.36" gradientUnits="userSpaceOnUse">
      <stop offset="0" stop-color="#3f35ff"/>
      <stop offset="1" stop-color="#9d57ff"/>
    </linearGradient>
  </defs>
  <rect class="cls-2" x="0" y="0" width="256" height="256" rx="50" ry="50"/>
  <path class="cls-1" d="M192.32,150.28l-12.86-22.28-51.47,89.15-12.87-22.29,12.87-22.29,36.02-62.4h30.89l23.16,40.11h-25.74Zm-82.35,44.58H63.66l12.87-22.29h25.74L50.79,83.42h25.74l12.87,22.29,36.03,62.41-15.44,26.74Zm-7.72-156l12.87,22.29-12.87,22.29h102.94l-12.87,22.28H94.54l-15.44-26.74,23.16-40.12h0Zm119.67,109.2l-21.87-37.88-2.57-4.46,11.58-20.05c.79-1.38,.79-3.08,0-4.46l-12.87-22.29c-.79-1.38-2.27-2.23-3.86-2.23h-48.89l-11.59-20.06c-.79-1.38-2.26-2.23-3.85-2.23h-25.74c-1.59,0-3.06,.85-3.86,2.23l-21.87,37.88-2.57,4.45h-23.17c-1.59,0-3.06,.85-3.86,2.23l-12.86,22.29c-.8,1.38-.8,3.08,0,4.46l24.45,42.34-11.58,20.06c-.79,1.38-.79,3.08,0,4.46l12.87,22.29c.8,1.38,2.27,2.23,3.86,2.23h48.88l11.58,20.05h0c.8,1.38,2.27,2.22,3.86,2.23h25.73c1.59,0,3.07-.84,3.86-2.23l24.45-42.35h23.16c1.59,0,3.06-.85,3.86-2.23l12.87-22.29c.81-1.38,.81-3.08,0-4.46h0Z"/>
</svg>