<?xml version="1.0" encoding="UTF-8"?>
<svg id="_图层_1" data-name="图层 1" xmlns="http://www.w3.org/2000/svg" xmlns:xlink="http://www.w3.org/1999/xlink" viewBox="0 0 256 256">
  <defs>
    <style>
      .cls-1 {
        fill: #32e6b9;
      }

      .cls-2 {
        fill: #fff;
      }

      .cls-3 {
        fill: url(#_未命名的渐变_14);
      }

      .cls-4 {
        fill: url(#_未命名的渐变_13);
      }

      .cls-5 {
        clip-path: url(#clippath);
      }

      .cls-6 {
        fill: none;
      }

      .cls-7 {
        fill: rgba(50, 230, 185, .4);
      }
    </style>
    <linearGradient id="_未命名的渐变_14" data-name="未命名的渐变 14" x1="128" y1="1362" x2="128" y2="1106" gradientTransform="translate(0 1362) scale(1 -1)" gradientUnits="userSpaceOnUse">
      <stop offset="0" stop-color="#6c4dff"/>
      <stop offset="1" stop-color="#583ed3"/>
    </linearGradient>
    <clipPath id="clippath">
      <path class="cls-6" d="M55.24,0H200.76c30.51,0,55.24,24.73,55.24,55.24V206.49c0,27.34-22.17,49.51-49.51,49.51H50.06c-27.65,0-50.06-22.41-50.06-50.06V55.24C0,24.73,24.73,0,55.24,0Z"/>
    </clipPath>
    <linearGradient id="_未命名的渐变_13" data-name="未命名的渐变 13" x1="106.64" y1="1291.1" x2="226.39" y2="1083.67" gradientTransform="translate(0 1362) scale(1 -1)" gradientUnits="userSpaceOnUse">
      <stop offset="0" stop-color="#fff" stop-opacity=".8"/>
      <stop offset=".44" stop-color="#fff"/>
    </linearGradient>
  </defs>
  <rect class="cls-3" width="256" height="256" rx="50" ry="50"/>
  <g class="cls-5">
    <g>
      <circle class="cls-7" cx="80.69" cy="223.87" r="90.12"/>
      <circle class="cls-1" cx="213.38" cy="279.16" r="82.37"/>
      <path class="cls-4" d="M195.78,20.02c2.51-2.25,2.66-2.34,4.5-2.45,2.98-.22,5.71,1.21,10.36,5.45,10.86,9.87,25.99,30.17,35.39,47.5l3.63,6.73,5.13,2.55c4.95,2.5,13.08,7.64,16.48,10.39,1.53,1.27,1.75,1.3,3.35,.67,7.2-2.8,17.52,.91,26.62,9.64,8.19,7.85,16.04,21.27,19.05,32.47,.44,1.8,1.02,5.68,1.23,8.56,.69,10.13-2.57,18.22-8.82,21.89-1.28,.74-1.36,.94-1.33,4.13,.29,15.17-3.8,30.32-12.02,45.09-9.27,16.58-25.79,33.74-48.14,49.9-12,8.73-40.4,25.28-53.24,31.09-30.76,13.85-55.41,19.16-76.83,16.53-12.77-1.55-27.23-6.53-35.79-12.32-2.25-1.56-2.61-1.65-4.33-1.16-9.16,2.63-21.15-2.78-31.34-14.09-4.06-4.52-10.63-15.62-12.75-21.57-4.92-13.9-3.94-26.45,2.61-33.94,1.69-1.93,1.75-2.01,1.38-5.26-.61-5.31-.89-13.17-.61-18.25l.22-4.74-7.12-12.59c-11.02-19.61-18.02-36.07-20.72-48.65-1.43-6.9-1.34-9.95,.41-12.22,1.07-1.37,4.56-2.79,8.77-3.56,10.61-1.86,33.74-.18,59.47,4.37l2.67,.46,5.87-5.19c9.75-8.64,16.23-13.48,28.17-20.93,12.45-7.79,26.5-14.2,42.32-19.27l5.07-1.63,2.79-7.33c9.99-26.37,20.22-45.81,27.52-52.28ZM112.1,155.16c-11.29,6.52-16.94,9.78-21.09,13.43-16.8,14.79-23.08,38.22-15.92,59.43,1.77,5.24,5.03,10.88,11.55,22.17,6.52,11.29,9.78,16.94,13.43,21.09,14.79,16.8,38.22,23.08,59.43,15.93,5.24-1.77,12.32-2.89,23.61-9.4l64.95-37.5c11.29-6.52,15.5-11.92,19.65-15.57,16.8-14.79,23.08-38.22,15.93-59.43-1.77-5.24-5.03-10.88-11.55-22.17-6.52-11.29-9.78-16.94-13.43-21.09-14.79-16.8-38.22-23.08-59.43-15.93-5.24,1.77-10.88,5.03-22.17,11.55l-64.95,37.5Z"/>
      <path class="cls-2" d="M129.48,194.12h0c6.14-3.54,13.98-1.44,17.52,4.7l13.82,23.93c3.54,6.14,1.44,13.98-4.7,17.52h0c-6.14,3.54-13.98,1.44-17.52-4.7l-13.82-23.93c-3.54-6.14-1.44-13.98,4.7-17.52Z"/>
      <path class="cls-2" d="M198.71,154.16h0c6.14-3.54,13.98-1.44,17.52,4.7l13.82,23.93c3.54,6.14,1.44,13.98-4.7,17.52h0c-6.14,3.54-13.98,1.44-17.52-4.7l-13.82-23.93c-3.54-6.14-1.44-13.98,4.7-17.52Z"/>
    </g>
  </g>
</svg>