<?xml version="1.0" encoding="UTF-8"?>
<svg id="_图层_1" data-name="图层 1" xmlns="http://www.w3.org/2000/svg" xmlns:xlink="http://www.w3.org/1999/xlink" viewBox="0 0 256 256">
  <defs>
    <style>
      .cls-1 {
        fill: #f4f4f4;
      }

      .cls-2 {
        fill: #fff;
      }

      .cls-3 {
        fill: url(#_未命名的渐变_2);
      }

      .cls-3, .cls-4 {
        fill-rule: evenodd;
      }

      .cls-5 {
        fill: #e5e5e5;
      }

      .cls-6 {
        fill: none;
      }
    </style>
    <linearGradient id="_未命名的渐变_2" data-name="未命名的渐变 2" x1="-466.35" y1="14.52" x2="-466.35" y2="12.81" gradientTransform="translate(48628 -1261.13) scale(104 101.5)" gradientUnits="userSpaceOnUse">
      <stop offset="0" stop-color="#492779"/>
      <stop offset="1" stop-color="#892793"/>
    </linearGradient>
  </defs>
  <rect class="cls-1" x="0" y="0" width="256" height="256" rx="50" ry="50"/>
  <g>
    <path class="cls-6" d="M18.43,18.43H237.57V237.57H18.43V18.43Z"/>
    <g>
      <circle class="cls-2" cx="128" cy="128" r="96.73"/>
      <path class="cls-5" d="M128,32.13c52.95,0,95.87,42.92,95.87,95.87s-42.92,95.87-95.87,95.87-95.87-42.92-95.87-95.87S75.05,32.13,128,32.13m0-1.71c-53.81,0-97.59,43.78-97.59,97.59s43.78,97.59,97.59,97.59,97.59-43.78,97.59-97.59S181.81,30.41,128,30.41h0Z"/>
    </g>
    <g>
      <path id="e" class="cls-4" d="M38.97,128c0,39.38,25.51,72.76,60.95,84.57,4.45,.86,6.16-1.88,6.16-4.28,0-2.05-.17-9.07-.17-16.61-22.43,4.11-28.08-5.48-29.96-10.44-1.03-2.57-5.31-10.44-9.07-12.5-3.08-1.71-7.53-5.82-.17-5.82,7.02-.17,11.98,6.51,13.7,9.07,8.05,13.53,20.89,9.76,25.85,7.36,.86-5.82,3.08-9.76,5.65-11.98-19.86-2.23-40.58-9.93-40.58-44,0-9.76,3.42-17.63,9.07-23.97-.86-2.23-3.94-11.3,.86-23.63,0,0,7.53-2.4,24.48,9.07,7.19-2.05,14.72-3.08,22.26-3.08s15.07,1.03,22.26,3.08c16.95-11.64,24.48-9.07,24.48-9.07,4.96,12.33,1.71,21.4,.86,23.63,5.65,6.16,9.07,14.21,9.07,23.97,0,34.24-20.89,41.77-40.58,44,3.25,2.74,5.99,8.05,5.99,16.44,0,11.98-.17,21.57-.17,24.48,0,2.4,1.71,5.14,6.16,4.28,35.1-11.81,60.61-45.2,60.61-84.57,0-49.31-39.89-89.03-89.03-89.03S38.97,78.86,38.97,128Z"/>
      <path id="e-2" data-name="e" class="cls-3" d="M38.97,128c0,39.38,25.51,72.76,60.95,84.57,4.45,.86,6.16-1.88,6.16-4.28,0-2.05-.17-9.07-.17-16.61-22.43,4.11-28.08-5.48-29.96-10.44-1.03-2.57-5.31-10.44-9.07-12.5-3.08-1.71-7.53-5.82-.17-5.82,7.02-.17,11.98,6.51,13.7,9.07,8.05,13.53,20.89,9.76,25.85,7.36,.86-5.82,3.08-9.76,5.65-11.98-19.86-2.23-40.58-9.93-40.58-44,0-9.76,3.42-17.63,9.07-23.97-.86-2.23-3.94-11.3,.86-23.63,0,0,7.53-2.4,24.48,9.07,7.19-2.05,14.72-3.08,22.26-3.08s15.07,1.03,22.26,3.08c16.95-11.64,24.48-9.07,24.48-9.07,4.96,12.33,1.71,21.4,.86,23.63,5.65,6.16,9.07,14.21,9.07,23.97,0,34.24-20.89,41.77-40.58,44,3.25,2.74,5.99,8.05,5.99,16.44,0,11.98-.17,21.57-.17,24.48,0,2.4,1.71,5.14,6.16,4.28,35.1-11.81,60.61-45.2,60.61-84.57,0-49.31-39.89-89.03-89.03-89.03S38.97,78.86,38.97,128Z"/>
    </g>
  </g>
</svg>