<?xml version="1.0" encoding="UTF-8"?>
<svg id="_图层_1" data-name="图层 1" xmlns="http://www.w3.org/2000/svg" xmlns:xlink="http://www.w3.org/1999/xlink" viewBox="0 0 256 256">
  <defs>
    <style>
      .cls-1 {
        fill: #f4f4f4;
      }

      .cls-2 {
        fill: url(#_未命名的渐变_2);
      }

      .cls-2, .cls-3, .cls-4 {
        fill-rule: evenodd;
      }

      .cls-3 {
        fill: url(#_未命名的渐变_3);
      }

      .cls-4 {
        fill: url(#_未命名的渐变_4);
      }
    </style>
    <linearGradient id="_未命名的渐变_4" data-name="未命名的渐变 4" x1="159.89" y1="445.89" x2="109.75" y2="397.31" gradientTransform="translate(0 534) scale(1 -1)" gradientUnits="userSpaceOnUse">
      <stop offset=".11" stop-color="#ff68cf"/>
      <stop offset=".32" stop-color="#ea61e6"/>
      <stop offset=".57" stop-color="#cc51ff"/>
      <stop offset="1" stop-color="#7936ff"/>
    </linearGradient>
    <linearGradient id="_未命名的渐变_2" data-name="未命名的渐变 2" x1="93.51" y1="403.24" x2="93.51" y2="308.6" gradientTransform="translate(0 534) scale(1 -1)" gradientUnits="userSpaceOnUse">
      <stop offset=".09" stop-color="#7c2fff"/>
      <stop offset="1" stop-color="#33c9ff"/>
    </linearGradient>
    <linearGradient id="_未命名的渐变_3" data-name="未命名的渐变 3" x1="146.25" y1="404.15" x2="36.61" y2="449.21" gradientTransform="translate(0 534) scale(1 -1)" gradientUnits="userSpaceOnUse">
      <stop offset=".05" stop-color="#ff68cf"/>
      <stop offset=".99" stop-color="#ff9059"/>
    </linearGradient>
  </defs>
  <rect class="cls-1" x="0" y="0" width="256" height="256" rx="50" ry="50"/>
  <g>
    <path id="_矢量_442" data-name="矢量 442" class="cls-4" d="M113.49,110.21l-32.95-36.12c3.25-6.47,7.62-12.48,13.12-18.02,13.48-13.58,29.77-20.37,48.87-20.37s35.39,6.79,48.87,20.37c13.41,13.51,20.11,29.8,20.11,48.87s-6.7,35.35-20.11,48.86c-13.48,13.58-29.77,20.37-48.87,20.37v-39.71c7.97,0,14.78-2.85,20.44-8.55,5.74-5.78,8.6-12.77,8.6-20.97s-2.86-15.2-8.6-20.97c-5.66-5.71-12.47-8.56-20.44-8.56s-14.78,2.85-20.44,8.56c-5.74,5.77-8.6,12.76-8.6,20.97v5.27Z"/>
    <path id="_矢量_443" data-name="矢量 443" class="cls-2" d="M73.54,138.74v81.56h3.03c20.38,0,36.91-16.43,36.91-36.71v-10.89c-5.22-2.24-10.6-5.71-16.14-10.39-9.85-8.34-17.79-16.2-23.81-23.57h0Z"/>
    <path id="_矢量_444" data-name="矢量 444" class="cls-3" d="M35.35,76.29l-6.86,6.2,56.11,61.44h0l8.75,9.6,.29,.3c13.49,13.58,29.77,20.37,48.88,20.37s35.39-6.79,48.87-20.37c13.41-13.51,20.11-29.8,20.11-48.87h-39.94c0,8.21-2.86,15.19-8.6,20.97-5.67,5.71-12.47,8.56-20.44,8.56s-14.57-2.77-20.18-8.29l-26.81-29.42-.02,.02-16.85-18.45c-11.38-12.47-30.78-13.4-43.33-2.08Z"/>
  </g>
</svg>