<?xml version="1.0" encoding="UTF-8"?>
<svg id="_图层_1" data-name="图层 1" xmlns="http://www.w3.org/2000/svg" viewBox="0 0 256 256">
  <defs>
    <style>
      .cls-1 {
        fill: #707070;
        font-family: 'AlibabaPuHuiTi_3_55_Regular', 'Alibaba PuHuiTi 3.0';
        font-size: 21px;
      }

      .cls-2 {
        fill: #f4f4f4;
      }

      .cls-3 {
        fill: rgba(57, 112, 227, .5);
      }

      .cls-4 {
        letter-spacing: .12em;
      }

      .cls-5 {
        letter-spacing: .11em;
      }

      .cls-6 {
        fill: #3970e3;
      }

      .cls-7 {
        letter-spacing: .12em;
      }

      .cls-8 {
        letter-spacing: .12em;
      }
    </style>
  </defs>
  <rect class="cls-2" x="0" y="0" width="256" height="256" rx="50" ry="50"/>
  <g>
    <path class="cls-6" d="M30.83,156.59L84.9,51.57c4.96-9.64,18.65-9.86,23.92-.38l58.17,104.61c5.89,10.59-3.96,23.01-15.59,19.68l-47.91-13.72c-2.44-.7-5.02-.7-7.46,0l-49.4,14.13c-11.43,3.27-21.24-8.71-15.79-19.29Z"/>
    <path class="cls-3" d="M189.04,169.08l22.33,6.4c11.63,3.33,21.48-9.09,15.59-19.68l-58.17-104.61c-5.27-9.48-18.96-9.26-23.92,.38l-9.57,18.59,53.74,98.91h0Z"/>
  </g>
  <text class="cls-1" transform="translate(61.5 211.19) scale(1.05 1)"><tspan class="cls-4" x="0" y="0">MA</tspan><tspan class="cls-8" x="36.48" y="0">S</tspan><tspan class="cls-4" x="50.86" y="0">TE</tspan><tspan class="cls-5" x="78.67" y="0">R</tspan><tspan class="cls-7" x="93.76" y="0">GO</tspan></text>
</svg>