<?xml version="1.0" encoding="UTF-8"?>
<svg id="_图层_1" data-name="图层 1" xmlns="http://www.w3.org/2000/svg" viewBox="0 0 256 256">
  <defs>
    <style>
      .cls-1 {
        fill: #ff683c;
      }

      .cls-2 {
        fill: #17dc90;
      }

      .cls-3 {
        fill: #231c23;
      }

      .cls-4 {
        fill: #ff8678;
      }

      .cls-5 {
        fill: #51cdff;
      }

      .cls-6 {
        fill: #ab6aff;
      }
    </style>
  </defs>
  <rect class="cls-3" x="0" y="0" width="256" height="256" rx="50" ry="50"/>
  <g>
    <path class="cls-1" d="M97.34,99.34h30.66V38.02h-30.66c-16.93,0-30.66,13.73-30.66,30.66s13.73,30.66,30.66,30.66Z"/>
    <path class="cls-6" d="M97.34,160.66h30.66v-61.32h-30.66c-16.93,0-30.66,13.73-30.66,30.66s13.73,30.66,30.66,30.66Z"/>
    <path class="cls-2" d="M97.34,221.98c16.93,0,30.66-13.73,30.66-30.66v-30.66h-30.66c-16.93,0-30.66,13.73-30.66,30.66s13.73,30.66,30.66,30.66Z"/>
    <path class="cls-4" d="M128,99.34h30.66c16.93,0,30.66-13.73,30.66-30.66s-13.73-30.66-30.66-30.66h-30.66v61.32Z"/>
    <path class="cls-5" d="M158.66,160.66c16.93,0,30.66-13.73,30.66-30.66s-13.73-30.66-30.66-30.66-30.66,13.73-30.66,30.66,13.73,30.66,30.66,30.66Z"/>
  </g>
</svg>