<?xml version="1.0" encoding="UTF-8"?>
<svg id="_图层_1" data-name="图层 1" xmlns="http://www.w3.org/2000/svg" viewBox="0 0 256 256">
  <defs>
    <style>
      .cls-1 {
        fill: #5735ff;
      }

      .cls-2 {
        fill: #f4f4f4;
      }

      .cls-3 {
        fill: #fff;
      }
    </style>
  </defs>
  <rect class="cls-2" x="0" y="0" width="256" height="256" rx="50" ry="50"/>
  <g>
    <path class="cls-1" d="M226.65,161.28s-22.11-48.89-29.47-65.19c-16.69-36.94-43.9-54.54-80.37-54.54-47.75,0-86.46,38.71-86.46,86.46s38.71,86.46,86.46,86.46c13.38,0,26.04-3.04,37.35-8.46h0s66.78-29.7,66.78-29.7c5.74-2.55,8.31-9.29,5.72-15.02Z"/>
    <path class="cls-3" d="M65,84.14h33.18l38.71,106.12h-15.76c-5.58,0-10.62-3.23-12.87-8.34l-43.27-97.78Z"/>
    <path class="cls-3" d="M164.37,94.31v-10.44h-27.7v57.44c15.3,0,26.45-8.83,27.7-19.56v-10.44h-14.3c8.1-3.38,13.46-9.75,14.3-17Z"/>
  </g>
</svg>