<?xml version="1.0" encoding="UTF-8"?>
<svg id="_图层_1" data-name="图层 1" xmlns="http://www.w3.org/2000/svg" viewBox="0 0 256 256">
  <defs>
    <style>
      .cls-1, .cls-2 {
        fill: #fff;
      }

      .cls-2 {
        opacity: .4;
      }
    </style>
  </defs>
  <rect x="0" y="0" width="256" height="256" rx="50" ry="50"/>
  <g>
    <path class="cls-1" d="M150.82,156.24c-3.15-.03-5.63-2.55-5.58-5.67,.05-3.03,2.57-5.49,5.6-5.47,3.15,.02,5.6,2.52,5.55,5.68-.04,3.05-2.53,5.49-5.57,5.46Z"/>
    <path class="cls-1" d="M179.07,173.42c0,3.07-2.43,5.53-5.48,5.55-3.16,.02-5.69-2.46-5.67-5.57,.02-3.1,2.62-5.66,5.69-5.6,3,.05,5.46,2.59,5.46,5.62Z"/>
    <path class="cls-1" d="M167.89,82.59c-.02-3.07,2.42-5.54,5.51-5.55,3.1-.01,5.59,2.39,5.65,5.46,.06,3.07-2.58,5.73-5.65,5.7-3.06-.03-5.49-2.5-5.51-5.6Z"/>
    <path class="cls-1" d="M88.09,173.52c0,3.1-2.42,5.59-5.47,5.62-3.11,.03-5.7-2.55-5.68-5.66,.02-3,2.59-5.52,5.62-5.51,3.09,.01,5.53,2.46,5.53,5.54Z"/>
    <path class="cls-1" d="M144.96,139.3c.03,3.1-2.38,5.59-5.45,5.63-3.05,.04-5.62-2.41-5.7-5.44-.08-3.1,2.47-5.71,5.6-5.73,3.06-.02,5.51,2.43,5.54,5.54Z"/>
    <path class="cls-1" d="M105.32,156.29c-3.09,.02-5.59-2.42-5.61-5.47-.02-3.14,2.55-5.74,5.63-5.69,3.05,.05,5.52,2.57,5.52,5.62,0,3.09-2.44,5.53-5.54,5.55Z"/>
    <path class="cls-1" d="M82.83,76.98c3.1,.12,5.47,2.66,5.34,5.72-.13,3.09-2.65,5.49-5.69,5.44-3.07-.06-5.59-2.78-5.44-5.87,.15-3.09,2.68-5.4,5.78-5.28Z"/>
    <path class="cls-1" d="M122.23,139.43c-.03,3.06-2.55,5.53-5.59,5.5-3.04-.04-5.54-2.55-5.55-5.59,0-3.1,2.61-5.64,5.74-5.56,3.11,.08,5.44,2.51,5.4,5.65Z"/>
    <path class="cls-1" d="M128.08,145.44c2.96,.03,5.29,2.37,5.26,5.3-.02,2.95-2.37,5.33-5.27,5.33-2.99,0-5.44-2.46-5.38-5.44,.06-2.94,2.43-5.22,5.39-5.2Z"/>
    <path class="cls-1" d="M133.38,105.28c0,2.96-2.29,5.27-5.27,5.28-2.94,.01-5.34-2.33-5.35-5.23-.01-3.01,2.43-5.46,5.4-5.41,2.94,.04,5.21,2.38,5.22,5.37Z"/>
    <path class="cls-1" d="M105.31,133.3c-2.9-.01-5.34-2.44-5.33-5.3,0-2.88,2.44-5.3,5.32-5.31,3.05,0,5.42,2.37,5.38,5.4-.04,2.92-2.41,5.22-5.37,5.21Z"/>
    <path class="cls-1" d="M156.05,127.98c0,3.02-2.25,5.31-5.22,5.31-3.08,0-5.43-2.34-5.38-5.37,.05-2.97,2.36-5.22,5.34-5.21,3,0,5.25,2.27,5.25,5.27Z"/>
    <path class="cls-1" d="M121.82,162.16c-.04,2.84-2.44,5.15-5.26,5.07-2.76-.08-5.03-2.4-5.04-5.14-.02-2.81,2.36-5.14,5.21-5.12,2.9,.03,5.14,2.31,5.1,5.19Z"/>
    <path class="cls-1" d="M116.62,99.04c-2.77-.02-5.12-2.37-5.09-5.09,.03-2.87,2.42-5.24,5.23-5.19,2.78,.05,5.05,2.35,5.07,5.14,.02,2.89-2.28,5.16-5.2,5.14Z"/>
    <path class="cls-1" d="M144.54,93.85c.03,2.86-2.13,5.13-4.94,5.2-2.93,.07-5.24-2.13-5.29-5.04-.05-2.86,2.27-5.23,5.14-5.23,2.76,0,5.07,2.29,5.1,5.08Z"/>
    <path class="cls-1" d="M139.39,156.97c2.91-.02,5.16,2.24,5.15,5.18-.01,2.77-2.31,5.08-5.08,5.1-2.84,.02-5.2-2.37-5.17-5.22,.03-2.82,2.27-5.04,5.1-5.05Z"/>
    <path class="cls-1" d="M105.36,178.39c-2.71,.03-5.02-2.25-4.99-4.93,.03-2.63,2.24-4.86,4.84-4.89,2.68-.03,4.98,2.25,4.98,4.94,0,2.62-2.21,4.86-4.83,4.89Z"/>
    <path class="cls-1" d="M145.93,173.5c-.03-2.79,2.12-4.99,4.85-4.97,2.68,.02,4.82,2.13,4.87,4.8,.05,2.76-2.12,4.95-4.89,4.95-2.73,0-4.81-2.06-4.84-4.78Z"/>
    <path class="cls-1" d="M82.6,110.16c-2.62,0-4.88-2.23-4.9-4.81-.03-2.73,2.18-4.94,4.94-4.94,2.69,0,4.87,2.13,4.9,4.77,.03,2.69-2.24,4.98-4.93,4.97Z"/>
    <path class="cls-1" d="M178.37,105.19c.03,2.78-2.12,4.97-4.87,4.97-2.65,0-4.83-2.16-4.85-4.81-.02-2.8,2.09-4.94,4.88-4.94,2.71,0,4.82,2.07,4.85,4.78Z"/>
    <path class="cls-1" d="M100.48,82.42c.05-2.66,2.24-4.81,4.89-4.8,2.69,0,4.96,2.34,4.89,5.02-.07,2.62-2.3,4.8-4.93,4.81-2.7,0-4.91-2.28-4.86-5.02Z"/>
    <path class="cls-1" d="M155.65,82.61c-.02,2.74-2.27,4.93-4.99,4.87-2.66-.06-4.74-2.21-4.74-4.91,0-2.77,2.19-4.9,4.97-4.84,2.7,.06,4.79,2.2,4.76,4.88Z"/>
    <path class="cls-1" d="M87.41,150.86c-.04,2.77-2.25,4.89-5.03,4.81-2.65-.07-4.79-2.3-4.75-4.93,.04-2.59,2.3-4.84,4.88-4.85,2.7-.02,4.94,2.25,4.9,4.97Z"/>
    <path class="cls-1" d="M178.36,150.79c-.03,2.69-2.14,4.74-4.87,4.75-2.75,0-4.9-2.19-4.85-4.97,.04-2.67,2.19-4.76,4.88-4.75,2.79,.01,4.88,2.15,4.85,4.97Z"/>
    <path class="cls-1" d="M184.95,166.68c-2.61,.03-4.74-2.07-4.71-4.64,.02-2.47,2.13-4.59,4.61-4.62,2.5-.04,4.59,2,4.66,4.52,.07,2.68-1.88,4.71-4.56,4.74Z"/>
    <path class="cls-1" d="M166.81,184.7c.03,2.52-1.98,4.61-4.49,4.66-2.65,.06-4.78-1.97-4.79-4.56-.01-2.58,2.14-4.75,4.68-4.72,2.48,.03,4.56,2.12,4.6,4.61Z"/>
    <path class="cls-1" d="M157.49,71.26c0-2.56,1.97-4.58,4.52-4.62,2.6-.04,4.75,2.04,4.76,4.61,0,2.45-2.11,4.62-4.56,4.66-2.58,.05-4.7-2.06-4.71-4.66Z"/>
    <path class="cls-1" d="M75.76,162.22c0,2.58-2.02,4.6-4.58,4.62-2.58,.02-4.77-2.19-4.7-4.74,.07-2.53,2.17-4.53,4.72-4.5,2.59,.03,4.56,2.03,4.55,4.62Z"/>
    <path class="cls-1" d="M189.47,93.96c-.02,2.59-2.17,4.68-4.75,4.63-2.48-.05-4.54-2.19-4.52-4.68,.02-2.6,2.13-4.62,4.77-4.58,2.53,.04,4.53,2.09,4.51,4.63Z"/>
    <path class="cls-1" d="M132.63,82.53c0,2.65-2.05,4.65-4.71,4.61-2.52-.04-4.56-2.11-4.55-4.62,0-2.57,2.19-4.69,4.76-4.65,2.5,.05,4.51,2.12,4.5,4.66Z"/>
    <path class="cls-1" d="M128.27,168.87c2.55,.13,4.46,2.23,4.36,4.83-.09,2.53-2.25,4.54-4.77,4.44-2.51-.1-4.58-2.29-4.5-4.76,.09-2.62,2.29-4.64,4.91-4.51Z"/>
    <path class="cls-1" d="M98.49,184.94c-.03,2.55-2.09,4.6-4.62,4.6-2.47,0-4.61-2.13-4.64-4.62-.03-2.58,2.13-4.68,4.76-4.63,2.6,.05,4.53,2.05,4.5,4.66Z"/>
    <path class="cls-1" d="M75.88,93.91c-.02,2.53-2.1,4.61-4.62,4.61-2.52,0-4.59-2.07-4.61-4.61-.02-2.67,2.03-4.69,4.71-4.65,2.59,.04,4.53,2.05,4.52,4.65Z"/>
    <path class="cls-1" d="M94.03,66.58c2.56,.02,4.6,2.02,4.64,4.57,.04,2.54-2.19,4.73-4.76,4.68-2.53-.05-4.53-2.14-4.51-4.7,.02-2.58,2.04-4.56,4.62-4.55Z"/>
    <path class="cls-1" d="M173.58,132.61c-2.6,.01-4.64-1.95-4.69-4.5-.04-2.66,1.98-4.72,4.65-4.73,2.5-.01,4.61,2.08,4.62,4.6,.01,2.52-2.06,4.62-4.58,4.63Z"/>
    <path class="cls-1" d="M82.54,132.61c-2.57,0-4.58-2-4.59-4.58,0-2.6,1.95-4.61,4.53-4.64,2.64-.03,4.78,2.09,4.74,4.67-.05,2.53-2.11,4.54-4.67,4.55Z"/>
    <path class="cls-1" d="M67.11,116.64c.03-2.33,1.84-4.14,4.13-4.12,2.24,.02,4.15,1.95,4.13,4.17-.03,2.25-1.96,4.16-4.17,4.14-2.27-.03-4.11-1.91-4.08-4.19Z"/>
    <path class="cls-1" d="M67.11,139.39c0-2.34,1.77-4.08,4.12-4.08,2.31,0,4.13,1.83,4.13,4.12,0,2.22-1.94,4.14-4.17,4.13-2.26-.01-4.09-1.88-4.09-4.18Z"/>
    <path class="cls-1" d="M180.74,116.4c.15-2.28,2.14-4.04,4.37-3.88,2.26,.17,4.03,2.18,3.88,4.41-.15,2.23-2.2,4.02-4.42,3.87-2.28-.15-3.98-2.11-3.83-4.41Z"/>
    <path class="cls-1" d="M120.73,184.84c-.02,2.32-1.84,4.13-4.12,4.11-2.3-.02-4.1-1.84-4.1-4.14,0-2.31,1.82-4.09,4.13-4.08,2.34,.02,4.1,1.79,4.08,4.12Z"/>
    <path class="cls-1" d="M116.74,75.28c-2.33,.02-4.15-1.73-4.2-4.04-.05-2.26,1.8-4.16,4.07-4.18,2.31-.02,4.14,1.76,4.17,4.06,.02,2.36-1.7,4.14-4.04,4.16Z"/>
    <path class="cls-1" d="M139.42,75.28c-2.33,.01-4.18-1.77-4.19-4.04-.01-2.29,1.81-4.16,4.08-4.19,2.3-.02,4.13,1.76,4.17,4.07,.04,2.33-1.73,4.14-4.05,4.15Z"/>
    <path class="cls-1" d="M189.01,139.37c-.03,2.23-1.96,4.14-4.19,4.13-2.23-.01-4.13-1.95-4.11-4.19,.02-2.28,1.92-4.16,4.16-4.12,2.25,.03,4.16,1.97,4.13,4.19Z"/>
    <path class="cls-1" d="M139.33,180.72c2.33-.03,4.12,1.74,4.13,4.07,.01,2.31-1.78,4.13-4.08,4.15-2.29,.02-4.13-1.8-4.16-4.09-.03-2.27,1.8-4.11,4.1-4.13Z"/>
    <path class="cls-1" d="M59.86,108.89c-2.04-.02-3.67-1.68-3.61-3.69,.05-2.02,1.74-3.64,3.73-3.58,1.96,.06,3.5,1.63,3.51,3.59,.02,2.01-1.65,3.69-3.63,3.67Z"/>
    <path class="cls-1" d="M199.83,105.27c-.01,1.99-1.74,3.69-3.7,3.63-2.01-.06-3.67-1.77-3.61-3.73,.06-1.9,1.71-3.52,3.62-3.54,2-.02,3.7,1.66,3.69,3.64Z"/>
    <path class="cls-1" d="M59.75,154.41c-2.03-.03-3.66-1.72-3.6-3.72,.06-1.93,1.68-3.49,3.64-3.49,2.05,0,3.69,1.62,3.67,3.63-.02,2.04-1.65,3.61-3.71,3.58Z"/>
    <path class="cls-1" d="M150.77,63.43c-2.06,0-3.67-1.6-3.65-3.63,.02-2.01,1.69-3.6,3.73-3.55,1.91,.04,3.55,1.67,3.57,3.56,.02,2.03-1.6,3.63-3.66,3.63Z"/>
    <path class="cls-1" d="M199.87,150.76c0,2.02-1.67,3.66-3.68,3.62-2-.04-3.64-1.75-3.59-3.74,.05-1.92,1.69-3.52,3.61-3.53,2.04,0,3.66,1.61,3.66,3.64Z"/>
    <path class="cls-1" d="M150.77,199.76c-2.04,0-3.68-1.62-3.65-3.64,.03-1.99,1.71-3.6,3.74-3.56,1.97,.04,3.53,1.59,3.56,3.54,.03,2-1.62,3.65-3.65,3.66Z"/>
    <path class="cls-1" d="M108.96,59.89c-.03,2.06-1.64,3.61-3.7,3.57-2.04-.04-3.59-1.69-3.52-3.74,.07-2.05,1.7-3.55,3.79-3.47,1.94,.07,3.46,1.68,3.43,3.64Z"/>
    <path class="cls-1" d="M105.18,192.63c2.07-.03,3.66,1.53,3.66,3.58,0,2-1.48,3.54-3.46,3.6-2.08,.07-3.7-1.43-3.75-3.5-.05-2.07,1.48-3.66,3.55-3.69Z"/>
    <path class="cls-1" d="M131.44,196.17c.03,1.81-1.54,3.45-3.38,3.52-1.87,.07-3.61-1.63-3.58-3.5,.03-1.82,1.67-3.45,3.47-3.44,1.83,0,3.46,1.61,3.49,3.42Z"/>
    <path class="cls-1" d="M196.12,124.6c1.96-.02,3.41,1.36,3.47,3.3,.06,2-1.43,3.53-3.44,3.51-1.92-.02-3.38-1.48-3.38-3.39,0-1.92,1.45-3.4,3.36-3.42Z"/>
    <path class="cls-1" d="M128.25,56.4c1.93,.15,3.4,1.9,3.21,3.82-.19,1.82-1.94,3.27-3.74,3.09-1.85-.19-3.28-1.9-3.12-3.71,.16-1.85,1.85-3.33,3.65-3.19Z"/>
    <path class="cls-1" d="M59.73,131.48c-1.94-.04-3.35-1.5-3.33-3.44,.02-2,1.56-3.47,3.57-3.39,1.88,.07,3.3,1.62,3.24,3.53-.06,1.93-1.56,3.34-3.48,3.3Z"/>
    <path class="cls-1" d="M210.22,116.76c-.05,1.45-1.43,2.71-2.84,2.61-1.4-.1-2.57-1.33-2.56-2.7,0-1.46,1.31-2.73,2.76-2.71,1.43,.02,2.71,1.37,2.65,2.81Z"/>
    <path class="cls-1" d="M48.57,119.28c-1.49,.03-2.72-1.2-2.71-2.7,.01-1.43,1.12-2.6,2.55-2.67,1.46-.08,2.75,1.13,2.8,2.61,.04,1.49-1.14,2.73-2.64,2.76Z"/>
    <path class="cls-1" d="M136.7,48.57c-.03-1.52,1.13-2.71,2.65-2.72,1.46,0,2.6,1.06,2.67,2.5,.07,1.56-1.02,2.76-2.55,2.81-1.54,.05-2.74-1.08-2.77-2.6Z"/>
    <path class="cls-1" d="M116.65,51.16c-1.54-.02-2.67-1.19-2.63-2.73,.04-1.5,1.27-2.64,2.79-2.58,1.46,.06,2.53,1.17,2.53,2.64,0,1.57-1.12,2.69-2.69,2.67Z"/>
    <path class="cls-1" d="M48.4,136.81c1.49,0,2.74,1.23,2.71,2.7-.03,1.42-1.18,2.58-2.61,2.62-1.5,.05-2.78-1.15-2.81-2.61-.02-1.47,1.2-2.71,2.7-2.72Z"/>
    <path class="cls-1" d="M204.92,139.35c.03-1.51,1.27-2.68,2.78-2.61,1.45,.06,2.56,1.2,2.57,2.63,.02,1.46-1.24,2.73-2.7,2.73-1.47,0-2.68-1.26-2.65-2.75Z"/>
    <path class="cls-1" d="M119.24,207.51c.03,1.53-1.13,2.7-2.66,2.7-1.59,0-2.67-1.1-2.65-2.68,.02-1.47,1.09-2.57,2.55-2.62,1.51-.05,2.74,1.11,2.76,2.6Z"/>
    <path class="cls-1" d="M139.48,204.83c1.5,.02,2.71,1.29,2.64,2.77-.07,1.44-1.22,2.55-2.65,2.57-1.48,.02-2.73-1.21-2.74-2.68,0-1.47,1.25-2.68,2.75-2.66Z"/>
    <circle class="cls-2" cx="93.86" cy="93.87" r="5.59"/>
    <circle class="cls-2" cx="105.33" cy="105.28" r="5.59"/>
    <circle class="cls-2" cx="116.75" cy="116.56" r="5.59"/>
    <circle class="cls-2" cx="162.46" cy="93.87" r="5.59"/>
    <circle class="cls-2" cx="150.99" cy="105.28" r="5.59"/>
    <circle class="cls-2" cx="139.57" cy="116.56" r="5.59"/>
    <circle class="cls-2" cx="128.22" cy="127.98" r="5.59"/>
    <circle class="cls-2" cx="93.98" cy="116.67" r="5.2"/>
    <circle class="cls-2" cx="93.98" cy="139.47" r="5.2"/>
    <circle class="cls-2" cx="93.98" cy="162.22" r="5.62"/>
    <circle class="cls-2" cx="162.2" cy="116.67" r="5.2"/>
    <circle class="cls-2" cx="162.2" cy="139.47" r="5.2"/>
    <circle class="cls-2" cx="162.2" cy="162.22" r="5.62"/>
    <circle class="cls-1" cx="36.99" cy="128.01" r="1.85"/>
    <circle class="cls-1" cx="128.18" cy="219.05" r="1.85"/>
    <circle class="cls-1" cx="128.14" cy="36.95" r="1.85"/>
    <circle class="cls-1" cx="219.01" cy="128.01" r="1.85"/>
  </g>
</svg>