<?xml version="1.0" encoding="UTF-8"?>
<svg id="_图层_1" data-name="图层 1" xmlns="http://www.w3.org/2000/svg" xmlns:xlink="http://www.w3.org/1999/xlink" viewBox="0 0 256 256">
  <defs>
    <style>
      .cls-1 {
        fill: #f4f4f4;
      }

      .cls-2 {
        fill: #284dff;
      }

      .cls-3 {
        fill: url(#_未命名的渐变_19);
      }
    </style>
    <linearGradient id="_未命名的渐变_19" data-name="未命名的渐变 19" x1="190.36" y1="-352.68" x2="225.73" y2="-381.33" gradientTransform="translate(0 -294) scale(1 -1)" gradientUnits="userSpaceOnUse">
      <stop offset="0" stop-color="#ffb429"/>
      <stop offset="1" stop-color="#ff6b01"/>
    </linearGradient>
  </defs>
  <rect class="cls-1" x="0" y="0" width="256" height="256" rx="50" ry="50"/>
  <g>
    <path class="cls-2" d="M184.86,193.01s-30.3,16.05-53.25,1.98c-21.76-13.36-24.2-46.26-24.41-49.59-.21,3.56-2.71,36.28-24.39,49.57-22.95,14.07-53.25-1.98-53.25-1.98,0,0,14.68-1.37,24.33-15.93,9.64-14.58,18.31-50.37,24.03-67.52,5.75-17.17,26.99-18.64,29.28-18.58,2.29-.06,23.53,1.45,29.28,18.62,5.73,17.15,14.41,52.96,24.03,67.52,9.64,14.58,24.33,15.93,24.33,15.93l.02-.02Z"/>
    <path class="cls-2" d="M216.56,99.54c-1.98,6.28-24.55,77.4-26.41,82.12-1.96,4.93-3.71,7.16-3.71,7.16-21.56-6.3-27.84-28.57-27.84-28.57,0,0,6.75-18.73,15.31-40.58,8.54-21.87,37.95-21.93,40.03-22.1,1.4-.11,2.08,.38,2.46,.84,.25,.32,.27,.78,.17,1.12Z"/>
    <path class="cls-2" d="M132.57,55.99l5.29-4.76s13.58,10.26,18.14,42.91c0,0-10.1-27.62-23.43-38.17v.02Z"/>
    <path class="cls-2" d="M110.28,66.76l7.37-7.61s22.2,10.13,30.84,37.39c-.42-.76-13.93-25.32-38.22-29.79Z"/>
    <path class="cls-2" d="M91.48,85.76l5.54-11.88c30.8,0,43.8,24.86,44.19,25.62-16.93-19.97-49.76-13.74-49.76-13.74h.02Z"/>
    <path class="cls-3" d="M214.38,90.28c10.1-4.38,14.77-16.2,10.45-26.42-4.33-10.21-16.02-14.94-26.12-10.57-10.1,4.38-14.77,16.2-10.45,26.42,4.33,10.21,16.02,14.94,26.12,10.57Z"/>
  </g>
</svg>