<?xml version="1.0" encoding="UTF-8"?>
<svg id="_图层_1" data-name="图层 1" xmlns="http://www.w3.org/2000/svg" viewBox="0 0 256 256">
  <defs>
    <style>
      .cls-1 {
        fill: #f4f4f4;
      }

      .cls-2 {
        fill: #fff;
      }

      .cls-3 {
        fill: #3d7eff;
      }
    </style>
  </defs>
  <rect class="cls-1" x="0" y="0" width="256" height="256" rx="50" ry="50"/>
  <g>
    <polygon class="cls-2" points="128.25 207.46 60.92 167.96 61.46 89.91 129.33 51.35 196.66 90.84 196.12 168.9 128.25 207.46"/>
    <path class="cls-3" d="M202.06,71.58l-62.26-35.9c-6.53-3.77-17.07-3.77-23.6,0l-62.26,35.9c-6.53,3.77-11.8,12.93-11.8,20.46v71.92c0,7.53,5.27,16.69,11.8,20.46l62.26,35.9c6.53,3.77,17.07,3.77,23.6,0l62.26-35.9c6.53-3.77,11.8-12.93,11.8-20.46V92.04c0-7.53-5.27-16.69-11.8-20.46h0Zm-53.72,56.36c0,22.97-18.58,41.55-41.55,41.55s-41.55-18.58-41.55-41.55v-31.63c0-5.4,4.39-9.79,9.79-9.79s9.79,4.39,9.79,9.79v31.63c0,12.05,9.79,21.84,21.84,21.84s21.84-9.79,21.84-21.84v-31.63c0-5.4,4.39-9.79,9.79-9.79s9.79,4.39,9.79,9.79v31.63s.25,0,.25,0Zm42.3,31.63c0,5.4-4.39,9.79-9.79,9.79s-9.79-4.39-9.79-9.79v-63.26c0-5.4,4.39-9.79,9.79-9.79s9.79,4.39,9.79,9.79v63.26h0Z"/>
  </g>
</svg>