<?xml version="1.0" encoding="UTF-8"?>
<svg id="_图层_1" data-name="图层 1" xmlns="http://www.w3.org/2000/svg" viewBox="0 0 256 256">
  <defs>
    <style>
      .cls-1 {
        fill: #f4f4f4;
      }

      .cls-2 {
        font-family: 'AlibabaPuHuiTi_3_75_SemiBold', 'Alibaba PuHuiTi 3.0';
        font-size: 22px;
      }

      .cls-2, .cls-3 {
        fill: #ff6a00;
      }

      .cls-4 {
        letter-spacing: -.04em;
      }
    </style>
  </defs>
  <rect class="cls-1" x="0" y="0" width="256" height="256" rx="50" ry="50"/>
  <g>
    <path class="cls-3" d="M98.3,102.14h59.96v13.71h-59.96v-13.71Zm89.66-49.11h-39.4l9.71,13.71,28.55,9.14c5.14,1.71,8.57,6.85,8.57,11.99v43.4c0,5.14-3.43,10.28-8.57,11.99l-28.55,9.14-9.71,13.71h39.4c16.56,0,29.7-13.13,29.7-29.7v-53.11c0-16.56-13.13-30.27-29.7-30.27Zm-118.78,90.23c-5.14-1.71-8.57-6.85-8.57-11.99v-43.4c0-5.14,3.43-10.28,8.57-11.99l28.55-9.14,9.71-13.71h-39.4c-16.56,0-29.7,13.71-29.7,30.27v52.54c0,16.56,13.13,29.7,29.7,29.7h39.4l-9.71-13.71s-28.55-8.57-28.55-8.57Z"/>
    <text class="cls-2" transform="translate(43.75 196.16)"><tspan x="0" y="0">ALIBABA C</tspan><tspan class="cls-4" x="111.45" y="0">L</tspan><tspan x="121.94" y="0">OUD</tspan></text>
  </g>
</svg>