<?xml version="1.0" encoding="UTF-8"?>
<svg id="_图层_1" data-name="图层 1" xmlns="http://www.w3.org/2000/svg" viewBox="0 0 256 256">
  <defs>
    <style>
      .cls-1 {
        fill: #f4f4f4;
      }

      .cls-2 {
        fill: #fff;
      }

      .cls-3 {
        fill: #00bcf2;
      }

      .cls-4 {
        fill: #707070;
        font-family: 'AlibabaPuHuiTi_3_55_Regular', 'Alibaba PuHuiTi 3.0';
        font-size: 13px;
        letter-spacing: .26em;
      }
    </style>
  </defs>
  <rect class="cls-1" x="0" y="0" width="256" height="256" rx="50" ry="50"/>
  <g>
    <g>
      <rect class="cls-2" x="65.14" y="96.66" width="133.78" height="49.65"/>
      <path class="cls-3" d="M64.17,175.17c-12.16-1.41-24.81-9.04-31.31-18.88-5.65-8.55-8.05-17.04-7.63-26.94,.5-11.8,4.38-20.73,12.62-29.03,6.53-6.58,12.13-9.85,20.91-12.2,3.48-.93,4.79-1.07,10.56-1.08,5.42,0,7.16,.14,9.87,.86,1.81,.48,3.58,.98,3.92,1.12,.49,.19,.95-.54,2-3.15,8.06-20.09,25.08-34.41,46.86-39.44,4.59-1.06,16.37-1.5,21.59-.8,28.66,3.82,51.25,26.03,55.87,54.94,1.05,6.59,.42,18.93-1.26,24.78l-.39,1.34h2.54c9.37,.03,18.07,5.41,22.01,13.61,2.08,4.34,2.71,7.53,2.44,12.41-.56,10.24-7.14,18.45-17.59,21.95-2.16,.73-5.48,.76-76.09,.81-40.61,.03-75.22-.11-76.91-.3h0Zm70.43-38.63c.85-.24,2.19-1.1,2.98-1.91l1.44-1.48v3.42h6.17v-20.98h-6.17v6.73c0,6.32-.06,6.81-.94,8.12-.81,1.2-1.2,1.41-2.83,1.52-1.64,.11-2.01-.03-2.76-.98-.81-1.03-.87-1.6-.87-8.25v-7.14h-6.69l.2,7.92c.12,4.71,.4,8.42,.7,9.15,1.4,3.51,4.76,5,8.77,3.89h0Zm48.12-.44c1.53-.5,1.54-.52,1.54-2.69,0-1.21-.07-2.19-.16-2.19s-.82,.28-1.63,.62c-1.94,.81-6.13,.8-7.73-.03-1.01-.52-2.41-2.65-2.41-3.66,0-.12,3.05-.22,6.79-.22h6.79v-2.98c-.03-6.08-3.5-9.76-9.24-9.76-6.82,0-11.41,6.1-10.17,13.5,.71,4.21,3.07,6.9,6.91,7.86,1.96,.49,7.22,.25,9.32-.44h0Zm-10.13-12.2c-.41-.67,1.29-3.61,2.37-4.1,1.37-.62,1.99-.63,3.27-.05,1.12,.51,1.92,1.95,1.92,3.47,0,1-.05,1.01-3.68,1.01-2.02,0-3.77-.15-3.88-.33h0Zm-91.19,9.26l1.04-3.2,5.34,.11,5.34,.11,1.03,3.19,1.03,3.19h3.44c3.38,0,3.44-.03,3.15-.93-.16-.51-2.46-7.03-5.11-14.5l-4.82-13.57-3.9-.12-3.9-.12-5.2,14.31c-2.86,7.87-5.2,14.45-5.2,14.63,0,.18,1.52,.27,3.37,.21l3.37-.12,1.04-3.2h0Zm2.51-8.42c0-.17,.72-2.53,1.61-5.24,.88-2.72,1.74-5.49,1.9-6.17,.26-1.1,.39-.86,1.24,2.26,.52,1.92,1.34,4.59,1.8,5.93,1.28,3.65,1.37,3.53-2.85,3.53-2.04,0-3.7-.14-3.7-.31h0Zm37.84,9.56v-2.26h-4.71c-2.59,0-4.79-.14-4.89-.31-.1-.17,2.02-3.17,4.71-6.66,4.27-5.56,4.89-6.55,4.89-7.92v-1.57h-17.69v4.52h4.73c2.6,0,4.73,.14,4.72,.31,0,.17-2.32,3.27-5.14,6.89-4.16,5.34-5.13,6.83-5.13,7.92v1.34h18.51v-2.26h0Zm35.44-3.8c.12-5.21,.26-6.27,.98-7.51,1.16-1.97,2.69-2.66,4.75-2.14l1.61,.41v-2.79c0-3.14-.45-3.57-2.99-2.85-1.79,.51-2.08,.73-3.33,2.59l-1.08,1.6v-4.23h-6.17v20.98h6.09l.14-6.07h0Z"/>
    </g>
    <text class="cls-4" transform="translate(45.52 197.01) scale(1.05 1)"><tspan x="0" y="0">ML FOR BEGINNER</tspan></text>
  </g>
</svg>