<?xml version="1.0" encoding="UTF-8"?>
<svg id="_图层_1" data-name="图层 1" xmlns="http://www.w3.org/2000/svg" xmlns:xlink="http://www.w3.org/1999/xlink" viewBox="0 0 256 256">
  <defs>
    <style>
      .cls-1 {
        fill: url(#_未命名的渐变_8-3);
      }

      .cls-1, .cls-2, .cls-3, .cls-4, .cls-5, .cls-6, .cls-7, .cls-8, .cls-9 {
        fill-rule: evenodd;
      }

      .cls-10 {
        fill: #f4f4f4;
      }

      .cls-2 {
        fill: url(#_未命名的渐变_8-4);
      }

      .cls-3 {
        fill: url(#_未命名的渐变_8-7);
      }

      .cls-4 {
        fill: url(#_未命名的渐变_8-2);
      }

      .cls-5 {
        fill: url(#_未命名的渐变_8-5);
      }

      .cls-6 {
        opacity: .4;
      }

      .cls-7 {
        fill: url(#_未命名的渐变_8-8);
      }

      .cls-8 {
        fill: url(#_未命名的渐变_8);
      }

      .cls-9 {
        fill: url(#_未命名的渐变_8-6);
      }
    </style>
    <radialGradient id="_未命名的渐变_8" data-name="未命名的渐变 8" cx="-243.1" cy="253.13" fx="-243.1" fy="253.13" r="10.59" gradientTransform="translate(3390.54 3428.81) scale(13.32 -13.32)" gradientUnits="userSpaceOnUse">
      <stop offset="0" stop-color="#f7bfa4"/>
      <stop offset=".01" stop-color="#f7bb9f"/>
      <stop offset=".43" stop-color="#e60012"/>
      <stop offset=".66" stop-color="#e50012"/>
      <stop offset=".76" stop-color="#e10011"/>
      <stop offset=".83" stop-color="#da0010"/>
      <stop offset=".88" stop-color="#cf000e"/>
      <stop offset=".93" stop-color="#c00009"/>
      <stop offset=".98" stop-color="#ae0003"/>
      <stop offset="1" stop-color="#a00000"/>
    </radialGradient>
    <radialGradient id="_未命名的渐变_8-2" data-name="未命名的渐变 8" cx="-169.25" cy="248.8" fx="-169.25" fy="248.8" r="36.35" gradientTransform="translate(811.14 1024.71) scale(3.89 -3.89)" xlink:href="#_未命名的渐变_8"/>
    <radialGradient id="_未命名的渐变_8-3" data-name="未命名的渐变 8" cx="-227.75" cy="252.3" fx="-227.75" fy="252.3" r="15.97" gradientTransform="translate(2167.89 2289.49) scale(8.84 -8.84)" xlink:href="#_未命名的渐变_8"/>
    <radialGradient id="_未命名的渐变_8-4" data-name="未命名的渐变 8" cx="-171.1" cy="248.84" fx="-171.1" fy="248.84" r="36.31" gradientTransform="translate(819.99 1027.05) scale(3.89 -3.89)" xlink:href="#_未命名的渐变_8"/>
    <radialGradient id="_未命名的渐变_8-5" data-name="未命名的渐变 8" cx="-244.44" cy="253.14" fx="-244.44" fy="253.14" r="10.61" gradientTransform="translate(3404.81 3424.96) scale(13.3 -13.3)" xlink:href="#_未命名的渐变_8"/>
    <radialGradient id="_未命名的渐变_8-6" data-name="未命名的渐变 8" cx="-223.66" cy="250.24" fx="-223.66" fy="250.24" r="17.75" gradientTransform="translate(1933.38 2049.24) scale(7.96 -7.96)" xlink:href="#_未命名的渐变_8"/>
    <radialGradient id="_未命名的渐变_8-7" data-name="未命名的渐变 8" cx="-222.54" cy="250.2" fx="-222.54" fy="250.2" r="17.75" gradientTransform="translate(1924.34 2049.24) scale(7.96 -7.96)" xlink:href="#_未命名的渐变_8"/>
    <radialGradient id="_未命名的渐变_8-8" data-name="未命名的渐变 8" cx="-229.2" cy="252.3" fx="-229.2" fy="252.3" r="15.97" gradientTransform="translate(2180.44 2289.15) scale(8.84 -8.84)" xlink:href="#_未命名的渐变_8"/>
  </defs>
  <rect class="cls-10" x="0" y="0" width="256" height="256" rx="50" ry="50"/>
  <g>
    <g id="Group">
      <g id="_华为logo上下排版" data-name="华为logo上下排版">
        <path id="Path" class="cls-8" d="M54.2,118.28c14.91,14.6,51.04,33.03,59.41,37.2,.1,.05,.53,.19,.82-.15,0,0,.34-.29,.14-.73h0c-22.99-50.39-54.41-88.6-54.41-88.6,0,0-17.13,16.3-15.88,32.64,.63,12.32,9.91,19.64,9.91,19.64Z"/>
        <path id="Path-2" data-name="Path" class="cls-4" d="M108.8,167.85c-.14-.53-.77-.53-.77-.53h0l-60.13,2.09c6.54,11.69,17.51,20.76,28.96,17.94,7.89-1.99,25.79-14.5,31.65-18.72h0c.48-.44,.29-.78,.29-.78Z"/>
        <path id="Path-3" data-name="Path" class="cls-1" d="M52.51,160.33c5.77,2.38,11.5,2.52,11.5,2.52,.91,.15,35.74,0,45.08-.05,.38,0,.63-.39,.63-.39,.29-.48-.24-.92-.24-.92h0c-26.36-17.9-77.55-45.35-77.55-45.35-4.67,14.45,1.64,26.09,1.64,26.09,6.49,13.87,18.95,18.09,18.95,18.09Z"/>
        <path id="Path-4" data-name="Path" class="cls-2" d="M208.04,169.4l-60.18-2.09h0s-.53,.05-.67,.48c0,0-.14,.53,.24,.82h0c5.77,4.12,23.19,16.39,31.61,18.77,0,0,15.54,5.29,29.01-17.99Z"/>
        <path id="Path-5" data-name="Path" class="cls-5" d="M141.51,154.37s-.29,.58,.14,.97c0,0,.43,.29,.82,.05h0c8.61-4.32,44.45-22.6,59.32-37.1,0,0,9.38-7.57,9.91-19.74,1.06-16.93-15.88-32.54-15.88-32.54,0,0-31.32,38.07-54.31,88.36h0Z"/>
        <path id="Path-6" data-name="Path" class="cls-9" d="M133.14,149.86c.05,.53,.48,.68,.48,.68,.58,.24,.87-.34,.87-.34h0c5.77-8.39,31.75-47.04,37.04-70.61,0,0,2.89-11.4,.1-19.16,0,0-3.94-14.74-19.87-18.62,0,0-4.57-1.16-9.48-1.84h0s-17.8,22.99-9.14,109.9h0Z"/>
        <path id="Path-7" data-name="Path" class="cls-3" d="M121.5,150.29c.38,.39,.72,.24,.72,.24,.63-.19,.58-.78,.58-.78h0c8.66-86.86-9.09-109.85-9.09-109.85-2.6,.24-9.67,1.84-9.67,1.84-15.92,4.12-19.68,18.62-19.68,18.62-2.89,9.12,.1,19.16,.1,19.16,5.29,23.67,31.41,62.56,37.04,70.76Z"/>
        <path id="Path-8" data-name="Path" class="cls-7" d="M224.06,116.05s-51.09,27.55-77.5,45.44h0s-.48,.29-.29,.87c0,0,.24,.44,.63,.44h0c9.48,0,45.27,.05,46.18-.1,0,0,4.62-.19,10.34-2.38,0,0,12.75-4.07,19.34-18.57-.05-.05,5.87-11.88,1.3-25.7Z"/>
      </g>
    </g>
    <path class="cls-6" d="M87.56,205.31h-8.02v-7.13h-3.56v17.65h3.56v-7.16h8.02v7.16h3.54v-17.65h-3.54v7.13Zm20.02,2.97c0,2.87-1.41,4.39-3.97,4.39s-4-1.58-4-4.52v-9.97h-3.56v10.1c0,4.96,2.74,7.8,7.51,7.8s7.59-2.89,7.59-7.96v-9.95h-3.56v10.1Zm41.06,2.04l-3.97-12.14h-2.9l-3.97,12.14-3.87-12.14h-3.79l6.1,17.65h2.95l3.97-11.58,4,11.58h2.97l6.07-17.65h-3.69l-3.87,12.14Zm13.94-2.09h6.46v-3.2h-6.46v-3.62h9.38v-3.23h-12.89v17.65h13.23v-3.23h-9.71v-4.37Zm13.94-10.05h3.51v17.62h-3.51v-17.62Zm-52.77,0h-3.1l-7.71,17.65h3.61l1.49-3.41,.1-.26h8.02l1.56,3.67h3.72l-7.64-17.54-.05-.1Zm1.08,10.77h-5.38l.18-.41h0l2.51-5.92,2.54,5.92h0l.15,.41Z"/>
  </g>
</svg>