<?xml version="1.0" encoding="UTF-8"?>
<svg id="_图层_1" data-name="图层 1" xmlns="http://www.w3.org/2000/svg" viewBox="0 0 256 256">
  <defs>
    <style>
      .cls-1 {
        fill: #f4f4f4;
      }

      .cls-2 {
        fill: #33e8fe;
      }

      .cls-3 {
        fill: #f75ec6;
      }

      .cls-4 {
        fill: #363ef1;
      }

      .cls-5 {
        fill: #3461ff;
      }
    </style>
  </defs>
  <rect class="cls-1" x="0" y="0" width="256" height="256" rx="50" ry="50"/>
  <g>
    <path class="cls-3" d="M177.17,162.2V44.58c-8.36-8.17-19.81-13.2-32.43-13.2-25.66,0-46.46,20.8-46.46,46.46,0,14.73,6.86,27.86,17.56,36.38l61.33,47.98Z"/>
    <path class="cls-5" d="M98.29,226.62l-.02-148.62c10.58-10.32,25.05-16.68,41-16.68,32.43,0,58.71,26.29,58.71,58.71,0,18.62-8.67,35.21-22.19,45.97l-77.5,60.63Z"/>
    <path class="cls-4" d="M177.18,75.19v87.01s-61.34-47.98-61.34-47.98c-10.66-8.48-17.51-21.55-17.56-36.22,10.58-10.33,25.04-16.68,41-16.68,14.45,0,27.68,5.22,37.91,13.87Z"/>
    <path class="cls-2" d="M44.01,171.76l54.26-93.77c10.45-2.65,21.89-1.38,31.96,4.45,20.46,11.84,27.44,38.02,15.6,58.48-6.8,11.75-18.33,19.05-30.78,20.9l-71.03,9.95Z"/>
  </g>
</svg>