<?xml version="1.0" encoding="UTF-8"?>
<svg id="_图层_1" data-name="图层 1" xmlns="http://www.w3.org/2000/svg" xmlns:xlink="http://www.w3.org/1999/xlink" viewBox="0 0 256 256">
  <defs>
    <style>
      .cls-1 {
        fill: #f4f4f4;
      }

      .cls-2 {
        fill: url(#_未命名的渐变_152-2);
      }

      .cls-3 {
        font-family: 'AlibabaPuHuiTi_3_55_Regular', 'Alibaba PuHuiTi 3.0';
        font-size: 20px;
        letter-spacing: .06em;
        opacity: .6;
      }

      .cls-4 {
        fill: url(#_未命名的渐变_152);
      }
    </style>
    <linearGradient id="_未命名的渐变_152" data-name="未命名的渐变 152" x1="28.05" y1="90.5" x2="227.95" y2="90.5" gradientUnits="userSpaceOnUse">
      <stop offset="0" stop-color="#fec700"/>
      <stop offset=".08" stop-color="#feb501"/>
      <stop offset=".23" stop-color="#fe8904"/>
      <stop offset=".32" stop-color="#ff6e06"/>
      <stop offset=".53" stop-color="#fe3552"/>
      <stop offset=".66" stop-color="#fe1185"/>
      <stop offset="1" stop-color="#4c58f8"/>
    </linearGradient>
    <linearGradient id="_未命名的渐变_152-2" data-name="未命名的渐变 152" x1="58.26" y1="137.38" x2="197.74" y2="137.38" xlink:href="#_未命名的渐变_152"/>
  </defs>
  <rect class="cls-1" x="0" y="0" width="256" height="256" rx="50" ry="50"/>
  <g>
    <path class="cls-4" d="M207.94,142.18c-2.61,0-4.97-1.79-5.58-4.44-.72-3.09,1.2-6.17,4.29-6.89,5.88-1.37,9.82-7.94,9.82-14.41,0-12.8-8.44-21.73-20.53-21.73-.63,0-1.27,.03-1.88,.08l-4.63,.42-1.37-4.44c-2.66-8.61-10.56-14.46-19.65-14.54-1.61-.02-2.72,.03-4.11,.17l-4.92,.49-1.21-4.79c-.23-.86-6.05-21.81-30.18-21.81s-29.95,20.95-30.18,21.84l-1.25,4.73-4.87-.45c-1.39-.14-2.51-.19-4.11-.17-9.09,.08-16.99,5.93-19.65,14.54l-1.37,4.44-4.63-.42c-.62-.06-1.25-.08-1.88-.08-12.09,0-20.53,8.94-20.53,21.73,0,6.47,3.95,13.04,9.83,14.41,3.09,.72,5.01,3.8,4.29,6.89-.72,3.09-3.8,5.01-6.89,4.29-12.15-2.82-18.7-14.67-18.7-25.58,0-18.72,12.74-32.45,30.51-33.18,5.18-11.11,16.31-18.39,28.92-18.51,.26,0,.51,0,.75,0,4.53-10.86,16.66-25.94,39.77-25.94s35.24,15.08,39.77,25.94c.24,0,.5,0,.75,0,12.6,.12,23.74,7.39,28.92,18.51,17.77,.73,30.51,14.46,30.51,33.18,0,10.91-6.55,22.76-18.7,25.58-.44,.1-.87,.15-1.3,.15Z"/>
    <path class="cls-2" d="M143.61,183.18c-7.47,0-13.54-6.08-13.54-13.54V105.12c0-1.14-.93-2.07-2.07-2.07s-2.07,.93-2.07,2.07v64.52c0,7.47-6.08,13.54-13.54,13.54s-13.54-6.08-13.54-13.54v-46.73c0-1.31-1.07-2.38-2.38-2.38s-2.38,1.07-2.38,2.38v25c0,7.64-6.22,13.86-13.86,13.86s-13.86-6.22-13.86-13.86v-.32c0-1.31-1.07-2.38-2.38-2.38-3.17,0-5.74-2.57-5.74-5.74s2.57-5.74,5.74-5.74c7.64,0,13.86,6.22,13.86,13.86v.32c0,1.31,1.07,2.38,2.38,2.38s2.38-1.07,2.38-2.38v-25c0-7.64,6.22-13.86,13.86-13.86s13.86,6.22,13.86,13.86v46.73c0,1.14,.93,2.07,2.07,2.07s2.07-.93,2.07-2.07V105.12c0-7.47,6.08-13.54,13.54-13.54s13.54,6.08,13.54,13.54v64.52c0,1.14,.93,2.07,2.07,2.07s2.07-.93,2.07-2.07v-46.73c0-7.64,6.22-13.86,13.86-13.86s13.86,6.22,13.86,13.86v25c0,1.31,1.07,2.38,2.38,2.38s2.38-1.07,2.38-2.38v-.32c0-7.64,6.22-13.86,13.86-13.86,3.17,0,5.74,2.57,5.74,5.74s-2.57,5.74-5.74,5.74c-1.31,0-2.38,1.07-2.38,2.38v.32c0,7.64-6.22,13.86-13.86,13.86s-13.86-6.22-13.86-13.86v-25c0-1.31-1.07-2.38-2.38-2.38s-2.38,1.07-2.38,2.38v46.73c0,7.47-6.08,13.54-13.54,13.54Z"/>
  </g>
  <text class="cls-3" transform="translate(70.8 213.04) scale(1.05 1)"><tspan x="0" y="0">DUBBINGX</tspan></text>
</svg>