<?xml version="1.0" encoding="UTF-8"?>
<svg id="_图层_1" data-name="图层 1" xmlns="http://www.w3.org/2000/svg" xmlns:xlink="http://www.w3.org/1999/xlink" viewBox="0 0 256 256">
  <defs>
    <style>
      .cls-1 {
        fill: url(#_未命名的渐变_95);
      }

      .cls-2 {
        fill: #151732;
      }
    </style>
    <linearGradient id="_未命名的渐变_95" data-name="未命名的渐变 95" x1="34.7" y1="126" x2="221.3" y2="126" gradientUnits="userSpaceOnUse">
      <stop offset="0" stop-color="#a68bfa"/>
      <stop offset=".29" stop-color="#9a7ef0"/>
      <stop offset=".82" stop-color="#7b5ed6"/>
      <stop offset="1" stop-color="#6f52cc"/>
    </linearGradient>
  </defs>
  <rect class="cls-2" x="0" y="0" width="256" height="256" rx="50" ry="50"/>
  <path class="cls-1" d="M68.35,114.5v-46.96h30.35v7.86h-20.5v12.23h17.5v7.86h-17.5v19.01h-9.85Zm43.05-41.26c-1.73,0-3.11-.45-4.13-1.36-1.02-.91-1.53-2.14-1.53-3.71s.51-2.75,1.53-3.68c1.02-.93,2.4-1.39,4.13-1.39s2.99,.47,4.06,1.39c1.06,.93,1.6,2.15,1.6,3.68s-.53,2.8-1.6,3.71c-1.07,.91-2.42,1.36-4.06,1.36Zm-4.92,41.26v-35.49h9.78v35.49h-9.78Zm30.88,.89c-2.49,0-5-.47-7.55-1.39-2.55-.93-4.76-2.11-6.62-3.55l4.46-5.89c1.64,1.18,3.27,2.12,4.89,2.82,1.62,.7,3.32,1.05,5.09,1.05,1.86,0,3.23-.35,4.09-1.05,.87-.7,1.3-1.59,1.3-2.69,0-.89-.38-1.64-1.13-2.25-.75-.61-1.73-1.16-2.93-1.65-1.2-.49-2.44-.96-3.73-1.43-1.55-.59-3.09-1.31-4.62-2.16-1.53-.84-2.81-1.93-3.83-3.26-1.02-1.33-1.53-2.99-1.53-4.98,0-2.11,.58-3.98,1.73-5.61,1.15-1.63,2.76-2.9,4.82-3.83,2.06-.93,4.51-1.39,7.35-1.39s5.11,.44,7.22,1.33,3.92,1.9,5.42,3.04l-4.39,5.64c-1.33-.93-2.65-1.67-3.96-2.22-1.31-.55-2.65-.82-4.03-.82-1.73,0-2.99,.32-3.79,.95-.8,.63-1.2,1.46-1.2,2.47,0,.85,.33,1.55,1,2.12,.67,.57,1.57,1.07,2.73,1.49,1.15,.42,2.37,.87,3.66,1.33,1.24,.42,2.47,.92,3.69,1.49,1.22,.57,2.34,1.26,3.36,2.06,1.02,.8,1.83,1.79,2.43,2.95,.6,1.16,.9,2.57,.9,4.21,0,2.07-.57,3.96-1.7,5.67-1.13,1.71-2.8,3.06-4.99,4.06s-4.91,1.49-8.15,1.49Zm22.29-.89V63.92h9.78v12.74l-.47,6.65c1.46-1.35,3.15-2.56,5.06-3.61,1.91-1.06,4.13-1.58,6.65-1.58,4.04,0,6.97,1.26,8.78,3.77,1.82,2.51,2.73,6.01,2.73,10.49v22.12h-9.78v-20.98c0-2.75-.41-4.67-1.23-5.77-.82-1.1-2.16-1.65-4.03-1.65-1.51,0-2.83,.34-3.96,1.01-1.13,.68-2.39,1.67-3.76,2.98v24.4h-9.78ZM34.7,188.01l15.77-46.96h11.65l15.77,46.96h-10.38l-6.99-24.46c-.76-2.45-1.48-5-2.16-7.64-.69-2.64-1.41-5.21-2.16-7.7h-.27c-.62,2.53-1.3,5.11-2.03,7.73-.73,2.62-1.45,5.16-2.16,7.61l-7.05,24.46h-9.98Zm9.78-12.04v-7.29h23.42v7.29h-23.42Zm48.98,12.93c-4.04,0-6.97-1.26-8.78-3.77-1.82-2.51-2.73-6.01-2.73-10.49v-22.12h9.72v20.98c0,2.75,.42,4.67,1.26,5.77,.84,1.1,2.2,1.65,4.06,1.65,1.51,0,2.83-.35,3.96-1.05,1.13-.7,2.32-1.83,3.56-3.39v-23.96h9.78v35.49h-7.99l-.73-5.13h-.27c-1.6,1.82-3.33,3.28-5.19,4.37-1.86,1.1-4.08,1.65-6.65,1.65Zm44.39,0c-3.11,0-5.8-.74-8.09-2.22-2.29-1.48-4.05-3.61-5.29-6.4-1.24-2.79-1.86-6.13-1.86-10.01s.74-7.15,2.23-9.92c1.49-2.77,3.43-4.91,5.82-6.43,2.4-1.52,4.92-2.28,7.59-2.28,2.08,0,3.85,.35,5.29,1.05,1.44,.7,2.83,1.64,4.16,2.82l-.33-5.58v-12.49h9.78v50.58h-7.99l-.73-3.68h-.27c-1.38,1.27-2.95,2.35-4.73,3.23-1.78,.89-3.64,1.33-5.59,1.33Zm2.53-7.67c1.33,0,2.56-.28,3.69-.86s2.23-1.51,3.29-2.82v-15.59c-1.11-.97-2.25-1.66-3.43-2.06-1.18-.4-2.36-.6-3.56-.6-1.38,0-2.65,.41-3.83,1.24-1.18,.82-2.12,2.04-2.83,3.64-.71,1.61-1.06,3.59-1.06,5.96s.3,4.5,.9,6.15c.6,1.65,1.47,2.88,2.63,3.71,1.15,.82,2.55,1.24,4.19,1.24Zm32.14-34.48c-1.73,0-3.11-.45-4.13-1.36-1.02-.91-1.53-2.14-1.53-3.71s.51-2.75,1.53-3.68c1.02-.93,2.4-1.39,4.13-1.39,1.64,0,2.99,.47,4.06,1.39,1.07,.93,1.6,2.15,1.6,3.68s-.53,2.8-1.6,3.71c-1.06,.91-2.42,1.36-4.06,1.36Zm-4.92,41.26v-35.49h9.78v35.49h-9.78Zm35.8,.89c-3.11,0-6.02-.74-8.75-2.22-2.73-1.48-4.94-3.6-6.62-6.37-1.69-2.77-2.53-6.12-2.53-10.05s.84-7.28,2.53-10.05c1.69-2.77,3.89-4.89,6.62-6.37,2.73-1.48,5.65-2.22,8.75-2.22,2.35,0,4.59,.42,6.72,1.27,2.13,.85,4.04,2.06,5.72,3.64,1.69,1.58,3.02,3.53,3.99,5.83,.98,2.3,1.46,4.93,1.46,7.89,0,3.93-.84,7.28-2.53,10.05-1.69,2.77-3.89,4.89-6.62,6.37-2.73,1.48-5.65,2.22-8.75,2.22Zm0-7.61c1.69,0,3.12-.45,4.29-1.36,1.18-.91,2.06-2.19,2.66-3.83s.9-3.59,.9-5.83-.3-4.18-.9-5.83-1.49-2.93-2.66-3.83c-1.18-.91-2.61-1.36-4.29-1.36s-3.12,.45-4.29,1.36c-1.18,.91-2.06,2.19-2.66,3.83s-.9,3.59-.9,5.83,.3,4.18,.9,5.83,1.49,2.93,2.66,3.83c1.17,.91,2.61,1.36,4.29,1.36Z"/>
</svg>