<?xml version="1.0" encoding="UTF-8"?>
<svg id="_图层_1" data-name="图层 1" xmlns="http://www.w3.org/2000/svg" xmlns:xlink="http://www.w3.org/1999/xlink" viewBox="0 0 256 256">
  <defs>
    <style>
      .cls-1 {
        fill: #250ef0;
      }

      .cls-2 {
        fill: #22245c;
      }

      .cls-3 {
        fill: url(#_未命名的渐变_76);
      }

      .cls-4 {
        fill: #f4f4f4;
      }

      .cls-5 {
        fill: #ffe3b4;
      }

      .cls-6 {
        fill: #a70d75;
      }

      .cls-7 {
        fill: #ece8e7;
      }

      .cls-8 {
        fill: #c8c090;
      }

      .cls-9 {
        fill: #f6f6f6;
      }

      .cls-10 {
        fill: #feca3c;
      }

      .cls-11 {
        fill: url(#_未命名的渐变_77);
      }

      .cls-12 {
        fill: url(#_未命名的渐变_82-2);
      }

      .cls-13 {
        fill: url(#_未命名的渐变_85);
      }

      .cls-14 {
        fill: #ff8701;
      }

      .cls-15 {
        fill: #f6515b;
      }

      .cls-16 {
        fill: #ff7f16;
      }

      .cls-17 {
        fill: #fefcfd;
      }

      .cls-18 {
        fill: #00e9bf;
      }

      .cls-19 {
        fill: url(#_未命名的渐变_86);
      }

      .cls-20 {
        fill: #ecedf6;
      }

      .cls-21 {
        fill: url(#_未命名的渐变_78);
      }

      .cls-22 {
        fill: #fde5d0;
      }

      .cls-23 {
        fill: #fffffb;
      }

      .cls-24 {
        fill: #2702ff;
      }

      .cls-25 {
        fill: #f1cf25;
      }

      .cls-26 {
        fill: url(#_未命名的渐变_83-3);
      }

      .cls-27 {
        fill: url(#_未命名的渐变_87);
      }

      .cls-28 {
        fill: url(#_未命名的渐变_79-3);
      }

      .cls-29 {
        fill: #ff5b32;
      }

      .cls-30 {
        fill: #3858d6;
      }

      .cls-31 {
        fill: #f9db00;
      }

      .cls-32 {
        fill: #986f09;
      }

      .cls-33 {
        fill: #e03528;
      }

      .cls-34 {
        fill: #ff8d02;
      }

      .cls-35 {
        fill: url(#_未命名的渐变_78-4);
      }

      .cls-36 {
        fill: #f7b41e;
      }

      .cls-37 {
        fill: #05b5cc;
      }

      .cls-38 {
        fill: #dd5a79;
      }

      .cls-39 {
        fill: url(#_未命名的渐变_79);
      }

      .cls-40 {
        fill: url(#_未命名的渐变_83);
      }

      .cls-41 {
        fill: #0165fe;
      }

      .cls-42 {
        fill: #24254b;
      }

      .cls-43 {
        fill: #fffdfe;
      }

      .cls-44 {
        fill: #069ebf;
      }

      .cls-45 {
        fill: #fff3bf;
      }

      .cls-46 {
        fill: #fdfdfd;
      }

      .cls-47 {
        fill: url(#_未命名的渐变_83-4);
      }

      .cls-48 {
        fill: #8e485f;
      }

      .cls-49 {
        fill: #272742;
      }

      .cls-50 {
        fill: #f05601;
      }

      .cls-51 {
        fill: #ff5359;
      }

      .cls-52 {
        fill: url(#_未命名的渐变_80);
      }

      .cls-53 {
        fill: url(#_未命名的渐变_78-3);
      }

      .cls-54 {
        fill: #2b66ab;
      }

      .cls-55 {
        fill: url(#_未命名的渐变_88);
      }

      .cls-56 {
        fill: #f9b309;
      }

      .cls-57 {
        fill: #06c6fc;
      }

      .cls-58 {
        fill: #ddd3c0;
      }

      .cls-59 {
        fill: #202541;
      }

      .cls-60 {
        fill: #162653;
      }

      .cls-61 {
        fill: #4f00ec;
      }

      .cls-62 {
        fill: url(#_未命名的渐变_79-2);
      }

      .cls-63 {
        fill: #ffbb01;
      }

      .cls-64 {
        fill: #eaeaec;
      }

      .cls-65 {
        fill: url(#_未命名的渐变_84);
      }

      .cls-66 {
        fill: #f89120;
      }

      .cls-67 {
        fill: url(#_未命名的渐变_82);
      }

      .cls-68 {
        fill: #15134a;
      }

      .cls-69 {
        fill: #1e205d;
      }

      .cls-70 {
        fill: #ff7801;
      }

      .cls-71 {
        fill: #252842;
      }

      .cls-72 {
        fill: url(#_未命名的渐变_78-2);
      }

      .cls-73 {
        fill: #e5e2e5;
      }

      .cls-74 {
        fill: #1f2a48;
      }

      .cls-75 {
        fill: #dc01ff;
      }

      .cls-76 {
        fill: url(#_未命名的渐变_83-2);
      }

      .cls-77 {
        fill: #01ff94;
      }

      .cls-78 {
        fill: #071c50;
      }

      .cls-79 {
        fill: #2b21eb;
      }

      .cls-80 {
        fill: url(#_未命名的渐变_77-2);
      }

      .cls-81 {
        fill: #03b9ff;
      }

      .cls-82 {
        fill: #fefefe;
      }

      .cls-83 {
        fill: #ffe9b6;
      }

      .cls-84 {
        fill: url(#_未命名的渐变_81);
      }
    </style>
    <linearGradient id="_未命名的渐变_82" data-name="未命名的渐变 82" x1="133" y1="546.86" x2="171.82" y2="546.86" gradientTransform="translate(0 -339.89)" gradientUnits="userSpaceOnUse">
      <stop offset="0" stop-color="#9d21a4"/>
      <stop offset=".52" stop-color="#f51c90"/>
      <stop offset="1" stop-color="#9801ca"/>
    </linearGradient>
    <linearGradient id="_未命名的渐变_78" data-name="未命名的渐变 78" x1="145.87" y1="427.13" x2="192.18" y2="507.4" gradientTransform="translate(0 -339.89)" gradientUnits="userSpaceOnUse">
      <stop offset="0" stop-color="#ff7300"/>
      <stop offset=".68" stop-color="#ffb933"/>
      <stop offset="1" stop-color="#ffdb4c"/>
    </linearGradient>
    <radialGradient id="_未命名的渐变_83" data-name="未命名的渐变 83" cx="130.58" cy="232.32" fx="130.58" fy="232.32" r="2.84" gradientTransform="translate(-1203.41 -2275.5) scale(10.27)" gradientUnits="userSpaceOnUse">
      <stop offset="0" stop-color="#202646"/>
      <stop offset=".35" stop-color="#0025c6"/>
      <stop offset=".83" stop-color="#182948"/>
    </radialGradient>
    <linearGradient id="_未命名的渐变_88" data-name="未命名的渐变 88" x1="114.05" y1="494.19" x2="141.83" y2="466.39" gradientTransform="translate(0 -339.89)" gradientUnits="userSpaceOnUse">
      <stop offset="0" stop-color="#f1d003"/>
      <stop offset=".56" stop-color="#eb583f"/>
      <stop offset=".92" stop-color="#e4d494"/>
    </linearGradient>
    <linearGradient id="_未命名的渐变_87" data-name="未命名的渐变 87" x1="158.35" y1="472.32" x2="139.25" y2="453.2" gradientTransform="translate(0 -339.89)" gradientUnits="userSpaceOnUse">
      <stop offset="0" stop-color="#fbb03b"/>
      <stop offset=".17" stop-color="#f3bc58"/>
      <stop offset=".44" stop-color="#e8cd82"/>
      <stop offset=".58" stop-color="#e4d492"/>
      <stop offset="1" stop-color="#e4d494"/>
    </linearGradient>
    <linearGradient id="_未命名的渐变_86" data-name="未命名的渐变 86" x1="145.92" y1="455.52" x2="145.92" y2="444.79" gradientTransform="translate(0 -339.89)" gradientUnits="userSpaceOnUse">
      <stop offset="0" stop-color="#c7b299"/>
      <stop offset=".72" stop-color="#f89b23"/>
    </linearGradient>
    <radialGradient id="_未命名的渐变_83-2" data-name="未命名的渐变 83" cx="130.58" fx="130.58" r="2.84" gradientTransform="translate(-1203.41 -2275.5) scale(10.27)" xlink:href="#_未命名的渐变_83"/>
    <linearGradient id="_未命名的渐变_85" data-name="未命名的渐变 85" x1="132.63" y1="545.28" x2="178.9" y2="545.28" gradientTransform="translate(0 -339.89)" gradientUnits="userSpaceOnUse">
      <stop offset="0" stop-color="#9800ce"/>
      <stop offset=".48" stop-color="#ff288b"/>
      <stop offset="1" stop-color="#f84690"/>
    </linearGradient>
    <linearGradient id="_未命名的渐变_79" data-name="未命名的渐变 79" x1="132.55" y1="559.77" x2="155.68" y2="559.77" gradientTransform="translate(0 -339.89)" gradientUnits="userSpaceOnUse">
      <stop offset="0" stop-color="#f84690"/>
      <stop offset=".52" stop-color="#ff288b"/>
      <stop offset="1" stop-color="#9800ce"/>
    </linearGradient>
    <linearGradient id="_未命名的渐变_84" data-name="未命名的渐变 84" x1="127.99" y1="411.58" x2="127.99" y2="449.55" gradientTransform="translate(0 -339.89)" gradientUnits="userSpaceOnUse">
      <stop offset="0" stop-color="#ff7300"/>
      <stop offset=".96" stop-color="#f7aa46"/>
      <stop offset="1" stop-color="#f7ad49"/>
    </linearGradient>
    <linearGradient id="_未命名的渐变_78-2" data-name="未命名的渐变 78" x1="116.03" y1="504.67" x2="141.57" y2="504.67" xlink:href="#_未命名的渐变_78"/>
    <linearGradient id="_未命名的渐变_78-3" data-name="未命名的渐变 78" x1="116.03" y1="524.76" x2="141.57" y2="524.76" xlink:href="#_未命名的渐变_78"/>
    <radialGradient id="_未命名的渐变_83-3" data-name="未命名的渐变 83" cx="128.21" cy="238.21" fx="128.21" fy="238.21" r="2.84" gradientTransform="translate(-907.86 -1797.83) scale(8.01)" xlink:href="#_未命名的渐变_83"/>
    <radialGradient id="_未命名的渐变_83-4" data-name="未命名的渐变 83" cx="128.22" cy="238.21" fx="128.22" fy="238.21" r="2.84" gradientTransform="translate(-907.85 -1797.83) scale(8.01)" xlink:href="#_未命名的渐变_83"/>
    <linearGradient id="_未命名的渐变_79-2" data-name="未命名的渐变 79" x1="100.3" y1="559.77" x2="123.44" y2="559.77" xlink:href="#_未命名的渐变_79"/>
    <linearGradient id="_未命名的渐变_82-2" data-name="未命名的渐变 82" x1="84.16" y1="546.87" x2="122.99" y2="546.87" xlink:href="#_未命名的渐变_82"/>
    <linearGradient id="_未命名的渐变_81" data-name="未命名的渐变 81" x1="95.82" y1="444.07" x2="124.55" y2="459.8" gradientTransform="translate(0 -339.89)" gradientUnits="userSpaceOnUse">
      <stop offset="0" stop-color="#f1d003"/>
      <stop offset=".56" stop-color="#eb583f"/>
      <stop offset=".92" stop-color="#848d73"/>
    </linearGradient>
    <linearGradient id="_未命名的渐变_80" data-name="未命名的渐变 80" x1="141.34" y1="400.89" x2="113.74" y2="476.78" gradientTransform="translate(0 -339.89)" gradientUnits="userSpaceOnUse">
      <stop offset="0" stop-color="#f1d003"/>
      <stop offset=".61" stop-color="#e65b42"/>
      <stop offset="1" stop-color="#818e93"/>
    </linearGradient>
    <linearGradient id="_未命名的渐变_79-3" data-name="未命名的渐变 79" x1="77.09" y1="545.28" x2="123.37" y2="545.28" xlink:href="#_未命名的渐变_79"/>
    <linearGradient id="_未命名的渐变_77" data-name="未命名的渐变 77" x1="106.62" y1="508.72" x2="123.44" y2="508.72" gradientTransform="translate(0 -339.89)" gradientUnits="userSpaceOnUse">
      <stop offset="0" stop-color="#ff8f01"/>
      <stop offset=".56" stop-color="#ff9800"/>
      <stop offset="1" stop-color="#ffaf00"/>
    </linearGradient>
    <linearGradient id="_未命名的渐变_78-4" data-name="未命名的渐变 78" x1="103.73" y1="490.94" x2="152.25" y2="490.94" xlink:href="#_未命名的渐变_78"/>
    <linearGradient id="_未命名的渐变_77-2" data-name="未命名的渐变 77" x1="99.01" y1="518.26" x2="138.92" y2="518.26" xlink:href="#_未命名的渐变_77"/>
    <linearGradient id="_未命名的渐变_76" data-name="未命名的渐变 76" x1="58.57" y1="509.74" x2="80.65" y2="471.47" gradientTransform="translate(0 -339.89)" gradientUnits="userSpaceOnUse">
      <stop offset="0" stop-color="#009bb6"/>
      <stop offset=".56" stop-color="#2d6db2"/>
      <stop offset=".92" stop-color="#585ca4"/>
    </linearGradient>
  </defs>
  <rect class="cls-4" x="0" y="0" width="256" height="256" rx="50" ry="50"/>
  <g>
    <path class="cls-41" d="M29.64,130.02l1.24-.27,.58,1.23,3.03,5.41,.86,22.16-3.25-6.79-1.21-4.59s-1.24-6.86-1.24-17.15Z"/>
    <g>
      <path class="cls-46" d="M144.9,203.79l.62,1.28h.02c-.59,1.17-3.59,7.05-7.19,11.61-1.72,2.18-3.57,4.05-5.36,4.97l-.38,.27s-.03,.02-.08,.04c0,0-4.75,2.11-9.09,0l-.08-.04-.38-.27c-1.79-.92-3.64-2.79-5.36-4.97-3.6-4.56-6.6-10.44-7.19-11.62h.02s.62-1.27,.62-1.27l.1-.05c.73,1.38,1.43,2.6,2.1,3.71,1.74,2.9,3.29,5.07,4.75,7.44,0,.02,.02,.03,.03,.04,2.25,3.62,5,5.54,5,5.54,0,0,1.38,1.33,3.72,1.56h.01c.38,.04,.78,.04,1.21,0,.43,.03,.83,.03,1.21,0h.01c2.34-.22,3.71-1.56,3.71-1.56,0,0,2.74-1.91,5-5.54l.03-.04c1.46-2.37,3.01-4.53,4.75-7.44,.67-1.11,1.37-2.33,2.1-3.71,0,0,.1,.05,.1,.05Z"/>
      <path class="cls-75" d="M224.34,137.64c.51,.4,1.12,.69,1.78,.83-.2,2.91-.54,5.82-1.01,8.7l-.48-.08c-.77,3.51-2.25,7.52-3.97,11.44,2-6.81,3.24-13.82,3.69-20.9Z"/>
      <path class="cls-75" d="M224.62,147.09l.48,.07c-1.24,7.73-3.42,15.29-6.48,22.5-4.94,11.68-12.1,22.29-21.08,31.24-4.6,4.61-9.65,8.75-15.07,12.36h0c-2.05,.9-3.81,1.55-5.19,1.74l2.28-2.08c19.58-12.41,34.4-31.66,41.08-54.37h0s0-.02,0-.02c1.73-3.92,3.21-7.93,3.98-11.44h0s0,0,0,0Z"/>
      <path class="cls-34" d="M220.64,158.55c-6.68,22.71-21.5,41.96-41.08,54.37l7.59-6.95c2.61-1.94,5.17-4.26,7.28-6.66,7.51-6.87,13.47-15.55,17.8-23.13,5.32-9.31,8.17-16.96,8.41-17.61,0,0,0-.01,0-.02Z"/>
      <path class="cls-64" d="M220.63,158.58c-.24,.64-3.09,8.3-8.4,17.61,.46-.8,.71-1.71,.73-2.63h0c2.04-3.56,5.12-9.17,7.67-14.98Z"/>
      <path class="cls-64" d="M224.33,137.64c-.45,7.08-1.69,14.09-3.69,20.9h0s0,.02,0,.02c0,0,0,.01,0,.02-2.55,5.8-5.63,11.42-7.67,14.97,.04-1.93-.93-3.73-2.57-4.76,5.25-11.64,7.95-24.26,7.92-37.02,.03-14.05-3.25-27.9-9.56-40.45,1.83-.54,3.24-1.99,3.73-3.84,.23-.85,.25-1.74,.06-2.6,7.76,14.02,11.88,29.76,11.98,45.79"/>
      <path class="cls-46" d="M210.39,168.79c1.18,.74,2.02,1.87,2.38,3.23,.14,.51,.2,1.02,.18,1.53-.73,1.28-1.48,2.54-2.25,3.79l-.61,.9c-1.48,.81-3.25,.9-4.81,.23,.36-.59,.7-1.17,1.04-1.77,.21,.07,.42,.12,.63,.15l.2,.02c1.9,.16,3.57-1.25,3.73-3.15,.03-.32,0-.65-.05-.97h0c0-.07-.02-.13-.04-.19,0-.02,0-.04-.01-.06l-.06-.19c-.04-.14-.1-.27-.16-.4v-.02c-.07-.13-.14-.26-.22-.38h0c-.04-.07-.09-.13-.13-.19-.04-.05-.07-.09-.11-.14-.03-.04-.06-.07-.09-.1-.02-.03-.04-.05-.06-.07-.04-.04-.07-.08-.11-.11,0,0,0-.01-.02-.02l-.07-.07h0s-.05-.04-.07-.07c-.05-.04-.11-.09-.16-.13h0c.3-.62,.59-1.24,.87-1.86h0Z"/>
      <path class="cls-46" d="M210.71,177.35s.9-1.45,2.25-3.79c-.05,1.96-1.13,3.75-2.85,4.7l.6-.9Z"/>
      <path class="cls-50" d="M212.23,176.18c-4.33,7.58-10.29,16.26-17.8,23.13,6.51-7.44,13.55-17.88,13.55-17.88l2.13-3.18c.87-.48,1.61-1.18,2.12-2.07Z"/>
      <path class="cls-46" d="M210.21,168.68l.18,.11c-.28,.62-.57,1.25-.87,1.87h0s-.07-.06-.07-.06l-.07-.05c-.06-.04-.11-.07-.17-.11-.07-.04-.14-.08-.21-.11-.13-.07-.27-.13-.42-.17l-.11-.03c-.09-.04-.19-.06-.29-.07v-2.06c.71,.1,1.41,.33,2.04,.69Z"/>
      <path class="cls-2" d="M208.47,170.12s.07,.02,.1,.03c-.03-.01-.07-.02-.1-.03Z"/>
      <path class="cls-59" d="M211.22,96.64c-.76-1.8-1.58-3.58-2.46-5.33-.19,.06-.38,.1-.58,.14v76.54c.71,.09,1.41,.33,2.04,.69l.18,.11c5.25-11.64,7.95-24.26,7.92-37.02,0-12.18-2.39-24.01-7.1-35.13Z"/>
      <path class="cls-2" d="M208.31,170.08l.12,.03h.03c.18,.06,.36,.12,.52,.21,.07,.03,.14,.07,.22,.11,.06,.03,.11,.07,.17,.1l.07,.05s.05,.03,.07,.06t0,0h0c-.43,.91-.88,1.81-1.35,2.71v-3.31s.09,.01,.13,.03h0s0,0,0,0Zm-.13,3.28v.22h-.12c.04-.08,.08-.15,.11-.22h0Z"/>
      <path class="cls-82" d="M208.17,167.77v.22l-.18-.02,.18-.2Z"/>
      <path class="cls-25" d="M208.18,167.01c-.31-.26-.79-.68-1.42-1.25V92.16l.4-.61h.03c.33,0,.67-.03,.99-.09v75.55h0Z"/>
      <path class="cls-82" d="M206.76,165.77c.63,.56,1.11,.98,1.42,1.25v.76l-.18,.2c-.41-.04-.83-.03-1.24,.03,0,0,0-2.23,0-2.23Z"/>
      <path class="cls-69" d="M208,89.42c.06-.01,.11-.03,.17-.05-.06,.02-.11,.03-.17,.05Z"/>
      <path class="cls-2" d="M208.18,170.05l-.13-.02s.09,.01,.13,.02h0Zm-.35,3.99l.31,.63-.89,.43c.2-.35,.39-.71,.58-1.07h0Zm.24-.45c-.08,.15-.15,.3-.23,.45l-.22-.45h.45Z"/>
      <path class="cls-2" d="M207.25,169.98c.07,0,.14,0,.22,0,.1,0,.2,0,.3,.01h.09s.09,.01,.13,.02c.07,0,.13,.02,.2,.03v3.31l-.11,.22h-.45l-.09-.19-.4,.19h-.36v-3.53s.1-.02,.15-.03c.02,0,.03,0,.05,0h.11c.06-.02,.12-.03,.19-.03Z"/>
      <path class="cls-2" d="M207.52,173.4l.09,.19h-.49l.39-.19Z"/>
      <path class="cls-50" d="M207.47,178.93c.94,0,1.84-.24,2.64-.68l-2.13,3.18s-7.04,10.44-13.55,17.88l-7.28,6.66c-5.43,4.04-11.04,6.44-13.05,4.6,.17-.42,.38-.95,.61-1.54h0c6.93-4.19,13.27-9.3,18.84-15.19l.03-.03c.19-.2,.37-.39,.56-.59l.05-.06c4.2-4.5,7.92-9.42,11.11-14.69,.68,.29,1.42,.45,2.16,.45h0Z"/>
      <path class="cls-69" d="M210.18,84.33c.96,1.65,.39,3.77-1.26,4.73-.12,.07-.25,.14-.39,.19l-.17,.07s-.09,.03-.14,.05h-.04s0,.01,0,.01c-.12,.04-.25,.07-.37,.09l-.15,.02h-.11c-.07,.02-.13,.03-.2,.03-.06,0-.11,0-.17,0-.14,0-.28,0-.42-.03-.05,0-.11-.01-.16-.02h-.01l-.12-.03s-.07-.01-.1-.02h-.05s-.05-.02-.05-.02c-.39-.11-.76-.28-1.09-.52l-.02-.02s-.04-.02-.06-.04l-.05-.04c-.17-.13-.33-.27-.47-.44-.03-.04-.07-.07-.1-.11-.03-.03-.06-.07-.08-.11-.08-.11-.15-.22-.22-.33l-.09-.16c-.07-.13-.12-.26-.17-.4-.02-.04-.03-.07-.04-.11-.02-.05-.03-.1-.05-.15l-.02-.09s-.02-.07-.02-.1l-.02-.08c-.03-.11-.04-.21-.05-.32,0-.05,0-.1-.01-.16v-.17c0-.14,0-.28,.02-.42,0-.04,0-.07,.01-.11,0-.1,.03-.2,.06-.3,0,0,0,0,0,0,0-.03,.02-.07,.03-.11,0-.04,.02-.08,.04-.12,.02-.08,.05-.16,.09-.24l.07-.17c.06-.14,.14-.27,.22-.4,.08-.13,.17-.26,.27-.37,.02-.03,.04-.05,.07-.08l.11-.11c.05-.05,.1-.1,.16-.15l.02-.02s.09-.08,.14-.11c.13-.11,.28-.21,.43-.29,1.66-.95,3.77-.39,4.73,1.27Z"/>
      <path class="cls-17" d="M205.48,89.73l-.8,1.21c-1.17-.6-2.09-1.6-2.59-2.82-.67-1.67-.49-3.55,.49-5.06,1.01-1.56,2.74-2.49,4.6-2.49,1.96,0,3.77,1.05,4.76,2.75h0c.28,.5,.49,1.02,.61,1.56h0c.52,2.34-.55,4.74-2.62,5.94-.83,.48-1.78,.74-2.74,.74h-.03l.09-.15s-1.77-1.68-1.77-1.68Zm-1.43-2.19c.04,.09,.08,.17,.13,.25,.11,.2,.24,.38,.4,.55,.12,.15,.26,.28,.41,.4l.06,.05,.05,.04s.05,.04,.08,.06l.13,.09c.1,.07,.2,.13,.31,.18l.13,.07c.17,.08,.34,.14,.52,.19h.05s.05,.02,.05,.02l.1,.03s.08,.02,.12,.02h.01c.19,.03,.39,.04,.58,.05h.17s.08,0,.12,0h.08c.15-.02,.31-.05,.46-.08,.06-.01,.12-.03,.17-.05h0s.03,0,.04-.01c.05-.01,.1-.03,.14-.05,.19-.07,.37-.15,.55-.26,1.65-.96,2.22-3.07,1.26-4.73-.31-.53-.75-.97-1.29-1.28-1.23-.7-2.76-.58-3.86,.3-.05,.03-.09,.07-.14,.11l-.02,.02c-.09,.08-.18,.17-.26,.27-.13,.14-.24,.29-.34,.45l-.09,.14c-.14,.25-.25,.51-.33,.78l-.03,.11h0s-.04,.18-.04,.18l-.02,.13c-.02,.1-.03,.21-.03,.31,0,.07,0,.14,0,.22v.17s.01,.16,.01,.16l.02,.15c0,.06,.02,.12,.03,.17,0,.03,0,.06,.02,.08,0,.06,.03,.12,.05,.18,.01,.05,.03,.1,.05,.15,.05,.14,.1,.29,.17,.42h0Z"/>
      <path class="cls-17" d="M206.75,91.53c-.72-.06-1.43-.26-2.08-.59l.79-1.21,1.77,1.67-.09,.14c-.13,0-.27,0-.4-.02Z"/>
      <path class="cls-25" d="M206.76,91.53c.13,.01,.26,.02,.4,.02l-.4,.61v-.63Z"/>
      <path class="cls-46" d="M206.76,168.56c.22,.02,.44,.04,.65,.05l-.65,.72v-.78h0Z"/>
      <path class="cls-46" d="M206.76,168c.41-.05,.82-.06,1.24-.02l-.58,.64c-.22-.01-.44-.03-.65-.06v-.56s0,0,0,0Z"/>
      <path class="cls-46" d="M207.06,170l-.11,.02s-.03,0-.05,0c-.05,0-.1,.01-.15,.03v-.71l.65-.72,.58-.64,.19,.02v2.06h0c-.06-.02-.13-.03-.19-.03-.17-.03-.34-.05-.51-.04-.13,0-.27,0-.4,.02Z"/>
      <path class="cls-59" d="M206.76,165.77c-3.71-3.37-12.18-11.93-16.47-23.16-2.15-5.65-3.71-11.55-4.94-17.25l21.41-33.21v73.61Z"/>
      <path class="cls-18" d="M204.68,90.94c.64,.33,1.35,.53,2.08,.59v.63l-21.41,33.21c-.37-1.7-.71-3.41-1.03-5.12l19.76-28.4,.6-.9Z"/>
      <path class="cls-82" d="M206.76,168c-.48,.06-.94,.19-1.37,.36-12.05-2.23-19.78-16.76-21.61-22.78-1.95-6.41-4.61-15.62-6.1-30.49v-.14c-1.32-12.89-4.5-22.85-5.3-25.21,3.72,.6,6.37,.56,6.37,.56,0,0,.33,1.56,2.33,11.41,.99,4.9,1.89,11.42,3.24,18.54l-2.7,3.89,2.79,2.7,.94-1.46c1.22,5.69,2.79,11.6,4.94,17.24,4.29,11.24,12.76,19.79,16.47,23.16v2.23h0Z"/>
      <path class="cls-46" d="M205.38,168.36c.43-.18,.89-.3,1.37-.36v.56c-.46-.05-.92-.11-1.37-.2Z"/>
      <path class="cls-46" d="M205.38,168.36c.45,.09,.91,.15,1.37,.2v.78l-.97,1.07h0c-.07,.04-.13,.08-.2,.12-.2,.12-.38,.26-.54,.43-.33,.31-.59,.69-.76,1.11h0s0,.01,0,.01l-.09,.09c-.69,.04-1.39,.06-2.09,.04,.4-1.74,1.62-3.17,3.27-3.84Z"/>
      <path class="cls-2" d="M210.37,171.55c.08,.12,.16,.25,.22,.38v.02s.09,.19,.09,.19c.03,.07,.06,.14,.07,.21,.02,.06,.04,.12,.06,.19v.06c.03,.06,.04,.13,.06,.19l.04,.22c.06,.44,.03,.89-.09,1.33l-.07,.22c-.08,.22-.17,.43-.28,.63-.65,1.13-1.88,1.8-3.18,1.73h-.1c-.12-.01-.25-.03-.37-.06-.01,0-.01,0-.02,0l-.2-.04h-.03c-.05-.02-.11-.04-.16-.06-.02,0-.04-.01-.06-.02,.3-.53,.61-1.07,.9-1.61l.89-.43-.31-.64c.08-.15,.16-.3,.24-.45h.11v-.22c.47-.89,.92-1.8,1.35-2.71h0l.16,.13,.07,.06s.05,.04,.07,.07c0,0,.01,.01,.02,.02,.04,.03,.07,.07,.11,.11,.02,.02,.04,.04,.06,.07,.12,.13,.24,.28,.34,.43t0,0s0,0,0,0Zm-4.35-1.25l-.11,.06,.11-.06Z"/>
      <path class="cls-46" d="M205.74,176.44c.06,.04,.13,.07,.2,.11h.01c.13,.07,.26,.12,.4,.17-.34,.6-.69,1.18-1.04,1.77-.77-.33-1.46-.83-2-1.46l1.93-.94s.08,.07,.12,.1l.16,.12,.05,.04,.18,.11h0Zm.06-6.02l.97-1.07v.71s-.08,.02-.13,.03l-.09,.03c-.05,.01-.11,.03-.16,.05,0,0,0,0-.01,0-.12,.04-.24,.09-.35,.14-.04,.01-.08,.04-.12,.06-.03,.01-.07,.03-.1,.05,0,0-.02,0-.02,0Z"/>
      <path class="cls-2" d="M205.35,176.18s-.08-.06-.12-.1l2.01-.98c-.29,.54-.6,1.08-.9,1.61l-.19-.07c-.07-.03-.15-.06-.22-.1-.07-.03-.13-.07-.2-.11-.06-.04-.12-.07-.18-.11-.02,0-.04-.02-.05-.03,0,0-.16-.12-.16-.12Z"/>
      <path class="cls-2" d="M205.24,176.08s-.09-.07-.13-.11c.04,.04,.08,.08,.13,.11Z"/>
      <path class="cls-46" d="M204.35,174.94s.02,.04,.03,.06c.02,.05,.05,.1,.08,.15h0c.03,.06,.06,.11,.09,.15,.12,.19,.26,.37,.42,.54l.05,.06s.05,.05,.09,.07c.04,.04,.09,.08,.13,.11l-1.93,.94c-.31-.36-.57-.77-.78-1.2,0,0,1.82-.88,1.82-.88Z"/>
      <path class="cls-59" d="M204.72,178.2c.19,.11,.38,.2,.58,.29-3.34,5.52-7.27,10.66-11.72,15.33l-.03,.03c-6.08,6.2-17.14,10.86-17.14,10.86l.48-1.24c1.46-3.58,3.77-10.34,5.79-16.44l20.61-10.01c.39,.46,.86,.85,1.42,1.18Z"/>
      <path class="cls-2" d="M204.59,175.37c-.05-.07-.09-.14-.13-.22h0c-.03-.05-.06-.1-.08-.16l-.03-.06,2.78-1.35h.49l.22,.45c-.19,.36-.38,.72-.58,1.07l-2.01,.98-.13-.11s-.02-.02-.03-.03c-.02-.01-.04-.03-.06-.05l-.05-.05c-.14-.15-.27-.3-.38-.47h0Zm1.2-4.95l-1.5,1.66c.02-.05,.04-.11,.07-.16l.11-.2c.23-.41,.55-.77,.94-1.04,.06-.05,.12-.09,.18-.13,.06-.04,.13-.08,.2-.12Z"/>
      <path class="cls-2" d="M204.18,174.54s-.03-.1-.05-.15l-.04-.15s-.01-.05-.01-.07l-.02-.1-.02-.11s0-.07-.01-.11c-.03-.25-.03-.49,0-.74v-.04s.01-.1,.01-.1c0-.06,.02-.13,.03-.19,.02-.13,.05-.26,.1-.39,0-.02,.01-.04,.02-.07h0s.02-.07,.02-.07v-.04s.05-.1,.07-.14h0s1.5-1.66,1.5-1.66h.02s.07-.04,.1-.06c.08-.05,.17-.09,.26-.12,.07-.03,.14-.06,.21-.08h0c.05-.02,.11-.04,.16-.05l.09-.03s.08-.02,.13-.03v3.54h.37l-2.78,1.35s0-.02,0-.03c-.03-.06-.05-.11-.07-.17-.03-.07-.06-.13-.08-.2h0Z"/>
      <path class="cls-46" d="M202.12,172.21c.7,.02,1.39,0,2.08-.04l.09-.09c-.03,.06-.05,.12-.07,.18l-.02,.06h0s-.02,.07-.02,.07c-.04,.13-.08,.26-.1,.39-.02,.1-.04,.2-.05,.3v.04s-.01,.14-.01,.14c-.01,.2,0,.4,.02,.6,0,.03,0,.07,.01,.11l.02,.11s0,.07,.02,.1v.07c.03,.1,.06,.21,.1,.31,.04,.13,.09,.25,.15,.37v.03s-1.81,.88-1.81,.88c-.54-1.12-.69-2.4-.41-3.62Z"/>
      <path class="cls-69" d="M203.78,86.71s0,.05,.01,.08c0-.03-.01-.05-.02-.08h0Z"/>
      <path class="cls-74" d="M191.86,67.95c4.32,4.31,8.18,9.03,11.55,14.12-.32,.3-.6,.63-.83,.99l-43.95-21.1c-.69-.76-1.41-1.5-2.15-2.21l-11.32-16.61c16.5,3.17,31.77,10.9,44.1,22.31,.88,.81,1.75,1.65,2.61,2.51,0,0,0,0,0,0Z"/>
      <path class="cls-46" d="M202.52,175.82c.2,.43,.47,.83,.78,1.2l-20.61,10.01,.62-1.88s19.21-9.33,19.21-9.33Z"/>
      <path class="cls-32" d="M196.99,65.68c2.21,2.64,8.46,10.23,11.25,15-1.74-.34-3.54,.18-4.84,1.4-4.03-6.09-8.78-11.68-14.16-16.63,2.85-.28,5.64-.07,7.75,.23h0Z"/>
      <path class="cls-56" d="M158.62,61.97l43.95,21.09c-.26,.4-.46,.83-.61,1.28l-41.1-19.72c-.71-.9-1.45-1.78-2.24-2.65h0Zm43.1,24.74c.06,.48,.18,.96,.36,1.42h-22.51c-.51-.46-1.01-.94-1.5-1.42h23.65Z"/>
      <path class="cls-77" d="M201.65,66.25l-2.85-.35c-7-7.56-15.15-13.95-24.16-18.94l1.54-1.28c7.83,4.4,15.02,9.86,21.37,16.21,1.42,1.42,2.79,2.86,4.11,4.35Z"/>
      <path class="cls-70" d="M226.35,129.94c-.16-12.65-2.78-25.15-7.72-36.8-4.15-9.83-9.89-18.92-16.98-26.9l-2.85-.35,.09,.09c4.55,4.92,8.58,10.29,12.02,16.04,.4,.37,.75,.8,1.03,1.29h0c.28,.49,.49,1.02,.61,1.56h0c7.88,14.24,12.01,30.25,11.99,46.52,0,2.08-.06,4.16-.2,6.24,.51,.4,1.12,.69,1.78,.83,.17-2.35,.25-4.71,.25-7.07,0-.48,0-.97-.01-1.46Z"/>
      <path class="cls-73" d="M196.99,65.68l1.81,.22,.09,.09c-.54-.1-1.18-.21-1.89-.31h0s0,0,0,0Z"/>
      <path class="cls-32" d="M196.99,65.68c.71,.1,1.36,.21,1.89,.31,4.55,4.92,8.58,10.29,12.02,16.03-.75-.69-1.67-1.15-2.66-1.35-2.79-4.76-9.03-12.35-11.25-15,0,0,0,0,0,0Z"/>
      <path class="cls-59" d="M191.86,195.59c-5.15,5.16-10.91,9.67-17.14,13.45,.57-1.43,1.25-3.18,1.7-4.34,0,0,11.05-4.66,17.14-10.85-.56,.59-1.12,1.17-1.7,1.74Z"/>
      <path class="cls-50" d="M187.16,205.98l7.27-6.66c-2.19,2.47-4.62,4.7-7.27,6.66Z"/>
      <path class="cls-83" d="M186.8,174.31s-1.54,4.9-3.49,10.84l-3.83,1.86c1.74-5.82,2.78-10.99,3.18-13.22,2.37,.43,4.14,.52,4.14,.52Z"/>
      <path class="cls-82" d="M185.35,125.36l-.94,1.46-2.79-2.7,2.7-3.89c.32,1.68,.66,3.39,1.03,5.12Z"/>
      <path class="cls-46" d="M179.48,187.01l3.83-1.86-.62,1.88-3.79,1.84c.2-.63,.39-1.25,.58-1.86Z"/>
      <path class="cls-15" d="M175.51,171.55c.51,.24,1.02,.46,1.52,.67,1.89,.77,3.92,1.26,5.63,1.58-.83,4.46-1.89,8.87-3.18,13.22l-7.29,3.54c1.47-7.11,2.87-16.02,3.32-19Z"/>
      <path class="cls-82" d="M179.57,88.13h-2v-1.42h.5c.64,.63,1.15,1.1,1.5,1.42h0Z"/>
      <path class="cls-34" d="M177.28,215.01c-.45,.07-.87,.08-1.23,.04,1.19-.68,2.36-1.39,3.51-2.13l-2.28,2.09Z"/>
      <path class="cls-22" d="M176.42,204.7c-.14,.06-2.32-1.5-3.35-2.24,.15-.24,.29-.49,.43-.73,2.22-3.9,4.01-8.49,5.4-12.87l3.79-1.84c-2.02,6.1-4.33,12.85-5.79,16.44,0,0-.19,.5-.48,1.24Z"/>
      <path class="cls-34" d="M176.18,45.68l-1.54,1.28c-14.27-7.91-30.32-12.05-46.64-12.03v-1.83c13.28,0,26.16,2.6,38.29,7.73,3.39,1.43,6.69,3.05,9.9,4.85Zm-2.08,164.9c2.01,1.84,7.62-.56,13.05-4.6l-7.59,6.95c-1.15,.73-2.32,1.44-3.51,2.12-.47-.04-.92-.22-1.28-.53-1.28-1.18-1.49-1.91-.92-3.31,0,0,.26-.63,.26-.63Z"/>
      <path class="cls-6" d="M175.52,171.55c-.46,2.98-1.86,11.89-3.32,19l-6.3,3.06c1.59-11.27,1.46-26.76,1.46-26.76,0,0,4.07,2.8,8.16,4.71h0Z"/>
      <path class="cls-10" d="M183.77,145.58c-1.95-6.41-4.61-15.62-6.1-30.49v-.14c-1.32-12.89-4.5-22.86-5.3-25.22-2.5-.4-5.48-1.09-8.45-2.27,.94,1.49,2.75,4.73,4.24,9.5,2.11,6.76,2.48,15.56,2.48,15.56,0,0,.04,.96,.12,2.51,.14,2.76,.41,7.38,.78,11.77,.59,6.85,1.72,18.09,6.04,28.87,4.04,10.06,14.69,16.28,24.53,16.54,.4-1.74,1.62-3.17,3.27-3.85-12.05-2.24-19.78-16.77-21.61-22.78Z"/>
      <path class="cls-82" d="M143.08,61.71c1.16,.68,2.29,1.44,3.4,2.2,1.11,.77,2.19,1.6,3.25,2.45,2.11,1.71,4.13,3.55,6.03,5.52-1.62-2.21-3.51-4.23-5.51-6.12-2.01-1.9-4.19-3.61-6.5-5.13-1.16-.75-2.36-1.46-3.6-2.09-1.25-.62-2.53-1.18-3.85-1.66-.33-.12-.67-.23-1-.33-.17-.06-.33-.11-.5-.16l-.51-.14c-.34-.09-.67-.2-1.02-.26l-1.03-.23c-.35-.07-.69-.11-1.04-.17l-.53-.08c-.17-.03-.35-.04-.53-.06-.35-.03-.7-.07-1.06-.1h-.34v-5.97c10.68,.21,18.13,3.04,23.75,7.07l4.21,6.17,4.16,1.99c1.97,2.49,3.69,5.07,5.33,7.57,3.44,5.25,7.42,10.11,11.88,14.53h-.5v1.42h2c.32,.29,.51,.45,.53,.47-3.53-.47-7.01-1.31-10.37-2.5h0c-3.53-1.84-7.05-4.36-11.54-7.87-4.49-3.51-7.44-6.46-14.38-11.11-6.13-4.11-13.45-4.58-15.07-4.64v-5.52h.24c.33,.03,.65,.06,.98,.09,.16,.02,.33,.03,.49,.05l.49,.07c.33,.06,.66,.09,.98,.16,1.31,.23,2.59,.59,3.86,.99,1.26,.43,2.5,.93,3.72,1.49,.61,.3,1.21,.59,1.8,.91,.6,.31,1.18,.65,1.77,.98Z"/>
      <path class="cls-46" d="M165.89,193.6l6.3-3.06c-.12,.61-.25,1.19-.38,1.76l-6.19,3c.1-.55,.18-1.12,.26-1.7h0Z"/>
      <path class="cls-46" d="M171.82,192.31c.12-.57,.25-1.16,.37-1.76l7.29-3.54c-.18,.61-.38,1.23-.58,1.86,0,0-7.08,3.44-7.08,3.44Z"/>
      <path class="cls-67" d="M165.63,195.31l6.19-3c-.14,.66-.29,1.3-.43,1.9-2.05,8.68-8.31,16.24-16.62,21.38-8.31,5.14-21.77,6.06-21.77,6.06,1.79-.92,3.64-2.79,5.36-4.97,9.22,1.52,23.43-6.5,26.27-16.65,.39-1.38,.72-2.99,1-4.72h0Z"/>
      <path class="cls-21" d="M183.03,166.61c-2.84-2.54-7.27-10.06-9.16-17.68-1.89-7.62-2.54-11.71-2.92-21.44-.16-4.15-.27-8.3-.31-12.46-.01-1.65,0-2.5,0-2.5,0,0-.37-8.81-2.48-15.56-1.49-4.77-3.3-8.01-4.24-9.5l-.36-.14c-7.42-3.04-9.9-4.48-9.98-4.53,.13,.17,8.43,11.3,10.42,23.84,.41,2.59,.64,5.06,.75,7.44,.42,9.24-1.02,17.07-1.02,24.86,0,9.81,4.23,28.22,23.44,31.47,0,0-1.3-1.26-4.14-3.8Z"/>
      <path class="cls-59" d="M145.54,205.06l20.09-9.75c-.28,1.74-.62,3.34-1,4.72-2.84,10.15-17.05,18.17-26.27,16.65,3.6-4.56,6.6-10.44,7.19-11.62Z"/>
      <path class="cls-63" d="M143.81,67.12c6.93,4.65,9.88,7.6,14.37,11.11,4.49,3.51,8.01,6.02,11.54,7.87-9.86-3.43-18.51-9.33-25.26-13.96-9.03-6.18-15.72-7.47-15.72-7.47v-2.19c1.62,.06,8.94,.54,15.07,4.64Z"/>
      <path class="cls-59" d="M201.96,84.34c-.25,.75-.33,1.56-.24,2.36h-23.66c-4.46-4.41-8.44-9.28-11.88-14.52-1.65-2.5-3.36-5.08-5.33-7.57l41.1,19.72h0Z"/>
      <path class="cls-40" d="M152.61,105.83c3.07,.98,5.68,2.81,7,3.84,.4,1.38,.73,2.63,.9,3.59l-7.72-.71c.23-.26,.45-.52,.65-.8,.25-.37,.14-.79-.26-.79l.15-.52c.67,.24,.99,.19,1.07-.13,.1-.42-.33-.62-2.56-1.84-2.23-1.22-3.3-1.6-5.12-1.51-1.81,.09-4.58,1.41-6.6,4.05-.85,1.1-1.82,1.97-2.69,2.72-1.12,.96-2.08,1.71-2.4,2.49-.79-.28-2.25-.57-3.09-.49v-2.41c0-5.68,1.66-7.44,3.55-7.9,1.89-.47,8.05-.62,13.88-.22,1.1,.07,2.18,.31,3.22,.64Z"/>
      <path class="cls-82" d="M158.63,61.97l-.96-.46-1.2-1.75c.76,.71,1.47,1.46,2.16,2.21Zm-2.16-2.21c-1.22-1.16-2.54-2.28-3.97-3.3l-9.3-13.66c.65,.11,1.31,.23,1.95,.35l11.32,16.61h0Z"/>
      <path class="cls-82" d="M160.87,64.62l-4.16-1.99-4.21-6.17c1.43,1.03,2.75,2.14,3.97,3.3l1.2,1.76,.96,.46c.79,.86,1.53,1.75,2.24,2.65h0Z"/>
      <path class="cls-43" d="M144.81,203.74c.3-.56,.61-1.15,.92-1.77,1.54-3.07,2.71-5.08,3.65-6.69h0c.92-1.6,1.6-2.81,2.17-4.28,1.14-2.95,3.07-9.86,3.58-15.88,.4-4.66-.85-9.4-2.87-13.66-.59-1.24-1.25-2.44-1.94-3.59-3.09-5.07-14.26-12.64-15.56-13.32-1.3-.67-.93-1.14-.56-1.42,.37-.28,4.05-2.42,4.05-2.42,0,0,5.63,1.88,10.18,5.95,4.56,4.07,5.98,6.76,5.98,6.76,0,0-4.58-11.81-3.79-12.06s7.16,3.72,9.4,9.65c2.23,5.92,1.75,18.2,0,25.03-1.75,6.83-5.61,12.46-8.05,17.22-1.68,3.23-3.42,6.44-5.21,9.62l-1.85,.89s-.09-.05-.09-.05Z"/>
      <path class="cls-68" d="M143.74,60.64c2.31,1.52,4.48,3.24,6.5,5.13,2,1.9,3.89,3.91,5.51,6.12-1.89-1.97-3.9-3.81-6.03-5.52-1.05-.86-2.13-1.68-3.25-2.45-1.11-.78-2.24-1.51-3.4-2.2-.59-.34-1.16-.68-1.77-.98-.59-.32-1.19-.61-1.8-.91-1.21-.57-2.46-1.07-3.72-1.49-1.27-.4-2.55-.77-3.86-.99-.32-.07-.65-.11-.98-.16l-.49-.07c-.16-.02-.33-.03-.5-.05-.33-.03-.65-.06-.98-.09h-.24v-1.63h.34c.36,.03,.7,.07,1.06,.11,.18,.02,.35,.03,.53,.06l.53,.08c.35,.06,.7,.1,1.04,.17l1.03,.23c.35,.07,.68,.18,1.02,.26l.51,.14c.17,.05,.33,.11,.5,.16,.33,.11,.67,.22,1,.33,1.31,.48,2.6,1.04,3.84,1.66,1.24,.63,2.44,1.34,3.6,2.1h0Z"/>
      <path class="cls-1" d="M149.37,179.32s.96,3.05,1.06,7.45c.08,3.73-.02,5.48-.66,7.43-.12,.36-.25,.72-.4,1.07h0c-.93,1.62-2.11,3.63-3.65,6.7-.93,1.87-1.94,3.7-3.01,5.48-2.11-.16-8.99-.71-10.27-.97-1.52-.31-1.99-1.46,0-3.04,1.98-1.58,15.1-14.1,15.93-18.04,.81-3.83,.04-7.69,0-7.9,.4,.67,.73,1.29,.99,1.81h0Z"/>
      <path class="cls-31" d="M149.77,194.2c2.45-3.87,3.88-25.16,3.2-30.21-.13-.87-.38-1.71-.77-2.5l.05-.02c2.02,4.26,3.27,9,2.87,13.66-.51,6.02-2.44,12.92-3.58,15.87-.57,1.47-1.25,2.68-2.17,4.27,.15-.37,.28-.72,.4-1.07h0Z"/>
      <path class="cls-60" d="M152.97,163.99c.68,5.05-.75,26.33-3.2,30.21,.63-1.95,.74-3.7,.65-7.43-.09-4.4-1.06-7.45-1.06-7.45,0-.11-.18-3.8-.43-8.2-.25-4.46-.81-8.02-3.47-12.08-.15-.23-.3-.45-.46-.67-2.71-3.76-6.94-6.84-10.95-6.55-4.25,.31-6.06,2.17-6.06,2.17v-3.07s2.66-1.95,6.21-1.95,7.55,2.85,9.91,4.48c1.95,1.35,6.27,4.24,8.09,8.05,.37,.79,.64,1.63,.76,2.5Z"/>
      <path class="cls-78" d="M147.33,113.79c-2.86-.17-4.97-2.77-4.97-2.87s2.36-1.86,4.31-2.22c1.96-.36,4.68,.83,5.89,1.41,.3,.14,.55,.25,.77,.33l-.15,.52c-.1,0-.21,.03-.3,.07-.63,.26-2.69,2.94-5.55,2.76h0Z"/>
      <path class="cls-46" d="M165.63,195.31l-20.09,9.75,.11-.21,1.1-1.95,19.14-9.3c-.08,.58-.17,1.15-.26,1.71Z"/>
      <path class="cls-43" d="M145.53,205.07l-.62-1.28,1.85-.89-1.1,1.95-.11,.21h-.02s0,0,0,0Z"/>
      <path class="cls-20" d="M142.02,38.55l3.13,4.59c-.65-.13-1.3-.25-1.96-.35l-2.34-3.44s1.17-.8,1.17-.8Z"/>
      <path class="cls-55" d="M141.07,129.99c1.75,2.53,2.04,4.46,2.47,6.66,.32,1.66,.52,3.92,.59,4.92-.32-.2-.65-.39-.99-.55-2.05-.98-2.33-1.31-2.23-1.51,.09-.2,1.52-1.19,1.09-3.01s-3.09-6.79-7.07-5.93c0,0-.36-12.72,.04-14.18,.02-.06,.04-.12,.07-.18,.31-.78,1.28-1.53,2.39-2.49l.27,.15c.11-.07,.43-.13,1.13-.15-.79,.58-1.87,1.56-1.9,1.7-.04,.15-.35,6.09,.26,8.34,.61,2.26,2.15,3.7,3.89,6.23h0Z"/>
      <path class="cls-20" d="M143.19,42.79c-3.21-.55-6.46-.91-9.71-1.11-.17-2.9-2.58-5.17-5.48-5.17v-1.58c16.91,0,32.81,4.37,46.64,12.03,9.01,4.99,17.16,11.39,24.16,18.94l-1.81-.22c-2.11-.3-4.89-.51-7.75-.23-12.33-11.41-27.6-19.14-44.1-22.31l-3.13-4.59-1.17,.8s2.34,3.44,2.34,3.44Z"/>
      <path class="cls-27" d="M160.56,113.6l-.06-.35-7.71-.71c-.79,.89-2.18,2.24-3.68,2.97-2.13,1.02-5.21-.77-6.49-1.63-1.28-.86-2.78-.85-3.57-.31l-.22,.15c1.93-.04,2.97,1.15,4.98,2.72,2.01,1.57,3.91,2.14,6.53,1.02,2.62-1.12,8.33-3.3,8.33-3.3,0,0-2.23,4.96-6.36,12.74-4.12,7.78-5,12.4-5.24,13.91-.16,.97,.28,1.8,.62,2.26,.27-.99,.87-2.06,1.84-3.6,.41-.65,.88-1.38,1.42-2.23,2.35-3.68,6.75-10.97,7.88-13.25,.78-1.57,1.57-4.2,1.8-6.86,.12-1.18,.09-2.36-.08-3.53Z"/>
      <path class="cls-9" d="M158.67,114.16s-2.23,4.96-6.36,12.74c-4.12,7.78-5,12.4-5.24,13.92-.16,.97,.28,1.8,.62,2.26-.11,.4-.16,.8-.15,1.21,0,0-1.66-1.62-3.41-2.71-.08-1-.27-3.26-.6-4.92-.43-2.19-.72-4.12-2.47-6.66-1.74-2.53-3.27-3.97-3.88-6.23-.6-2.25-.29-8.19-.26-8.34,.03-.14,1.11-1.12,1.9-1.7,1.93-.04,2.97,1.15,4.98,2.72s3.91,2.14,6.53,1.02c2.62-1.12,8.32-3.3,8.32-3.3Z"/>
      <path class="cls-19" d="M142.36,110.92c0,.09,2.1,2.69,4.97,2.87,2.86,.18,4.92-2.51,5.55-2.76,.1-.04,.2-.07,.3-.07,.4,0,.51,.42,.26,.79-.09,.13-.31,.43-.65,.8-.79,.89-2.18,2.24-3.68,2.97-2.13,1.02-5.21-.77-6.49-1.63-1.28-.86-2.78-.85-3.57-.31-.07,.05-.14,.1-.22,.15-.7,.01-1.02,.07-1.13,.15l-.27-.15c.87-.75,1.85-1.62,2.69-2.72,2.01-2.63,4.78-3.95,6.6-4.05,1.82-.09,2.89,.29,5.12,1.51,2.23,1.22,2.66,1.42,2.55,1.84-.08,.31-.4,.37-1.07,.13-.26-.1-.52-.21-.77-.33-1.21-.58-3.93-1.77-5.89-1.41-1.95,.36-4.31,2.13-4.31,2.22h0Z"/>
      <path class="cls-76" d="M171.55,126.8c.59,6.85,1.72,18.08,6.04,28.87,4.04,10.06,14.69,16.28,24.53,16.54-.28,1.23-.13,2.5,.41,3.61l-19.21,9.33c1.95-5.95,3.5-10.84,3.5-10.84,0,0-1.77-.09-4.14-.52-1.92-.34-3.81-.86-5.63-1.58-.51-.21-1.02-.43-1.52-.67-4.09-1.92-8.16-4.71-8.16-4.71,0,0,.13,15.49-1.46,26.76l-19.14,9.3c1.33-2.37,3.58-6.45,5.21-9.62,2.44-4.76,6.3-10.39,8.05-17.22,1.75-6.83,2.23-19.1,0-25.03-2.23-5.93-8.6-9.9-9.4-9.64-.79,.26,3.79,12.06,3.79,12.06,0,0-1.42-2.7-5.98-6.76-4.56-4.07-10.18-5.95-10.18-5.95-1.35-.35-3.21,.23-4.53,1.46-1.33,1.23-3.51,3.07-5.56,3.12-.05,0-.1,0-.15,0v-1.99c1.79-.21,4.27-2.44,4.79-3.26,.53-.83,.56-1.63,.77-1.63s2.21,.61,3.25,.45c1.04-.16,2.09-1.08,2.44-1.57,.36-.49,.32-.91-.64-2.18-.96-1.28-2.2-1.68-3.39-.82-1.18,.85-2.55,1.34-2.55,1.34,0,0-.72-.09-.72-5.09,0-4.31,.01-9.76,.02-14.82,.85-.08,2.3,.21,3.09,.49-.03,.06-.05,.12-.06,.18-.4,1.46-.05,14.18-.05,14.18,3.97-.86,6.64,4.1,7.07,5.93,.43,1.83-1,2.81-1.09,3.01-.09,.2,.18,.53,2.23,1.51,.32,.16,.66,.34,.99,.55,1.75,1.1,3.41,2.71,3.41,2.71,0-.41,.05-.81,.15-1.21,.27-.99,.87-2.07,1.84-3.6,.41-.65,.88-1.39,1.43-2.23,2.35-3.67,6.75-10.97,7.88-13.25,.78-1.57,1.57-4.2,1.8-6.86h0c.11-1.2,.1-2.41-.08-3.53l-.06-.35c-.24-1.21-.54-2.41-.9-3.59-1.19-4.05-3.05-9.21-3.83-11.26-1.07-2.84-3.39-12.88-12.09-20.13-7.04-5.87-13.49-6.54-15.69-6.58v-14.75h0l.75,.02v7.71s6.7,1.29,15.72,7.47c6.75,4.62,15.39,10.52,25.26,13.96h0c3.33,1.16,6.79,2.04,10.37,2.5l-.53-.47h22.51c.5,1.22,1.42,2.22,2.59,2.82l-.6,.9-19.76,28.4c-1.34-7.12-2.24-13.64-3.24-18.54-2-9.85-2.33-11.41-2.33-11.41,0,0-2.65,.04-6.37-.56-2.5-.4-5.48-1.09-8.46-2.27l-.36-.15c-7.42-3.04-9.9-4.48-9.98-4.53,.13,.17,8.43,11.3,10.42,23.84,.41,2.59,.64,5.06,.75,7.44,.42,9.24-1.02,17.07-1.02,24.86,0,9.81,4.24,28.22,23.44,31.47,0,0-1.3-1.26-4.14-3.79-2.84-2.54-7.27-10.06-9.16-17.68-1.89-7.62-2.54-11.71-2.92-21.44-.22-5.81-.36-12.43-.31-14.89"/>
      <path class="cls-68" d="M143.19,42.79l9.31,13.66c-5.62-4.03-13.07-6.85-23.75-7.07v5.96l-.73-.02h-.03v-7.83c3.04,0,5.5-2.47,5.49-5.5,0-.1,0-.2,0-.3,3.25,.19,6.5,.56,9.71,1.11,0,0,0,0,0,0Z"/>
      <path class="cls-82" d="M124.53,42c0,1.91,1.55,3.46,3.46,3.46s3.46-1.55,3.46-3.46c0-1.91-1.55-3.46-3.47-3.46-1.91,0-3.46,1.55-3.46,3.46h0Zm3.47-5.49c3.03,0,5.49,2.46,5.49,5.49,0,3.03-2.46,5.49-5.5,5.49-3.04,0-5.5-2.47-5.49-5.5,0-.1,0-.21,0-.31,.18-2.9,2.58-5.16,5.49-5.17Z"/>
      <path class="cls-13" d="M133,221.64s13.46-.91,21.77-6.06c8.31-5.14,14.58-12.71,16.63-21.38,.14-.61,.28-1.24,.43-1.9l7.08-3.44c-1.4,4.38-3.19,8.97-5.4,12.87-.14,.25-.28,.49-.43,.73-3.66,6.06-9.63,11.62-17.39,15.25t0,0c-7.47,2.41-15.22,3.82-23.06,4.2l.38-.27h0Z"/>
      <path class="cls-39" d="M132.63,221.92l.86-.05c7.54-.44,15-1.84,22.2-4.15-6.55,3.07-14.36,4.76-23.14,4.25h0s.05-.03,.08-.04h0Z"/>
      <path class="cls-69" d="M128,38.54c1.91,0,3.46,1.55,3.46,3.46s-1.55,3.46-3.46,3.46c-1.91,0-3.46-1.55-3.46-3.46,0-1.91,1.55-3.46,3.46-3.46Z"/>
      <path class="cls-68" d="M128.03,55.32l.73,.02v1.62l-.75-.02h0v-1.62h.03Z"/>
      <path class="cls-20" d="M127.99,34.93v1.58c-2.92,0-5.32,2.29-5.48,5.17-3.25,.19-6.5,.56-9.71,1.11l2.34-3.44-1.17-.8-3.13,4.59c-16.5,3.17-31.77,10.9-44.1,22.31-2.85-.28-5.63-.07-7.74,.23-.63,.09-1.26,.19-1.89,.31,17.64-19.09,42.89-31.06,70.89-31.06h0Z"/>
      <path class="cls-24" d="M127.99,33.11v1.83c-28,0-53.24,11.97-70.89,31.06-2.75,2.97-5.3,6.11-7.65,9.4l-1.75-.78c3.22-4.53,6.81-8.78,10.75-12.71,8.96-8.98,19.58-16.13,31.27-21.06,12.11-5.13,25.13-7.76,38.28-7.73Z"/>
      <path class="cls-68" d="M112.8,42.79c3.21-.55,6.46-.91,9.71-1.11-.17,3.03,2.15,5.63,5.18,5.8,.1,0,.2,0,.3,0v7.83h-.03l-.72,.03v-5.96c-10.68,.21-18.13,3.04-23.75,7.07l9.31-13.66s0,0,0,0Z"/>
      <path class="cls-68" d="M127.96,55.32h.03v1.62h0l-.75,.02v-1.62l.72-.03h0Z"/>
      <path class="cls-65" d="M159.6,109.66c-1.19-4.05-3.05-9.21-3.83-11.26-1.07-2.84-3.39-12.88-12.09-20.13-7.04-5.87-13.49-6.54-15.69-6.58-2.19,.04-8.64,.71-15.69,6.58-8.7,7.25-11.02,17.29-12.09,20.13-.77,2.05-2.64,7.21-3.83,11.26,1.31-1.02,3.92-2.86,7-3.84-.42-.95-1.27-3.44-.68-6.76,.77-4.28,3.65-10.43,7.77-15.13,3.97-4.52,12.01-7.8,17.52-7.93,5.51,.13,13.56,3.41,17.52,7.93,4.12,4.69,7,10.85,7.77,15.13,.6,3.31-.26,5.8-.68,6.76,3.07,.98,5.68,2.81,6.99,3.84Z"/>
      <path class="cls-46" d="M153.29,99.07c-.77-4.28-3.65-10.43-7.77-15.13-3.97-4.52-12.01-7.8-17.52-7.93v26.96c-.29,3.03-.88,5.07-1.38,9.54-.68,6.17-.28,19.49-.28,23.81,0,2.41,.56,4.79,1.66,6.94v.04c1.79-.21,4.27-2.44,4.79-3.26,.53-.83,.56-1.63,.77-1.63s2.21,.61,3.25,.45c1.04-.16,2.09-1.08,2.44-1.57,.36-.49,.32-.91-.64-2.18-.96-1.28-2.2-1.68-3.39-.82-1.18,.85-2.55,1.34-2.55,1.34,0,0-.72-.09-.72-5.09,0-4.31,.01-9.76,.02-14.82v-2.41c0-5.68,1.66-7.44,3.55-7.9,1.89-.47,8.05-.62,13.88-.22,1.1,.07,2.18,.31,3.22,.64,.42-.95,1.28-3.44,.68-6.76Z"/>
      <path class="cls-60" d="M105.56,186.77c-.08,3.73,.02,5.48,.65,7.43-2.45-3.87-3.88-25.16-3.2-30.21,.12-.87,.39-1.7,.77-2.5,1.82-3.82,6.14-6.7,8.09-8.05,2.36-1.63,6.36-4.48,9.91-4.48s6.21,1.95,6.21,1.95v3.07s-1.81-1.86-6.06-2.17c-4.01-.29-8.24,2.79-10.95,6.55-.16,.22-.31,.45-.46,.67-2.67,4.06-3.22,7.62-3.47,12.08-.24,4.4-.42,8.1-.43,8.2h0s-.97,3.05-1.06,7.46Z"/>
      <path class="cls-82" d="M134.05,151.81c-4.25,.31-6.06,2.17-6.06,2.17,0,0-1.81-1.86-6.06-2.17-4.01-.29-8.24,2.79-10.95,6.55,.51,.61,1.89,1.85,4.82,1.94,3.85,.12,7.52-1.75,7.63-1.8h0s1.91,1.57,4.55,1.79c1.65-.17,3.23-.78,4.55-1.79,.11,.06,3.79,1.92,7.63,1.81,2.92-.09,4.31-1.33,4.82-1.94-2.7-3.76-6.93-6.84-10.94-6.55Z"/>
      <path class="cls-72" d="M131.39,164.92c-.55-.61-1.55-1.48-3.39-1.67-1.84,.18-2.84,1.06-3.39,1.67-.45,.5-.83,.83-1.36,1.39h9.51c-.53-.56-.91-.89-1.37-1.39Z"/>
      <path class="cls-61" d="M127.99,211.74c.86,0,1.87,.29,3.69,.98,3.09,1.19,5.51,1.97,6.25,2.2-2.25,3.62-5,5.54-5,5.54,0,0-1.38,1.33-3.72,1.56h0c-.4,.04-.81,.04-1.21,0-.43,.03-.83,.03-1.21,0h-.01c-2.34-.22-3.71-1.56-3.71-1.56,0,0-2.75-1.91-5-5.54,2.1-.67,4.19-1.41,6.25-2.2,1.81-.7,2.83-.98,3.69-.98h0Z"/>
      <path class="cls-14" d="M127.24,62.48v2.19s-6.7,1.29-15.72,7.47c-6.75,4.62-15.39,10.52-25.26,13.96,3.53-1.84,7.05-4.35,11.54-7.87,4.49-3.51,7.44-6.46,14.38-11.11,6.12-4.11,13.45-4.59,15.07-4.64Z"/>
      <path class="cls-68" d="M106.26,66.37c-2.12,1.71-4.14,3.56-6.03,5.52,1.62-2.21,3.51-4.22,5.51-6.12,2.01-1.9,4.19-3.61,6.5-5.13,1.16-.75,2.36-1.46,3.61-2.09,1.25-.62,2.53-1.18,3.84-1.66,.33-.12,.67-.23,1-.33,.17-.05,.33-.11,.5-.16l.51-.14c.34-.09,.67-.19,1.02-.26l1.03-.23c.35-.07,.69-.11,1.04-.17l.53-.08c.17-.02,.35-.04,.53-.06,.35-.03,.7-.07,1.06-.09h.34s0,1.6,0,1.6h-.24s-.99,.09-.99,.09c-.16,.02-.33,.03-.49,.05l-.49,.07c-.33,.05-.66,.09-.98,.16-1.31,.23-2.59,.59-3.86,.99-1.26,.43-2.5,.93-3.72,1.49-.61,.3-1.21,.59-1.8,.91-.6,.3-1.18,.65-1.76,.98-1.17,.68-2.29,1.44-3.4,2.2-1.12,.77-2.19,1.6-3.25,2.45h0Z"/>
      <path class="cls-43" d="M134.62,168.44c-.3-.33-.64-.74-1.09-1.25-.25-.3-.52-.59-.79-.88h-9.51c-.27,.29-.54,.58-.79,.88-.44,.51-.79,.92-1.08,1.25,0,0-.75,5.92,.01,9.26,.77,3.35,2.93,5.83,4.47,9.34,.34,.77,.62,1.57,.83,2.38,.79,2.81,.98,5.46,1.31,5.97,.34-.51,.53-3.16,1.31-5.96,.07-.23,.14-.46,.21-.69,.18-.57,.39-1.14,.63-1.7,1.54-3.51,3.7-5.99,4.47-9.34,.77-3.34,.02-9.26,.02-9.26Z"/>
      <path class="cls-53" d="M139.34,176.29c-.87-3.75-3.13-6.51-3.7-6.91-.37-.28-.71-.59-1.01-.94,0,0,.75,5.91-.02,9.26-.77,3.35-2.93,5.83-4.46,9.34-.34,.77-.62,1.57-.84,2.39-.79,2.81-.98,5.46-1.31,5.96-.34-.51-.53-3.16-1.31-5.97-.22-.81-.5-1.61-.83-2.38-1.54-3.5-3.7-5.99-4.47-9.34-.77-3.35-.02-9.26-.02-9.26-.38,.42-.68,.71-1.01,.94-.57,.4-2.84,3.16-3.7,6.91-.23,.97-.28,1.97-.15,2.96h0c.21,1.66,.86,3.21,1.61,4.77,.36,.77,.75,1.53,1.11,2.31,1.35,2.9,7.42,12.77,8.77,14.97,1.35-2.19,7.43-12.06,8.77-14.97,.36-.78,.75-1.54,1.12-2.31,.74-1.55,1.4-3.11,1.61-4.77,.13-.95,.09-1.93-.14-2.96Z"/>
      <path class="cls-26" d="M101.58,110.3c.09,.33,.43,.38,1.17,.1l.05,.56c-.39,0-.5,.42-.25,.79,.09,.13,.32,.43,.65,.8l-7.71,.71c.17-.96,.5-2.21,.9-3.59,1.31-1.02,3.92-2.86,7-3.83,1.03-.33,2.12-.57,3.22-.64,5.83-.4,11.99-.25,13.88,.22,1.89,.46,3.55,2.22,3.55,7.91,0,.79,0,1.59,0,2.41-.85-.08-2.3,.21-3.09,.49-.3-.73-1.17-1.45-2.21-2.33-.91-.78-1.97-1.7-2.87-2.88-2.01-2.63-4.78-3.95-6.6-4.04-1.82-.09-2.88,.29-5.12,1.51-2.24,1.22-2.67,1.42-2.56,1.84Z"/>
      <path class="cls-1" d="M107.62,185.4c.83,3.93,13.95,16.45,15.93,18.03,1.99,1.58,1.52,2.73,0,3.04-1.28,.26-8.17,.81-10.27,.97-1.08-1.79-2.08-3.62-3.01-5.48-1.54-3.07-2.71-5.07-3.65-6.69h0c-.14-.36-.28-.72-.4-1.08-.63-1.95-.73-3.7-.65-7.43,.09-4.4,1.06-7.45,1.06-7.45,.26-.52,.59-1.14,.99-1.81-.04,.2-.81,4.07,0,7.9h0Z"/>
      <path class="cls-47" d="M85.36,112.33c.07,2.47-.1,9.35-.32,15.15-.38,9.73-1.02,13.82-2.92,21.44-1.89,7.62-6.33,15.14-9.17,17.68-2.84,2.54-4.14,3.79-4.14,3.79,19.21-3.25,23.44-21.66,23.44-31.47,0-7.8-1.44-15.62-1.02-24.86,.11-2.38,.34-4.85,.75-7.44,1.99-12.54,10.29-23.67,10.42-23.84-.07,.04-2.55,1.48-9.97,4.53l-.36,.15c-2.98,1.18-5.96,1.87-8.46,2.27-3.72,.6-6.37,.56-6.37,.56,0,0-.32,1.56-2.33,11.41-.97,4.79-1.85,11.12-3.15,18.04l-19.41-27.9-.71-1.08c1.02-.61,1.81-1.54,2.26-2.64h22.52c-.35,.31-.53,.47-.53,.47,3.53-.47,7.01-1.31,10.37-2.5,9.86-3.44,18.51-9.34,25.26-13.96,9.03-6.18,15.72-7.47,15.72-7.47v-7.71l.75-.02h0v14.75c-2.19,.04-8.64,.71-15.68,6.58-8.7,7.25-11.03,17.29-12.1,20.13-.77,2.05-2.64,7.21-3.83,11.26-.41,1.38-.73,2.63-.9,3.59-.03,.12-.04,.24-.06,.35-.17,1.17-.19,2.35-.08,3.53,.23,2.66,1.02,5.29,1.8,6.86,1.14,2.28,5.54,9.58,7.88,13.25,.54,.85,1.02,1.58,1.43,2.23,.97,1.54,1.58,2.61,1.84,3.6,.11,.41,.16,.8,.15,1.21,0,0,1.66-1.62,3.41-2.71,.33-.21,.66-.4,.99-.55,2.05-.98,2.33-1.31,2.23-1.51-.09-.2-1.52-1.18-1.1-3.01,.43-1.83,3.09-6.79,7.07-5.93,0,0,.36-12.72-.05-14.17-.02-.06-.04-.12-.06-.18,.79-.28,2.24-.57,3.09-.49,0,5.06,.02,10.52,.02,14.82,0,5-.72,5.09-.72,5.09,0,0-1.37-.49-2.56-1.34-1.19-.85-2.43-.46-3.39,.82-.96,1.28-1,1.7-.64,2.18,.36,.48,1.4,1.41,2.44,1.57,1.04,.17,3.04-.45,3.25-.45s.24,.8,.77,1.63c.52,.82,3,3.06,4.79,3.26v1.99s-.1,0-.15,0c-2.05-.05-4.24-1.88-5.56-3.11-1.33-1.23-3.19-1.81-4.53-1.46,0,0-5.63,1.88-10.19,5.95-4.56,4.06-5.98,6.76-5.98,6.76,0,0,4.58-11.81,3.79-12.06s-7.16,3.72-9.4,9.65c-2.23,5.93-1.75,18.2,0,25.03,1.74,6.83,5.6,12.46,8.05,17.22,1.68,3.23,3.42,6.44,5.21,9.62l-19.15-9.3c-1.59-11.27-1.46-26.76-1.46-26.76,0,0-4.07,2.79-8.15,4.71-.51,.24-1.02,.46-1.52,.67-1.82,.71-3.7,1.24-5.63,1.58-2.37,.43-4.14,.52-4.14,.52,0,0,1.55,4.89,3.49,10.84l-19.21-9.33c.54-1.11,.69-2.39,.41-3.61,9.84-.25,20.49-6.47,24.52-16.54,4.33-10.78,5.46-22.02,6.04-28.86"/>
      <path class="cls-58" d="M117.38,135.12c.96-1.28,2.2-1.68,3.39-.82,1.18,.85,2.56,1.34,2.56,1.34,0,0,.72-.09,.72-5.09,0-4.31-.02-9.76-.02-14.82v-2.41c0-5.68-1.66-7.44-3.55-7.91-1.89-.47-8.05-.62-13.88-.22-1.1,.08-2.18,.3-3.22,.64-.42-.96-1.27-3.44-.68-6.76,.77-4.28,3.65-10.43,7.77-15.13,3.97-4.52,12.01-7.8,17.53-7.93v26.96c-.29,3.03-.88,5.07-1.38,9.54-.68,6.17-.28,19.49-.28,23.81,0,2.41,.56,4.79,1.66,6.94v.04c-1.79-.21-4.27-2.44-4.79-3.26-.53-.83-.56-1.63-.77-1.63s-2.21,.61-3.25,.45c-1.04-.16-2.08-1.08-2.44-1.57-.36-.48-.32-.9,.64-2.18Z"/>
      <path class="cls-62" d="M123.44,221.96c-8.78,.52-16.59-1.18-23.14-4.25,7.47,2.41,15.22,3.82,23.06,4.2l.08,.04Z"/>
      <path class="cls-12" d="M84.16,192.31l6.19,3c.28,1.74,.62,3.34,1,4.72,2.84,10.15,17.05,18.17,26.27,16.65,1.72,2.17,3.57,4.05,5.36,4.97,0,0-13.46-.92-21.77-6.06-8.31-5.14-14.58-12.71-16.62-21.38-.14-.61-.29-1.24-.43-1.9Z"/>
      <path class="cls-84" d="M102.75,110.4c-.74,.28-1.08,.23-1.17-.1-.1-.42,.33-.62,2.56-1.84,2.23-1.22,3.3-1.6,5.12-1.51,1.81,.09,4.58,1.41,6.6,4.05,.91,1.18,1.96,2.09,2.88,2.88h-.43c-.09-.08-.39-.15-1.15-.16-.07-.06-.14-.1-.22-.15-.79-.54-2.29-.55-3.57,.31-1.28,.86-4.36,2.65-6.49,1.63-1.5-.72-2.89-2.07-3.68-2.97-.23-.25-.45-.52-.65-.79-.25-.38-.14-.79,.25-.79,.09,0,.19,.02,.31,.07,.63,.26,2.69,2.94,5.55,2.77,2.86-.17,4.97-2.78,4.97-2.87,0-.09-2.36-1.86-4.31-2.22-1.96-.36-4.68,.83-5.89,1.41-.22,.11-.44,.21-.67,.3Z"/>
      <path class="cls-52" d="M118.74,113.88c1.04,.88,1.91,1.6,2.21,2.33,.03,.06,.05,.12,.06,.18,.4,1.46,.05,14.18,.05,14.18-3.97-.86-6.64,4.1-7.07,5.93-.43,1.83,1,2.81,1.09,3.01,.09,.2-.19,.53-2.23,1.51-.33,.16-.66,.34-.99,.55,.08-1,.27-3.26,.59-4.92,.43-2.2,.72-4.13,2.47-6.66,1.74-2.53,3.27-3.97,3.88-6.23,.6-2.25,.29-8.19,.26-8.34-.03-.13-1.11-1.12-1.9-1.7,.76,.01,1.06,.09,1.15,.17,0,0,.43-.01,.43-.01Z"/>
      <path class="cls-8" d="M119.05,115.41c.04,.15,.35,6.09-.26,8.34-.6,2.25-2.14,3.69-3.88,6.23-1.75,2.54-2.04,4.46-2.47,6.66-.32,1.66-.52,3.92-.59,4.92-1.75,1.1-3.41,2.71-3.41,2.71,0-.41-.05-.81-.15-1.21,.34-.46,.78-1.29,.62-2.26-.25-1.52-1.12-6.14-5.24-13.92-4.12-7.78-6.36-12.74-6.36-12.74,0,0,5.71,2.18,8.33,3.3,2.62,1.12,4.51,.54,6.53-1.02,2.01-1.57,3.05-2.76,4.98-2.72,.78,.58,1.87,1.56,1.9,1.7Z"/>
      <path class="cls-71" d="M132.44,203.44c1.98-1.58,15.1-14.1,15.93-18.04,.81-3.83,.04-7.7,0-7.9h0c-.66-1.12-1.4-2.18-2.2-3.19-.39-.48-.77-.97-1.16-1.46l-.88-1.11c-2.07-2.57-4.36-5.27-7.75-8.31-2.84-2.54-3.63-4.11-3.83-4.93h0s-1.91,1.58-4.55,1.79c-2.64-.21-4.55-1.79-4.55-1.79h0c-.2,.82-1,2.39-3.83,4.94-3.4,3.05-5.69,5.74-7.75,8.31-.3,.37-.59,.74-.88,1.11-.39,.48-.77,.97-1.16,1.46-.81,1.01-1.54,2.08-2.2,3.19-.04,.2-.81,4.06,0,7.9,.83,3.94,13.95,16.46,15.93,18.04,1.99,1.58,1.52,2.73,0,3.04-1.28,.26-8.17,.81-10.27,.97,1.74,2.9,3.29,5.07,4.75,7.44l.03,.04c2.1-.67,4.19-1.41,6.25-2.2,1.81-.7,2.83-.97,3.69-.98,.86,0,1.87,.28,3.68,.98,3.1,1.19,5.51,1.97,6.25,2.2l.03-.04c1.46-2.37,3.01-4.53,4.75-7.44-2.1-.16-8.99-.71-10.27-.98-1.52-.31-1.98-1.45,0-3.04h0Zm-4.44-2.14c-1.35-2.19-7.42-12.06-8.77-14.97-.36-.78-.75-1.55-1.12-2.31-.74-1.55-1.4-3.11-1.61-4.77-.13-.99-.08-1.99,.14-2.97,.87-3.75,3.13-6.51,3.7-6.91,.32-.23,.63-.52,1.01-.94,.3-.33,.64-.74,1.09-1.26,.3-.36,.56-.63,.79-.88,.53-.55,.91-.89,1.36-1.38,.55-.61,1.56-1.48,3.39-1.67,1.84,.18,2.84,1.06,3.39,1.67,.45,.5,.83,.83,1.36,1.38,.23,.24,.49,.53,.79,.88,.44,.52,.78,.92,1.08,1.25,.38,.43,.68,.71,1.01,.94,.57,.4,2.84,3.16,3.7,6.91,.24,1.04,.27,2.01,.15,2.96h0c-.21,1.66-.87,3.21-1.61,4.77-.37,.77-.75,1.53-1.12,2.31-1.35,2.9-7.42,12.78-8.77,14.97h0Z"/>
      <path class="cls-42" d="M117.63,216.68c-9.22,1.52-23.43-6.5-26.27-16.65-.42-1.56-.76-3.13-1.01-4.72l20.09,9.75c.59,1.17,3.59,7.06,7.19,11.62Z"/>
      <path class="cls-28" d="M100.31,217.71h0c-7.75-3.63-13.72-9.19-17.38-15.25-.15-.24-.29-.48-.43-.73-2.22-3.9-4.01-8.49-5.4-12.87l7.08,3.44c.14,.66,.29,1.3,.43,1.9,2.05,8.68,8.31,16.24,16.62,21.38,8.31,5.14,21.77,6.06,21.77,6.06l.38,.27c-.29-.01-.58-.03-.86-.05-7.54-.44-15-1.84-22.2-4.15Z"/>
      <path class="cls-20" d="M115.14,39.35l-2.35,3.44c-.65,.11-1.31,.23-1.96,.35l3.13-4.59,1.17,.8h0Z"/>
      <path class="cls-23" d="M112.8,42.79l-9.31,13.66c-1.43,1.03-2.75,2.14-3.97,3.3l11.32-16.61c.65-.13,1.3-.24,1.96-.35Z"/>
      <path class="cls-78" d="M109.31,108.7c1.95,.36,4.31,2.13,4.31,2.22s-2.11,2.7-4.97,2.87c-2.86,.17-4.92-2.51-5.55-2.77-.1-.04-.2-.06-.31-.07l-.05-.56c.2-.07,.42-.17,.67-.3,1.21-.58,3.93-1.76,5.89-1.4Z"/>
      <path class="cls-36" d="M149.36,179.31c0-.1-.18-3.79-.43-8.2-.25-4.46-.81-8.02-3.47-12.08-.15-.23-.3-.45-.46-.67-.51,.62-1.89,1.85-4.82,1.94-3.85,.12-7.52-1.75-7.63-1.8,.2,.82,1,2.39,3.83,4.93,3.39,3.05,5.69,5.74,7.75,8.31,.3,.37,.59,.74,.88,1.11,.39,.49,.77,.97,1.16,1.46,.89,1.11,1.62,2.21,2.2,3.19,.4,.68,.72,1.29,.99,1.81Z"/>
      <path class="cls-11" d="M115.81,160.3c-2.93-.09-4.31-1.33-4.82-1.94-.16,.22-.31,.45-.46,.67-2.67,4.06-3.22,7.62-3.47,12.08-.24,4.4-.42,8.1-.43,8.2,.26-.52,.59-1.14,.99-1.81,.66-1.11,1.4-2.18,2.2-3.19l1.16-1.46c.29-.37,.59-.74,.88-1.11,2.07-2.58,4.36-5.27,7.75-8.31,2.84-2.54,3.63-4.11,3.83-4.93-.11,.06-3.79,1.92-7.63,1.8h0Z"/>
      <path class="cls-46" d="M111.08,203.79l-.62,1.28h-.02c-.04-.08-.07-.15-.11-.22l-1.1-1.96,1.85,.9h0Z"/>
      <path class="cls-49" d="M110.83,43.14l-11.32,16.61c-.75,.72-1.47,1.46-2.15,2.21l-43.95,21.09c-.23-.36-.51-.69-.83-.99,4.03-6.09,8.78-11.67,14.16-16.62,12.33-11.41,27.6-19.14,44.1-22.31h0Z"/>
      <path class="cls-46" d="M109.24,202.9l1.1,1.96,.11,.21-20.09-9.75c-.09-.57-.18-1.13-.26-1.7l19.14,9.29Zm8.5-62.17s3.68,2.14,4.05,2.42c.37,.28,.74,.74-.56,1.42-1.3,.67-12.46,8.25-15.56,13.32-.7,1.15-1.35,2.35-1.94,3.59-2.02,4.26-3.26,9-2.87,13.66,.51,6.02,2.44,12.92,3.58,15.88,.57,1.47,1.25,2.68,2.17,4.27h0c.93,1.62,2.1,3.63,3.65,6.7,.31,.62,.62,1.21,.92,1.77l-.09,.05-1.85-.89c-1.79-3.18-3.53-6.39-5.21-9.62-2.44-4.76-6.3-10.39-8.05-17.22-1.75-6.83-2.23-19.1,0-25.03,2.23-5.93,8.6-9.9,9.4-9.64,.79,.26-3.79,12.06-3.79,12.06,0,0,1.42-2.7,5.98-6.77,4.55-4.07,10.18-5.95,10.18-5.95Z"/>
      <path class="cls-37" d="M112.16,116.44c2.01-1.57,3.05-2.76,4.98-2.72-.07-.06-.14-.1-.22-.15-.79-.53-2.29-.55-3.57,.31-1.28,.86-4.36,2.65-6.49,1.63-1.5-.72-2.89-2.07-3.68-2.97l-7.72,.71-.06,.35c-.18,1.12-.18,2.33-.08,3.53,.23,2.66,1.02,5.29,1.8,6.86,1.14,2.28,5.54,9.57,7.88,13.25,.54,.84,1.02,1.58,1.43,2.23,.97,1.54,1.58,2.61,1.84,3.6,.34-.46,.78-1.28,.62-2.26-.25-1.52-1.12-6.14-5.24-13.92-4.13-7.78-6.36-12.74-6.36-12.74,0,0,5.7,2.18,8.33,3.3,2.62,1.12,4.51,.55,6.53-1.02h0Z"/>
      <path class="cls-35" d="M150.3,157.88c-3.09-5.07-14.26-12.64-15.56-13.32-1.3-.67-.93-1.14-.56-1.42,.37-.28,4.05-2.42,4.05-2.42-1.35-.35-3.21,.23-4.53,1.46-1.33,1.23-3.51,3.07-5.56,3.11h-.3c-2.05-.05-4.24-1.88-5.56-3.11-1.33-1.23-3.19-1.81-4.53-1.46,0,0,3.68,2.14,4.05,2.42,.37,.28,.74,.74-.56,1.42-1.3,.67-12.46,8.25-15.56,13.32-.71,1.16-1.36,2.36-1.94,3.59l.05,.02c1.82-3.82,6.14-6.7,8.09-8.05,2.36-1.63,6.36-4.48,9.91-4.48s6.21,1.95,6.21,1.95c0,0,2.66-1.95,6.21-1.95s7.55,2.85,9.91,4.48c1.95,1.35,6.27,4.24,8.09,8.05l.05-.02c-.59-1.24-1.25-2.44-1.94-3.59Z"/>
      <path class="cls-80" d="M103.02,163.99c-.68,5.05,.75,26.33,3.2,30.21,.11,.35,.24,.7,.4,1.07-.92-1.6-1.6-2.81-2.17-4.27-1.14-2.95-3.07-9.85-3.58-15.87-.4-4.66,.85-9.41,2.87-13.66l.05,.02c-.38,.79-.64,1.63-.77,2.5h0Z"/>
      <path class="cls-82" d="M103.49,56.45l-4.21,6.17-4.16,1.99c.71-.9,1.45-1.78,2.24-2.65l.96-.46,1.2-1.76c1.22-1.16,2.53-2.28,3.97-3.3Z"/>
      <path class="cls-48" d="M92.42,87.31c7.42-3.04,9.9-4.48,9.98-4.53-.13,.17-8.43,11.3-10.42,23.84-.39,2.47-.64,4.95-.75,7.44-1.76,.56-3.86,.83-5.89,.95,.01-1.66,0-2.5,0-2.5,0,0,.37-8.81,2.48-15.56,1.49-4.77,3.3-8.01,4.24-9.5,0,0,.36-.14,.36-.14Z"/>
      <path class="cls-82" d="M99.52,59.76l-1.2,1.75-.96,.46c.68-.75,1.4-1.5,2.16-2.21Z"/>
      <path class="cls-49" d="M54.02,84.34l41.1-19.72c-1.97,2.49-3.69,5.07-5.34,7.57-3.44,5.25-7.42,10.11-11.88,14.53h-23.65c.1-.8,.02-1.61-.24-2.37Z"/>
      <path class="cls-38" d="M83.61,89.73c2.5-.4,5.48-1.09,8.46-2.27-.94,1.49-2.75,4.73-4.24,9.5-2.11,6.76-2.48,15.56-2.48,15.56,0,0-.04,.96-.12,2.51-2.82,.16-5.48,.02-6.91-.09,1.3-12.89,4.49-22.86,5.29-25.22Z"/>
      <path class="cls-54" d="M91.24,114.07c-.42,9.24,1.03,17.07,1.03,24.86,0,9.81-4.24,28.22-23.44,31.47,0,0,1.3-1.25,4.14-3.79,2.84-2.54,7.27-10.06,9.16-17.68,1.89-7.62,2.54-11.72,2.92-21.44,.22-5.81,.29-10.01,.31-12.46,2.03-.12,4.12-.4,5.89-.95h0Z"/>
      <path class="cls-46" d="M90.36,195.31l-6.19-3c-.12-.57-.25-1.16-.37-1.76l6.3,3.05c.08,.58,.17,1.15,.26,1.71h0Z"/>
      <path class="cls-79" d="M90.1,193.6l-6.3-3.06c-1.46-7.11-2.87-16.02-3.32-19,4.09-1.92,8.16-4.71,8.16-4.71,0,0-.13,15.49,1.47,26.76h0Z"/>
      <path class="cls-46" d="M84.17,192.31l-7.08-3.44c-.2-.62-.4-1.25-.58-1.86l7.29,3.54,.38,1.76h0Z"/>
      <path class="cls-17" d="M77.24,90.29s2.65,.04,6.37-.56c-.8,2.36-3.99,12.33-5.29,25.22v.14c-1.5,14.87-4.16,24.08-6.11,30.49-1.83,6.02-9.56,20.55-21.61,22.78-.44-.18-.9-.3-1.37-.36v-2.23c3.71-3.37,12.18-11.93,16.47-23.16,2.22-5.81,3.81-11.91,5.05-17.76l1.28,1.98,2.79-2.7-3.05-4.39c1.29-6.93,2.17-13.26,3.15-18.04,1.99-9.85,2.32-11.41,2.32-11.41Z"/>
      <path class="cls-5" d="M82.49,201.73c.14,.24,.28,.49,.43,.73-1.03,.75-3.21,2.31-3.35,2.24l-.48-1.24c-1.46-3.59-3.77-10.34-5.79-16.44l3.79,1.84c1.4,4.37,3.19,8.97,5.41,12.87Z"/>
      <path class="cls-3" d="M78.32,114.95c1.42,.11,4.08,.25,6.91,.09-.14,2.76-.41,7.38-.78,11.77-.59,6.85-1.72,18.08-6.04,28.87-4.04,10.07-14.69,16.29-24.53,16.54-.4-1.74-1.62-3.17-3.27-3.85,12.05-2.24,19.78-16.76,21.61-22.78,1.95-6.41,4.61-15.62,6.1-30.49,0-.05,0-.1,.01-.14Z"/>
      <path class="cls-30" d="M80.48,171.55c.45,2.98,1.86,11.89,3.32,19l-7.28-3.54c-1.29-4.35-2.36-8.76-3.18-13.22,1.71-.31,3.73-.81,5.63-1.58,.5-.2,1.01-.43,1.52-.67Z"/>
      <path class="cls-68" d="M73.3,187.03c2.02,6.1,4.32,12.85,5.79,16.44l.48,1.24s-11.05-4.66-17.14-10.86c-.2-.21-.39-.41-.59-.62l-.05-.06c-4.2-4.5-7.92-9.42-11.11-14.69,.77-.33,1.46-.83,2-1.46,0,0,20.61,10.01,20.61,10.01Z"/>
      <path class="cls-82" d="M78.42,86.71v1.42h-2c.35-.32,.86-.79,1.5-1.42h.5Z"/>
      <path class="cls-16" d="M54.26,86.71h23.66c-.64,.63-1.15,1.1-1.5,1.42h-22.52c.19-.46,.31-.94,.36-1.42Z"/>
      <path class="cls-46" d="M77.08,188.86l-3.79-1.84-.62-1.88,3.83,1.86c.18,.62,.38,1.23,.58,1.86h0Z"/>
      <path class="cls-82" d="M86.25,86.1c-3.36,1.19-6.84,2.03-10.37,2.5,0,0,.18-.16,.53-.47h2v-1.42h-.5c2.58-2.52,7.26-7.51,11.88-14.52,1.65-2.5,3.36-5.08,5.33-7.57l4.16-1.99,4.21-6.17c5.62-4.03,13.07-6.85,23.75-7.07v5.96h-.34c-.36,.03-.7,.08-1.06,.11-.18,.02-.35,.03-.53,.06l-.53,.08c-.35,.06-.7,.1-1.04,.17l-1.03,.23c-.35,.07-.68,.18-1.02,.26l-.51,.14c-.17,.05-.34,.11-.5,.16-.33,.11-.67,.22-1,.33-1.32,.48-2.6,1.05-3.84,1.67-1.25,.63-2.44,1.34-3.61,2.09-2.31,1.52-4.48,3.23-6.5,5.13-2,1.9-3.89,3.91-5.51,6.12,1.89-1.97,3.9-3.81,6.03-5.52,1.06-.86,2.13-1.68,3.25-2.45s2.24-1.52,3.4-2.2c.59-.34,1.16-.68,1.77-.98,1.77-.95,3.62-1.76,5.52-2.4,1.27-.4,2.55-.77,3.86-.99,.32-.07,.65-.11,.98-.16l.49-.07c.16-.02,.33-.03,.49-.05,.33-.03,.66-.06,.99-.09h.24s0,5.51,0,5.51c-1.62,.06-8.95,.53-15.07,4.64-6.93,4.65-9.88,7.6-14.37,11.11-4.49,3.51-8.01,6.02-11.54,7.87h0Z"/>
      <path class="cls-17" d="M71.77,119.74l3.05,4.39-2.79,2.7-1.28-1.98c.37-1.73,.7-3.43,1.02-5.1Z"/>
      <path class="cls-5" d="M73.33,173.79c.41,2.22,1.44,7.4,3.18,13.22l-3.83-1.86c-1.95-5.95-3.49-10.84-3.49-10.84,0,0,1.77-.08,4.14-.52Z"/>
      <path class="cls-46" d="M73.3,187.03l-20.61-10.01c.31-.37,.58-.77,.78-1.2l19.21,9.33s.62,1.88,.62,1.88Z"/>
      <path class="cls-33" d="M59,65.68c2.11-.3,4.89-.51,7.74-.23-5.37,4.95-10.13,10.53-14.16,16.62-1.29-1.22-3.09-1.74-4.84-1.4,.81-1.38,1.91-3,3.11-4.66,2.96-4.09,6.57-8.46,8.14-10.34h0s0,0,0,0Z"/>
      <path class="cls-44" d="M62.43,193.85c6.08,6.19,17.14,10.85,17.14,10.85l1.7,4.34c-6.93-4.2-13.27-9.3-18.84-15.19Z"/>
      <path class="cls-29" d="M57.1,65.99c.54-.11,1.18-.21,1.89-.31-1.57,1.88-5.18,6.25-8.14,10.34l-1.42-.63c2.35-3.29,4.91-6.43,7.66-9.4Z"/>
      <path class="cls-17" d="M51.55,81.3c1.17,.67,2.05,1.75,2.47,3.04,.8,2.43-.19,5.1-2.39,6.42l-.68-1.03-1.77,1.67,.08,.12c-.49,.05-.98,.02-1.46-.07-.62-.11-1.21-.33-1.75-.64-1.26-.72-2.18-1.92-2.55-3.33-.23-.85-.25-1.74-.06-2.6h0c.12-.55,.32-1.07,.61-1.56h0c.99-1.7,2.8-2.75,4.76-2.75,.96,0,1.91,.26,2.74,.74h0s0,0,0,0Zm-4.48,7.75c.13,.07,.25,.14,.38,.19l.16,.07c.06,.02,.12,.04,.18,.06h0c.06,.02,.11,.03,.17,.05,.07,.02,.13,.03,.2,.04,.05,0,.1,.02,.15,.02h.11c.19,.04,.39,.05,.58,.02,.07,0,.14,0,.2-.02l.16-.02h.01s.08-.02,.12-.03c.03,0,.07-.01,.1-.02,.02,0,.03,0,.05-.01h.05c.18-.06,.35-.12,.52-.2l.13-.07c.16-.07,.3-.16,.44-.26l.02-.02s.07-.05,.11-.09c.17-.13,.33-.27,.47-.44,.03-.03,.07-.07,.09-.11l.09-.11c.08-.11,.15-.22,.22-.33,.03-.06,.06-.11,.09-.17,.07-.13,.12-.26,.17-.4l.04-.11s.03-.1,.05-.15l.02-.09s.02-.07,.02-.1l.02-.08c.02-.11,.04-.22,.05-.32,0-.06,.01-.11,.01-.16v-.17c0-.14,0-.28-.02-.42,0-.04,0-.07-.02-.11,0-.1-.03-.2-.06-.3h0s-.03-.11-.03-.11c-.03-.12-.07-.25-.13-.36l-.07-.17c-.06-.14-.14-.27-.22-.4-.08-.13-.17-.26-.27-.37l-.07-.08-.11-.11c-.05-.05-.1-.1-.16-.15l-.02-.02c-.12-.11-.25-.2-.38-.29-1.63-1.01-3.76-.5-4.77,1.12-1,1.63-.5,3.77,1.13,4.77Z"/>
      <path class="cls-46" d="M50.6,168.36c1.65,.68,2.87,2.11,3.27,3.85,.53,2.35-.52,4.78-2.61,5.99-1.66,.96-3.71,.99-5.39,.06h0c-.88-.49-1.61-1.2-2.12-2.07-.47-.8-.72-1.71-.73-2.63-.06-2.8,2-5.2,4.78-5.56l.18-.02c.89-.08,1.78,.06,2.61,.39Zm-4.14,2.29h0c-.06,.04-.11,.09-.16,.13-.06,.05-.12,.1-.17,.15-.06,.05-.12,.11-.17,.18-.12,.13-.24,.28-.34,.43h0c-.08,.13-.15,.25-.22,.39v.02s-.09,.19-.09,.19c-.03,.07-.05,.14-.07,.21-.02,.06-.04,.12-.06,.19v.06c-.03,.06-.05,.12-.05,.18h0c-.1,.52-.08,1.04,.05,1.55,.08,.3,.2,.58,.35,.85,.65,1.13,1.88,1.8,3.18,1.73h.1c.07-.01,.14-.02,.2-.03,.06,0,.11-.02,.16-.03h.02c.07-.01,.14-.03,.2-.04h.03c.05-.02,.11-.04,.16-.06l.06-.02,.2-.07c.07-.03,.14-.06,.21-.1,.13-.06,.26-.13,.38-.21l.06-.04,.16-.11h0s.11-.1,.11-.1h0c.06-.05,.11-.1,.16-.15,.24-.23,.45-.5,.62-.79,.03-.05,.06-.1,.09-.16l.03-.06s0-.02,.01-.03c.03-.06,.05-.11,.07-.17,.05-.12,.09-.24,.13-.36l.04-.15s.01-.04,.01-.07l.02-.1,.02-.12s0-.07,.01-.11c.03-.25,.03-.49,0-.74v-.04s-.01-.1-.01-.1c-.02-.25-.08-.49-.18-.71-.02-.06-.04-.12-.07-.18h0c-.16-.38-.38-.72-.66-1.01l-.05-.06-.05-.05c-.11-.11-.23-.21-.35-.3-.12-.09-.25-.17-.38-.25h-.02s-.07-.04-.1-.06c-.08-.05-.17-.09-.26-.12-.07-.03-.14-.06-.21-.08,0,0,0,0,0,0-.05-.02-.11-.03-.16-.05l-.09-.02s-.08-.02-.13-.03c-.05-.01-.1-.02-.15-.03-.02,0-.03,0-.05,0-.1-.02-.19-.03-.29-.03-.07,0-.15,0-.22,0-.1,0-.2,0-.3,.01h-.09s-.13,.03-.13,.03c-.02,0-.04,0-.06,0-.05,0-.09,.01-.13,.02h0s-.09,.02-.13,.03c-.05,0-.1,.02-.15,.04-.04,0-.07,.02-.11,.03-.15,.04-.29,.1-.42,.17-.19,.09-.37,.2-.53,.33h0Z"/>
      <path class="cls-45" d="M53.41,83.06l43.95-21.09c-.79,.87-1.53,1.75-2.24,2.65l-41.1,19.72c-.15-.45-.36-.88-.61-1.28h0Z"/>
      <path class="cls-69" d="M51.56,83.95c.1,.12,.18,.25,.26,.39,.05,.08,.09,.16,.13,.25,.08,.17,.15,.35,.2,.53l.03,.11h0s.04,.18,.04,.18c0,.04,.02,.09,.02,.13,.02,.1,.03,.21,.04,.31,0,.07,0,.15,0,.22,0,.06,0,.11,0,.17,0,.16-.03,.32-.06,.48,0,.03,0,.06-.02,.08-.01,.06-.03,.12-.05,.18-.01,.05-.03,.1-.05,.15,0,.04-.02,.07-.04,.11-.05,.14-.1,.27-.17,.4-.13,.26-.29,.5-.48,.71-.1,.11-.21,.22-.32,.32-.03,.03-.06,.05-.09,.07l-.06,.05-.11,.09c-.14,.11-.3,.21-.46,.28l-.13,.06c-.17,.08-.34,.14-.52,.19h-.05s-.03,.02-.05,.02l-.1,.03s-.08,.02-.12,.02h-.01l-.16,.03c-.07,0-.13,.01-.2,.02-.07,0-.14,0-.22,0-.06,0-.11,0-.17,0h-.12s-.05-.01-.08-.01c-.09,0-.17-.02-.26-.03-.13-.02-.25-.05-.38-.09h0c-.12-.04-.24-.08-.35-.13-1.76-.74-2.59-2.77-1.85-4.53,.27-.63,.72-1.18,1.3-1.55,1.3-.86,3.02-.73,4.19,.3l.02,.02,.16,.15s.07,.07,.11,.11l.07,.08,.11,.13Z"/>
      <path class="cls-69" d="M52.19,86.79v-.08s0,.06,0,.08h0Z"/>
      <path class="cls-17" d="M50.95,89.73l.68,1.03c-.71,.43-1.52,.7-2.37,.77l-.08-.12s1.77-1.68,1.77-1.68Z"/>
      <path class="cls-2" d="M50.76,176.08m0,0s-.07,.06-.11,.09l.11-.09Z"/>
      <path class="cls-2" d="M49.97,170.29l.12,.06-.12-.06Z"/>
      <path class="cls-57" d="M47.69,74.6l1.75,.78c-1.55,2.15-3,4.37-4.36,6.64-.4,.37-.75,.8-1.03,1.29h0c-.28,.5-.49,1.02-.61,1.56h0c-7.81,14.12-11.94,29.97-11.99,46.1-.52-.46-1.14-.79-1.82-.96,.26-19.87,6.55-39.2,18.05-55.41h0Z"/>
      <path class="cls-51" d="M49.26,91.52c.84-.07,1.66-.34,2.37-.77l.71,1.08,19.41,27.9c-.32,1.71-.65,3.41-1.01,5.11l-21.48-33.32h0Z"/>
      <path class="cls-68" d="M65.7,142.61c-4.29,11.24-12.76,19.79-16.47,23.16V91.53s.02,0,.04,0l21.48,33.32c-1.24,5.85-2.83,11.95-5.05,17.76h0Z"/>
      <path class="cls-17" d="M49.23,165.77v2.23c-.41-.05-.82-.06-1.23-.02l-.19-.2v-.76c.31-.26,.8-.68,1.42-1.24Z"/>
      <path class="cls-2" d="M49.09,170.02s.1,.01,.15,.03c-.05,0-.1-.02-.15-.03Z"/>
      <path class="cls-66" d="M48.8,91.55c.14,0,.28,0,.43-.02v74.24c-.62,.56-1.11,.98-1.42,1.25V91.46c.33,.06,.66,.09,.99,.09Z"/>
      <path class="cls-2" d="M48.53,176.91c-1.91,0-3.46-1.53-3.47-3.43,0-.23,.02-.47,.07-.69h0s.04-.19,.04-.19v-.06s.07-.18,.07-.18c.04-.14,.1-.27,.16-.4v-.02c.07-.13,.15-.26,.22-.38h0c.04-.06,.09-.13,.13-.19,.04-.05,.07-.09,.11-.14,.03-.04,.06-.07,.09-.1l.06-.07s.07-.07,.11-.11l.02-.02c.1-.09,.2-.18,.31-.26t0,0h0s.01,0,.01,0c.05-.04,.1-.07,.15-.1,.05-.04,.11-.07,.17-.11,.07-.04,.14-.08,.21-.11,.21-.11,.44-.2,.68-.25,.04-.01,.09-.02,.13-.03h0l.13-.03c.19-.04,.38-.06,.57-.05,.14,0,.27,0,.41,.02l.11,.02c.11,.01,.22,.03,.32,.06l.09,.02c.06,.01,.11,.03,.16,.05h0c.12,.04,.24,.09,.36,.14l.12,.05s.07,.03,.1,.05h.02c.14,.08,.26,.16,.38,.26,.13,.09,.25,.19,.36,.3,.02,.02,.04,.03,.05,.05l.05,.05c.28,.29,.5,.63,.66,1h0c.03,.07,.05,.12,.07,.18,.02,.04,.03,.09,.05,.13,.05,.13,.08,.26,.1,.39,.02,.11,.04,.22,.05,.33v.15c.02,.2,.01,.4-.01,.6v.1s-.03,.11-.03,.11c0,.04-.01,.07-.02,.11-.04,.2-.1,.39-.18,.58l-.07,.16v.03s-.03,.04-.04,.06c-.02,.05-.05,.1-.08,.15h0c-.03,.05-.06,.11-.09,.16-.12,.19-.26,.37-.42,.54-.03,.03-.07,.07-.11,.1l-.03,.03-.13,.11-.11,.09h0s-.16,.12-.16,.12l-.05,.03-.18,.11c-.06,.04-.13,.07-.2,.11h-.01c-.15,.08-.3,.14-.45,.19-.06,.02-.13,.04-.19,.06-.07,.02-.14,.03-.2,.04,0,0,0,0-.01,0-.06,.01-.11,.02-.17,.03l-.2,.02c-.1,.01-.19,.02-.29,.02Z"/>
      <path class="cls-69" d="M47.98,89.42c-.06-.01-.12-.03-.17-.05l.17,.05Z"/>
      <path class="cls-17" d="M47.81,167.77l.18,.2-.18,.02v-.22Z"/>
      <path class="cls-49" d="M47.23,91.32c-6.31,12.55-9.58,26.41-9.56,40.46-.02,12.76,2.68,25.38,7.92,37.02,.67-.42,1.43-.69,2.22-.8V91.46c-.19-.04-.39-.08-.58-.14Z"/>
      <path class="cls-2" d="M47.68,170.08l-.12,.03s.08-.02,.12-.03Zm-1.55,.85s-.07,.07-.11,.11c.04-.04,.07-.07,.11-.11h0Z"/>
      <path class="cls-44" d="M45.88,178.25c1.48,.81,3.25,.9,4.8,.23,3.77,6.23,8.29,11.97,13.44,17.11,5.15,5.16,10.91,9.67,17.14,13.44l.61,1.54c-2.98,2.72-13.83-3.85-20.32-11.26-1.55-1.78-3.05-3.6-4.5-5.46h0c-4.88-6.24-9.05-12.42-9.05-12.42l-2.13-3.19Z"/>
      <path class="cls-44" d="M57.05,193.84c-4.64-5.24-8.86-10.83-12.62-16.74,.42,.46,.9,.85,1.45,1.15l2.13,3.18s4.16,6.18,9.04,12.41h0Z"/>
      <path class="cls-29" d="M45.08,82.03c1.36-2.27,2.81-4.49,4.36-6.64l1.42,.63c-1.11,1.51-2.15,3.06-3.11,4.66-.99,.2-1.92,.67-2.66,1.35h0Z"/>
      <path class="cls-20" d="M31.46,130.98c.05-16.13,4.17-31.99,11.99-46.1-.52,2.34,.55,4.74,2.62,5.93,.37,.22,.76,.38,1.17,.51-6.31,12.55-9.58,26.41-9.56,40.46-.03,12.76,2.67,25.38,7.92,37.02-1.18,.74-2.02,1.87-2.38,3.23-.14,.51-.2,1.02-.18,1.53-2.04-3.56-5.13-9.19-7.68-15h0s0-.01,0-.01c-2.03-6.91-3.27-14.03-3.71-21.23"/>
      <path class="cls-81" d="M35.54,159.19c.62,1.92,2.78,7.92,7.87,16.28,.24,.6,.58,1.16,1.02,1.64,3.76,5.9,7.98,11.5,12.62,16.74h0c1.46,1.88,3,3.75,4.5,5.47,6.5,7.42,17.35,13.99,20.32,11.26,.11,.26,.19,.48,.26,.63,.57,1.4,.36,2.13-.92,3.31-.36,.31-.81,.5-1.28,.53-21.12-12.16-37.23-32.09-44.39-55.85h0Z"/>
      <path class="cls-41" d="M31.36,147.09c.77,3.51,2.25,7.52,3.98,11.44h0s0,.01,0,.01c.01,.06,.03,.11,.05,.16v.05c.04,.09,.06,.17,.09,.26l.03,.09s.02,.06,.03,.09c7.16,23.77,23.27,43.7,44.39,55.86-1.48,.17-3.7-.6-6.41-1.78h-.01c-5.42-3.62-10.47-7.76-15.07-12.36-14.61-14.56-24.26-33.37-27.56-53.74l.48-.08h0Z"/>
      <path class="cls-7" d="M43.42,175.47c-5.09-8.36-7.25-14.36-7.87-16.28l-.03-.09-.03-.09-.03-.09c-.02-.06-.04-.12-.05-.17,0-.02-.01-.03-.01-.05l-.03-.11-.02-.06c2.55,5.81,5.64,11.44,7.68,15,.02,.65,.15,1.3,.39,1.92Z"/>
    </g>
  </g>
</svg>