<?xml version="1.0" encoding="UTF-8"?>
<svg id="_图层_1" data-name="图层 1" xmlns="http://www.w3.org/2000/svg" xmlns:xlink="http://www.w3.org/1999/xlink" viewBox="0 0 256 256">
  <defs>
    <style>
      .cls-1 {
        fill: #11eefc;
      }

      .cls-2 {
        fill: #adff43;
      }

      .cls-3 {
        fill: url(#_未命名的渐变_25);
      }

      .cls-4 {
        clip-path: url(#clippath);
      }

      .cls-5 {
        fill: #ff694e;
      }

      .cls-6 {
        fill: none;
      }

      .cls-7 {
        fill: #fd6aff;
      }
    </style>
    <clipPath id="clippath">
      <path class="cls-6" d="M-193.25,56.44c24.45,34.36,63.89,53.23,103.12,45.93,2.77-.52,6.17-1.13,9.4-2.07,9.68-2.81,13.65,5.96,8.57,10.96-2.99,2.98-5.66,5.72-8.22,7.99-17.66,15.68-37.17,29.82-58.42,42.09-21.39,12.35-43.53,22.22-66.09,29.69-3.15,1.05-6.61,2.24-10.56,3.3-8.49,1.9-11.32-8.6-5.58-13.88,3.04-2.8,4.85-4.8,6.7-6.96,25.93-30.32,28.35-72.74,10.37-110.88-.78-1.65-1.64-3.66-2.54-5.85-2.49-6.1,4.8-10.6,9.07-5.59,1.69,1.98,3.16,3.8,4.19,5.24Z"/>
    </clipPath>
    <linearGradient id="_未命名的渐变_25" data-name="未命名的渐变 25" x1="33817.43" y1="3590.26" x2="40781.63" y2="-3373.95" gradientTransform="translate(-265.92 -126.29) rotate(62.02) scale(0) skewX(5.27)" gradientUnits="userSpaceOnUse">
      <stop offset="0" stop-color="#27b1ef"/>
      <stop offset=".2" stop-color="#26defa"/>
      <stop offset=".41" stop-color="#30f4fd"/>
      <stop offset=".65" stop-color="#effdfb"/>
      <stop offset=".86" stop-color="#fac510"/>
      <stop offset="1" stop-color="#fc9b22"/>
    </linearGradient>
  </defs>
  <rect x="0" y="0" width="256" height="256" rx="50" ry="50"/>
  <g class="cls-4">
    <polygon class="cls-3" points="-139 170.8 -69.42 301.75 30.38 239.15 -39.2 108.19 -139 170.8" shape-rendering="crispEdges"/>
  </g>
  <g>
    <circle class="cls-5" cx="81.68" cy="83.43" r="32.68"/>
    <path class="cls-1" d="M170.2,50.75h0c19.71,0,35.71,16,35.71,35.71v20.12c0,5.26-4.27,9.52-9.52,9.52h-52.38c-5.26,0-9.52-4.27-9.52-9.52v-20.12c0-19.71,16-35.71,35.71-35.71Z"/>
    <rect class="cls-7" x="56.54" y="131.33" width="50.76" height="73.76" rx="10.1" ry="10.1"/>
    <path class="cls-2" d="M192.28,168.26l10.11-10.11c6.15-6.15,6.15-16.12,0-22.27h0c-6.15-6.15-16.12-6.15-22.27,0l-10.11,10.11-10.11-10.11c-6.15-6.15-16.12-6.15-22.27,0-6.15,6.15-6.15,16.12,0,22.27l10.11,10.11-10.11,10.11c-6.15,6.15-6.15,16.12,0,22.27,6.15,6.15,16.12,6.15,22.27,0l10.11-10.11,10.11,10.11c6.15,6.15,16.12,6.15,22.27,0h0c6.15-6.15,6.15-16.12,0-22.27l-10.11-10.11Z"/>
  </g>
</svg>