<?xml version="1.0" encoding="UTF-8"?>
<svg id="_图层_1" data-name="图层 1" xmlns="http://www.w3.org/2000/svg" xmlns:xlink="http://www.w3.org/1999/xlink" viewBox="0 0 256 256">
  <defs>
    <style>
      .cls-1 {
        fill: #f4f4f4;
      }

      .cls-2 {
        fill: #fff;
      }

      .cls-3 {
        fill: #4531ff;
      }

      .cls-4 {
        fill: url(#_未命名的渐变_25);
      }

      .cls-5 {
        clip-path: url(#clippath);
      }

      .cls-6 {
        fill: none;
      }

      .cls-7 {
        fill: url(#_未命名的渐变_25-2);
      }
    </style>
    <clipPath id="clippath">
      <path class="cls-6" d="M82.75-219.56c24.45,34.36,63.89,53.23,103.12,45.93,2.77-.52,6.17-1.13,9.4-2.07,9.68-2.81,13.65,5.96,8.57,10.96-2.99,2.98-5.66,5.72-8.22,7.99-17.66,15.68-37.17,29.82-58.42,42.09-21.39,12.35-43.53,22.22-66.09,29.69-3.15,1.05-6.61,2.24-10.56,3.3-8.49,1.9-11.32-8.6-5.58-13.88,3.04-2.8,4.85-4.8,6.7-6.96,25.93-30.32,28.35-72.74,10.37-110.88-.78-1.65-1.64-3.66-2.54-5.85-2.49-6.1,4.8-10.6,9.07-5.59,1.69,1.98,3.16,3.8,4.19,5.24Z"/>
    </clipPath>
    <linearGradient id="_未命名的渐变_25" data-name="未命名的渐变 25" x1="34093.43" y1="3314.26" x2="41057.63" y2="-3649.95" gradientTransform="translate(5.83 -402.84) rotate(62.02) scale(0) skewX(5.27)" gradientUnits="userSpaceOnUse">
      <stop offset="0" stop-color="#27b1ef"/>
      <stop offset=".2" stop-color="#26defa"/>
      <stop offset=".41" stop-color="#30f4fd"/>
      <stop offset=".65" stop-color="#effdfb"/>
      <stop offset=".86" stop-color="#fac510"/>
      <stop offset="1" stop-color="#fc9b22"/>
    </linearGradient>
    <linearGradient id="_未命名的渐变_25-2" data-name="未命名的渐变 25" x1="34093.43" y1="-764.55" x2="41057.63" y2="-7728.75" gradientTransform="translate(9.21 -404.95) rotate(62.02) scale(0 -.01) skewX(-5.27)" xlink:href="#_未命名的渐变_25"/>
  </defs>
  <rect class="cls-1" x="0" y="0" width="256" height="256" rx="50" ry="50"/>
  <g class="cls-5">
    <g>
      <polygon class="cls-4" points="137 -105.2 206.58 25.75 306.38 -36.85 236.8 -167.81 137 -105.2" shape-rendering="crispEdges"/>
      <polygon class="cls-7" points="137 -105.2 206.58 25.75 106.78 88.36 37.2 -42.59 137 -105.2" shape-rendering="crispEdges"/>
    </g>
  </g>
  <g>
    <path class="cls-2" d="M45.11,95.87s47.08-.59,52.09-51.96h20.72s-2.75,25.62,10.08,42.1c0,0,11.17-12.35,10.8-42.1h21.38s-2.9,44.99,51.06,53.26v20.1s-26.63-1.46-41.22,10.73c0,0,18.67,13.48,41.22,10.15v20.65s-45.01,.27-51.06,51.62h-21.01s-.37-25.15-10.99-41.41c0,0-7.85,9.46-10.44,41.41h-20.53s-2.01-47.45-52.09-50.25v-21.28s25.39,3.16,40.88-10.89c0,0-10.39-11.47-40.88-10.54v-21.58Z"/>
    <path class="cls-3" d="M183.05,139.13c-4.99,1.93-9.75,4.39-14.23,7.31-4.06-1.7-8.01-3.63-11.84-5.81,3.54-2.72,7.27-5.17,11.18-7.32,4.79,2.34,9.77,4.29,14.89,5.82h0Zm22.93,16.16c-26.9,2.29-48.4,23.79-50.69,50.69h-11.65c2.34-33.31,29.04-60,62.34-62.35v11.66h0Zm-91.29-13.43c3.16-2.27,6.2-4.7,9.12-7.27,9.62,9.89,17.3,21.51,22.62,34.24-2.92,4.46-5.36,9.21-7.29,14.17-4.63-15.52-13.03-29.66-24.46-41.14Zm2.17,41.18c-1.93-4.98-4.38-9.75-7.31-14.23,1.7-4.06,3.64-8.02,5.81-11.84,2.72,3.54,5.17,7.27,7.32,11.18-2.35,4.79-4.29,9.77-5.82,14.89h0Zm-16.15,22.93c-2.29-26.9-23.79-48.4-50.69-50.69v-11.66c33.3,2.34,60,29.04,62.34,62.35h-11.65Zm-27.75-89.13c4.98-1.93,9.74-4.38,14.21-7.3,4.08,1.7,8.03,3.65,11.85,5.81-3.53,2.71-7.27,5.16-11.17,7.31-4.79-2.34-9.77-4.29-14.89-5.82h0Zm27.75-66.84h11.65c-2.34,33.3-29.04,60-62.34,62.34v-11.66c26.9-2.29,48.4-23.79,50.69-50.68h0Zm38.45,22.98c1.93,4.95,4.36,9.68,7.27,14.13-1.69,4.07-3.62,8.04-5.79,11.88-2.04-2.57-6.15-8.7-7.27-11.11,2.34-4.8,4.28-9.78,5.8-14.9Zm16.14-22.98c2.29,26.9,23.79,48.4,50.69,50.68v11.66c-33.3-2.34-60-29.04-62.34-62.34h11.65Zm-52.36,45.85c1.74,3.7,3.68,7.31,5.8,10.82-.69,.71-1.4,1.4-2.1,2.08-3.5-2.12-7.1-4.06-10.8-5.8,2.52-2.21,4.89-4.58,7.1-7.1Zm57.25,7.1c-3.72,1.75-7.33,3.69-10.81,5.8-.73-.7-1.45-1.42-2.15-2.15,2.11-3.5,4.05-7.1,5.8-10.82,2.23,2.54,4.62,4.94,7.17,7.17h0Zm-19.03,11.16c-3.12,2.26-6.13,4.66-9.02,7.2-9.6-9.88-17.26-21.48-22.57-34.19,2.91-4.45,5.35-9.2,7.28-14.15,5.4,16.55,12.77,29.18,24.31,41.14Zm-54,32.29c-4.45-2.91-9.19-5.35-14.15-7.28,15.5-4.61,29.62-12.98,41.1-24.37,2.27,3.13,4.69,6.17,7.28,9.1-9.9,9.6-21.51,17.25-34.23,22.56Zm21.63,2.94c-2.12,3.5-4.05,7.1-5.8,10.8-2.23-2.54-4.62-4.93-7.17-7.16,3.72-1.75,7.33-3.69,10.83-5.8,.73,.71,1.44,1.44,2.15,2.17h0Zm33.07-8.06c-2.28-3.15-4.7-6.2-7.27-9.12,9.89-9.64,21.51-17.32,34.25-22.65,4.43,2.89,9.17,5.34,14.16,7.28-15.53,4.63-29.66,13.05-41.13,24.48h0Zm11.16,18.87c-1.75-3.7-3.69-7.32-5.81-10.82,.71-.73,1.45-1.44,2.18-2.15,3.49,2.11,7.09,4.05,10.8,5.8-2.54,2.23-4.94,4.62-7.17,7.17h0Zm57.73-68.8c-25.44,0-46.13-20.69-46.13-46.13v-4.76h-30.94v4.76c0,10.93-2.03,21.38-5.68,31.04-2.33-6.69-6.14-17.6-5.67-35.8h-30.94v4.76c0,25.44-20.69,46.13-46.13,46.13h-4.76v30.94h4.76c10.93,0,21.38,2.03,31.04,5.68-9.92,3.75-20.44,5.67-31.04,5.67h-4.76v30.94h4.76c25.44,0,46.13,20.7,46.13,46.13v4.76h30.95s0-5.21,0-5.21c.05-10.76,2.08-21.06,5.67-30.59,3.75,9.92,5.67,20.44,5.67,31.04v4.76h30.94v-4.76c0-25.43,20.7-46.12,46.13-46.12h4.75v-30.95h-4.76c-10.93,0-21.38-2.03-31.04-5.67,9.92-3.75,20.44-5.67,31.04-5.67h4.76v-30.94h-4.76Z"/>
  </g>
</svg>