<?xml version="1.0" encoding="UTF-8"?>
<svg id="_图层_1" data-name="图层 1" xmlns="http://www.w3.org/2000/svg" xmlns:xlink="http://www.w3.org/1999/xlink" viewBox="0 0 256 256">
  <defs>
    <style>
      .cls-1 {
        fill: #f4f4f4;
      }

      .cls-2 {
        fill: #fff;
      }

      .cls-3 {
        fill: #605beb;
      }

      .cls-4 {
        fill: none;
      }
    </style>
    <clipPath id="clippath">
      <path class="cls-4" d="M358.75-219.56c24.45,34.36,63.89,53.23,103.12,45.93,2.77-.52,6.17-1.13,9.4-2.07,9.68-2.81,13.65,5.96,8.57,10.96-2.99,2.98-5.66,5.72-8.22,7.99-17.66,15.68-37.17,29.82-58.42,42.09-21.39,12.35-43.53,22.22-66.09,29.69-3.15,1.05-6.61,2.24-10.56,3.3-8.49,1.9-11.32-8.6-5.58-13.88,3.04-2.8,4.85-4.8,6.7-6.96,25.93-30.32,28.35-72.74,10.37-110.88-.78-1.65-1.64-3.66-2.54-5.85-2.49-6.1,4.8-10.6,9.07-5.59,1.69,1.98,3.16,3.8,4.19,5.24Z"/>
    </clipPath>
  </defs>
  <rect class="cls-1" x="0" y="0" width="256" height="256" rx="50" ry="50"/>
  <g>
    <polygon class="cls-2" points="50.34 86.72 99.18 168.74 73.57 168.74 62.91 192.92 68.83 195.53 115.54 195.53 128 217.58 131.66 217.58 178.12 135.08 188.79 154.76 216.1 152.15 217.48 148.83 193.29 107.34 205.62 83.87 202.54 80.55 109.61 80.55 121.46 61.59 105.82 39.07 85.9 70.6 81.63 77.47 80.21 80.08 64.33 82.21 52.24 82.21 50.34 86.72"/>
    <path class="cls-3" d="M219.4,147.6l-22.98-40.17s7.62-14.28,10.17-18.95c1.54-2.83,2.06-4.28,.83-6.46l-12.64-22.8c-.98-1.5-2.64-2.42-4.43-2.46h-46.94l-10.51-18.37c-.75-1.44-2.16-2.42-3.77-2.62h-24.79c-2.69,0-3.95,2.26-4.66,3.5-5.81,10.11-23.23,40.28-23.23,40.28h-22.5c-1.86-.05-3.61,.88-4.6,2.46l-12.97,22.95c-.82,1.66-.82,3.6,0,5.26l23.31,40.5-10.51,18.37c-.82,1.65-.82,3.58,0,5.23l11.98,21c.97,1.61,2.71,2.61,4.6,2.61h46.94l11.32,19.68c.87,1.48,2.4,2.45,4.1,2.63h26.59c1.83-.04,3.51-1.03,4.43-2.62l23.14-40.5h20.67c1.84-.16,3.5-1.19,4.44-2.78l11.97-21.15c1.11-1.69,1.11-3.89,0-5.58h0s0,0,0,0Zm-29.05,2.63l-11.98-22.14-49.24,86.73-13.47-22.13h-49.23l11.82-21.47h25.11L54.12,84.81h25.77l24.46-43.62,12.31,21.48-12.64,22.13h98.48l-12.47,21.97,24.79,43.45h-24.46Z"/>
    <path class="cls-3" d="M125.83,161.74l31.41-49.49h-62.98l31.57,49.49Z"/>
  </g>
</svg>