<?xml version="1.0" encoding="UTF-8"?>
<svg id="_图层_1" data-name="图层 1" xmlns="http://www.w3.org/2000/svg" xmlns:xlink="http://www.w3.org/1999/xlink" viewBox="0 0 256 256">
  <defs>
    <style>
      .cls-1 {
        fill: url(#_未命名的渐变_12);
      }

      .cls-2 {
        fill: #f4f4f4;
      }

      .cls-3 {
        fill: url(#_未命名的渐变_9);
      }

      .cls-4 {
        fill: #fff;
      }

      .cls-5 {
        fill: url(#_未命名的渐变_15);
        isolation: isolate;
        opacity: .35;
      }

      .cls-6 {
        fill: url(#_未命名的渐变_9-2);
      }

      .cls-7 {
        fill: url(#_未命名的渐变_13);
      }

      .cls-8 {
        fill: url(#_未命名的渐变_11);
      }

      .cls-9 {
        mask: url(#mask-1);
      }

      .cls-10 {
        mask: url(#mask);
      }

      .cls-11 {
        fill: url(#_未命名的渐变_20);
      }

      .cls-12 {
        fill: url(#_未命名的渐变_3);
      }

      .cls-13 {
        fill: url(#_未命名的渐变_7);
      }
    </style>
    <mask id="mask" x="37.45" y="38.97" width="182.19" height="182.19" maskUnits="userSpaceOnUse"/>
    <linearGradient id="_未命名的渐变_20" data-name="未命名的渐变 20" x1="-549.37" y1="394.83" x2="-549.08" y2="395.16" gradientTransform="translate(212493.5 155374.99) scale(386.64 -393)" gradientUnits="userSpaceOnUse">
      <stop offset="0" stop-color="#e979ff"/>
      <stop offset=".03" stop-color="#d47bf9"/>
      <stop offset=".11" stop-color="#9d80f3"/>
      <stop offset=".2" stop-color="#4a88e9"/>
      <stop offset=".3" stop-color="#1d8de4"/>
      <stop offset=".43" stop-color="#26a0e1"/>
      <stop offset=".61" stop-color="#36c2db"/>
      <stop offset="1" stop-color="#40dd87"/>
    </linearGradient>
    <mask id="mask-1" x="39.5" y="39.43" width="178.33" height="181.27" maskUnits="userSpaceOnUse"/>
    <linearGradient id="_未命名的渐变_15" data-name="未命名的渐变 15" x1="-549.25" y1="396.62" x2="-549.25" y2="397.25" gradientTransform="translate(212475.76 42202.4) scale(386.61 -105.76)" gradientUnits="userSpaceOnUse">
      <stop offset="0" stop-color="#723dc0"/>
      <stop offset=".32" stop-color="#6e50c0" stop-opacity=".68"/>
      <stop offset=".96" stop-color="#6380c0" stop-opacity=".04"/>
      <stop offset="1" stop-color="#6281c0" stop-opacity="0"/>
    </linearGradient>
    <radialGradient id="_未命名的渐变_13" data-name="未命名的渐变 13" cx="-548.72" cy="395.15" fx="-548.72" fy="395.15" r=".23" gradientTransform="translate(147207.12 106018.25) scale(268.04 -268.04)" gradientUnits="userSpaceOnUse">
      <stop offset="0" stop-color="#ededed" stop-opacity=".6"/>
      <stop offset=".45" stop-color="#f9f9f9" stop-opacity=".2"/>
      <stop offset="1" stop-color="#fff" stop-opacity="0"/>
    </radialGradient>
    <radialGradient id="_未命名的渐变_12" data-name="未命名的渐变 12" cx="-548.56" cy="396.41" fx="-548.56" fy="396.41" r=".27" gradientTransform="translate(56678.12 108110.19) rotate(26.52) scale(180.16 -180.16)" gradientUnits="userSpaceOnUse">
      <stop offset="0" stop-color="#ededed" stop-opacity=".8"/>
      <stop offset=".57" stop-color="#f9f9f9" stop-opacity=".4"/>
      <stop offset="1" stop-color="#fff" stop-opacity="0"/>
    </radialGradient>
    <radialGradient id="_未命名的渐变_11" data-name="未命名的渐变 11" cx="-548.29" cy="395.37" fx="-548.29" fy="395.37" r=".23" gradientTransform="translate(121234.66 87452.96) scale(220.89 -220.89)" gradientUnits="userSpaceOnUse">
      <stop offset="0" stop-color="#308ded"/>
      <stop offset="1" stop-color="#3093ed" stop-opacity="0"/>
    </radialGradient>
    <linearGradient id="_未命名的渐变_3" data-name="未命名的渐变 3" x1="-547.73" y1="395.64" x2="-548" y2="395.31" gradientTransform="translate(100183.1 72331.35) scale(182.63 -182.63)" gradientUnits="userSpaceOnUse">
      <stop offset=".08" stop-color="#ededed"/>
      <stop offset=".68" stop-color="#eff7ff"/>
      <stop offset="1" stop-color="#b0d7f8"/>
    </linearGradient>
    <linearGradient id="_未命名的渐变_7" data-name="未命名的渐变 7" x1="-546.16" y1="396.23" x2="-546.46" y2="395.88" gradientTransform="translate(62945.78 45646.3) scale(114.98 -114.98)" gradientUnits="userSpaceOnUse">
      <stop offset="0" stop-color="#484848"/>
      <stop offset="1" stop-color="#191919"/>
    </linearGradient>
    <radialGradient id="_未命名的渐变_9" data-name="未命名的渐变 9" cx="-564.66" cy="387.83" fx="-564.66" fy="387.83" r=".3" gradientTransform="translate(-23189.45 12730.88) rotate(176.32) scale(42.51 28.42)" gradientUnits="userSpaceOnUse">
      <stop offset="0" stop-color="#fff" stop-opacity=".2"/>
      <stop offset=".64" stop-color="#fff" stop-opacity=".1"/>
      <stop offset="1" stop-color="#fff" stop-opacity="0"/>
      <stop offset="1" stop-color="#fff" stop-opacity="0"/>
    </radialGradient>
    <radialGradient id="_未命名的渐变_9-2" data-name="未命名的渐变 9" cx="-548.26" cy="411.26" fx="-548.26" fy="411.26" r=".3" gradientTransform="translate(-12955.49 22702.33) rotate(93.68) scale(42.51 -28.42)" xlink:href="#_未命名的渐变_9"/>
  </defs>
  <rect class="cls-2" x="0" y="0" width="256" height="256" rx="50" ry="50"/>
  <g id="body">
    <g class="cls-10">
      <g id="logo_1_" data-name="logo(1)">
        <g>
          <g id="_路径" data-name="路径">
            <g id="_蒙版" data-name="蒙版">
              <path id="path-4" class="cls-11" d="M195.61,150.88c-1.34-5.52-1.34-20.63,0-45.41-.52-36.62-30.36-66.04-66.98-66.04S62.17,68.84,61.65,105.47c1.34,24.78,1.34,39.91,0,45.41-2.05,8.25-7.09,26.56-14.22,34.72-10.07,9.89-8.29,16.04-6.68,19.24,1.6,3.2,6.95,7.7,18.67,2.67,11.72-5.03,18.54-8.2,32.4,2.05,22.31,14.84,51.36,14.84,73.67,0,13.86-10.25,20.68-7.17,32.4-2.05,11.72,5.13,17.07,.53,18.67-2.67,1.6-3.21,3.48-9.31-6.64-19.21-7.18-8.15-12.25-26.47-14.31-34.76Z"/>
            </g>
            <g class="cls-9">
              <path class="cls-5" d="M209.88,185.64c-2.9-3.34-5.48-8.38-7.67-13.73H55.05c-2.14,5.35-4.72,10.38-7.62,13.73-10.07,9.85-8.29,16-6.68,19.2,1.6,3.2,6.95,7.7,18.67,2.67,11.72-5.03,18.54-8.2,32.4,2.05,22.31,14.84,51.36,14.84,73.67,0,13.86-10.25,20.68-7.17,32.4-2.05,11.72,5.13,17.07,.53,18.67-2.67,1.6-3.21,3.43-9.35-6.68-19.2Z"/>
            </g>
          </g>
          <circle id="_椭圆形" data-name="椭圆形" class="cls-7" cx="131.75" cy="103.15" r="61.81"/>
          <path id="_路径-2" data-name="路径" class="cls-1" d="M186.74,103.82c-9.36,19.34-37.62,25.05-63.06,12.69-25.44-12.36-38.46-38-29.1-57.35,9.36-19.34,37.62-25.04,63.06-12.69,25.44,12.35,38.46,38.01,29.1,57.35Z"/>
          <circle id="_椭圆形-2" data-name="椭圆形" class="cls-8" cx="123.06" cy="118.66" r="50.94"/>
          <circle id="_椭圆形-3" data-name="椭圆形" class="cls-12" cx="128.63" cy="106.22" r="42.12"/>
          <circle id="_椭圆形-4" data-name="椭圆形" class="cls-13" cx="128.63" cy="106.22" r="26.52"/>
          <circle id="_椭圆形-5" data-name="椭圆形" class="cls-4" cx="135.76" cy="95.62" r="8.69"/>
          <ellipse id="_椭圆形-6" data-name="椭圆形" class="cls-3" cx="56.71" cy="194.72" rx="15.41" ry="9.8" transform="translate(-111.89 82.01) rotate(-40)"/>
          <ellipse id="_椭圆形-7" data-name="椭圆形" class="cls-6" cx="200.38" cy="194.72" rx="9.8" ry="15.41" transform="translate(-77.58 223.06) rotate(-50)"/>
        </g>
      </g>
    </g>
  </g>
</svg>