<?xml version="1.0" encoding="UTF-8"?>
<svg id="_图层_1" data-name="图层 1" xmlns="http://www.w3.org/2000/svg" xmlns:xlink="http://www.w3.org/1999/xlink" viewBox="0 0 256 256">
  <defs>
    <style>
      .cls-1 {
        fill: none;
      }

      .cls-2 {
        fill: #e8e8e8;
      }

      .cls-3 {
        fill: #f6d85a;
      }
    </style>
    <clipPath id="clippath">
      <path class="cls-1" d="M-193.25,332.44c24.45,34.36,63.89,53.23,103.12,45.93,2.77-.52,6.17-1.13,9.4-2.07,9.68-2.81,13.65,5.96,8.57,10.96-2.99,2.98-5.66,5.72-8.22,7.99-17.66,15.68-37.17,29.82-58.42,42.09-21.39,12.35-43.53,22.22-66.09,29.69-3.15,1.05-6.61,2.24-10.56,3.3-8.49,1.9-11.32-8.6-5.58-13.88,3.04-2.8,4.85-4.8,6.7-6.96,25.93-30.32,28.35-72.74,10.37-110.88-.78-1.65-1.64-3.66-2.54-5.85-2.49-6.1,4.8-10.6,9.07-5.59,1.69,1.98,3.16,3.8,4.19,5.24Z"/>
    </clipPath>
  </defs>
  <rect x="0" y="0" width="256" height="256" rx="50" ry="50"/>
  <g>
    <path class="cls-2" d="M53.62,60.44s-19.99,14.41-10,36.11l54.42,92.99s3.13,5.22,4.24,7.14c3.66,6.31,12.04,14.34,25.39,14.34,8.1,0,18.13-1.68,26.81-16.41l4.25-7.25,51.43-87.67h-31.41l-27.26,46.37s-11.06,19.41-15.04,25.57c-1.59,2.47-4.08,4.9-8.79,4.9-2.66,0-6.26-.85-8.69-4.87L53.62,60.44Z"/>
    <path class="cls-3" d="M71.39,55.67l15.67,26.64h45.57l-19,32.59c-1.31,2.24-1.3,5.02,.03,7.26l7.54,12.72c2.85,4.81,9.81,4.8,12.66,0l31.05-52.57h49.61c0-14.71-11.92-26.63-26.63-26.63H71.39Z"/>
  </g>
</svg>