<?xml version="1.0" encoding="UTF-8"?>
<svg id="_图层_1" data-name="图层 1" xmlns="http://www.w3.org/2000/svg" viewBox="0 0 256 256">
  <defs>
    <style>
      .cls-1 {
        fill: #f4f4f4;
      }

      .cls-2 {
        fill: #de0000;
      }

      .cls-3 {
        fill: #9339ff;
      }
    </style>
  </defs>
  <rect class="cls-1" x="0" y="0" width="256" height="256" rx="50" ry="50"/>
  <g>
    <path class="cls-3" d="M100.02,207.44c-10.82,0-21.67-1.85-32.56-5.56-10.89-3.7-20.63-9.19-29.23-16.46l22.67-25.31c5.78,4.67,12.26,8.44,19.45,11.32,7.18,2.88,14.04,4.32,20.56,4.32,7.41,0,12.85-1.2,16.34-3.6,3.48-2.4,5.22-5.66,5.22-9.78,0-3.02-.97-5.45-2.89-7.31-1.93-1.85-4.63-3.53-8.11-5.04-3.48-1.51-7.59-3.15-12.34-4.94l-21.12-8.23c-5.78-2.19-11.22-5.14-16.34-8.85-5.11-3.7-9.26-8.3-12.45-13.79-3.19-5.49-4.78-11.94-4.78-19.34,0-8.64,2.56-16.46,7.67-23.46,5.11-7,12.19-12.55,21.23-16.67,9.04-4.12,19.41-6.17,31.12-6.17,9.63,0,19.19,1.68,28.67,5.04,9.48,3.36,17.85,8.41,25.12,15.13l-19.78,23.05c-5.48-3.84-10.89-6.76-16.23-8.75-5.33-1.99-11.26-2.98-17.78-2.98-6.08,0-10.86,1.1-14.34,3.29-3.48,2.2-5.22,5.28-5.22,9.26,0,2.88,1.07,5.28,3.22,7.2,2.15,1.92,5.07,3.64,8.78,5.14,3.7,1.51,8,3.16,12.89,4.94l20.67,7.61c6.81,2.47,12.67,5.63,17.56,9.47,4.89,3.84,8.63,8.41,11.22,13.69,2.59,5.28,3.89,11.56,3.89,18.83,0,8.51-2.48,16.4-7.45,23.67-4.97,7.27-12.15,13.14-21.56,17.6-9.41,4.46-20.78,6.69-34.12,6.69Z"/>
    <circle class="cls-2" cx="199.15" cy="184.82" r="22.62"/>
  </g>
</svg>