<?xml version="1.0" encoding="UTF-8"?>
<svg id="_图层_1" data-name="图层 1" xmlns="http://www.w3.org/2000/svg" xmlns:xlink="http://www.w3.org/1999/xlink" viewBox="0 0 256 256">
  <defs>
    <style>
      .cls-1 {
        fill: #ff8600;
      }

      .cls-2 {
        fill: #f4f4f4;
      }

      .cls-3 {
        fill: #ffe700;
      }

      .cls-4 {
        fill: #de0000;
      }

      .cls-5 {
        fill: #fff;
      }

      .cls-5, .cls-6 {
        stroke: #000;
        stroke-linecap: round;
        stroke-linejoin: round;
        stroke-width: 4.99px;
      }

      .cls-7, .cls-6 {
        fill: none;
      }

      .cls-8 {
        fill: #028021;
      }

      .cls-9 {
        fill: #770081;
      }

      .cls-10 {
        fill: #004cff;
      }
    </style>
    <clipPath id="clippath">
      <path class="cls-7" d="M358.75,332.44c24.45,34.36,63.89,53.23,103.12,45.93,2.77-.52,6.17-1.13,9.4-2.07,9.68-2.81,13.65,5.96,8.57,10.96-2.99,2.98-5.66,5.72-8.22,7.99-17.66,15.68-37.17,29.82-58.42,42.09-21.39,12.35-43.53,22.22-66.09,29.69-3.15,1.05-6.61,2.24-10.56,3.3-8.49,1.9-11.32-8.6-5.58-13.88,3.04-2.8,4.85-4.8,6.7-6.96,25.93-30.32,28.35-72.74,10.37-110.88-.78-1.65-1.64-3.66-2.54-5.85-2.49-6.1,4.8-10.6,9.07-5.59,1.69,1.98,3.16,3.8,4.19,5.24Z"/>
    </clipPath>
  </defs>
  <rect class="cls-2" x="0" y="0" width="256" height="256" rx="50" ry="50"/>
  <g>
    <path id="rear_sail" data-name="rear sail" class="cls-5" d="M59.66,49.67c35.68,15.26,84.62,57.74,93.61,114.31-41.15-16.59-72.47-7.74-94.28,5.72,33.27-42.28,18.34-90.37,.67-120.03h0Z"/>
    <path id="path1" class="cls-9" d="M100.2,79.7l-20.1,16.56c4.46,22.06,2.09,46.96-16.02,69.97,11.68-7.21,26.37-12.95,44.12-13.36l30.57-25.19c-9.54-19.13-23.64-35.44-38.57-47.98Z"/>
    <path id="path2" class="cls-10" d="M100.2,79.7l-20.1,16.56c4.46,22.06,2.09,46.96-16.02,69.97,7.11-4.39,15.35-8.23,24.71-10.66l44.95-37.04c-9.15-15.21-21.05-28.34-33.55-38.82Z"/>
    <path id="path3" class="cls-8" d="M100.65,79.25l-20.77,17.14c2.6,19.9,1.96,39.79-9.93,61.42l58.15-47.92c-7.35-10.63-17.6-22.08-27.46-30.63Z"/>
    <path id="path4" class="cls-3" d="M100.65,79.25l-20.77,17.14c1.87,14.95,1.87,27.63-1.77,41.27l43.86-36.01c-6.69-8.23-13.65-15.8-21.32-22.4Z"/>
    <path id="path5" class="cls-1" d="M100.65,79.25l-20.77,17.14c1.18,10.14,1.57,17.11,.93,25.74l34.56-28.29c-3.46-3.87-9.57-10.26-14.71-14.58Z"/>
    <path id="path6" class="cls-4" d="M100.65,79.25l-20.77,17.14c.75,4.87,.81,8.22,1.12,12.27l27.32-22.26c-2.38-2.38-5.31-5.15-7.67-7.14Z"/>
    <path id="hull" class="cls-5" d="M52.25,193.93l-5.96-11.39,163.7-10.54c-12.72,11.57-29.02,20.97-45.55,28.69,0,0-5.09-6.39-12.86-6.05,0,0-6.84,.49-13.84,7.52,0,0-4.81,4.43-9.6,4.14,0,0-5.05,.28-11.26-5.3,0,0-6.79-6.41-12.17-6.41,0,0-5.25-.51-13.65,7.42,0,0-4.17,4.66-10.64,4.31,0,0-6.9,.21-14.5-7.08,0,0-3.8-5.39-8.02-6.21,0,0-1.66-.51-5.66,.91Z"/>
    <path id="front_sail" data-name="front sail" class="cls-5" d="M111.46,69.34c27.86,8.52,66.81,49.66,80.07,93.89-7.27-2.86-12.71-5.77-22.92-3.16-9.88-35.93-27.55-70.25-57.16-90.73Z"/>
    <path id="waves" class="cls-6" d="M33.66,206.29c5.55,0,13.77-12.48,23.58-13.32,5.53-.47,9.64,12.48,23.58,13.32,9.69,.58,13.87-11.65,23.58-11.65s13.87,11.65,23.58,11.65,13.87-11.65,23.58-11.65,13.87,11.65,23.58,11.65,13.87-11.65,23.58-11.65,13.87,11.65,23.58,11.65"/>
  </g>
</svg>