<?xml version="1.0" encoding="UTF-8"?>
<svg id="_图层_1" data-name="图层 1" xmlns="http://www.w3.org/2000/svg" viewBox="0 0 256 256">
  <defs>
    <style>
      .cls-1 {
        fill: #f4f4f4;
      }

      .cls-2 {
        letter-spacing: .5em;
      }

      .cls-3 {
        letter-spacing: .51em;
      }

      .cls-4 {
        letter-spacing: .51em;
      }

      .cls-5 {
        fill: #707070;
        font-family: 'AlibabaPuHuiTi_3_55_Regular', 'Alibaba PuHuiTi 3.0';
        font-size: 17px;
      }

      .cls-6 {
        fill: #071954;
      }

      .cls-7 {
        letter-spacing: .47em;
      }
    </style>
  </defs>
  <rect class="cls-1" x="0" y="0" width="256" height="256" rx="50" ry="50"/>
  <g>
    <g>
      <path class="cls-6" d="M97.95,169.56c-.22-.04-.43-.1-.65-.1-4.45-.1-8.88-.47-13.29-1.14-6.09-.93-12.07-2.32-17.68-4.92-8.77-4.06-13.94-10.97-15.82-20.41-.32-1.62-.43-3.27-.42-4.92,0-2.62,0-5.24,0-7.86v-.77h13.98c0,.25,0,.49,0,.73,0,2.58,0,5.15,0,7.73,0,2.72,.67,5.27,2.12,7.6,1.41,2.27,3.32,3.97,5.76,5.07,3.2,1.45,6.56,2.42,9.99,3.14,3.6,.76,7.25,1.24,10.92,1.53,4.37,.35,8.75,.39,13.13,.19,9.77-.43,19.24-2.31,28.43-5.69,4.45-1.64,8.94-3.15,13.44-4.62,3.82-1.25,7.75-2.12,11.74-2.63,3.48-.45,6.98-.54,10.48-.44,3.46,.1,6.89,.44,10.32,.9,6.47,.87,12.85,2.24,19.25,3.5,3.41,.67,6.83,1.28,10.25,1.91,.11,.02,.22,.02,.39,.03,.02-.21,.05-.41,.05-.6,0-3.55,.02-7.09,0-10.64-.02-3.53-2.81-6.47-6.29-6.68-3.62-.22-6.72,2.3-7.19,5.86-.06,.47-.08,.94-.08,1.42-.01,1.22,0,2.43,0,3.76-4.7-.87-9.32-1.72-13.93-2.58,0-1.23-.09-2.41,.02-3.57,.45-4.77,2.31-8.94,5.61-12.41,3.56-3.74,7.93-5.89,13.09-6.41,10.76-1.09,20.67,6.4,22.51,17.26,.19,1.13,.26,2.29,.29,3.44,.05,1.78,.01,3.57,.01,5.35,0,6.73,.01,13.46,.02,20.19,0,.27,0,.54,0,.86-.21,.02-.38,.06-.55,.06-2.8-.02-5.59-.2-8.38-.48-7.33-.74-14.54-2.24-21.75-3.66-4.69-.92-9.4-1.8-14.12-2.57-4.35-.71-8.74-1.04-13.16-.97-5.7,.1-11.19,1.34-16.56,3.15-4.15,1.4-8.27,2.88-12.4,4.33-4.69,1.64-9.45,3.08-14.35,3.93-2.91,.51-5.84,.93-8.77,1.3-3.47,.44-6.97,.64-10.47,.72-.22,0-.43,.07-.65,.1h-5.29Z"/>
      <path class="cls-6" d="M123.77,125.77c-5.64,0-11.21,0-16.84,.01-.55,0-.9-.14-1.22-.61-1.02-1.49-2.04-2.9-3.13-4.35-7.4,6.03-20.01,7.53-26.88-.14-4.97-5.25-5.38-13.32-1.75-19.46,2.42-4.1,6.81-7.04,11.35-7.48,8.82-.85,12.6,2.4,16.88,5.31,1.49-3.17,2.96-6.31,4.47-9.52-5.7,.09-10.93,.04-15.9,.11-11.37,.16-19.4-1.69-12.88-20.45h15.36c-.57,2.6-1.33,5.12-1.93,7.77,7.75,0,15.48,0,23.23,0,2.41,0,4.46,.61,5.47,1.55,5.76,5.36,2.6,10.28-1.21,18.36-2.21,4.69-4.62,9.44-6.36,12.97,3.74,5.26,7.49,10.53,11.33,15.93Zm-28-16.7c-1.76-2.29-3.74-3.99-7.23-4.42-2.83-.35-5.95,2.21-5.31,5.38,1.23,6.05,10.1,3.83,12.54-.96Z"/>
      <path class="cls-6" d="M50.33,94.19s0,16.66,0,24.94c-.09,7.44-10.29,6.03-14.96,6.03v-29.09c-1.92,.47-3.75,.92-5.66,1.38,0-5.43,0-9.88,0-14.88,0-.38,0-.67,.37-.91,4.69-3.07,6.97-7.97,9.08-13.05h15.43c-2,16.62-13.36,25.57-13.36,25.57h9.1Z"/>
      <path class="cls-6" d="M68.42,129.04h17.47c.08,.24,2.6,9.15,2.62,9.24,.32,1.01,1.09,1.47,2.1,1.12,.57-.19,1.14-.47,1.6-.85,2.92-2.43,5.8-4.9,8.69-7.35,.15-.13,2.26-2.02,3.5-2.26,.53-.1,1.08-.15,1.62-.15,2.62-.01,5.24-.01,7.86,0,1.25,0,2.48,.14,3.68,.52,2.95,.92,4.26,2.98,4.32,5.72,.09,4.09-.02,12.63-.02,12.63h-16.7v-10.47s-7.28,6.02-10.52,8.83c-1.35,1.17-2.88,1.65-4.59,1.67-1.9,.03-9.4,.05-11.25-.01-.92-.03-1.84-.18-2.74-.39-1.34-.33-2.2-1.17-2.63-2.54-1.57-5.02-4.93-15.45-5.01-15.72Z"/>
      <path class="cls-6" d="M55.49,70.62h13.92v54.12h-13.88c-.13-.51-.18-53.08-.04-54.12Z"/>
      <path class="cls-6" d="M31.24,129.85h14.84s.04,18.41,.04,27.3c0,1.98-.9,3.4-2.68,4.27-1.11,.54-2.29,.82-3.51,.94-.85,.08-1.71,.11-2.57,.12-1.78,.02-5.84,0-6.13,0v-32.64Z"/>
      <g>
        <path class="cls-6" d="M178.68,110.72c1.69-.99,3.35-2.06,5.08-2.97,3.06-1.62,6.29-2.85,9.57-3.94,1.13-.38,2.28-.74,3.42-1.1,.54-.17,.89-.48,1-1.07,.13-.66,.32-1.32,.5-1.97,.66-2.35,1.15-4.74,1.31-7.18,.28-4.49-.31-8.87-1.71-13.15-.28-.84-.69-1.54-1.32-2.16-3.24-3.24-6.95-5.82-10.96-8-.2-.11-.44-.17-.68-.26,0,.13-.01,.18,0,.22,.07,.17,.14,.33,.21,.5,1.43,3.36,2.49,6.82,3.03,10.44,.72,4.82,.48,9.59-.8,14.3-1.65,6.03-4.73,11.54-8.65,16.36Z"/>
        <path class="cls-6" d="M226.07,89.3c-.63,.35-1.24,.69-1.85,1.03-.61,.34-1.22,.69-1.83,1.03-.61,.34-1.22,.69-1.83,1.03-.6,.33-1.18,.7-1.84,1.01-.03-.19-.04-.28-.06-.36-.2-1.29-.31-2.6-.61-3.87-.91-3.93-2.73-7.44-5.04-10.72-2.71-3.83-6.03-7.07-9.65-10.02-5.6-4.56-11.77-8.21-18.24-11.36-.11-.05-.24-.09-.35-.13l-.13,.16c.18,.13,.38,.23,.53,.39,1.46,1.45,2.95,2.86,4.35,4.37,3.5,3.78,6.48,7.94,8.68,12.62,2.93,6.22,4.07,12.74,3.29,19.58-.47,4.11-1.61,8.05-3.2,11.86-.18,.43-.87,1.04-1.27,1.27-2.5,1.42-4.67,2.69-10.55,3.59-5.59,.85-7.83,.83-8.15,.81v-25.93c0-.97-.04-1.94-.16-2.9-.25-2.03-.92-3.91-2.24-5.51-1.45-1.76-3.37-2.76-5.53-3.34-1.71-.46-3.47-.61-5.23-.63-2.35-.02-7.82-.04-7.82-.04,0,0,1.14-3.06,1.6-4.61h-15.79c-.08,.15-.14,.27-.2,.39-2.38,4.91-5.84,8.83-10.64,11.5-.37,.21-.42,.47-.42,.83,0,4.68,0,9.35,0,14.03,0,.19,.03,.39,.06,.67,.5-.27,.91-.49,1.32-.71,.4-.21,.79-.43,1.19-.64,.41-.21,.82-.42,1.26-.64v12.84h-3.85l.06,14.11,3.84,.04v23.72s13.97-4.57,13.97-4.57v-19.14s.37-.04,.53-.04c1.94,0,3.89,0,5.83,.01,.61,0,1.22,.06,1.82,.15,3.22,.46,5.29,2.39,5.91,5.57,.18,.92,.25,1.88,.26,2.82,.04,2.51,.01,5.02,.01,7.52v.78c4.79-.18,9.47,0,14.23,.57v-.95c0-7.16,0-14.32,0-21.48,0-.28,.02-.56,.03-.87,.23,0,.36,0,.49,0,3.92,.26,7.85,.45,11.78,.25,3.25-.17,6.5-.34,9.73-.62,3.91-.35,7.8-.91,11.65-1.69,2.14-.43,4.28-.93,6.41-1.4,.61-.13,1.07-.43,1.32-1.04,.88-2.13,1.82-4.23,2.67-6.37,1.64-4.17,2.96-8.43,3.65-12.87,.07-.46,.15-.92,.23-1.38v-.27c-.07-.13-.14-.26-.23-.43Zm-61.96,17.48v.04h-14.39l.19-20.52s4.26,0,6.09,.01c1.34,.01,2.65,.2,3.92,.65,2.61,.92,3.96,2.79,4.17,5.52,0,0,0,.03,0,.07,.02,.25,.02,.49,.02,.74,0,4.27,0,8.53,0,12.8v.69Z"/>
      </g>
      <ellipse class="cls-6" cx="156.92" cy="96.9" rx="4.85" ry="6.95"/>
      <ellipse class="cls-6" cx="156.92" cy="130.33" rx="4.85" ry="6.95"/>
    </g>
    <text class="cls-5" transform="translate(30.8 194.23) scale(1.05 1)"><tspan class="cls-7" x="0" y="0">Y</tspan><tspan class="cls-3" x="18.11" y="0">OUCH</tspan><tspan class="cls-2" x="99.62" y="0">U</tspan><tspan class="cls-4" x="120.05" y="0">ANAI</tspan></text>
  </g>
</svg>