<?xml version="1.0" encoding="UTF-8"?>
<svg id="_图层_1" data-name="图层 1" xmlns="http://www.w3.org/2000/svg" xmlns:xlink="http://www.w3.org/1999/xlink" viewBox="0 0 256 256">
  <defs>
    <style>
      .cls-1 {
        fill: #f4f4f4;
      }

      .cls-2 {
        fill: url(#_未命名的渐变_25);
      }

      .cls-3 {
        clip-path: url(#clippath);
      }

      .cls-4 {
        fill: none;
      }

      .cls-5 {
        fill: #f61e1e;
      }
    </style>
    <clipPath id="clippath">
      <path class="cls-4" d="M-193.25-219.56c24.45,34.36,63.89,53.23,103.12,45.93,2.77-.52,6.17-1.13,9.4-2.07,9.68-2.81,13.65,5.96,8.57,10.96-2.99,2.98-5.66,5.72-8.22,7.99-17.66,15.68-37.17,29.82-58.42,42.09-21.39,12.35-43.53,22.22-66.09,29.69-3.15,1.05-6.61,2.24-10.56,3.3-8.49,1.9-11.32-8.6-5.58-13.88,3.04-2.8,4.85-4.8,6.7-6.96,25.93-30.32,28.35-72.74,10.37-110.88-.78-1.65-1.64-3.66-2.54-5.85-2.49-6.1,4.8-10.6,9.07-5.59,1.69,1.98,3.16,3.8,4.19,5.24Z"/>
    </clipPath>
    <linearGradient id="_未命名的渐变_25" data-name="未命名的渐变 25" x1="33817.43" y1="3314.26" x2="40781.63" y2="-3649.95" gradientTransform="translate(-268.89 -400.43) rotate(62.02) scale(0) skewX(5.27)" gradientUnits="userSpaceOnUse">
      <stop offset="0" stop-color="#27b1ef"/>
      <stop offset=".2" stop-color="#26defa"/>
      <stop offset=".41" stop-color="#30f4fd"/>
      <stop offset=".65" stop-color="#effdfb"/>
      <stop offset=".86" stop-color="#fac510"/>
      <stop offset="1" stop-color="#fc9b22"/>
    </linearGradient>
  </defs>
  <rect class="cls-1" x="0" y="0" width="256" height="256" rx="50" ry="50"/>
  <path class="cls-5" d="M104.6,191.43H54.19c-4.47,0-8.1-3.63-8.1-8.1V75.61c0-3.96,2.87-7.35,6.78-7.99l125.5-20.76c3.84-.63,7.33,2.33,7.33,6.22v15.66h16.11c4.47,0,8.1,3.63,8.1,8.1v106.49c0,4.47-3.63,8.1-8.1,8.1h-66.3l10.04-11.79h49.78c1.49,0,2.7-1.21,2.7-2.7V83.32c0-1.49-1.21-2.7-2.7-2.7h-9.63v66.42c0,3.88-2.75,7.22-6.56,7.95l-26.92,5.2s-40.37,46.84-42.8,48.34c-3.17,1.96-4.82-.64-4.82-2.45v-14.65Zm0-20.72c0-1.65-1.47-2.92-3.1-2.67-9.93,1.51-40.29,6.12-40.73,6.2-1.83,.3-2.21,3-.56,4.66,1.42,1.11,3.62,.74,23.69,.74h19.8c.5,0,.9-.4,.9-.9v-8.03Z"/>
  <g class="cls-3">
    <polygon class="cls-2" points="-139 -105.2 -69.42 25.75 30.38 -36.85 -39.2 -167.81 -139 -105.2" shape-rendering="crispEdges"/>
  </g>
</svg>