<?xml version="1.0" encoding="UTF-8"?>
<svg id="_图层_1" data-name="图层 1" xmlns="http://www.w3.org/2000/svg" viewBox="0 0 256 256">
  <defs>
    <style>
      .cls-1 {
        fill: #e9ff56;
      }

      .cls-2 {
        fill: #172dd7;
      }
    </style>
  </defs>
  <rect class="cls-2" x="0" y="0" width="256" height="256" rx="50" ry="50"/>
  <path class="cls-1" d="M162.83,191.54c-2.23,7.79-10.39,14.13-18.18,14.13l-32.28,.06h-23.63c-3.71,0-6.7-1.37-8.65-3.95-2-2.66-2.53-6.37-1.43-10.18l4.39-15.3c.35-1.22,.11-2.53-.66-3.54-.76-1.01-1.96-1.61-3.22-1.61h-12.62c-3.71,0-6.7-1.37-8.65-3.95-2-2.66-2.53-6.37-1.43-10.18l11.75-40.82c.02-.06,.07-.22,.09-.28l3.79-13.15c.03-.09,.06-.19,.09-.28l1.02-3.56c2.23-7.79,10.39-14.13,18.18-14.13h15.09c1.8,0,3.39-1.19,3.88-2.92l4.99-17.41c2.23-7.79,10.39-14.13,18.19-14.13l32.35-.06h23.56c3.71,0,6.7,1.37,8.65,3.95,2,2.66,2.53,6.37,1.43,10.18l-6.76,23.57c-2.23,7.79-10.39,14.13-18.19,14.13l-32.35,.06h-15.09c-1.8,0-3.38,1.19-3.88,2.92l-6.66,23.16c-.02,.07-.06,.19-.08,.26l-5.84,20.22c-.35,1.22-.11,2.54,.65,3.55,.76,1.01,1.96,1.61,3.22,1.61,0,0,21.38-.04,21.38-.04h23.56c3.71,0,6.7,1.37,8.65,3.95,2,2.66,2.53,6.37,1.43,10.18l-6.75,23.57Z"/>
</svg>