<?xml version="1.0" encoding="UTF-8"?>
<svg id="_图层_1" data-name="图层 1" xmlns="http://www.w3.org/2000/svg" xmlns:xlink="http://www.w3.org/1999/xlink" viewBox="0 0 256 256">
  <defs>
    <style>
      .cls-1 {
        fill: url(#_未命名的渐变_8);
      }

      .cls-2 {
        fill: #fff;
      }
    </style>
    <linearGradient id="_未命名的渐变_8" data-name="未命名的渐变 8" x1="128" y1="0" x2="128" y2="256" gradientUnits="userSpaceOnUse">
      <stop offset="0" stop-color="#01b9c2"/>
      <stop offset=".51" stop-color="#4569d6"/>
      <stop offset="1" stop-color="#7428e5"/>
      <stop offset="1" stop-color="#7428e5"/>
    </linearGradient>
  </defs>
  <rect class="cls-1" x="0" y="0" width="256" height="256" rx="50" ry="50"/>
  <path class="cls-2" d="M186.19,154.89c.37-2.21-2.95-3.32-4.05-1.11-10.68,20.63-27.63,35.37-47.52,36.84-16.21,1.11-30.21-9.21-35.73-25.42-5.16-15.84-5.16-29.1-1.84-47.52,4.79-27.63,22.47-57.1,50.47-55.99,11.79,.37,17.31,7.37,17.31,18.79,0,13.63-7.74,20.26-7.74,25.42,0,1.47,1.47,3.32,4.05,3.32,10.68,0,23.21-12.53,23.21-29.47s-13.63-29.47-38.31-29.47c-40.15,0-76.26,37.94-76.26,89.89,0,41.26,24.68,65.57,60.05,65.57,12.53,0,30.58-7.37,44.57-24.31,12.89-15.1,11.79-26.52,11.79-26.52Z"/>
</svg>