<?xml version="1.0" encoding="UTF-8"?>
<svg id="_图层_1" data-name="图层 1" xmlns="http://www.w3.org/2000/svg" viewBox="0 0 256 256">
  <defs>
    <style>
      .cls-1 {
        fill: #f4f4f4;
      }

      .cls-2 {
        fill: #fff;
      }

      .cls-3 {
        fill: #4d6bfe;
      }
    </style>
  </defs>
  <rect class="cls-1" x="0" y="0" width="256" height="256" rx="50" ry="50"/>
  <path class="cls-2" d="M41.05,108.79l17.79,58.62s27.42,17.33,28.29,16.69,35.92,3.14,36.77,3.14,28.16-1.49,28.16-1.49l6.33-4.43-31.34-44.95-21.29-31.93-41.9-14.04-22.82,18.38Z"/>
  <path class="cls-2" d="M129.55,107.3l2.45,20.7,12.27,17.7s16.08,2.01,16.76,2.01,14.04-6.2,14.04-8.88-8.15-18.07-9.06-18.3-15.92-12-15.92-12l-20.54-1.23Z"/>
  <path class="cls-3" d="M228.56,67.6c-2.09-1.02-2.99,.93-4.21,1.92-.42,.32-.77,.74-1.13,1.12-3.05,3.26-6.62,5.4-11.28,5.15-6.81-.38-12.63,1.76-17.78,6.97-1.09-6.43-4.73-10.27-10.25-12.73-2.89-1.28-5.82-2.56-7.84-5.34-1.41-1.98-1.8-4.19-2.51-6.36-.45-1.31-.9-2.65-2.41-2.88-1.64-.26-2.28,1.12-2.93,2.27-2.57,4.7-3.57,9.88-3.47,15.13,.22,11.8,5.21,21.2,15.11,27.88,1.13,.77,1.41,1.53,1.06,2.65-.68,2.3-1.48,4.54-2.19,6.84-.45,1.47-1.13,1.79-2.7,1.15-5.43-2.27-10.13-5.63-14.27-9.69-7.04-6.81-13.4-14.33-21.34-20.21-1.86-1.38-3.73-2.65-5.66-3.87-8.1-7.87,1.06-14.33,3.18-15.09,2.22-.8,.77-3.55-6.4-3.52-7.17,.03-13.73,2.43-22.08,5.63-1.22,.48-2.51,.83-3.83,1.12-7.59-1.44-15.46-1.76-23.69-.83-15.49,1.73-27.87,9.05-36.97,21.55-10.93,15.03-13.5,32.1-10.35,49.92,3.31,18.77,12.89,34.31,27.61,46.46,15.27,12.6,32.85,18.77,52.91,17.59,12.18-.7,25.75-2.33,41.05-15.28,3.86,1.92,7.91,2.69,14.63,3.26,5.18,.48,10.16-.26,14.02-1.05,6.04-1.28,5.63-6.88,3.44-7.9-17.71-8.25-13.82-4.89-17.36-7.61,9-10.65,22.57-21.71,27.87-57.56,.42-2.85,.06-4.64,0-6.94-.03-1.41,.29-1.95,1.9-2.11,4.44-.51,8.74-1.73,12.7-3.9,11.48-6.27,16.1-16.56,17.2-28.91,.16-1.89-.03-3.84-2.03-4.83Zm-100,111.09c-17.17-13.49-25.49-17.94-28.93-17.75-3.21,.19-2.64,3.87-1.93,6.27,.74,2.37,1.7,4,3.05,6.08,.93,1.38,1.58,3.42-.93,4.96-5.53,3.42-15.14-1.15-15.59-1.38-11.19-6.59-20.54-15.29-27.13-27.18-6.36-11.45-10.06-23.73-10.67-36.84-.16-3.17,.77-4.29,3.92-4.86,4.15-.77,8.42-.93,12.57-.32,17.52,2.56,32.43,10.39,44.94,22.8,7.14,7.07,12.54,15.51,18.1,23.76,5.91,8.76,12.28,17.11,20.38,23.95,2.86,2.4,5.14,4.22,7.33,5.56-6.59,.74-17.58,.9-25.11-5.05h0Zm8.23-52.92c0-1.41,1.13-2.53,2.54-2.53,.32,0,.61,.06,.87,.16,.35,.13,.68,.32,.93,.61,.45,.45,.71,1.09,.71,1.76,0,1.41-1.12,2.53-2.54,2.53s-2.51-1.12-2.51-2.53h0Zm25.56,13.11c-1.64,.67-3.28,1.25-4.85,1.31-2.44,.13-5.11-.86-6.56-2.08-2.25-1.89-3.86-2.94-4.53-6.24-.29-1.41-.13-3.58,.13-4.83,.58-2.69-.06-4.41-1.96-5.98-1.54-1.28-3.5-1.63-5.66-1.63-.8,0-1.54-.35-2.09-.64-.9-.45-1.64-1.57-.93-2.94,.22-.45,1.32-1.53,1.58-1.73,2.93-1.66,6.3-1.12,9.42,.13,2.89,1.18,5.08,3.36,8.23,6.43,3.21,3.71,3.79,4.73,5.63,7.51,1.45,2.17,2.76,4.41,3.66,6.97,.55,1.6-.16,2.91-2.06,3.71h0Z"/>
</svg>