<?xml version="1.0" encoding="UTF-8"?>
<svg id="_图层_1" data-name="图层 1" xmlns="http://www.w3.org/2000/svg" viewBox="0 0 256 256">
  <defs>
    <style>
      .cls-1 {
        fill: #f4f4f4;
      }

      .cls-2 {
        fill: #066af3;
      }

      .cls-3 {
        fill: #002a9a;
      }

      .cls-4 {
        fill: #4372e0;
      }
    </style>
  </defs>
  <rect class="cls-1" x="0" y="0" width="256" height="256" rx="50" ry="50"/>
  <path class="cls-4" d="M59.89,149.84c.37,.2,.37,.4,0,.6v-.6Z"/>
  <g>
    <path class="cls-2" d="M44.71,150.66c-.03-22.22-.06-44.45-.06-66.67,0-2.92,1.5-5.2,4.01-6.67,8.92-5.22,17.84-10.45,26.81-15.59,13.94-8.02,27.91-15.99,41.88-23.99,1.44-.81,2.86-1.65,4.21-2.6,3.81-2.63,7.65-3.15,11.78-.69,5.37,3.2,10.77,6.32,16.16,9.44,17.26,9.99,34.55,19.94,51.81,29.9,1.93,1.13,3.9,2.19,5.8,3.35,2.77,1.67,4.21,4.13,4.21,7.39,0,28.95,.06,57.9-.03,86.85,0,3.03-1.41,5.6-4.27,7.24-6.81,3.95-13.83,7.62-20.49,11.75-9.58,5.92-19.6,11-29.15,16.97-5.69,3.55-11.66,6.67-17.46,9.99-2.57,1.47-5.11,2.97-7.65,4.5-2.71,1.65-5.46,1.73-8.23,.14-11.05-6.38-22.11-12.76-33.19-19.14-12.12-6.98-24.24-13.94-36.34-20.93-2.19-1.27-4.36-2.51-6.47-3.9-2.25-1.5-3.35-3.75-3.35-6.41-.03-6.81,.03-13.62,.06-20.43,.32-.12,.32-.32-.06-.52h0Zm69.88-44.19c.43-.35,.87-.72,1.33-1.01,13.51-7.76,27.02-15.53,40.55-23.29,.55-.32,1.27-.32,1.3-1.21,.03-.95-.81-.92-1.33-1.21-7.97-4.62-15.99-9.18-23.93-13.88-3.29-1.96-6.44-1.67-9.5,.12-9.01,5.2-17.92,10.51-26.9,15.76-6.26,3.67-12.58,7.27-18.88,10.91-3.61,2.08-5.4,4.96-5.34,9.35,.17,17.55,.12,35.1,.03,52.65-.03,3.95,1.82,6.58,4.96,8.46,6.15,3.67,12.38,7.27,18.65,10.77,2.14,1.18,4.13,2.74,7.01,3.61v-52.44c1.27,3.84,3.64,6.67,7.19,8.75,5.46,3.17,12.38,2.45,16.91-2.05,5.28-5.22,5.63-12.32,2.51-17.66-3.2-5.57-8.54-7.36-14.58-7.59Zm16.16,84.19c2.8-.75,5.08-2.74,7.62-4.19,8.02-4.56,15.93-9.35,24.01-13.83,5.28-2.94,10.36-6.21,15.82-8.86,3.29-1.59,5.8-4.42,5.8-8.51,.03-18.21,.06-36.4,.03-54.61,0-2.19-1.01-2.74-2.71-1.39-5.2,4.07-11.23,6.75-16.88,10.04-10.68,6.23-21.39,12.41-32.1,18.62-1.67,.95-2.31,2.05-2.28,4.01,.06,18.85,.03,37.72,.03,56.57-.06,.69-.29,1.5,.66,2.14h0Z"/>
    <path class="cls-3" d="M102.55,125c-1.07-8.69,2.71-14.52,12.04-18.53,6.06,.23,11.37,2.02,14.58,7.56,3.09,5.37,2.77,12.44-2.51,17.66-4.56,4.5-11.46,5.22-16.91,2.05-3.55-2.08-5.95-4.91-7.19-8.75Z"/>
  </g>
</svg>