<?xml version="1.0" encoding="UTF-8"?>
<svg id="_图层_1" data-name="图层 1" xmlns="http://www.w3.org/2000/svg" xmlns:xlink="http://www.w3.org/1999/xlink" viewBox="0 0 256 256">
  <defs>
    <style>
      .cls-1 {
        fill: url(#_未命名的渐变_5);
      }

      .cls-2 {
        fill: #f4f4f4;
      }

      .cls-3 {
        fill: #fff;
      }

      .cls-4 {
        fill: url(#_未命名的渐变_4);
      }

      .cls-5 {
        clip-path: url(#clippath);
      }

      .cls-6 {
        fill: none;
      }

      .cls-7 {
        fill: url(#_未命名的渐变_3);
      }
    </style>
    <clipPath id="clippath">
      <rect class="cls-6" x="32.98" y="32.98" width="190.04" height="190.04"/>
    </clipPath>
    <linearGradient id="_未命名的渐变_5" data-name="未命名的渐变 5" x1="67.81" y1="393.85" x2="103.44" y2="461.16" gradientTransform="translate(0 534) scale(1 -1)" gradientUnits="userSpaceOnUse">
      <stop offset="0" stop-color="#ee4565"/>
      <stop offset=".56" stop-color="#b22dca"/>
      <stop offset="1" stop-color="#7f57eb"/>
    </linearGradient>
    <linearGradient id="_未命名的渐变_4" data-name="未命名的渐变 4" x1="203.09" y1="400.75" x2="89.58" y2="485.19" gradientTransform="translate(0 534) scale(1 -1)" gradientUnits="userSpaceOnUse">
      <stop offset="0" stop-color="#379eb4"/>
      <stop offset=".14" stop-color="#208cd7"/>
      <stop offset=".58" stop-color="#3e7ae4"/>
      <stop offset="1" stop-color="#8058ec"/>
    </linearGradient>
    <linearGradient id="_未命名的渐变_3" data-name="未命名的渐变 3" x1="195.31" y1="358.49" x2="44.86" y2="358.49" gradientTransform="translate(0 534) scale(1 -1)" gradientUnits="userSpaceOnUse">
      <stop offset="0" stop-color="#379eb4"/>
      <stop offset=".23" stop-color="#4aa99b"/>
      <stop offset=".72" stop-color="#d5950c"/>
      <stop offset="1" stop-color="#ee4565"/>
    </linearGradient>
  </defs>
  <rect class="cls-2" x="0" y="0" width="256" height="256" rx="50" ry="50"/>
  <g class="cls-5">
    <g>
      <path class="cls-1" d="M45.71,175.51c-8.34-14.44-12.73-30.83-12.73-47.51,0-16.68,4.39-33.07,12.73-47.51,8.34-14.45,20.34-26.44,34.78-34.78,14.45-8.34,30.83-12.73,47.51-12.73v95.02l-82.29,47.51Z"/>
      <path class="cls-4" d="M128,32.98c18.79,0,37.17,5.57,52.79,16.01,15.63,10.44,27.81,25.28,35,42.65,7.19,17.36,9.07,36.47,5.41,54.9-3.67,18.43-12.72,35.37-26.01,48.66l-67.19-67.19L68.61,32.98h59.39Z"/>
      <path class="cls-7" d="M210.29,175.51c-9.4,16.28-23.41,29.4-40.26,37.71-16.86,8.31-35.8,11.44-54.43,8.99-18.63-2.45-36.12-10.38-50.25-22.77-14.13-12.39-24.27-28.69-29.13-46.85l91.78-24.59,82.29,47.51Z"/>
      <path d="M206.4,128c0-11.67-8.43-21.38-19.53-23.38-8.92-22.45-30.3-38.6-55.62-39.89l-3.26-.09h-39.45c-.06,0-.1,.07-.07,.12l5.94,9.51c-11.36,7.12-20.29,17.73-25.3,30.34-11.09,2-19.51,11.71-19.51,23.38,0,11.67,8.42,21.37,19.51,23.37,9.3,23.42,32.16,39.98,58.89,39.98,26.73,0,49.57-16.56,58.87-39.98,11.1-2,19.53-11.69,19.53-23.37Zm7.89,1.45c-.6,13.39-9.52,24.58-21.7,28.6-10.96,23.52-34.35,40.09-61.78,41.15l-2.81,.05c-28.63,0-53.28-16.89-64.61-41.22-12.17-4.03-21.07-15.22-21.68-28.6l-.03-1.45c0-14.01,9.1-25.89,21.71-30.07,4.71-10.11,11.72-18.93,20.35-25.78l-1.99-3.19c-3.47-5.56,.79-12.18,6.72-12.23h39.73l3.26,.09h.09s.1,0,.1,0c27.06,1.37,50.08,17.84,60.93,41.1,12.62,4.17,21.73,16.05,21.73,30.07l-.03,1.45Z"/>
      <path class="cls-3" d="M128,64.65l3.26,.09c25.32,1.28,46.69,17.43,55.62,39.89,11.1,2,19.53,11.7,19.53,23.38s-8.43,21.37-19.53,23.37c-9.3,23.41-32.14,39.98-58.87,39.98-26.73,0-49.58-16.56-58.89-39.98-11.09-2-19.51-11.7-19.51-23.37,0-11.67,8.42-21.38,19.51-23.38,5.01-12.61,13.95-23.23,25.31-30.34l-6.02-9.63h39.59Z"/>
      <path d="M94.35,139.88v-23.76c0-5.47,4.43-9.9,9.9-9.9s9.9,4.43,9.9,9.9v23.76c0,5.47-4.43,9.9-9.9,9.9s-9.9-4.43-9.9-9.9Z"/>
      <path d="M148.2,110.85c2.91-4.37,8.81-5.55,13.18-2.64,4.37,2.91,5.55,8.81,2.64,13.18l-4.4,6.61,4.4,6.61c2.91,4.37,1.73,10.27-2.64,13.18-4.37,2.91-10.27,1.73-13.18-2.64l-7.92-11.88c-2.13-3.19-2.13-7.35,0-10.54l7.92-11.88Z"/>
    </g>
  </g>
</svg>