<?xml version="1.0" encoding="UTF-8"?>
<svg id="_图层_1" data-name="图层 1" xmlns="http://www.w3.org/2000/svg" viewBox="0 0 256 256">
  <defs>
    <style>
      .cls-1 {
        fill: #fff;
      }

      .cls-2 {
        fill: #101010;
      }

      .cls-3 {
        fill: #017afd;
      }
    </style>
  </defs>
  <rect class="cls-2" x="0" y="0" width="256" height="256" rx="50" ry="50"/>
  <g>
    <path class="cls-1" d="M145.03,201.64V116.37c15.32,0,27.74,12.42,27.75,27.74v57.52h-27.75Zm-98.52,.03V60.92h28.16V201.67h-28.16Zm26.71-57.56v-27.74h71.82v8.16c-.01,10.82-8.79,19.58-19.61,19.58h-52.21Zm36.3-27.74l24.09-55.45h31.02l-18.58,42.56c-3.34,7.82-11.02,12.89-19.52,12.89h-17.01Z"/>
    <path class="cls-3" d="M209.5,70.67c0,9.02-7.31,16.33-16.33,16.33-2.38,0-15.1,1.63-15.1,1.63,0,0,2.45-2.86,4.49-5.55-6.86-5.86-7.67-16.16-1.81-23.02,5.86-6.86,16.16-7.67,23.02-1.81,3.64,3.11,5.73,7.65,5.72,12.43h.01Z"/>
  </g>
</svg>