<?xml version="1.0" encoding="UTF-8"?>
<svg id="_图层_1" data-name="图层 1" xmlns="http://www.w3.org/2000/svg" viewBox="0 0 256 256">
  <defs>
    <style>
      .cls-1 {
        fill: #f4f4f4;
      }

      .cls-2 {
        fill: #090754;
      }
    </style>
  </defs>
  <rect class="cls-1" x="0" y="0" width="256" height="256" rx="50" ry="50"/>
  <path class="cls-2" d="M215.58,69.93c1.68-.44,.62-.25,4.65-1.22-6.46-1.31-45.9,.59-76.04,39.29l-26.53-39.09h-10.3l4.61,6.76,26.96,39.57c-.79,1.2-1.58,2.39-2.36,3.65l-.52,.88-24.08-35.22-9.96-14.59c3.4-3.14,6.75-6.07,9.96-8.79,8.67-7.34,17.82-14.1,27.39-20.22-2.58,1.44-5.06,2.9-7.53,4.4-7.09,4.06-13.71,8.14-19.86,12.25-5.7,3.77-10.99,7.54-15.89,11.32h-5.06l1.76,2.59c-1.22,.97-2.44,1.93-3.61,2.89l-3.75-5.49h-10.27l7.54,11.02c-22.96,20.24-35.92,39.71-41.96,55.68-7.1,18.7-4.8,30.82-3.8,34.51,1.4,5.13,4,9.86,7.59,13.79,16.59,18.51,45.01,14.8,67.42,7.61l.88-.3c12.35-3.99,24.23-9.3,35.45-15.83-11.58,5.97-23.77,10.65-36.37,13.96-27.82,6.96-51.48,2.74-59.47-20.97l-.33-1.05c-1.2-5.28-1.43-11.18,.17-19.53,4.56-23.55,18.67-44.88,34.29-62.24l25.42,37.12,11.99,17.51c-3.63,5.43-7.64,10.6-11.99,15.47-11.32,12.56-26.72,24.4-46.85,28.5,16.14,.71,32.21-2.5,46.85-9.34,12.28-5.79,22.94-14.52,31.02-25.43l23.6,34.74h10.28l-28.81-42.34c.46-.79,.88-1.59,1.36-2.4,.31-.55,.69-1.22,1.12-1.97l31.9,46.71h10.27l-37.4-54.74c.88-1.45,1.86-3,2.91-4.62l40.63,59.37h10.27l-45.9-66.96c12.78-18.56,32.25-41.88,52.36-47.27Zm-86.65,62.52l-16.95-24.74-19.49-28.52c1.1-1.13,2.22-2.23,3.31-3.33l16.18,23.66,19.5,28.51c-.79,1.39-1.67,2.87-2.55,4.42Z"/>
</svg>