<?xml version="1.0" encoding="UTF-8"?>
<svg id="_图层_1" data-name="图层 1" xmlns="http://www.w3.org/2000/svg" viewBox="0 0 256 256">
  <defs>
    <style>
      .cls-1 {
        fill: #f4f4f4;
      }

      .cls-2 {
        fill: #00e5e5;
      }

      .cls-3 {
        fill: #006eff;
      }
    </style>
  </defs>
  <rect class="cls-1" x="0" y="0" width="256" height="256" rx="50" ry="50"/>
  <g>
    <path class="cls-2" d="M193.96,118.09l-25.7,94.41c-.06,.26-.06,.52,0,.78,.21,.81,.98,1.37,1.86,1.35h51.38c1.03,.02,1.89-.75,1.92-1.72,0-.14-.01-.28-.04-.42l-25.82-94.4c-.31-.94-1.36-1.46-2.36-1.18-.2,.06-.39,.15-.56,.27-.33,.22-.57,.54-.68,.91m-141.43,21.39l-19.9,73.02c-.22,.94,.42,1.88,1.42,2.08,.15,.03,.3,.04,.45,.04h39.66c.58,.01,1.13-.22,1.5-.64,.18-.2,.3-.44,.36-.7,.07-.26,.07-.52,0-.78l-19.92-73.02c-.12-.36-.36-.67-.68-.89-.32-.22-.71-.34-1.1-.34-.4,0-.79,.12-1.12,.34-.32,.22-.56,.53-.68,.89"/>
    <path class="cls-3" d="M87.63,79.04L51.36,212.5c-.12,.51,0,1.04,.35,1.45,.34,.42,.87,.67,1.43,.67H125.68c1.03,.03,1.89-.74,1.92-1.71,0-.14,0-.28-.04-.42L91.21,79.03c-.12-.36-.36-.67-.68-.88-.32-.22-.71-.34-1.11-.35-.4,0-.79,.12-1.12,.34-.32,.22-.56,.53-.68,.89"/>
    <path class="cls-3" d="M150.19,36.6c-.12-.36-.36-.67-.68-.88-.32-.22-.72-.34-1.12-.35-.4,0-.79,.12-1.11,.34-.32,.22-.56,.53-.68,.89l-49.58,175.9c-.22,.94,.41,1.88,1.42,2.09,.15,.03,.31,.04,.46,.04h99.07c.58,.01,1.13-.22,1.5-.64,.18-.21,.3-.45,.37-.7,.06-.26,.06-.52,0-.78L150.19,36.6Z"/>
    <path class="cls-2" d="M113.78,98.45l-31.45,114.04c-.14,.53,0,1.09,.37,1.5,.37,.42,.92,.66,1.5,.64h62.76c.58,.01,1.14-.23,1.51-.64,.36-.42,.5-.98,.37-1.5l-31.47-114.03c-.12-.36-.36-.67-.68-.89-.32-.22-.71-.34-1.11-.34-.4,0-.79,.12-1.11,.34-.32,.22-.56,.53-.68,.89"/>
  </g>
</svg>