<?xml version="1.0" encoding="UTF-8"?>
<svg id="_图层_1" data-name="图层 1" xmlns="http://www.w3.org/2000/svg" xmlns:xlink="http://www.w3.org/1999/xlink" viewBox="0 0 256 256">
  <defs>
    <style>
      .cls-1 {
        fill: #f4f4f4;
      }

      .cls-2 {
        fill: url(#_未命名的渐变_2);
      }

      .cls-3 {
        fill: url(#_未命名的渐变_3);
      }
    </style>
    <linearGradient id="_未命名的渐变_3" data-name="未命名的渐变 3" x1="269.11" y1="434.07" x2="84.54" y2="301.42" gradientTransform="translate(0 534) scale(1 -1)" gradientUnits="userSpaceOnUse">
      <stop offset="0" stop-color="#46a6f7"/>
      <stop offset="1" stop-color="#8364ff"/>
    </linearGradient>
    <linearGradient id="_未命名的渐变_2" data-name="未命名的渐变 2" x1="71.49" y1="314.91" x2="232.99" y2="431.71" gradientTransform="translate(0 534) scale(1 -1)" gradientUnits="userSpaceOnUse">
      <stop offset="0" stop-color="#ff44d3"/>
      <stop offset="1" stop-color="#cf4bff"/>
    </linearGradient>
  </defs>
  <rect class="cls-1" x="0" y="0" width="256" height="256" rx="50" ry="50"/>
  <g>
    <path d="M202.79,80.79c-1.12-1.12-2.46-2-3.93-2.59-1.47-.59-3.05-.88-4.63-.84h-.05c-2.21,0-4.4-.44-6.43-1.29-2.04-.85-3.89-2.09-5.45-3.65-1.56-1.56-2.79-3.42-3.63-5.46-.84-2.04-1.27-4.23-1.26-6.44h0c.02-1.56-.26-3.1-.84-4.54-.57-1.44-1.43-2.75-2.51-3.86-1.08-1.11-2.37-1.99-3.8-2.6-1.42-.61-2.95-.93-4.5-.95H71.13c-1.55,.01-3.08,.33-4.51,.93-1.43,.61-2.72,1.49-3.8,2.6-1.08,1.11-1.94,2.42-2.51,3.86-.57,1.44-.86,2.98-.83,4.53,0,4.47-1.77,8.75-4.93,11.91-3.16,3.16-7.44,4.93-11.91,4.93-1.57-.03-3.13,.25-4.59,.83-1.46,.58-2.79,1.45-3.9,2.55s-2,2.42-2.6,3.87c-.6,1.45-.9,3.01-.89,4.58v30.26c0,1.57,.31,3.12,.91,4.57,.6,1.45,1.49,2.76,2.61,3.86,1.12,1.1,2.45,1.96,3.9,2.54,1.46,.58,3.02,.86,4.58,.83,4.46,0,8.74,1.77,11.89,4.92,3.16,3.15,4.94,7.42,4.95,11.88v30.72c0,.86,.27,1.7,.76,2.4,.5,.7,1.2,1.23,2.01,1.52s1.69,.31,2.52,.07c.83-.24,1.56-.72,2.09-1.39l17.06-21.32h81.84c1.55-.01,3.08-.33,4.51-.94,1.43-.61,2.72-1.49,3.8-2.6s1.93-2.42,2.51-3.86c.57-1.44,.86-2.98,.83-4.53,0-9.32,7.51-16.85,16.82-16.85h.03c1.57,.03,3.13-.25,4.59-.83,1.46-.58,2.79-1.44,3.9-2.54,1.12-1.1,2.01-2.41,2.61-3.86,.6-1.45,.91-3,.9-4.57v-30.27c0-3.03-1.15-6.06-3.46-8.36h0Zm-20.12,38.95c-.05,4.44-1.84,8.68-5,11.8-3.15,3.12-7.41,4.87-11.85,4.87H71.04c-4.44,0-8.69-1.76-11.84-4.88-3.15-3.12-4.94-7.36-4.99-11.79v-30.92c.05-4.44,1.84-8.68,5-11.8,3.15-3.12,7.41-4.87,11.85-4.87h94.78c4.44,0,8.7,1.75,11.85,4.87,3.15,3.12,4.95,7.36,5,11.8v30.92Z"/>
    <path d="M92.27,86.55c-1.55,0-3.09,.31-4.53,.9-1.43,.59-2.74,1.47-3.84,2.57-1.1,1.1-1.97,2.4-2.56,3.84-.59,1.44-.9,2.97-.9,4.53v11.82c0,3.13,1.25,6.14,3.46,8.36,2.22,2.22,5.22,3.46,8.36,3.46s6.14-1.25,8.36-3.46c2.22-2.22,3.46-5.22,3.46-8.36v-11.82c0-3.13-1.25-6.14-3.46-8.36-2.22-2.22-5.22-3.46-8.36-3.46h0Zm52.34-.01c-1.55,0-3.09,.31-4.53,.9-1.43,.59-2.74,1.47-3.84,2.57-1.1,1.1-1.97,2.4-2.56,3.84-.59,1.44-.9,2.97-.9,4.53v11.82c0,3.14,1.25,6.14,3.46,8.36,2.22,2.22,5.23,3.46,8.36,3.46s6.14-1.25,8.36-3.46c2.22-2.22,3.46-5.23,3.46-8.36v-11.82c0-1.55-.31-3.09-.9-4.53-.59-1.43-1.47-2.74-2.57-3.84-1.1-1.1-2.4-1.97-3.84-2.56-1.44-.59-2.97-.9-4.53-.9h0Z"/>
    <path class="cls-3" d="M91.25,211.88l16.58-20.72h81.84c1.55-.01,3.08-.33,4.51-.93,1.43-.61,2.72-1.49,3.8-2.59,1.08-1.11,1.94-2.42,2.51-3.86,.57-1.44,.86-2.98,.84-4.53,0-4.46,1.76-8.73,4.9-11.89s7.41-4.95,11.86-4.97h.07c1.57,.03,3.13-.25,4.59-.83,1.46-.58,2.79-1.44,3.9-2.54,1.12-1.1,2.01-2.41,2.61-3.86,.6-1.45,.91-3,.9-4.57v-29.89c0-2.85-.94-5.62-2.67-7.89l-3.32-4.32v34.31c0,1.57-.3,3.12-.9,4.57-.6,1.45-1.49,2.76-2.61,3.86-1.12,1.1-2.44,1.97-3.9,2.55-1.46,.58-3.01,.86-4.58,.83h-.08c-4.45,.02-8.72,1.81-11.86,4.96-3.14,3.16-4.91,7.43-4.91,11.88,.02,1.55-.26,3.09-.84,4.52-.57,1.44-1.43,2.75-2.51,3.86-1.08,1.11-2.37,1.99-3.8,2.6-1.42,.61-2.95,.93-4.5,.95H101.84l-18.02,22.57c-.7,.99-1,2.22-.84,3.42,.17,1.21,.79,2.3,1.74,3.06,.95,.76,2.15,1.13,3.37,1.03s2.34-.65,3.16-1.56h0Z"/>
    <path class="cls-2" d="M72.24,189.85l17.63-22.06h81.84c1.55-.01,3.08-.33,4.5-.94,1.42-.61,2.72-1.49,3.8-2.6,1.08-1.11,1.94-2.42,2.51-3.86,.57-1.44,.86-2.98,.83-4.52v-.03c0-9.27,7.49-16.79,16.75-16.85h.09c1.57,.03,3.13-.25,4.58-.82,1.46-.58,2.79-1.44,3.9-2.54,1.12-1.1,2.01-2.41,2.61-3.86,.6-1.45,.91-3,.91-4.57v-34.33l4.33,5.64c1.74,2.27,2.68,5.05,2.67,7.9v29.88c0,1.57-.31,3.12-.91,4.56-.6,1.45-1.49,2.76-2.61,3.85-1.12,1.1-2.44,1.96-3.9,2.54-1.46,.58-3.01,.86-4.58,.83h-.08c-4.46,.02-8.72,1.81-11.86,4.97-3.14,3.16-4.9,7.44-4.9,11.89,.02,1.55-.26,3.09-.84,4.52-.57,1.44-1.43,2.75-2.51,3.86-1.08,1.11-2.37,1.99-3.8,2.6-1.42,.61-2.95,.93-4.5,.95H96.88l-15.92,19.92c-.93,1.14-2.27,1.87-3.73,2.03-1.46,.16-2.93-.27-4.08-1.18-1.15-.92-1.89-2.25-2.06-3.71s.24-2.93,1.15-4.09Z"/>
  </g>
</svg>