<?xml version="1.0" encoding="UTF-8"?>
<svg id="_图层_1" data-name="图层 1" xmlns="http://www.w3.org/2000/svg" viewBox="0 0 256 256">
  <defs>
    <style>
      .cls-1 {
        fill: #fff;
      }
    </style>
  </defs>
  <rect x="0" y="0" width="256" height="256" rx="50" ry="50"/>
  <g>
    <path class="cls-1" d="M47.31,147.18c-11.13,0-17.32-6.31-17.32-19.2s6.13-19.15,17.32-19.15h10.5v6.7h-10.5c-7.44,0-10.62,3.69-10.62,12.44s3.24,12.5,10.62,12.5h22.01v6.7h-22.01Z"/>
    <path class="cls-1" d="M84.89,108.82l12.62,33.49c1.4,3.68,4.24,4.86,7.93,4.86,3.91,0,6.48-1.34,7.87-4.86l13.29-33.49h-7.32l-12.01,30.31c-.39,.89-.95,1.28-1.84,1.28s-1.51-.39-1.84-1.28l-11.45-30.31h-7.26Z"/>
    <path class="cls-1" d="M161.39,116.86c.39-.89,1.01-1.28,1.9-1.28s1.51,.39,1.84,1.28l11.45,30.31h7.32l-12.73-33.49c-1.34-3.52-3.91-4.86-7.82-4.86s-6.53,1.34-7.93,4.86l-13.24,33.49h7.26l11.95-30.31Z"/>
    <path class="cls-1" d="M199.47,108.82v6.56h10.96v31.79h6.62v-31.79h10.96v-6.56h-28.54Z"/>
  </g>
</svg>