<?xml version="1.0" encoding="UTF-8"?>
<svg id="_图层_1" data-name="图层 1" xmlns="http://www.w3.org/2000/svg" viewBox="0 0 256 256">
  <defs>
    <style>
      .cls-1 {
        fill: #f4f4f4;
      }

      .cls-2 {
        fill: #ff5601;
      }
    </style>
  </defs>
  <rect class="cls-1" x="0" y="0" width="256" height="256" rx="50" ry="50"/>
  <path class="cls-2" d="M97.51,116.84v33.03h-18.05c-14.18,0-25.69-11.51-25.69-25.69v-18.05h33.03c5.9,0,10.71,4.8,10.71,10.71Zm8.61,0v33.03h33.03c5.9,0,10.71-4.8,10.71-10.71v-33.03h-33.03c-5.9,0-10.71,4.8-10.71,10.71Zm70.41-10.71h-18.05v33.03c0,5.9,4.8,10.71,10.71,10.71h33.03v-21.03c0-14.18-11.51-22.68-25.69-22.68v-.03Zm-122.76-24.97v16.36h33.03c5.9,0,10.71-4.8,10.71-10.71V44.77c-23.26,.17-43.71,11.62-43.73,36.39Zm52.34,5.66c0,5.9,4.8,10.71,10.71,10.71h33.03V53.85c-16.14-2.46-24.56-7.7-43.73-8.88v41.86Zm61.78-31.7c-3.42,0-6.54-.11-9.41-.3v42.71h18.05c14.18,0,25.69-11.51,25.69-25.69v-26.93c-8.03,6.29-19.42,10.21-34.32,10.21ZM53.78,184.16v26.93c8.03-6.29,19.42-10.21,34.32-10.21,3.42,0,6.54,.11,9.41,.33v-42.71h-18.05c-14.18,0-25.69,11.51-25.69,25.69v-.03Zm85.37-25.66h-33.03v43.65c16.14,2.46,24.56,7.7,43.73,8.88v-41.83c0-5.9-4.8-10.71-10.71-10.71Zm19.34,10.68v42.05c23.23-.17,43.65-11.62,43.73-36.34v-16.42h-33.03c-5.9,0-10.71,4.8-10.71,10.71Z"/>
</svg>