<?xml version="1.0" encoding="UTF-8"?>
<svg id="_图层_1" data-name="图层 1" xmlns="http://www.w3.org/2000/svg" viewBox="0 0 256 256">
  <defs>
    <style>
      .cls-1 {
        fill: #f4f4f4;
      }

      .cls-2 {
        fill: #27254c;
      }

      .cls-3 {
        fill: #624aff;
      }

      .cls-4 {
        fill: #36cfd1;
      }
    </style>
  </defs>
  <rect class="cls-1" x="0" y="0" width="256" height="256" rx="50" ry="50"/>
  <g>
    <path class="cls-2" d="M76.09,182.5v14.09h12.21v-14.09h-12.21Zm7.99,11.04h-3.76v-7.99h3.76v7.99Zm62.91-11.04v14.09h11.27v-3.05h-7.05v-7.99h7.05v-3.05h-11.27Zm14.2,0v14.09h12.21v-14.09h-12.21Zm7.99,11.04h-3.76v-7.99h3.76v7.99Zm7.55-11.04v19.26h4.23v-5.17h7.99v-14.09h-12.21Zm7.99,11.04h-3.76v-7.99h3.76v7.99Zm-84.88-11.04h-7.99v14.09h12.21v-19.26h-4.23v5.17Zm0,11.04h-3.76v-7.99h3.76v7.99Zm23.91-16.21h4.23v19.26h-4.23v-19.26Zm-16.04,5.17v14.21h12.21v-3.17h-7.99v-2.35h7.99v-8.69h-12.21Zm7.99,5.64h-3.76v-2.58h3.76v2.58Zm76.74-5.64v14.09h12.21v-3.05h-7.99v-2.29h7.99v-8.75h-12.21Zm7.99,5.7h-3.76v-2.64h3.76v2.64Zm-68.83-8.77v9.79h7.99v4.32h-7.99v3.05h12.21v-10.42h-7.99v-3.69h7.99v-3.05h-12.21Zm-80.21,.25v8.46h-4.23v4.23h4.23v4.23h4.23v-4.23h-4.23v-4.23h4.23v-4.23h4.23v-4.23h-8.45Zm8.46,12.68h4.23v-8.46h-4.23v8.46Zm4.23-12.68v4.23h4.23v12.68h4.23v-16.91h-8.45Z"/>
    <g>
      <path class="cls-3" d="M28.59,96.71h22.77v22.77H28.59v-22.77Zm88.03,22.77h22.77v22.77h-22.77v-22.77Zm68.32,22.77h-22.77v19.7h42.48v-42.48h-19.7v22.77Z"/>
      <path class="cls-4" d="M139.39,96.71h22.77v22.77h-22.77v-22.77ZM28.59,73.94h22.77v22.77H28.59v-22.77Z"/>
      <path class="cls-3" d="M204.64,96.71h22.77v22.77h-22.77v-22.77Z"/>
      <path class="cls-4" d="M204.64,73.94h22.77v22.77h-22.77v-22.77Z"/>
      <path class="cls-3" d="M162.16,54.24v19.7h22.77v22.77h19.7V54.24h-42.48Z"/>
      <path class="cls-4" d="M93.84,96.71h22.77v22.77h-22.77v-22.77Z"/>
      <path class="cls-3" d="M71.06,73.94h22.77v-19.7H51.36v42.48h19.7v-22.77Zm0,45.55h-19.7v42.48h42.48v-19.7h-22.77v-22.77Z"/>
    </g>
  </g>
</svg>