<?xml version="1.0" encoding="UTF-8"?>
<svg id="_图层_1" data-name="图层 1" xmlns="http://www.w3.org/2000/svg" viewBox="0 0 256 256">
  <defs>
    <style>
      .cls-1 {
        fill: #f4f4f4;
      }

      .cls-2 {
        letter-spacing: .52em;
      }

      .cls-3 {
        letter-spacing: .5em;
      }

      .cls-4 {
        fill: #707070;
        font-family: 'AlibabaPuHuiTi_3_55_Regular', 'Alibaba PuHuiTi 3.0';
        font-size: 15px;
      }

      .cls-5 {
        fill: #6e29f5;
      }

      .cls-6 {
        letter-spacing: .46em;
      }
    </style>
  </defs>
  <rect class="cls-1" x="0" y="0" width="256" height="256" rx="50" ry="50"/>
  <g>
    <path class="cls-5" d="M209.94,70.66h-78.04c-4.31,0-7.8,3.5-7.8,7.8v23.41c0,4.31-3.48,7.8-7.8,7.8H46.06c-4.31,0-7.8,3.5-7.8,7.8v31.22c0,4.31,3.5,7.8,7.8,7.8H124.1c4.31,0,7.8-3.5,7.8-7.8v-23.41c0-4.31,3.48-7.8,7.8-7.8h70.24c4.31,0,7.8-3.5,7.8-7.8v-31.22c0-4.31-3.5-7.8-7.8-7.8Z"/>
    <text class="cls-4" transform="translate(38.26 181.07) scale(1.05 1)"><tspan class="cls-2" x="0" y="0">SILICONF</tspan><tspan class="cls-6" x="125.2" y="0">L</tspan><tspan class="cls-3" x="139.65" y="0">O</tspan><tspan class="cls-2" x="158.23" y="0">W</tspan></text>
  </g>
</svg>