<?xml version="1.0" encoding="UTF-8"?>
<svg id="_图层_1" data-name="图层 1" xmlns="http://www.w3.org/2000/svg" viewBox="0 0 256 256">
  <defs>
    <style>
      .cls-1 {
        fill: #f4f4f4;
      }

      .cls-2 {
        fill: #20beff;
      }
    </style>
  </defs>
  <rect class="cls-1" x="0" y="0" width="256" height="256" rx="50" ry="50"/>
  <g id="Layer_2" data-name="Layer 2">
    <g id="Layer_1-2" data-name="Layer 1-2">
      <path class="cls-2" d="M65.9,145.8c-.06,.21-.28,.31-.65,.31h-7.13c-.45,0-.88-.2-1.16-.55l-11.78-15.03-3.27,3.13v11.62c.05,.39-.21,.74-.6,.8-.07,0-.13,0-.2,0h-5.54c-.39,.05-.74-.21-.8-.6,0-.07,0-.13,0-.2v-52.99c-.05-.39,.21-.74,.6-.8,.07,0,.13,0,.2,0h5.54c.39-.05,.74,.21,.8,.6,0,.07,0,.13,0,.2v32.63l14.11-14.27c.29-.34,.71-.54,1.16-.57h7.38c.28-.02,.54,.14,.64,.4,.12,.24,.09,.52-.08,.73l-14.94,14.42,15.55,19.32c.23,.22,.29,.56,.16,.84Zm28.9,.28h-5.54c-.59,0-.88-.27-.88-.8v-1.16c-2.65,1.85-5.83,2.78-9.06,2.65-3.19,.07-6.28-1.03-8.71-3.1-2.37-2.04-3.69-5.04-3.61-8.17,0-5.25,3.26-8.8,9.78-10.67,3.81-.96,7.7-1.61,11.62-1.93,.47-3.46-1.95-6.65-5.4-7.12-.48-.07-.96-.08-1.44-.03-3.3,.11-6.49,1.23-9.14,3.2-.47,.28-.82,.22-1.04-.15l-2.89-4.09c-.27-.32-.18-.69,.24-1.16,3.73-2.71,8.21-4.19,12.83-4.25,3.08-.07,6.11,.79,8.69,2.46,3.54,2.36,5.3,6.12,5.29,11.3v22.21c.05,.39-.22,.74-.6,.79-.05,0-.1,0-.15,0Zm-6.41-16.76c-5.24,.54-8.82,1.24-10.75,2.09-2.61,1.12-3.8,2.72-3.56,4.81,.15,1.16,.79,2.2,1.77,2.84,1.02,.73,2.22,1.16,3.47,1.25,3.29,.42,6.59-.67,8.98-2.97l.09-8.02Zm40.01,30.67c-2.94,3.02-7.07,4.53-12.41,4.53-3.09,0-6.13-.79-8.82-2.31-.59-.38-1.28-.88-2.09-1.49s-1.73-1.38-2.81-2.31c-.33-.3-.37-.81-.08-1.16l3.77-3.77c.17-.17,.41-.25,.65-.24,.21,0,.42,.09,.57,.24,2.98,2.98,5.9,4.48,8.74,4.48,6.46,0,9.7-3.37,9.7-10.1v-4.19c-2.86,2.21-6.41,3.32-10.02,3.13-4.78,.19-9.35-2-12.19-5.86-2.68-3.76-4.04-8.3-3.88-12.91-.14-4.46,1.16-8.84,3.7-12.5,2.74-4.04,7.38-6.38,12.26-6.17,3.62-.12,7.18,.98,10.1,3.13v-1.61c-.05-.39,.22-.75,.61-.81,.06,0,.12,0,.19,0h5.54c.39-.05,.75,.22,.81,.61,0,.07,0,.13,0,.2v35.82c.02,5.83-1.41,10.26-4.31,13.28Zm-2.8-38.46c-1.34-3.42-4.42-5.13-9.24-5.13-6.25,0-9.37,3.9-9.37,11.69,0,4.34,1.04,7.49,3.12,9.46,1.6,1.57,3.78,2.4,6.02,2.31,5.02,0,8.19-1.71,9.53-5.13l-.06-13.21Zm40.46,38.46c-2.91,3.01-7.04,4.52-12.39,4.53-3.09,0-6.13-.79-8.82-2.31-.59-.38-1.28-.87-2.08-1.49-.81-.61-1.74-1.38-2.81-2.31-.34-.29-.38-.8-.09-1.14,0,0,0-.01,.01-.02l3.77-3.77c.17-.17,.4-.25,.64-.24,.21,0,.42,.09,.57,.24,2.99,2.98,5.9,4.48,8.74,4.48,6.47,0,9.71-3.37,9.71-10.1v-4.19c-2.86,2.2-6.42,3.31-10.03,3.13-4.77,.18-9.33-2.01-12.16-5.86-2.67-3.76-4.02-8.3-3.85-12.91-.14-4.46,1.15-8.84,3.69-12.5,2.74-4.04,7.38-6.37,12.26-6.17,3.63-.12,7.19,.98,10.11,3.13v-1.61c-.05-.39,.22-.75,.61-.81,.06,0,.12,0,.19,0h5.54c.39-.05,.75,.23,.8,.62,0,.06,0,.12,0,.19v35.82c-.02,5.83-1.48,10.26-4.39,13.28Zm-2.76-38.46c-1.34-3.42-4.42-5.13-9.24-5.13-6.32-.04-9.48,3.84-9.48,11.64,0,4.34,1.04,7.49,3.13,9.46,1.6,1.57,3.77,2.41,6.01,2.31,5.03,0,8.21-1.71,9.54-5.13l.03-13.15Zm19.41,24.54h-5.52c-.39,.05-.75-.22-.81-.61,0-.06,0-.12,0-.19v-52.99c-.05-.39,.23-.75,.62-.8,.06,0,.12,0,.19,0h5.52c.38-.06,.75,.2,.81,.58,.01,.07,.01,.14,0,.21v52.99c.06,.39-.21,.74-.6,.8-.07,.01-.14,0-.21,0Zm40.34-16.27c.05,.39-.23,.75-.62,.8-.06,0-.12,0-.19,0h-26.05c.26,2.53,1.46,4.88,3.36,6.58,2.31,1.93,5.25,2.94,8.26,2.84,2.84,.03,5.61-.84,7.93-2.48,.49-.32,.89-.32,1.16,0l3.77,3.85c.43,.43,.43,.8,0,1.16-3.85,2.89-8.56,4.42-13.38,4.33-5.1,.14-10.04-1.83-13.64-5.45-3.55-3.66-5.46-8.61-5.28-13.7-.12-4.96,1.76-9.75,5.21-13.31,3.28-3.35,7.82-5.15,12.5-4.97,4.65-.12,9.13,1.76,12.31,5.17,3.44,3.59,5.18,8.48,4.76,13.44l-.1,1.77Zm-10.5-11.74c-1.79-1.64-4.15-2.53-6.58-2.48-2.34-.02-4.6,.84-6.33,2.4-1.84,1.62-3.06,3.83-3.47,6.25h19.31c-.02-2.39-1.09-4.65-2.94-6.17h0Z"/>
    </g>
  </g>
</svg>