<?xml version="1.0" encoding="UTF-8"?>
<svg id="_图层_1" data-name="图层 1" xmlns="http://www.w3.org/2000/svg" viewBox="0 0 256 256">
  <defs>
    <style>
      .cls-1 {
        fill: #f4f4f4;
      }

      .cls-2 {
        fill-rule: evenodd;
      }
    </style>
  </defs>
  <rect class="cls-1" x="0" y="0" width="256" height="256" rx="50" ry="50"/>
  <path class="cls-2" d="M151.99,148.55c1.71,6.35,3.58,12.84,5.62,19.58,1.86,6.15-3.68,8.57-5.88,2.77-2.36-6.21-4.61-12.4-6.73-18.71-12.01,6.04-23.99,11.08-37.58,16.74,5.43,19.97,10.45,36.67,18.23,52.55,0,0,0,0,0,0,.78,.02,1.57,.03,2.36,.03,51.64,0,93.5-41.86,93.5-93.5,0-18.54-5.4-35.83-14.71-50.36-24.29,2.19-45.83,5.75-65.62,10.19,.33,3.96,.7,7.8,1.11,11.45,1.53,13.58,4,26.52,7.28,39.87,11.43-5.14,20.9-9.64,28.37-13.38,7.17-3.59,14.08-3.81,2.43,5.32-10.11,7.02-19.34,12.61-28.38,17.46Zm51.54-75.67c-14.75-20.18-37.4-34.23-63.4-37.6-.79,12.6-.55,28.5,.4,43.65,19.01-2.88,39.7-4.88,63-6.06ZM127.7,34.5c-.83,13.68-.46,31.12,1.18,46.34-13.16,2.33-25.56,5.11-37.55,8.37-.52-5.98-.78-11.44-.78-16.19,0-3.44-2.79-6.23-6.23-6.23s-6.23,2.79-6.23,6.23c0,5.78,.48,12.42,1.35,19.62-5.98,1.82-11.88,3.77-17.74,5.84-3.25,1.15-4.95,4.71-3.8,7.96,1.15,3.25,4.71,4.95,7.96,3.8,5.07-1.79,10.18-3.57,15.34-5.31,2.49,15.28,6.29,32.15,10.66,48.39,.76,2.83,1.57,5.66,2.41,8.47-16.1,5.55-32.54,10.06-47.57,12.44-7.77-13.63-12.21-29.41-12.21-46.23,0-51.54,41.7-93.34,93.21-93.5ZM54.09,185.28c15.24,19.63,38.12,33.03,64.18,35.72-6.21-11.4-13.96-28.87-20.48-48.17-14.49,5.55-29.37,9.41-43.71,12.45Zm87.81-42.73c-3.86-12.64-7.14-26.04-9.59-41.31-.82-3.24-1.55-6.89-2.17-10.82-13.13,3.26-25.53,6.89-37.51,10.74,1.93,15.04,5.19,32.14,9.71,48.91,.7,2.61,1.39,5.17,2.06,7.68l.1,.36c5.66-2.12,11.23-4.34,16.63-6.61,7.45-3.14,14.38-6.12,20.77-8.94Z"/>
</svg>