<?xml version="1.0" encoding="UTF-8"?>
<svg id="_图层_1" data-name="图层 1" xmlns="http://www.w3.org/2000/svg" viewBox="0 0 256 256">
  <defs>
    <style>
      .cls-1 {
        fill: #fff;
      }

      .cls-2 {
        fill: #db0301;
      }
    </style>
  </defs>
  <rect class="cls-2" x="0" y="0" width="256" height="256" rx="50" ry="50"/>
  <g>
    <polygon class="cls-1" points="34.65 70.2 44.95 70.2 44.95 118.08 57.48 118.08 54.04 127.73 34.65 127.73 34.65 70.2"/>
    <path class="cls-1" d="M71.3,100.25l-9.29,27.14c-.06,.17,.07,.34,.24,.34h31.66c.18,0,.3-.17,.24-.34l-9.38-27.14c-.04-.1-.13-.17-.24-.17h-12.99c-.11,0-.21,.07-.24,.17Z"/>
    <polygon class="cls-1" points="82.28 70.2 102.29 127.73 113.07 127.73 113.07 70.2 82.28 70.2"/>
    <path class="cls-1" d="M83.38,95.44l-4.46-12.45c-.28-.78-1.38-.78-1.67,0l-4.5,12.45c-.08,.23,.09,.48,.34,.48h9.95c.25,0,.42-.25,.34-.48Z"/>
    <rect class="cls-1" x="167.36" y="70.2" width="10.3" height="57.53"/>
    <rect class="cls-1" x="120.62" y="70.16" width="10.3" height="57.57"/>
    <path class="cls-1" d="M221.35,127.66h-15.73c-10.8,0-19.6-8.79-19.6-19.6v-18.24c0-10.8,8.79-19.6,19.6-19.6h15.73v9.04h-15.73c-5.82,0-10.55,4.73-10.55,10.55v18.24c0,5.82,4.73,10.55,10.55,10.55h15.73v9.04Z"/>
    <path class="cls-1" d="M142.94,105.77h-21.9v-35.6h21.9c9.8,0,17.78,7.98,17.78,17.78s-7.98,17.82-17.78,17.82Zm-12.45-9.46h12.45c4.59,0,8.32-3.73,8.32-8.32s-3.73-8.36-8.32-8.36h-12.45v16.69Z"/>
    <rect class="cls-1" x="72.75" y="144.23" width="47.58" height="4.66"/>
    <rect class="cls-1" x="133.43" y="141.26" width="47.58" height="4.66"/>
    <path class="cls-1" d="M139.62,150.52v31.69h35.24v-29.28c0-1.33-1.08-2.41-2.41-2.41h-32.83Zm30.58,4.66v8.86h-10.65v-8.86h10.65Zm-15.31,0v8.86h-10.61v-8.86h10.61Zm-10.61,22.38v-8.86h10.61v8.86h-10.61Zm15.27,0v-8.86h10.65v8.86h-10.65Z"/>
    <path class="cls-1" d="M178.01,153.76v31.82h-41.61v-31.82h-4.66v34.06c0,1.33,1.08,2.41,2.41,2.41h46.1c1.33,0,2.41-1.08,2.41-2.41v-34.06h-4.66Z"/>
    <rect class="cls-1" x="69.6" y="166.02" width="53.88" height="4.66"/>
    <polygon class="cls-1" points="79.25 164.98 77.7 150.91 82.12 150.91 83.72 164.98 79.25 164.98"/>
    <rect class="cls-1" x="70.4" y="163.37" width="52.27" height="4.66" transform="translate(262.24 69.17) rotate(90)"/>
    <polygon class="cls-1" points="73.82 191.84 79.17 171.65 83.83 171.65 78.47 191.84 73.82 191.84"/>
    <polygon class="cls-1" points="113.92 164.98 115.47 150.91 111.05 150.91 109.45 164.98 113.92 164.98"/>
    <polygon class="cls-1" points="119.35 191.84 114 171.65 109.34 171.65 114.7 191.84 119.35 191.84"/>
  </g>
</svg>