<?xml version="1.0" encoding="UTF-8"?>
<svg id="_图层_1" data-name="图层 1" xmlns="http://www.w3.org/2000/svg" xmlns:xlink="http://www.w3.org/1999/xlink" viewBox="0 0 256 256">
  <defs>
    <style>
      .cls-1 {
        fill: url(#_未命名的渐变_5);
      }

      .cls-2 {
        fill: #f4f4f4;
      }

      .cls-3 {
        fill: url(#_未命名的渐变_4);
      }
    </style>
    <linearGradient id="_未命名的渐变_5" data-name="未命名的渐变 5" x1="2.5" y1="-71.55" x2="154.85" y2="-217.42" gradientTransform="translate(0 -18) scale(1 -1)" gradientUnits="userSpaceOnUse">
      <stop offset="0" stop-color="#fa9a58"/>
      <stop offset=".4" stop-color="#e070e8"/>
      <stop offset="1" stop-color="#442fb6"/>
    </linearGradient>
    <linearGradient id="_未命名的渐变_4" data-name="未命名的渐变 4" x1="151.83" y1="-89.85" x2="-.53" y2="-235.72" gradientTransform="translate(0 -18) scale(1 -1)" gradientUnits="userSpaceOnUse">
      <stop offset="0" stop-color="#ff9c52"/>
      <stop offset=".4" stop-color="#df6cf6" stop-opacity=".8"/>
      <stop offset="1" stop-color="#442fb6" stop-opacity=".7"/>
    </linearGradient>
  </defs>
  <rect class="cls-2" x="0" y="0" width="256" height="256" rx="50" ry="50"/>
  <g>
    <path class="cls-1" d="M115.68,222.52l-47.94-22.54V76.65c0-5.86,2.56-12.36,6.71-16.5l11.08-11.07,48.46,157.54c3.41,11-7.89,20.81-18.31,15.9Z"/>
    <path class="cls-3" d="M182.51,99.49l-54.68-60.09c-8.49-9.33-23.06-9.67-31.98-.76l-21.39,21.51c-4.08,4.66-6.42,9.57-6.42,15.42v123.33l109.49-65.63c11.96-7.17,14.36-23.48,4.98-33.79Z"/>
  </g>
</svg>