<?xml version="1.0" encoding="UTF-8"?>
<svg id="_图层_1" data-name="图层 1" xmlns="http://www.w3.org/2000/svg" xmlns:xlink="http://www.w3.org/1999/xlink" viewBox="0 0 256 256">
  <defs>
    <style>
      .cls-1 {
        fill: url(#_未命名的渐变_121);
      }

      .cls-2 {
        fill: #bd8ef5;
      }

      .cls-3 {
        fill: #fff;
      }

      .cls-4 {
        fill: #2a204e;
      }

      .cls-5 {
        fill: #ddd2ff;
      }

      .cls-6 {
        fill: url(#_未命名的渐变_99);
      }
    </style>
    <linearGradient id="_未命名的渐变_99" data-name="未命名的渐变 99" x1="82.06" y1="221.39" x2="82.06" y2="67.03" gradientUnits="userSpaceOnUse">
      <stop offset="0" stop-color="#8000d4"/>
      <stop offset=".15" stop-color="#8305d5"/>
      <stop offset=".34" stop-color="#8e14da"/>
      <stop offset=".54" stop-color="#a02de3"/>
      <stop offset=".76" stop-color="#b950ef"/>
      <stop offset=".99" stop-color="#d87cfe"/>
      <stop offset="1" stop-color="#da7fff"/>
    </linearGradient>
    <linearGradient id="_未命名的渐变_121" data-name="未命名的渐变 121" x1="149.17" y1="36.99" x2="149.17" y2="221.19" gradientUnits="userSpaceOnUse">
      <stop offset="0" stop-color="#8000d4"/>
      <stop offset=".17" stop-color="#8203d4"/>
      <stop offset=".32" stop-color="#890fd7"/>
      <stop offset=".48" stop-color="#9522dd"/>
      <stop offset=".63" stop-color="#a53ce4"/>
      <stop offset=".78" stop-color="#bb5fed"/>
      <stop offset=".92" stop-color="#d488f8"/>
      <stop offset="1" stop-color="#e5a3ff"/>
    </linearGradient>
  </defs>
  <rect class="cls-4" x="0" y="0" width="256" height="256" rx="50" ry="50"/>
  <g>
    <path class="cls-3" d="M137.67,35.14l1.91,46.61-34.23,24.1v35.88c0,.37,24.66,7.54,28.89,6.99,4.23-.55,31.65-11.41,34.59-16.38,2.94-4.97,11.59-26.5,13.25-31.65,1.66-5.15-6.81-36.8-6.81-36.8,0,0-6.39-22.2-37.6-28.76Z"/>
    <path class="cls-5" d="M132.9,221.15l-19.22-91.3c.87-4.84,4.54-19.83,25.65-23.25,23.72-3.85,44.59-43.95-1.66-71.46-14.58-1.5-25.51,.4-36.38,3.66C3.4,68.15,19.99,203.49,115.76,220.5c6.45,1.15,17.14,.65,17.14,.65Z"/>
    <path class="cls-6" d="M129.69,221.18c-45.3,.07-96.59-69.2-46.67-121.58,6.32-5.57,8.5-19.1-3.87-28.21-16.31-12.02-29.53,4.37-30.7,6.32-43.18,71.64,21.87,148.13,81.25,143.47Z"/>
    <path class="cls-2" d="M108.89,133.2m0,0v7.19c0,.96-1.34,7.33-1.92,10.07l7.19,15.34s4.79,1.44,5.27,1.92c.48,.48,2.83,.81,3.83,.96l10.07,6.23,16.78-2.4,21.57-6.71,20.13-17.26,6.23-10.55,5.27-26.84-.96-12.46v-11.02l-11.02-20.13-5.75-7.19-10.07-9.11-8.63-5.27-2.4-1.44-1.21-2.58s-9.53-3.35-13.12-4.61c-2.99-1.05-12.5-2.2-12.5-2.2,36.43,11.98,39.11,49.49,32.78,69.13-5.23,16.23-17.43,24.82-38.62,25.8-8.96,.42-14.8-.46-18.15-.22l-4.79,3.36Z"/>
    <path class="cls-1" d="M118.47,219.97c36.67,7.89,100.94-22.52,103.06-89.16,.85-26.72-12.66-79.57-72.58-93.83,50.97,15.33,71.63,105.39,6.44,128.34-32.6,8.15-44.11-17.74-41.71-35.48-48.17,.82-51.81,74.58,4.79,90.12h0Z"/>
  </g>
</svg>