<?xml version="1.0" encoding="UTF-8"?>
<svg id="_图层_1" data-name="图层 1" xmlns="http://www.w3.org/2000/svg" xmlns:xlink="http://www.w3.org/1999/xlink" viewBox="0 0 256 256">
  <defs>
    <style>
      .cls-1 {
        fill: #f4f4f4;
      }

      .cls-2 {
        fill: url(#_未命名的渐变_77);
      }
    </style>
    <linearGradient id="_未命名的渐变_77" data-name="未命名的渐变 77" x1="141.22" y1="58.25" x2="93.71" y2="223.93" gradientUnits="userSpaceOnUse">
      <stop offset="0" stop-color="#8000d4"/>
      <stop offset=".42" stop-color="#5200d5"/>
      <stop offset=".73" stop-color="#3600d7"/>
      <stop offset="1" stop-color="#2a7fff"/>
    </linearGradient>
  </defs>
  <rect class="cls-1" x="0" y="0" width="256" height="256" rx="50" ry="50"/>
  <path class="cls-2" d="M187.14,154.06h0c-10.67,0-19.32-8.65-19.32-19.32v-13.02c0-10.67,8.65-19.32,19.32-19.32h0c10.67,0,19.32,8.65,19.32,19.32v13.02c0,10.67-8.65,19.32-19.32,19.32Zm-55.69-82.14c-11.25,0-20.37,9.12-20.37,20.37v17.18c0,4.64-3.76,8.4-8.4,8.4s-8.4-3.76-8.4-8.4V60.15c0-11.25-9.12-20.37-20.37-20.37s-20.37,9.12-20.37,20.37V197.05c0,11.25,9.12,20.37,20.37,20.37s20.37-9.12,20.37-20.37v-37.9c0-4.64,3.76-8.4,8.4-8.4s8.4,3.76,8.4,8.4v5.76c0,11.25,9.12,20.37,20.37,20.37s20.37-9.12,20.37-20.37V92.29c0-11.25-9.12-20.37-20.37-20.37Z"/>
</svg>