<?xml version="1.0" encoding="UTF-8"?>
<svg id="_图层_1" data-name="图层 1" xmlns="http://www.w3.org/2000/svg" viewBox="0 0 256 256">
  <defs>
    <style>
      .cls-1 {
        fill: #f4f4f4;
      }

      .cls-2 {
        fill-rule: evenodd;
      }

      .cls-2, .cls-3 {
        fill: #3a3b45;
      }

      .cls-4 {
        fill: #ffd21e;
      }

      .cls-5 {
        fill: #ff9d0b;
      }

      .cls-6 {
        fill: #ff323d;
      }
    </style>
  </defs>
  <rect class="cls-1" x="0" y="0" width="256" height="256" rx="50" ry="50"/>
  <g>
    <path class="cls-4" d="M127.48,196.35c39.92,0,72.29-32.36,72.29-72.29S167.4,51.78,127.48,51.78,55.19,84.15,55.19,124.07s32.36,72.29,72.29,72.29Z"/>
    <path class="cls-5" d="M199.77,124.07c0-39.92-32.36-72.29-72.29-72.29S55.19,84.15,55.19,124.07s32.36,72.29,72.29,72.29,72.29-32.36,72.29-72.29Zm-152.89,0c0-44.52,36.09-80.61,80.61-80.61s80.61,36.09,80.61,80.61-36.09,80.61-80.61,80.61S46.87,168.59,46.87,124.07Z"/>
    <path class="cls-3" d="M150.96,104.41c2.66,.92,3.7,6.37,6.39,4.95,5.07-2.69,7-8.99,4.31-14.06-2.69-5.07-8.99-7-14.06-4.31-5.07,2.69-7,8.99-4.31,14.06,0,0,0,0,0,0,1.27,2.39,5.3-1.5,7.7-.67l-.02,.02Zm-48.99,0c-2.66,.92-3.72,6.37-6.39,4.95-5.07-2.69-7-8.99-4.31-14.06,2.69-5.07,8.99-7,14.06-4.31,5.07,2.69,7,8.99,4.31,14.06,0,0,0,0,0,0-1.27,2.39-5.33-1.5-7.7-.67l.02,.02Z"/>
    <path class="cls-6" d="M126.96,154.31c20.45,0,27.04-18.22,27.04-27.58,0-4.87-3.27-3.33-8.51-.75-4.85,2.39-11.36,5.7-18.51,5.7-14.96,0-27.04-14.31-27.04-4.95s6.57,27.58,27.04,27.58h-.02Z"/>
    <path class="cls-2" d="M111.3,149.55c2.22-4.51,6.21-7.89,11.02-9.34,.83-.25,1.68,1.19,2.58,2.66,.83,1.41,1.71,2.85,2.58,2.85,.94,0,1.87-1.41,2.77-2.81,.94-1.46,1.85-2.87,2.75-2.6,4.47,1.42,8.2,4.53,10.4,8.67,7.76-6.12,10.61-16.1,10.61-22.26,0-4.87-3.27-3.33-8.51-.75l-.29,.15c-4.81,2.39-11.21,5.55-18.24,5.55s-13.42-3.16-18.24-5.55c-5.41-2.68-8.8-4.37-8.8,.6,0,6.34,3.04,16.77,11.38,22.82Z"/>
    <path class="cls-5" d="M176.36,114.19c3.73,0,6.76-3.03,6.76-6.76s-3.03-6.76-6.76-6.76-6.76,3.03-6.76,6.76,3.03,6.76,6.76,6.76Zm-96.73,0c3.73,0,6.76-3.03,6.76-6.76s-3.03-6.76-6.76-6.76-6.76,3.03-6.76,6.76,3.03,6.76,6.76,6.76Zm-13.92,22.88c-3.37,0-6.37,1.37-8.47,3.89-1.79,2.21-2.77,4.97-2.77,7.82-1.31-.39-2.67-.6-4.04-.62-3.22,0-6.14,1.23-8.2,3.45-3.78,3.92-4.46,9.89-1.66,14.56-1.84,1.5-3.15,3.56-3.72,5.87-.5,1.87-1,5.82,1.66,9.86-2.03,3.12-2.32,7.06-.77,10.44,2.12,4.83,7.43,8.61,17.72,12.69,6.39,2.54,12.25,4.16,12.29,4.18,7.41,2.05,15.05,3.17,22.74,3.33,12.19,0,20.91-3.74,25.92-11.11,8.07-11.84,6.93-22.67-3.54-33.12-5.76-5.78-9.61-14.29-10.4-16.16-1.62-5.53-5.91-11.69-13-11.69-3.83,.06-7.39,1.97-9.57,5.12-2.08-2.62-4.12-4.68-5.95-5.87-2.44-1.65-5.31-2.57-8.26-2.64Zm0,8.32c1.06,0,2.37,.46,3.79,1.35,4.45,2.83,13,17.54,16.14,23.26,1.04,1.91,2.85,2.72,4.45,2.72,3.22,0,5.72-3.18,.31-7.24-8.15-6.09-5.3-16.06-1.41-16.66,.17-.04,.35-.04,.5-.04,3.54,0,5.1,6.09,5.1,6.09,0,0,4.58,11.48,12.44,19.35,7.84,7.84,8.26,14.15,2.54,22.53-3.91,5.72-11.38,7.45-19.05,7.45s-16.08-1.87-20.64-3.04c-.23-.06-27.98-7.9-24.46-14.56,.58-1.12,1.56-1.58,2.79-1.58,4.95,0,13.94,7.36,17.83,7.36,.85,0,1.46-.35,1.73-1.25,1.64-5.93-25.09-8.42-22.84-16.99,.42-1.52,1.48-2.12,3-2.12,6.53,0,21.22,11.5,24.3,11.5,.23,0,.42-.06,.5-.21,1.54-2.5,.69-4.24-10.19-10.82-10.84-6.57-18.47-10.53-14.15-15.25,.5-.54,1.21-.79,2.08-.79,6.59,0,22.17,14.19,22.17,14.19,0,0,4.2,4.37,6.76,4.37,.58,0,1.08-.21,1.41-.79,1.79-3.04-16.77-17.1-17.81-22.9-.71-3.95,.5-5.93,2.72-5.93h0Z"/>
    <path class="cls-4" d="M109.57,196.75c5.72-8.4,5.3-14.71-2.54-22.55-7.86-7.84-12.44-19.35-12.44-19.35,0,0-1.71-6.66-5.6-6.03s-6.74,10.57,1.41,16.66c8.13,6.09-1.62,10.23-4.76,4.51-3.12-5.72-11.69-20.43-16.14-23.26-4.43-2.81-7.55-1.25-6.51,4.58,1.04,5.8,19.62,19.87,17.81,22.88-1.81,3.06-8.17-3.56-8.17-3.56,0,0-19.91-18.12-24.25-13.4-4.33,4.72,3.31,8.67,14.15,15.25,10.88,6.57,11.73,8.32,10.19,10.82-1.56,2.5-25.54-17.74-27.79-9.15-2.25,8.55,24.48,11.02,22.84,16.95-1.66,5.93-18.85-11.19-22.34-4.53-3.54,6.68,24.23,14.52,24.46,14.58,8.94,2.33,31.72,7.26,39.69-4.41Z"/>
    <path class="cls-5" d="M190.28,137.07c3.37,0,6.39,1.37,8.47,3.89,1.79,2.21,2.77,4.97,2.77,7.82,1.32-.4,2.68-.61,4.06-.62,3.22,0,6.14,1.23,8.2,3.45,3.78,3.92,4.46,9.89,1.66,14.56,1.83,1.51,3.13,3.56,3.7,5.87,.5,1.87,1,5.82-1.66,9.86,2.03,3.12,2.32,7.06,.77,10.44-2.12,4.83-7.43,8.61-17.7,12.69-6.41,2.54-12.27,4.16-12.31,4.18-7.41,2.05-15.05,3.17-22.74,3.33-12.19,0-20.91-3.74-25.92-11.11-8.07-11.84-6.93-22.67,3.54-33.12,5.78-5.78,9.63-14.29,10.42-16.16,1.62-5.53,5.89-11.69,12.98-11.69,3.83,.06,7.39,1.97,9.57,5.12,2.08-2.62,4.12-4.68,5.97-5.87,2.44-1.65,5.3-2.57,8.24-2.64Zm0,8.32c-1.06,0-2.35,.46-3.79,1.35-4.43,2.83-13,17.54-16.14,23.26-.86,1.66-2.58,2.71-4.45,2.72-3.2,0-5.72-3.18-.29-7.24,8.13-6.09,5.28-16.06,1.39-16.66-.17-.03-.33-.04-.5-.04-3.54,0-5.1,6.09-5.1,6.09,0,0-4.58,11.48-12.42,19.35-7.86,7.84-8.28,14.15-2.54,22.53,3.89,5.72,11.38,7.45,19.03,7.45s16.08-1.87,20.66-3.04c.21-.06,27.98-7.9,24.46-14.56-.6-1.12-1.56-1.58-2.79-1.58-4.95,0-13.96,7.36-17.83,7.36-.87,0-1.48-.35-1.73-1.25-1.66-5.93,25.07-8.42,22.82-16.99-.4-1.52-1.46-2.12-3-2.12-6.53,0-21.22,11.5-24.3,11.5-.21,0-.4-.06-.48-.21-1.54-2.5-.71-4.24,10.15-10.82,10.88-6.57,18.51-10.53,14.15-15.25-.48-.54-1.19-.79-2.04-.79-6.61,0-22.2,14.19-22.2,14.19,0,0-4.2,4.37-6.74,4.37-.58,.03-1.13-.28-1.41-.79-1.81-3.04,16.75-17.1,17.79-22.9,.71-3.95-.5-5.93-2.72-5.93h0Z"/>
    <path class="cls-4" d="M146.45,196.75c-5.72-8.4-5.33-14.71,2.54-22.55,7.84-7.84,12.42-19.35,12.42-19.35,0,0,1.71-6.66,5.62-6.03,3.87,.62,6.72,10.57-1.41,16.66-8.15,6.09,1.62,10.23,4.74,4.51,3.14-5.72,11.71-20.43,16.14-23.26,4.43-2.81,7.57-1.25,6.51,4.58-1.04,5.8-19.6,19.87-17.79,22.88,1.79,3.06,8.15-3.56,8.15-3.56,0,0,19.93-18.12,24.25-13.4,4.33,4.72-3.29,8.67-14.15,15.25-10.88,6.57-11.71,8.32-10.19,10.82,1.56,2.5,25.54-17.74,27.79-9.15,2.25,8.55-24.46,11.02-22.82,16.95,1.66,5.93,18.83-11.19,22.34-4.53,3.52,6.68-24.23,14.52-24.46,14.58-8.97,2.33-31.74,7.26-39.69-4.41h0Z"/>
  </g>
</svg>