<?xml version="1.0" encoding="UTF-8"?>
<svg id="_图层_1" data-name="图层 1" xmlns="http://www.w3.org/2000/svg" viewBox="0 0 256 256">
  <defs>
    <style>
      .cls-1 {
        fill: #f9fafa;
      }
    </style>
  </defs>
  <rect x="0" y="0" width="256" height="256" rx="50" ry="50"/>
  <path class="cls-1" d="M45.34,165.21c0,13.56,11.01,24.57,24.57,24.57h85.31c11.98,0,21.96-8.63,24.12-20l31.34,15.52v-17.23l-29.24-14.49-53.08-25.44,55.3-26.86v.32l27.02-13.2v-17.2l-31.3,15.3c-2.03-11.53-12.08-20.29-24.15-20.29H69.88c-13.56,0-24.57,11.01-24.57,24.57v12.95l15.46,7.5v-.13l12.92,6.38,21.93,10.66-49.89,25.06m118.58,9.15v2.87c0,5.02-4.09,9.11-9.11,9.11H69.88c-5.02,0-9.11-4.09-9.11-9.11v-3.64l51.37-25.09,52.17,25.83v.03Zm0-68.5l-52.14,25.48-51.4-25.44v-3.09c0-5.02,4.09-9.11,9.11-9.11h85.31c5.02,0,9.11,4.09,9.11,9.11v3.06Z"/>
</svg>