<?xml version="1.0" encoding="UTF-8"?>
<svg id="_图层_1" data-name="图层 1" xmlns="http://www.w3.org/2000/svg" viewBox="0 0 256 256">
  <defs>
    <style>
      .cls-1 {
        fill: #fff;
      }

      .cls-2 {
        fill: #bc1f1a;
      }
    </style>
  </defs>
  <rect class="cls-2" x="0" y="0" width="256" height="256" rx="50" ry="50"/>
  <path class="cls-1" d="M97.05,214.74c-2.86-.7-4.88-1.32-6.84-2.17-18.49-8.01-28.18-22.49-30.21-42.18-2.05-19.86,4.93-36.99,16.9-52.41,6.57-8.46,13.39-16.75,19.76-25.36,10.81-14.6,16.29-31.1,16.76-49.27,.01-.49,.02-1.13,0-2.08,.71,.64,1.38,1.19,1.78,1.65,6.84,7.7,11.79,16.8,13.96,27,2.87,13.41-.24,26.06-7.15,37.5-6.3,10.43-13.7,20.21-20.65,30.25-6.31,9.11-11.97,18.54-14.08,29.62-2.48,13.06-.13,25.5,5.11,37.52,1.35,3.09,2.74,6.2,4.66,9.94Zm53.65-138.29c-.77,16.43-5.92,30.5-14.83,43.69-6.44,9.53-13.55,18.61-20.27,27.95-4.46,6.2-8.94,13.56-10.37,21.22-2.98,15.99,3.2,30.37,16.1,41.77,1.27,1.13,2.7,2.08,4.57,3.52-.27-1.98-.46-3.17-.6-4.4-2.38-18.79,1.21-35.82,12.57-51.06,5.74-7.7,12.03-15,17.66-22.78,9.66-13.35,13.27-27.91,7.44-43.94-2.5-6.86-6.57-12.7-12.18-18.35-.06,1.28-.09,1.9-.1,2.38Zm32.27,39.84c-2.24,13.02-8.04,24.2-16.03,34.46-6.03,7.74-12.33,15.29-17.99,23.28-6.62,9.33-9.22,19.38-5.15,30.37,1.38,3.72,4.57,8.13,6.88,10.09,.51-1.26,.95-2.37,1.33-3.27,3.92-9.54,9.43-17.92,16.22-25.66,5.54-6.33,11.25-12.51,16.91-18.73,12.61-13.87,13.85-29.59,7.42-46.46-1.82-4.77-4.25-8.71-8.72-13.19-.15,3.61-.37,6.3-.85,9.12Z"/>
</svg>