<?xml version="1.0" encoding="UTF-8"?>
<svg id="_图层_1" data-name="图层 1" xmlns="http://www.w3.org/2000/svg" viewBox="0 0 256 256">
  <defs>
    <style>
      .cls-1 {
        fill: #138de8;
      }

      .cls-2 {
        fill: #f4f4f4;
      }

      .cls-3 {
        fill: #f7ba21;
      }

      .cls-4 {
        fill: #6ea6de;
      }

      .cls-5 {
        fill: #db2358;
      }

      .cls-6 {
        fill: #f9cc73;
      }
    </style>
  </defs>
  <rect class="cls-2" x="0" y="0" width="256" height="256" rx="50" ry="50"/>
  <g>
    <path class="cls-5" d="M127.61,48.52V119.16c0,5.12,3.59,9.55,8.6,10.6l74.41,15.63c4.31,.9,8.36-2.38,8.36-6.78V68.89c0-5.08-3.52-9.47-8.48-10.57l-74.46-16.56c-4.33-.96-8.44,2.33-8.44,6.77Z"/>
    <path class="cls-3" d="M81.97,83.26v70.64c0,5.12,3.59,9.55,8.6,10.6l74.41,15.63c4.31,.9,8.36-2.38,8.36-6.78V103.63c0-5.08-3.52-9.47-8.48-10.57l-74.46-16.56c-4.33-.96-8.44,2.33-8.44,6.77Z"/>
    <path class="cls-6" d="M173.34,103.63c0-5.08-3.52-9.47-8.48-10.57l-37.26-8.29v34.39c0,5.12,3.59,9.55,8.6,10.6l37.13,7.8v-33.93Z"/>
    <path class="cls-1" d="M37.02,117.39v70.64c0,5.12,3.59,9.55,8.6,10.6l74.41,15.63c4.31,.9,8.36-2.38,8.36-6.78v-69.72c0-5.08-3.52-9.47-8.48-10.57l-74.46-16.56c-4.33-.96-8.44,2.33-8.44,6.77Z"/>
    <path class="cls-4" d="M128.39,137.76c0-5.08-3.52-9.47-8.48-10.57l-37.94-8.44v35.15c0,5.12,3.59,9.55,8.6,10.6l37.82,7.94v-34.69Z"/>
  </g>
</svg>