<?xml version="1.0" encoding="UTF-8"?>
<svg id="_图层_1" data-name="图层 1" xmlns="http://www.w3.org/2000/svg" viewBox="0 0 256 256">
  <defs>
    <style>
      .cls-1 {
        fill: #f4f4f4;
      }

      .cls-2 {
        fill: #19034f;
        opacity: .67;
      }
    </style>
  </defs>
  <rect class="cls-1" x="0" y="0" width="256" height="256" rx="50" ry="50"/>
  <path class="cls-2" d="M114.1,33.26c27.29,0,52.71,8.97,76.26,26.9,1.11,.74,2.15,1.58,3.1,2.52,12.08,12.1,6.27,38.7-12.38,66.4l2.37,2.37,35.34,35.03c2.3,2.29,2.66,5.89,.84,8.59-21.2,31.51-45.32,47.68-77.74,47.68-27.08,0-52.3-8.82-75.68-26.48-1.29-.79-2.48-1.73-3.55-2.79-12.08-12.1-6.26-38.71,12.39-66.41l-2.51-2.51-35.34-35.03c-2.31-2.28-2.68-5.89-.87-8.59,21.23-31.49,45.34-47.68,77.76-47.68h-.01Zm43.37,124.24c-21.62,21.63-45.53,36.08-64.72,40.7l-1.04-.42c48.91,19.98,84.58,12.56,112.37-24.23l1.08-1.48-31.26-31.01-.95-.92c-4.63,5.85-9.81,11.69-15.48,17.35h0Zm-77.99-22.34l-.69,1.11c-14.22,22.84-18.49,43.35-10.38,51.45,8.24,8.25,29.29,3.71,52.56-11.08-12.37,1.75-24.06-1.22-32.16-9.32-8.09-8.1-11.07-19.78-9.33-32.16h0Zm24.9-30.76c-18.8,18.79-22.47,44.51-9.81,57.16,12.65,12.66,38.37,8.99,57.16-9.81,18.8-18.79,22.47-44.51,9.81-57.16-12.65-12.66-38.37-8.99-57.16,9.81Zm30.75-24.88l1.15-.16c11.95-1.4,23.16,1.64,31.02,9.48,8.09,8.1,11.07,19.78,9.33,32.16,14.76-23.27,19.32-44.32,11.07-52.56-8.24-8.25-29.29-3.7-52.56,11.08h-.01Zm-83.21,2.94l-1.1,1.49,31.26,30.99,1.08,1.06c4.62-5.85,9.79-11.68,15.47-17.34,21.69-21.7,45.66-36.17,64.88-40.74l.76,.33c-48.9-19.98-84.56-12.57-112.35,24.22h-.01Z"/>
</svg>