<?xml version="1.0" encoding="UTF-8"?>
<svg id="_图层_1" data-name="图层 1" xmlns="http://www.w3.org/2000/svg" xmlns:xlink="http://www.w3.org/1999/xlink" viewBox="0 0 256 256">
  <defs>
    <style>
      .cls-1 {
        fill: #f4f4f4;
      }

      .cls-2 {
        fill: #fff;
      }

      .cls-3 {
        fill: url(#_未命名的渐变_20);
      }
    </style>
    <linearGradient id="_未命名的渐变_20" data-name="未命名的渐变 20" x1="62.68" y1="62.68" x2="210.54" y2="210.54" gradientUnits="userSpaceOnUse">
      <stop offset="0" stop-color="#ffca05"/>
      <stop offset=".2" stop-color="#f8803d"/>
      <stop offset=".55" stop-color="#d43fc5"/>
      <stop offset=".87" stop-color="#7264f4"/>
    </linearGradient>
  </defs>
  <rect class="cls-1" x="0" y="0" width="256" height="256" rx="50" ry="50"/>
  <g>
    <circle class="cls-2" cx="128.05" cy="128.33" r="74.84"/>
    <path class="cls-3" d="M128,35.61c51,0,92.39,41.39,92.39,92.39v58.76c0,18.57-15.06,33.63-33.63,33.63h-58.76c-51,0-92.39-41.39-92.39-92.39S77,35.61,128,35.61Zm0,20.97c-39.45,0-71.42,31.97-71.42,71.42,0,26.42,14.6,50.72,37.97,63.1l-.09-.09c33.63,16.82,73.45-10.53,71.42-46.2-1.85-31.41-39.91-39.91-46.2-33.63-1.57,1.57-1.94,4.34,.55,4.71,1.11-.18,2.13-.37,3.23-.46l.37-.09c.18-.09,.37,0,.65,0,17.37-.83,32.15,12.57,32.89,30.03,.83,17.37-12.57,32.15-30.03,32.89h-1.48c-14.69,0-44.07-8.41-44.07-41.95s29.38-48.32,50.45-48.32c29.38,0,54.6,23.1,54.6,65.14,0,2.49,3.6,7.11,7.11,2.31,1.94-4.62,3.42-9.52,4.34-14.51,.46-3.6,.92-7.95,1.2-13.03-.09-39.36-32.06-71.33-71.51-71.33h0Z"/>
  </g>
</svg>