<?xml version="1.0" encoding="UTF-8"?>
<svg id="_图层_1" data-name="图层 1" xmlns="http://www.w3.org/2000/svg" xmlns:xlink="http://www.w3.org/1999/xlink" viewBox="0 0 256 256">
  <defs>
    <style>
      .cls-1 {
        fill: url(#_未命名的渐变_3);
      }
    </style>
    <linearGradient id="_未命名的渐变_3" data-name="未命名的渐变 3" x1="46.64" y1="-161.56" x2="230.46" y2="-77.06" gradientTransform="translate(0 246)" gradientUnits="userSpaceOnUse">
      <stop offset="0" stop-color="#89e7d3"/>
      <stop offset=".02" stop-color="#84e1dc"/>
      <stop offset=".08" stop-color="#7fd4f1"/>
      <stop offset=".12" stop-color="#7bcff8"/>
      <stop offset=".36" stop-color="#6eb9f8"/>
      <stop offset=".85" stop-color="#4c80f5"/>
      <stop offset=".91" stop-color="#487ef5"/>
    </linearGradient>
  </defs>
  <rect x="0" y="0" width="256" height="256" rx="50" ry="50"/>
  <path class="cls-1" d="M190.3,59.91c-21.11-6.99-39.27,7.84-43.51,21.42,0,0-15.24,48.93-21.73,69.35-3.1,9.73-10.78,25.68-25.24,25.68-11.78,0-17.83-11.05-20.39-17.64l-17.56-46.81c-2.03-4.93,.09-14.77,8.25-17.71,8.71-3.13,14.32,4.16,15.77,8.03l21.87,56.03c5.21-6.72,8.53-17.65,10.69-25.39l-14.37-37.71c-6.81-17.6-24.82-25.59-41.5-19.45-13.52,4.98-26.52,22.03-19.45,43.47l18.12,46.61c2.75,7.07,13.62,30.13,38.18,30.13,29.48,0,40.54-25.13,46.68-45,3.07-9.94,19.9-63.67,19.9-63.67,2.44-8.03,12.38-10.34,18.59-8.31,4.38,1.42,12.29,7.46,9.73,16.83-.48,1.71-13.9,44.94-18.85,58.09-2.59,6.86-9.14,21.76-24.06,19.68-4.55,10.07-8.32,15.92-14.04,21.18,18.61,8.81,45.74-.06,57.16-34.57,4.24-12.83,19.14-59.1,19.14-59.1,4.33-14.21-3.4-34.51-23.4-41.13Z"/>
</svg>