<?xml version="1.0" encoding="UTF-8"?>
<svg id="_图层_1" data-name="图层 1" xmlns="http://www.w3.org/2000/svg" viewBox="0 0 256 256">
  <defs>
    <style>
      .cls-1 {
        fill: #f4f4f4;
      }

      .cls-2 {
        fill: #113ad1;
      }
    </style>
  </defs>
  <rect class="cls-1" x="0" y="0" width="256" height="256" rx="50" ry="50"/>
  <path class="cls-2" d="M173.02,212.32c-20.46,1.87-37.56-22.1-50.67-34.26-6.63,47.77-78.82,43.24-78.77-5.22,.02-20.35,0-70.1,0-89.81-.02-21.77,17.61-39.43,39.38-39.46,.05,0,.1,0,.16,0,20.53,.03,69.97-.02,89.91,0,48.51,0,53.11,72.16,5.18,78.66l22.75,22.72c24.99,23.5,6.24,68.4-27.93,67.36Zm-11.02-28.43c14.1,14.52,36.6-7.97,22.08-22.05l-39.44-39.38h-22.06v22.05l34.09,34.04,5.32,5.34Zm-94.55-11.03c-.32,20.18,31.55,20.26,31.23,0V83.03c-.08-8.68-7.18-15.64-15.86-15.56-1.4,.01-2.79,.21-4.13,.59-.42,.13-.81,.25-1.18,.39-6.13,2.37-10.14,8.3-10.06,14.87v89.54Zm105.57-74.26c20.26,.32,20.24-31.5,0-31.18h-53.56c4.07,8.57,3.03,21.91,3.11,31.18h50.45Z"/>
</svg>