<?xml version="1.0" encoding="UTF-8"?>
<svg id="_图层_1" data-name="图层 1" xmlns="http://www.w3.org/2000/svg" viewBox="0 0 256 256">
  <defs>
    <style>
      .cls-1 {
        fill: #f4f4f4;
      }

      .cls-2 {
        fill: #23af69;
      }

      .cls-3 {
        fill: #ea5e5d;
      }
    </style>
  </defs>
  <rect class="cls-1" x="0" y="0" width="256" height="256" rx="50" ry="50"/>
  <g>
    <g>
      <path class="cls-3" d="M84.35,176.8c-12.67,0-24.59-5.07-33.62-14.26-9.02-9.19-13.98-21.38-13.98-34.27s4.95-25.08,13.98-34.27c9.02-9.19,20.95-14.26,33.62-14.26s24.79,5.18,33.65,14.2c6.6,6.72,6.6,17.65,0,24.37-6.6,6.72-17.31,6.72-23.91,0-2.56-2.62-6.12-4.13-9.76-4.13-7.49,0-13.81,6.43-13.81,14.06s6.32,14.06,13.81,14.06c3.64,0,7.17-1.51,9.76-4.13,6.6-6.72,17.31-6.72,23.91,0s6.6,17.65,0,24.37c-8.85,9.02-21.12,14.2-33.65,14.2v.06Z"/>
      <path class="cls-3" d="M127.99,220.98c-12.67,0-24.59-5.07-33.62-14.26s-13.98-21.38-13.98-34.27,5.1-25.28,13.95-34.33c6.6-6.72,17.31-6.72,23.91,0s6.6,17.65,0,24.37c-2.56,2.62-4.04,6.23-4.04,9.93,0,7.63,6.32,14.06,13.81,14.06s13.81-6.43,13.81-14.06c0-2.7-.65-6.58-3.76-9.76-8.91-9.08-14-21.63-14-34.41s4.95-25.08,13.98-34.27c9.02-9.19,20.95-14.26,33.62-14.26s24.59,5.07,33.62,14.26c9.02,9.19,13.98,21.38,13.98,34.27s-5.1,25.28-13.95,34.33c-6.6,6.72-17.31,6.72-23.91,0s-6.6-17.65,0-24.37c2.56-2.62,4.04-6.23,4.04-9.93,0-7.63-6.32-14.06-13.81-14.06s-13.81,6.43-13.81,14.06c0,3.73,1.51,7.4,4.13,10.05,8.82,9,13.66,21.12,13.66,34.13s-4.95,25.08-13.98,34.27c-9.02,9.19-20.95,14.26-33.62,14.26h-.03Z"/>
    </g>
    <path class="cls-2" d="M127.99,85.37l-27.67-25.96c-4.27-3.99-4.47-10.67-.48-14.94,3.99-4.24,10.67-4.47,14.94-.48l11.07,10.39,15.74-19.44c3.67-4.53,10.33-5.24,14.86-1.57s5.24,10.33,1.57,14.86l-30.06,37.15h.03Z"/>
  </g>
</svg>