<?xml version="1.0" encoding="UTF-8"?>
<svg id="_图层_1" data-name="图层 1" xmlns="http://www.w3.org/2000/svg" viewBox="0 0 256 256">
  <defs>
    <style>
      .cls-1 {
        fill: #f4f4f4;
      }

      .cls-2 {
        fill: #fff;
      }

      .cls-3 {
        fill: #06fcf9;
      }

      .cls-4 {
        fill: #fd7b1e;
      }
    </style>
  </defs>
  <rect class="cls-1" x="0" y="0" width="256" height="256" rx="50" ry="50"/>
  <g>
    <path class="cls-3" d="M189.89,68.88c0-11.21-9.09-20.3-20.3-20.3H55.89c-11.21,0-20.3,9.09-20.3,20.3v103.9c0,7.28,8.85,10.88,13.93,5.67l21.71-22.24c3.82-3.91,9.06-6.12,14.53-6.12h83.82c11.21,0,20.3-9.09,20.3-20.3v-60.91Z"/>
    <path class="cls-4" d="M224.41,101.39c0-11.21-9.09-20.3-20.3-20.3H90.41c-11.21,0-20.3,9.09-20.3,20.3v103.9c0,7.28,8.85,10.88,13.93,5.67l21.71-22.24c3.82-3.91,9.06-6.12,14.53-6.12h83.82c11.21,0,20.3-9.09,20.3-20.3v-60.91Z"/>
    <path d="M208.15,87.19c0-13.46-10.91-24.36-24.36-24.36H78.22c-13.46,0-24.36,10.91-24.36,24.36v99.84c0,7.28,8.85,10.88,13.93,5.67l21.71-22.24c3.82-3.91,9.06-6.12,14.53-6.12h79.76c13.46,0,24.36-10.91,24.36-24.36v-52.79Z"/>
    <path class="cls-2" d="M193.96,93.23c0-8.97-7.27-16.24-16.24-16.24H84.33c-8.97,0-16.24,7.27-16.24,16.24v67.38c0,5.3,6.3,8.07,10.2,4.49l8.94-8.18c3.64-3.34,8.38-5.23,13.32-5.32l77.49-1.49c8.85-.17,15.93-7.39,15.93-16.24v-40.63Z"/>
    <rect x="116.8" y="93.26" width="18.27" height="38.58" rx="6.09" ry="6.09"/>
    <rect x="157.4" y="93.26" width="18.27" height="38.58" rx="6.09" ry="6.09"/>
  </g>
</svg>