<?xml version="1.0" encoding="UTF-8"?>
<svg id="_图层_1" data-name="图层 1" xmlns="http://www.w3.org/2000/svg" xmlns:xlink="http://www.w3.org/1999/xlink" viewBox="0 0 256 256">
  <defs>
    <style>
      .cls-1 {
        fill: url(#_未命名的渐变_51);
      }

      .cls-2 {
        opacity: .72;
      }

      .cls-3 {
        fill: url(#_未命名的渐变_52-10);
      }

      .cls-4 {
        fill: #fff;
      }

      .cls-5 {
        fill: url(#_未命名的渐变_52-9);
      }

      .cls-6 {
        fill: url(#_未命名的渐变_52-7);
      }

      .cls-7 {
        fill: url(#_未命名的渐变_51-2);
      }

      .cls-8 {
        fill: #f40b42;
      }

      .cls-9 {
        fill: url(#_未命名的渐变_49);
      }

      .cls-10 {
        fill: url(#_未命名的渐变_56);
      }

      .cls-11 {
        fill: url(#_未命名的渐变_52-8);
      }

      .cls-12 {
        fill: url(#_未命名的渐变_52-12);
      }

      .cls-13 {
        fill: url(#_未命名的渐变_52-5);
      }

      .cls-14 {
        fill: url(#_未命名的渐变_52-11);
      }

      .cls-15 {
        fill: url(#_未命名的渐变_52-4);
      }

      .cls-16 {
        fill: url(#_未命名的渐变_47);
      }

      .cls-17 {
        fill: url(#_未命名的渐变_52-2);
      }

      .cls-18 {
        fill: url(#_未命名的渐变_52-6);
      }

      .cls-19 {
        fill: url(#_未命名的渐变_52-3);
      }

      .cls-20 {
        fill: #222;
        isolation: isolate;
      }

      .cls-21 {
        fill: url(#_未命名的渐变_52);
      }

      .cls-22 {
        fill: url(#_未命名的渐变_46);
      }
    </style>
    <linearGradient id="_未命名的渐变_47" data-name="未命名的渐变 47" x1="144.5" y1="113.72" x2="166.64" y2="91.58" gradientUnits="userSpaceOnUse">
      <stop offset="0" stop-color="#fff" stop-opacity="0"/>
      <stop offset=".1" stop-color="#fff" stop-opacity=".06"/>
      <stop offset=".28" stop-color="#fff" stop-opacity=".22"/>
      <stop offset=".54" stop-color="#fff" stop-opacity=".48"/>
      <stop offset=".85" stop-color="#fff" stop-opacity=".83"/>
      <stop offset="1" stop-color="#fff"/>
    </linearGradient>
    <linearGradient id="_未命名的渐变_49" data-name="未命名的渐变 49" x1="137.54" y1="161.71" x2="184.34" y2="161.71" gradientUnits="userSpaceOnUse">
      <stop offset="0" stop-color="#fff" stop-opacity="0"/>
      <stop offset=".22" stop-color="#fff" stop-opacity=".29"/>
      <stop offset=".43" stop-color="#fff" stop-opacity=".54"/>
      <stop offset=".62" stop-color="#fff" stop-opacity=".74"/>
      <stop offset=".78" stop-color="#fff" stop-opacity=".88"/>
      <stop offset=".91" stop-color="#fff" stop-opacity=".97"/>
      <stop offset="1" stop-color="#fff"/>
    </linearGradient>
    <linearGradient id="_未命名的渐变_46" data-name="未命名的渐变 46" x1="78.24" y1="79.99" x2="78.24" y2="122.81" gradientUnits="userSpaceOnUse">
      <stop offset="0" stop-color="#fff"/>
      <stop offset=".15" stop-color="#fff" stop-opacity=".83"/>
      <stop offset=".46" stop-color="#fff" stop-opacity=".48"/>
      <stop offset=".72" stop-color="#fff" stop-opacity=".22"/>
      <stop offset=".9" stop-color="#fff" stop-opacity=".06"/>
      <stop offset="1" stop-color="#fff" stop-opacity="0"/>
    </linearGradient>
    <linearGradient id="_未命名的渐变_56" data-name="未命名的渐变 56" x1="90.25" y1="58.54" x2="90.25" y2="101.39" gradientUnits="userSpaceOnUse">
      <stop offset="0" stop-color="#fff"/>
      <stop offset=".09" stop-color="#fff" stop-opacity=".95"/>
      <stop offset=".25" stop-color="#fff" stop-opacity=".82"/>
      <stop offset=".46" stop-color="#fff" stop-opacity=".62"/>
      <stop offset=".72" stop-color="#fff" stop-opacity=".33"/>
      <stop offset="1" stop-color="#fff" stop-opacity="0"/>
    </linearGradient>
    <linearGradient id="_未命名的渐变_51" data-name="未命名的渐变 51" x1="96.67" y1="198.09" x2="123.58" y2="198.09" gradientUnits="userSpaceOnUse">
      <stop offset="0" stop-color="#fff" stop-opacity="0"/>
      <stop offset=".04" stop-color="#fff" stop-opacity=".06"/>
      <stop offset=".19" stop-color="#fff" stop-opacity=".31"/>
      <stop offset=".35" stop-color="#fff" stop-opacity=".52"/>
      <stop offset=".5" stop-color="#fff" stop-opacity=".69"/>
      <stop offset=".64" stop-color="#fff" stop-opacity=".83"/>
      <stop offset=".77" stop-color="#fff" stop-opacity=".92"/>
      <stop offset=".9" stop-color="#fff" stop-opacity=".98"/>
      <stop offset="1" stop-color="#fff"/>
    </linearGradient>
    <linearGradient id="_未命名的渐变_52" data-name="未命名的渐变 52" x1="157.99" y1="210.64" x2="198.74" y2="195.81" gradientUnits="userSpaceOnUse">
      <stop offset="0" stop-color="#f40b42"/>
      <stop offset=".1" stop-color="#f40b42" stop-opacity=".93"/>
      <stop offset=".31" stop-color="#f40b42" stop-opacity=".75"/>
      <stop offset=".6" stop-color="#f40b42" stop-opacity=".45"/>
      <stop offset=".96" stop-color="#f40b42" stop-opacity=".05"/>
      <stop offset="1" stop-color="#f40b42" stop-opacity="0"/>
    </linearGradient>
    <linearGradient id="_未命名的渐变_52-2" data-name="未命名的渐变 52" x1="157.98" y1="208.9" x2="197.05" y2="194.68" xlink:href="#_未命名的渐变_52"/>
    <linearGradient id="_未命名的渐变_52-3" data-name="未命名的渐变 52" x1="157.94" y1="207.15" x2="195.37" y2="193.53" xlink:href="#_未命名的渐变_52"/>
    <linearGradient id="_未命名的渐变_52-4" data-name="未命名的渐变 52" x1="157.93" y1="205.42" x2="193.6" y2="192.44" xlink:href="#_未命名的渐变_52"/>
    <linearGradient id="_未命名的渐变_52-5" data-name="未命名的渐变 52" x1="157.9" y1="203.7" x2="191.84" y2="191.35" xlink:href="#_未命名的渐变_52"/>
    <linearGradient id="_未命名的渐变_52-6" data-name="未命名的渐变 52" x1="157.91" y1="202.06" x2="190" y2="190.38" xlink:href="#_未命名的渐变_52"/>
    <linearGradient id="_未命名的渐变_52-7" data-name="未命名的渐变 52" x1="158.19" y1="201.34" x2="188.3" y2="190.38" xlink:href="#_未命名的渐变_52"/>
    <linearGradient id="_未命名的渐变_52-8" data-name="未命名的渐变 52" x1="158.51" y1="200.67" x2="186.51" y2="190.48" xlink:href="#_未命名的渐变_52"/>
    <linearGradient id="_未命名的渐变_52-9" data-name="未命名的渐变 52" x1="158.83" y1="199.95" x2="184.64" y2="190.55" xlink:href="#_未命名的渐变_52"/>
    <linearGradient id="_未命名的渐变_52-10" data-name="未命名的渐变 52" x1="158.98" y1="198.7" x2="182.78" y2="190.04" xlink:href="#_未命名的渐变_52"/>
    <linearGradient id="_未命名的渐变_52-11" data-name="未命名的渐变 52" x1="159.33" y1="197.91" x2="180.69" y2="190.14" xlink:href="#_未命名的渐变_52"/>
    <linearGradient id="_未命名的渐变_52-12" data-name="未命名的渐变 52" x1="159.65" y1="197.12" x2="178.61" y2="190.21" xlink:href="#_未命名的渐变_52"/>
    <linearGradient id="_未命名的渐变_51-2" data-name="未命名的渐变 51" x1="142.44" y1="202.85" x2="174.77" y2="170.52" xlink:href="#_未命名的渐变_51"/>
  </defs>
  <rect class="cls-20" x="0" y="0" width="256" height="256" rx="50" ry="50"/>
  <g>
    <path class="cls-4" d="M122.78,117.33h-5.68V46.82h-29.78c-3.44,0-6.24,2.8-6.24,6.24v28.85h-5.68v-28.85c0-6.57,5.35-11.92,11.92-11.92h35.46V117.33Z"/>
    <path class="cls-4" d="M174.66,68.5h-27.85c-5.07,0-9.2-4.13-9.2-9.2v-8.97c0-5.07,4.13-9.2,9.2-9.2h27.85c5.07,0,9.2,4.13,9.2,9.2v8.97c0,5.07-4.13,9.2-9.2,9.2Zm-27.85-21.68c-1.94,0-3.51,1.58-3.51,3.51v8.97c0,1.94,1.58,3.51,3.51,3.51h27.85c1.94,0,3.51-1.58,3.51-3.51v-8.97c0-1.94-1.58-3.51-3.51-3.51h-27.85Z"/>
    <path class="cls-4" d="M183.86,116.6h-14.52v-5.68h8.83v-28.26c0-1.37-1.11-2.48-2.48-2.48h-29.92c-4.5,0-8.17-3.66-8.17-8.17v-3.16h5.68v3.16c0,1.37,1.11,2.48,2.48,2.48h29.92c4.5,0,8.17,3.66,8.17,8.17v33.95Z"/>
    <path class="cls-16" d="M154.34,120.89l-4.45-3.54,12.36-15.51c1.81-2.27,1.43-5.59-.84-7.4-1.1-.88-2.47-1.27-3.87-1.11-1.4,.16-2.65,.85-3.52,1.95l-11.99,15.06-4.45-3.54,11.99-15.06c1.82-2.29,4.43-3.73,7.33-4.06,2.91-.33,5.77,.49,8.05,2.31,2.29,1.82,3.73,4.42,4.06,7.33,.33,2.91-.49,5.77-2.31,8.05l-12.36,15.51Z"/>
    <rect class="cls-4" x="102.8" y="58.32" width="5.44" height="43.34" transform="translate(-20.4 39.04) rotate(-19.15)"/>
    <rect class="cls-4" x="83.73" y="77.28" width="43.23" height="5.44" transform="translate(-4.21 154.12) rotate(-71.3)"/>
    <path class="cls-4" d="M76.42,210.77l-1.52-5.48c6.51-1.81,11.38-4.79,15.32-9.38,5.37-6.24,7.18-12.07,7.18-23.09v-40.98h26.08v5.68h-20.4v35.3c0,10.67-1.4,18.48-8.56,26.8-4.65,5.41-10.58,9.05-18.11,11.15Z"/>
    <rect class="cls-4" x="75.02" y="158.87" width="48.47" height="5.68"/>
    <rect class="cls-8" x="75.66" y="131.85" width="19.36" height="5.68"/>
    <rect class="cls-4" x="137.54" y="138.8" width="46.8" height="5.68"/>
    <rect class="cls-9" x="137.54" y="158.87" width="46.8" height="5.68"/>
    <rect class="cls-22" x="75.4" y="79.99" width="5.68" height="42.82"/>
    <rect class="cls-8" x="158.1" y="132.19" width="5.68" height="6.61"/>
    <path class="cls-4" d="M149.78,157.72h-.11c-5.7,0-9.14-4.12-9.29-4.29l2.2-1.8,2.18-1.82c.08,.09,1.89,2.17,4.78,2.23,.67-.07,4.65-.59,8.48-2.85,2.52-1.49,6.4-3.46,11.02-3.46,5.44,0,10.45,3.26,13.38,8.72l-5.01,2.69c-1.93-3.59-5.06-5.73-8.38-5.73-2.45,0-5.03,.85-8.13,2.68-5.35,3.16-10.79,3.62-11.02,3.64h-.11Z"/>
    <polygon class="cls-10" points="89.16 101.39 83.78 99.55 90.69 79.29 83.8 60.5 89.13 58.54 96.72 79.22 89.16 101.39"/>
    <rect class="cls-8" x="150.14" y="51.98" width="20.86" height="5.68"/>
    <rect class="cls-8" x="108.52" y="113.94" width="6.74" height="5.68"/>
    <path class="cls-1" d="M122.06,211.05c-17.2-4.74-25.07-22.92-25.39-23.69l5.23-2.22c.07,.16,7.16,16.43,21.67,20.43l-1.51,5.48Z"/>
    <g class="cls-2">
      <path class="cls-21" d="M160.99,218.86v-.52c18.27,0,33.03-14.3,33.6-32.55l.52,.02c-.28,8.89-3.95,17.2-10.34,23.41-6.4,6.22-14.85,9.64-23.78,9.64Z"/>
      <path class="cls-17" d="M160.99,217.18v-.52c17.6,0,31.93-14.32,31.93-31.93h.52c0,17.89-14.55,32.44-32.44,32.44Z"/>
      <path class="cls-19" d="M160.99,215.51v-.52c16.68,0,30.26-13.57,30.26-30.26,0-.39,0-.77-.02-1.15l.52-.02c.01,.39,.02,.78,.02,1.17,0,16.97-13.81,30.78-30.78,30.78Z"/>
      <path class="cls-15" d="M160.99,213.82v-.52c15.76,0,28.57-12.82,28.57-28.57,0-.73-.03-1.46-.08-2.18l.52-.04c.06,.73,.08,1.48,.08,2.22,0,16.04-13.05,29.09-29.09,29.09Z"/>
      <path class="cls-13" d="M160.99,212.18v-.52c14.85,0,26.93-12.08,26.93-26.93,0-1.08-.07-2.17-.19-3.24l.51-.06c.13,1.09,.2,2.2,.2,3.3,0,15.13-12.31,27.44-27.44,27.44Z"/>
      <path class="cls-18" d="M160.99,210.51v-.52c13.93,0,25.26-11.33,25.26-25.26,0-1.38-.11-2.76-.33-4.1l.51-.08c.22,1.37,.34,2.78,.34,4.18,0,14.21-11.56,25.78-25.78,25.78Z"/>
      <path class="cls-6" d="M160.99,209.01v-.52c13.1,0,23.76-10.66,23.76-23.76,0-1.08-.07-2.17-.22-3.24l.51-.07c.15,1.09,.22,2.2,.22,3.31,0,13.39-10.89,24.28-24.28,24.28Z"/>
      <path class="cls-11" d="M160.99,207.47v-.52c12.25,0,22.22-9.97,22.22-22.22,0-.72-.04-1.45-.1-2.17l.51-.05c.07,.73,.11,1.48,.11,2.22,0,12.53-10.2,22.73-22.73,22.73Z"/>
      <path class="cls-5" d="M160.99,205.88v-.52c11.37,0,20.63-9.25,20.63-20.63,0-.38-.01-.77-.03-1.15l.52-.03c.02,.39,.03,.78,.03,1.17,0,11.66-9.49,21.15-21.15,21.15Z"/>
      <path class="cls-3" d="M160.99,204.21v-.52c10.45,0,18.96-8.5,18.96-18.96,0-.38-.01-.77-.03-1.14l.52-.03c.02,.39,.03,.78,.03,1.17,0,10.74-8.74,19.48-19.48,19.48Z"/>
      <path class="cls-14" d="M160.99,202.47v-.52c9.5,0,17.22-7.73,17.22-17.22h.52c0,9.78-7.96,17.74-17.74,17.74Z"/>
      <path class="cls-12" d="M160.99,200.8v-.52c8.15,0,14.97-6.37,15.51-14.49l.52,.03c-.56,8.4-7.6,14.98-16.03,14.98Z"/>
    </g>
    <path class="cls-7" d="M160.97,211.93c-12.61,0-22.88-10.26-22.88-22.88s10.26-22.88,22.88-22.88,22.88,10.26,22.88,22.88h-5.68c0-9.48-7.71-17.19-17.19-17.19s-17.19,7.71-17.19,17.19,7.71,17.19,17.19,17.19v5.68Z"/>
    <path class="cls-4" d="M176.2,206.1l-3.77-4.21c1.24-1.11,2.32-2.39,3.18-3.8h-12.31l-2.82,.02c-4.85,0-8.8-3.95-8.8-8.8s3.95-8.8,8.8-8.8,8.8,3.95,8.8,8.8h-5.65c0-1.74-1.41-3.15-3.15-3.15s-3.15,1.41-3.15,3.15c0,1.61,1.22,2.95,2.79,3.13h.37s23.43,0,23.43,0l-1.2,3.7c-1.24,3.82-3.5,7.27-6.51,9.96Z"/>
  </g>
</svg>