<?xml version="1.0" encoding="UTF-8"?>
<svg id="_图层_1" data-name="图层 1" xmlns="http://www.w3.org/2000/svg" viewBox="0 0 256 256">
  <defs>
    <style>
      .cls-1 {
        fill: #f4f4f4;
      }

      .cls-2 {
        fill: #fff;
      }

      .cls-3 {
        fill: rgba(18, 150, 219, .85);
      }
    </style>
  </defs>
  <rect class="cls-1" x="0" y="0" width="256" height="256" rx="50" ry="50"/>
  <path class="cls-2" d="M203.39,145.58c-.42,2.69-2.02,4.63-5.19,4.52-3.15-.1-4.8-2.05-4.88-5.14-.08-2.68,2.5-5.03,5.18-4.95,2.74,.08,4.98,2.47,4.9,5.56Z"/>
  <path class="cls-3" d="M72.73,107.93c31.19-16.81,67.12-6.28,86.28,17.82,1.14-1.3,2.22-2.59,3.36-3.82,5.44-5.9,12.04-9.88,19.8-11.9,4.28-1.12,4.5-.91,4.08,3.48-.05,.52,0,1.04,0,1.69,2.98-1.03,5.8-2.06,8.66-2.98,2.06-.66,3.14-.04,2.82,2.35-.36,2.69-.77,5.39-.8,8.1-.01,1.02,.69,2.5,1.53,3.01,9.11,5.55,14.29,13.33,14.7,24.2,.07,1.83,1.1,3.71,2.01,5.4,2.44,4.56,1.95,9.8-2.4,12.67-3.61,2.39-7.94,3.8-12.1,5.24-3.98,1.38-8.23,2-12.21,3.4-7.72,2.73-11.16,7.72-9.79,15.79,1.03,6.01,3.38,11.83,5.45,17.62,1.4,3.9,1.46,4.19-2.84,4.27-18.36,.33-34.14-6.27-47.89-18.1-3.7-3.18-7.12-6.67-10.94-10.28-2.42,1.19-3.92,3.53-3.84,7.71s1.81,7.17,3.95,10.47c3.4,5.23,7.87,9.76,11.84,14.63,.78,.95,1.88,1.93,1.99,3.12-.6,.69-2.55,.95-3.82,.94-45.24-.12-85.14-34.46-92.05-79.16-8.03-51.94,24.9-99.32,76.59-108.64,34.04-6.14,63.2,4.47,87.07,29.48,3.66,3.83,3.7,8.88,.4,12.28-3.41,3.52-8.31,3.46-12.49-.17-39.06-33.96-98.47-20-118.03,27.73-.4,.99-.75,2-1.37,3.66Zm129.72,37.56c.06-2.52-1.76-4.46-3.99-4.53-2.18-.07-4.28,1.85-4.22,4.03,.07,2.51,1.41,4.1,3.98,4.19,2.59,.08,3.89-1.49,4.23-3.69Z"/>
</svg>